<?xml version="1.0" encoding="utf-8"?>
<!-- Generator: Adobe Illustrator 16.0.0, SVG Export Plug-In . SVG Version: 6.00 Build 0)  -->
<!DOCTYPE svg PUBLIC "-//W3C//DTD SVG 1.1//EN" "http://www.w3.org/Graphics/SVG/1.1/DTD/svg11.dtd">
<svg version="1.1" id="Layer_1" xmlns="http://www.w3.org/2000/svg" xmlns:xlink="http://www.w3.org/1999/xlink" x="0px" y="0px"
	 width="160px" height="100px" viewBox="0 0 160 100" enable-background="new 0 0 160 100" xml:space="preserve">
<g id="b" opacity="0.15">
	<g>
		<rect id="s" fill-opacity="0.152" width="10" height="10"/>
	</g>
	<g>
		<rect id="s_1_" x="10" fill-opacity="0.076" width="10" height="10"/>
	</g>
	<g>
		<rect id="s_2_" x="20" fill-opacity="0.228" width="10" height="10"/>
	</g>
	<g>
		<rect id="s_3_" x="30" fill-opacity="0.19" width="10" height="10"/>
	</g>
	<g>
		<rect id="s_4_" x="40" fill-opacity="0.076" width="10" height="10"/>
	</g>
	<g>
		<rect id="s_5_" x="50" fill-opacity="0.152" width="10" height="10"/>
	</g>
	<g>
		<rect id="s_6_" x="60" fill-opacity="0.266" width="10" height="10"/>
	</g>
	<g>
		<rect id="s_7_" y="10" fill-opacity="0.114" width="10" height="10"/>
	</g>
	<g>
		<rect id="s_8_" x="10" y="10" fill-opacity="0.152" width="10" height="10"/>
	</g>
	<g>
		<rect id="s_9_" x="20" y="10" fill-opacity="0.076" width="10" height="10"/>
	</g>
	<g>
		<rect id="s_10_" x="30" y="10" fill-opacity="0.228" width="10" height="10"/>
	</g>
	<g>
		<rect id="s_11_" x="40" y="10" fill-opacity="0.152" width="10" height="10"/>
	</g>
	<g>
		<rect id="s_12_" x="50" y="10" fill-opacity="0.114" width="10" height="10"/>
	</g>
	<g>
		<rect id="s_13_" x="60" y="10" fill-opacity="0.038" width="10" height="10"/>
	</g>
	<g>
		<rect id="s_14_" x="70" y="10" fill-opacity="0.152" width="10" height="10"/>
	</g>
	<g>
		<rect id="s_15_" y="20" fill-opacity="0.114" width="10" height="10"/>
	</g>
	<g>
		<rect id="s_16_" x="10" y="20" fill-opacity="0.076" width="10" height="10"/>
	</g>
	<g>
		<rect id="s_17_" x="20" y="20" fill-opacity="0.228" width="10" height="10"/>
	</g>
	<g>
		<rect id="s_18_" x="30" y="20" fill-opacity="0.076" width="10" height="10"/>
	</g>
	<g>
		<rect id="s_19_" x="40" y="20" fill-opacity="0.228" width="10" height="10"/>
	</g>
	<g>
		<rect id="s_20_" x="50" y="20" fill-opacity="0.152" width="10" height="10"/>
	</g>
	<g>
		<rect id="s_21_" x="60" y="20" fill-opacity="0.114" width="10" height="10"/>
	</g>
	<g>
		<rect id="s_22_" x="70" y="20" fill-opacity="0.266" width="10" height="10"/>
	</g>
	<g>
		<rect id="s_23_" y="30" fill-opacity="0.152" width="10" height="10"/>
	</g>
	<g>
		<rect id="s_24_" x="10" y="30" fill-opacity="0.114" width="10" height="10"/>
	</g>
	<g>
		<rect id="s_25_" x="20" y="30" fill-opacity="0.19" width="10" height="10"/>
	</g>
	<g>
		<rect id="s_26_" x="30" y="30" fill-opacity="0.114" width="10" height="10"/>
	</g>
	<g>
		<rect id="s_27_" x="50" y="30" fill-opacity="0.228" width="10" height="10"/>
	</g>
	<g>
		<rect id="s_28_" x="60" y="30" fill-opacity="0.038" width="10" height="10"/>
	</g>
	<g>
		<rect id="s_29_" x="70" y="30" fill-opacity="0.114" width="10" height="10"/>
	</g>
	<g>
		<rect id="s_30_" y="40" fill-opacity="0.038" width="10" height="10"/>
	</g>
	<g>
		<rect id="s_31_" x="10" y="40" fill-opacity="0.228" width="10" height="10"/>
	</g>
	<g>
		<rect id="s_32_" x="20" y="40" fill-opacity="0.114" width="10" height="10"/>
	</g>
	<g>
		<rect id="s_33_" x="30" y="40" fill-opacity="0.19" width="10" height="10"/>
	</g>
	<g>
		<rect id="s_34_" x="40" y="40" fill-opacity="0.076" width="10" height="10"/>
	</g>
	<g>
		<rect id="s_35_" x="60" y="40" fill-opacity="0.19" width="10" height="10"/>
	</g>
	<g>
		<rect id="s_36_" x="70" y="40" fill-opacity="0.076" width="10" height="10"/>
	</g>
</g>
<g opacity="0.15">
	<g id="b_1_">
		<g>
			<rect id="s_37_" x="70" y="50" fill-opacity="0.152" width="10" height="10"/>
		</g>
		<g>
			<rect id="s_38_" x="60" y="50" fill-opacity="0.076" width="10" height="10"/>
		</g>
		<g>
			<rect id="s_39_" x="50" y="50" fill-opacity="0.228" width="10" height="10"/>
		</g>
		<g>
			<rect id="s_40_" x="40" y="50" fill-opacity="0.19" width="10" height="10"/>
		</g>
		<g>
			<rect id="s_41_" x="30" y="50" fill-opacity="0.076" width="10" height="10"/>
		</g>
		<g>
			<rect id="s_42_" x="20" y="50" fill-opacity="0.152" width="10" height="10"/>
		</g>
		<g>
			<rect id="s_43_" x="10" y="50" fill-opacity="0.266" width="10" height="10"/>
		</g>
		<g>
			<rect id="s_44_" x="70" y="60" fill-opacity="0.114" width="10" height="10"/>
		</g>
		<g>
			<rect id="s_45_" x="60" y="60" fill-opacity="0.152" width="10" height="10"/>
		</g>
		<g>
			<rect id="s_46_" x="50" y="60" fill-opacity="0.076" width="10" height="10"/>
		</g>
		<g>
			<rect id="s_47_" x="40" y="60" fill-opacity="0.228" width="10" height="10"/>
		</g>
		<g>
			<rect id="s_48_" x="30" y="60" fill-opacity="0.152" width="10" height="10"/>
		</g>
		<g>
			<rect id="s_49_" x="20" y="60" fill-opacity="0.114" width="10" height="10"/>
		</g>
		<g>
			<rect id="s_50_" x="10" y="60" fill-opacity="0.038" width="10" height="10"/>
		</g>
		<g>
			<rect id="s_51_" y="60" fill-opacity="0.152" width="10" height="10"/>
		</g>
		<g>
			<rect id="s_52_" x="70" y="70" fill-opacity="0.114" width="10" height="10"/>
		</g>
		<g>
			<rect id="s_53_" x="60" y="70" fill-opacity="0.076" width="10" height="10"/>
		</g>
		<g>
			<rect id="s_54_" x="50" y="70" fill-opacity="0.228" width="10" height="10"/>
		</g>
		<g>
			<rect id="s_55_" x="40" y="70" fill-opacity="0.076" width="10" height="10"/>
		</g>
		<g>
			<rect id="s_56_" x="30" y="70" fill-opacity="0.228" width="10" height="10"/>
		</g>
		<g>
			<rect id="s_57_" x="20" y="70" fill-opacity="0.152" width="10" height="10"/>
		</g>
		<g>
			<rect id="s_58_" x="10" y="70" fill-opacity="0.114" width="10" height="10"/>
		</g>
		<g>
			<rect id="s_59_" y="70" fill-opacity="0.266" width="10" height="10"/>
		</g>
		<g>
			<rect id="s_60_" x="70" y="80" fill-opacity="0.152" width="10" height="10"/>
		</g>
		<g>
			<rect id="s_61_" x="60" y="80" fill-opacity="0.114" width="10" height="10"/>
		</g>
		<g>
			<rect id="s_62_" x="50" y="80" fill-opacity="0.19" width="10" height="10"/>
		</g>
		<g>
			<rect id="s_63_" x="40" y="80" fill-opacity="0.114" width="10" height="10"/>
		</g>
		<g>
			<rect id="s_64_" x="20" y="80" fill-opacity="0.228" width="10" height="10"/>
		</g>
		<g>
			<rect id="s_65_" x="10" y="80" fill-opacity="0.038" width="10" height="10"/>
		</g>
		<g>
			<rect id="s_66_" y="80" fill-opacity="0.114" width="10" height="10"/>
		</g>
		<g>
			<rect id="s_67_" x="70" y="90" fill-opacity="0.038" width="10" height="10"/>
		</g>
		<g>
			<rect id="s_68_" x="60" y="90" fill-opacity="0.228" width="10" height="10"/>
		</g>
		<g>
			<rect id="s_69_" x="50" y="90" fill-opacity="0.114" width="10" height="10"/>
		</g>
		<g>
			<rect id="s_70_" x="40" y="90" fill-opacity="0.19" width="10" height="10"/>
		</g>
		<g>
			<rect id="s_71_" x="30" y="90" fill-opacity="0.076" width="10" height="10"/>
		</g>
		<g>
			<rect id="s_72_" x="10" y="90" fill-opacity="0.19" width="10" height="10"/>
		</g>
	</g>
	<g>
		<g id="b_2_">
			<g>
				<rect id="s_74_" x="150" y="60" fill-opacity="0.152" width="10" height="10"/>
			</g>
			<g>
				<rect id="s_75_" x="140" y="60" fill-opacity="0.076" width="10" height="10"/>
			</g>
			<g>
				<rect id="s_76_" x="130" y="60" fill-opacity="0.228" width="10" height="10"/>
			</g>
			<g>
				<rect id="s_77_" x="120" y="60" fill-opacity="0.19" width="10" height="10"/>
			</g>
			<g>
				<rect id="s_78_" x="110" y="60" fill-opacity="0.076" width="10" height="10"/>
			</g>
			<g>
				<rect id="s_79_" x="100" y="60" fill-opacity="0.152" width="10" height="10"/>
			</g>
			<g>
				<rect id="s_80_" x="90" y="60" fill-opacity="0.266" width="10" height="10"/>
			</g>
			<g>
				<rect id="s_81_" x="150" y="50" fill-opacity="0.114" width="10" height="10"/>
			</g>
			<g>
				<rect id="s_82_" x="140" y="50" fill-opacity="0.152" width="10" height="10"/>
			</g>
			<g>
				<rect id="s_83_" x="130" y="50" fill-opacity="0.076" width="10" height="10"/>
			</g>
			<g>
				<rect id="s_84_" x="120" y="50" fill-opacity="0.228" width="10" height="10"/>
			</g>
			<g>
				<rect id="s_85_" x="110" y="50" fill-opacity="0.152" width="10" height="10"/>
			</g>
			<g>
				<rect id="s_86_" x="100" y="50" fill-opacity="0.114" width="10" height="10"/>
			</g>
			<g>
				<rect id="s_87_" x="90" y="50" fill-opacity="0.038" width="10" height="10"/>
			</g>
			<g>
				<rect id="s_88_" x="80" y="50" fill-opacity="0.152" width="10" height="10"/>
			</g>
			<g>
				<rect id="s_89_" x="150" y="40" fill-opacity="0.114" width="10" height="10"/>
			</g>
			<g>
				<rect id="s_90_" x="140" y="40" fill-opacity="0.076" width="10" height="10"/>
			</g>
			<g>
				<rect id="s_91_" x="130" y="40" fill-opacity="0.228" width="10" height="10"/>
			</g>
			<g>
				<rect id="s_92_" x="120" y="40" fill-opacity="0.076" width="10" height="10"/>
			</g>
			<g>
				<rect id="s_93_" x="110" y="40" fill-opacity="0.228" width="10" height="10"/>
			</g>
			<g>
				<rect id="s_94_" x="100" y="40" fill-opacity="0.152" width="10" height="10"/>
			</g>
			<g>
				<rect id="s_95_" x="90" y="40" fill-opacity="0.114" width="10" height="10"/>
			</g>
			<g>
				<rect id="s_96_" x="80" y="40" fill-opacity="0.266" width="10" height="10"/>
			</g>
			<g>
				<rect id="s_97_" x="150" y="30" fill-opacity="0.152" width="10" height="10"/>
			</g>
			<g>
				<rect id="s_98_" x="140" y="30" fill-opacity="0.114" width="10" height="10"/>
			</g>
			<g>
				<rect id="s_99_" x="130" y="30" fill-opacity="0.19" width="10" height="10"/>
			</g>
			<g>
				<rect id="s_100_" x="120" y="30" fill-opacity="0.114" width="10" height="10"/>
			</g>
			<g>
				<rect id="s_101_" x="100" y="30" fill-opacity="0.228" width="10" height="10"/>
			</g>
			<g>
				<rect id="s_102_" x="90" y="30" fill-opacity="0.038" width="10" height="10"/>
			</g>
			<g>
				<rect id="s_103_" x="80" y="30" fill-opacity="0.114" width="10" height="10"/>
			</g>
			<g>
				<rect id="s_104_" x="150" y="20" fill-opacity="0.038" width="10" height="10"/>
			</g>
			<g>
				<rect id="s_105_" x="140" y="20" fill-opacity="0.228" width="10" height="10"/>
			</g>
			<g>
				<rect id="s_106_" x="130" y="20" fill-opacity="0.114" width="10" height="10"/>
			</g>
			<g>
				<rect id="s_107_" x="120" y="20" fill-opacity="0.19" width="10" height="10"/>
			</g>
			<g>
				<rect id="s_108_" x="110" y="20" fill-opacity="0.076" width="10" height="10"/>
			</g>
			<g>
				<rect id="s_109_" x="90" y="20" fill-opacity="0.19" width="10" height="10"/>
			</g>
		</g>
		<g>
			<g id="b_3_">
				<g>
					<rect id="s_126_" x="80" y="90" fill-opacity="0.114" width="10" height="10"/>
				</g>
				<g>
					<rect id="s_127_" x="90" y="90" fill-opacity="0.076" width="10" height="10"/>
				</g>
				<g>
					<rect id="s_128_" x="100" y="90" fill-opacity="0.228" width="10" height="10"/>
				</g>
				<g>
					<rect id="s_129_" x="110" y="90" fill-opacity="0.076" width="10" height="10"/>
				</g>
				<g>
					<rect id="s_130_" x="120" y="90" fill-opacity="0.228" width="10" height="10"/>
				</g>
				<g>
					<rect id="s_131_" x="130" y="90" fill-opacity="0.152" width="10" height="10"/>
				</g>
				<g>
					<rect id="s_132_" x="140" y="90" fill-opacity="0.114" width="10" height="10"/>
				</g>
				<g>
					<rect id="s_133_" x="150" y="90" fill-opacity="0.266" width="10" height="10"/>
				</g>
				<g>
					<rect id="s_134_" x="80" y="80" fill-opacity="0.152" width="10" height="10"/>
				</g>
				<g>
					<rect id="s_135_" x="90" y="80" fill-opacity="0.114" width="10" height="10"/>
				</g>
				<g>
					<rect id="s_136_" x="100" y="80" fill-opacity="0.19" width="10" height="10"/>
				</g>
				<g>
					<rect id="s_137_" x="110" y="80" fill-opacity="0.114" width="10" height="10"/>
				</g>
				<g>
					<rect id="s_138_" x="130" y="80" fill-opacity="0.228" width="10" height="10"/>
				</g>
				<g>
					<rect id="s_139_" x="140" y="80" fill-opacity="0.038" width="10" height="10"/>
				</g>
				<g>
					<rect id="s_140_" x="150" y="80" fill-opacity="0.114" width="10" height="10"/>
				</g>
				<g>
					<rect id="s_141_" x="80" y="70" fill-opacity="0.038" width="10" height="10"/>
				</g>
				<g>
					<rect id="s_142_" x="90" y="70" fill-opacity="0.228" width="10" height="10"/>
				</g>
				<g>
					<rect id="s_143_" x="100" y="70" fill-opacity="0.114" width="10" height="10"/>
				</g>
				<g>
					<rect id="s_144_" x="110" y="70" fill-opacity="0.19" width="10" height="10"/>
				</g>
				<g>
					<rect id="s_145_" x="120" y="70" fill-opacity="0.076" width="10" height="10"/>
				</g>
				<g>
					<rect id="s_146_" x="140" y="70" fill-opacity="0.19" width="10" height="10"/>
				</g>
			</g>
			<g>
				<g id="b_4_">
					<g>
						<rect id="s_148_" x="80" y="10" fill-opacity="0.152" width="10" height="10"/>
					</g>
					<g>
						<rect id="s_149_" x="90" y="10" fill-opacity="0.076" width="10" height="10"/>
					</g>
					<g>
						<rect id="s_150_" x="100" y="10" fill-opacity="0.228" width="10" height="10"/>
					</g>
					<g>
						<rect id="s_151_" x="110" y="10" fill-opacity="0.19" width="10" height="10"/>
					</g>
					<g>
						<rect id="s_152_" x="120" y="10" fill-opacity="0.076" width="10" height="10"/>
					</g>
					<g>
						<rect id="s_153_" x="130" y="10" fill-opacity="0.152" width="10" height="10"/>
					</g>
					<g>
						<rect id="s_154_" x="140" y="10" fill-opacity="0.266" width="10" height="10"/>
					</g>
					<g>
						<rect id="s_155_" x="80" fill-opacity="0.114" width="10" height="10"/>
					</g>
					<g>
						<rect id="s_156_" x="90" fill-opacity="0.152" width="10" height="10"/>
					</g>
					<g>
						<rect id="s_157_" x="100" fill-opacity="0.076" width="10" height="10"/>
					</g>
					<g>
						<rect id="s_158_" x="110" fill-opacity="0.228" width="10" height="10"/>
					</g>
					<g>
						<rect id="s_159_" x="120" fill-opacity="0.152" width="10" height="10"/>
					</g>
					<g>
						<rect id="s_160_" x="130" fill-opacity="0.114" width="10" height="10"/>
					</g>
					<g>
						<rect id="s_161_" x="140" fill-opacity="0.038" width="10" height="10"/>
					</g>
					<g>
						<rect id="s_162_" x="150" fill-opacity="0.152" width="10" height="10"/>
					</g>
				</g>
			</g>
		</g>
	</g>
</g>
</svg>
