<?xml version="1.0" encoding="utf-8"?>
<!-- Generator: Adobe Illustrator 16.0.0, SVG Export Plug-In . SVG Version: 6.00 Build 0)  -->
<!DOCTYPE svg PUBLIC "-//W3C//DTD SVG 1.1//EN" "http://www.w3.org/Graphics/SVG/1.1/DTD/svg11.dtd">
<svg version="1.1" id="Layer_1" xmlns="http://www.w3.org/2000/svg" xmlns:xlink="http://www.w3.org/1999/xlink" x="0px" y="0px"
	 width="44px" height="44px" viewBox="93.5 -12 44 44" enable-background="new 93.5 -12 44 44" xml:space="preserve">
<g opacity="0.05">
	<polygon fill="#222222" points="144.414,-1.916 100.414,-45.916 96.414,-49.916 52.414,-93.916 51,-92.5 49.586,-91.083 
		93.586,-47.083 97.586,-43.083 141.586,0.917 145.586,4.917 189.586,48.914 191,47.5 192.414,46.086 148.414,2.084 	"/>
	<polygon fill="#222222" points="144.414,9.084 100.414,-34.916 96.414,-38.916 52.414,-82.916 51,-81.5 49.586,-80.083 
		93.586,-36.083 97.586,-32.083 141.586,11.916 145.586,15.916 189.586,59.914 191,58.5 192.414,57.086 148.414,13.084 	"/>
	<polygon fill="#222222" points="136.414,34.086 92.414,-9.916 88.414,-13.916 44.414,-57.916 43,-56.5 41.586,-55.083 
		85.586,-11.083 89.586,-7.083 133.586,36.914 137.586,40.914 181.586,84.914 183,83.5 184.414,82.086 140.414,38.086 	"/>
	<polygon fill="#222222" points="136.414,45.086 92.414,1.086 88.414,-2.914 44.414,-46.916 43,-45.5 41.586,-44.083 85.586,-0.086 
		89.586,3.914 133.586,47.914 137.586,51.914 181.586,95.914 183,94.5 184.414,93.086 140.414,49.086 	"/>
	<polygon fill="#222222" points="148.414,24.086 144.414,20.086 140.414,16.086 136.414,12.086 100.414,-23.916 96.414,-27.916 
		92.414,-31.916 52.414,-71.916 51,-70.5 49.586,-69.083 89.586,-29.083 93.586,-25.083 97.586,-21.083 133.586,14.914 
		137.586,18.914 141.586,22.914 145.586,26.914 181.586,62.914 189.586,70.914 191,69.5 192.414,68.086 184.414,60.086 	"/>
	<polygon fill="#222222" points="140.414,27.086 136.414,23.086 100.414,-12.916 96.414,-16.916 92.414,-20.916 88.414,-24.916 
		52.414,-60.916 44.414,-68.916 43,-67.5 41.586,-66.083 49.586,-58.083 85.586,-22.083 89.586,-18.083 93.586,-14.083 
		97.586,-10.083 133.586,25.914 137.586,29.914 141.586,33.914 181.586,73.914 183,72.5 184.414,71.086 144.414,31.086 	"/>
	<polygon fill="#222222" points="136.414,56.086 92.414,12.086 88.414,8.086 44.414,-35.916 43,-34.5 41.586,-33.083 85.586,10.914 
		89.586,14.914 133.586,58.914 137.586,62.914 181.586,106.914 183,105.5 184.414,104.086 140.414,60.086 	"/>
	<polygon fill="#222222" points="136.414,67.086 92.414,23.086 88.414,19.086 44.414,-24.916 43,-23.5 41.586,-22.083 
		85.586,21.914 89.586,25.914 133.586,69.914 137.586,73.914 181.586,117.914 183,116.5 184.414,115.086 140.414,71.086 	"/>
</g>
</svg>
