<?xml version="1.0" encoding="utf-8"?>
<!-- Generator: Adobe Illustrator 16.0.0, SVG Export Plug-In . SVG Version: 6.00 Build 0)  -->
<!DOCTYPE svg PUBLIC "-//W3C//DTD SVG 1.1//EN" "http://www.w3.org/Graphics/SVG/1.1/DTD/svg11.dtd">
<svg version="1.1" id="Layer_1" xmlns="http://www.w3.org/2000/svg" xmlns:xlink="http://www.w3.org/1999/xlink" x="0px" y="0px"
	 width="212px" height="200.39px" viewBox="0 -142.39 212 200.39" enable-background="new 0 -142.39 212 200.39"
	 xml:space="preserve">
<g>
	<g opacity="0.25">
		<circle opacity="0.3" fill="#737373" enable-background="new    " cx="105.999" cy="-38.333" r="10.927"/>
		<path opacity="0.5" fill="#444444" enable-background="new    " d="M105.999-27.281c-6.095,0-11.053-4.958-11.053-11.053
			s4.958-11.053,11.053-11.053c6.096,0,11.053,4.958,11.053,11.053S112.095-27.281,105.999-27.281z M105.999-49.137
			c-5.957,0-10.803,4.846-10.803,10.803s4.846,10.803,10.803,10.803s10.803-4.846,10.803-10.803S111.955-49.137,105.999-49.137z"/>
	</g>
	<g opacity="0.25">
		<circle opacity="0.3" fill="#737373" enable-background="new    " cx="105.999" cy="-38.333" r="21.855"/>
		<path opacity="0.5" fill="#444444" enable-background="new    " d="M105.999-16.354c-12.12,0-21.98-9.859-21.98-21.98
			c0-12.12,9.86-21.979,21.98-21.979c12.121,0,21.98,9.859,21.98,21.979C127.979-26.213,118.119-16.354,105.999-16.354z
			 M105.999-60.064c-11.982,0-21.73,9.748-21.73,21.73c0,11.981,9.748,21.729,21.73,21.729c11.982,0,21.73-9.748,21.73-21.729
			S117.981-60.064,105.999-60.064z"/>
	</g>
	<g opacity="0.25">
		<circle opacity="0.3" fill="#737373" enable-background="new    " cx="105.999" cy="-38.333" r="32.783"/>
		<path opacity="0.5" fill="#444444" enable-background="new    " d="M105.999-5.426c-18.146,0-32.908-14.763-32.908-32.908
			c0-18.145,14.762-32.907,32.908-32.907c18.146,0,32.909,14.762,32.909,32.907C138.908-20.188,124.146-5.426,105.999-5.426z
			 M105.999-70.991c-18.008,0-32.658,14.649-32.658,32.657c0,18.009,14.65,32.658,32.658,32.658s32.659-14.649,32.659-32.658
			C138.657-56.342,124.007-70.991,105.999-70.991z"/>
	</g>
	<g opacity="0.25">
		<circle opacity="0.3" fill="#737373" enable-background="new    " cx="105.999" cy="-38.334" r="43.711"/>
		<path opacity="0.5" fill="#444444" enable-background="new    " d="M105.999,5.502c-24.171,0-43.836-19.666-43.836-43.836
			c0-24.172,19.664-43.836,43.836-43.836s43.836,19.665,43.836,43.836C149.835-14.164,130.17,5.502,105.999,5.502z M105.999-81.92
			c-24.033,0-43.586,19.553-43.586,43.586S81.965,5.252,105.999,5.252s43.586-19.553,43.586-43.586S130.032-81.92,105.999-81.92z"/>
	</g>
	<g opacity="0.25">
		<circle opacity="0.3" fill="#737373" enable-background="new    " cx="105.999" cy="-38.333" r="54.638"/>
		<path opacity="0.5" fill="#444444" enable-background="new    " d="M105.999,16.43c-30.197,0-54.764-24.566-54.764-54.764
			c0-30.196,24.567-54.764,54.764-54.764c30.197,0,54.764,24.567,54.764,54.764C160.763-8.137,136.194,16.43,105.999,16.43z
			 M105.999-92.848c-30.059,0-54.514,24.455-54.514,54.514c0,30.058,24.454,54.514,54.514,54.514
			c30.061,0,54.514-24.455,54.514-54.514C160.513-68.394,136.058-92.848,105.999-92.848z"/>
	</g>
	<g opacity="0.25">
		<circle opacity="0.3" fill="#737373" enable-background="new    " cx="105.999" cy="-38.333" r="65.566"/>
		<path opacity="0.5" fill="#444444" enable-background="new    " d="M105.999,27.357c-36.221,0-65.689-29.469-65.689-65.691
			c0-36.222,29.468-65.69,65.689-65.69c36.223,0,65.691,29.469,65.691,65.69C171.69-2.111,142.222,27.357,105.999,27.357z
			 M105.999-103.774c-36.083,0-65.439,29.355-65.439,65.44C40.559-2.25,69.915,27.107,105.999,27.107S171.44-2.248,171.44-38.334
			C171.44-74.419,142.083-103.774,105.999-103.774z"/>
	</g>
	<g opacity="0.25">
		<circle opacity="0.3" fill="#737373" enable-background="new    " cx="105.999" cy="-38.334" r="76.494"/>
		<path opacity="0.5" fill="#444444" enable-background="new    " d="M105.999,38.285c-20.465,0-39.706-7.97-54.178-22.44
			C37.349,1.373,29.379-17.868,29.379-38.334s7.97-39.707,22.441-54.178c14.472-14.471,33.713-22.441,54.179-22.441
			s39.707,7.971,54.178,22.441c14.473,14.471,22.441,33.712,22.441,54.178s-7.971,39.705-22.441,54.178
			C145.706,30.315,126.464,38.285,105.999,38.285z M105.999-114.703c-42.11,0-76.369,34.26-76.369,76.369
			c0,42.11,34.259,76.369,76.369,76.369c42.111,0,76.37-34.259,76.37-76.369C182.368-80.443,148.108-114.703,105.999-114.703z"/>
	</g>
	<g opacity="0.25">
		<circle opacity="0.3" fill="#737373" enable-background="new    " cx="105.999" cy="-38.334" r="87.422"/>
		<path opacity="0.5" fill="#444444" enable-background="new    " d="M105.999,49.213c-23.384,0-45.369-9.106-61.904-25.643
			C27.56,7.035,18.454-14.949,18.454-38.334s9.106-45.37,25.641-61.904c16.535-16.536,38.519-25.643,61.904-25.643
			s45.37,9.106,61.904,25.643c16.537,16.534,25.644,38.52,25.644,61.904S184.44,7.035,167.903,23.57
			C151.368,40.106,129.383,49.213,105.999,49.213z M105.999-125.631c-48.135,0-87.295,39.161-87.295,87.297
			s39.16,87.297,87.295,87.297c48.137,0,87.297-39.161,87.297-87.297S154.136-125.631,105.999-125.631z"/>
	</g>
	<g opacity="0.25">
		<circle opacity="0.3" fill="#737373" enable-background="new    " cx="105.999" cy="-38.333" r="98.349"/>
		<path opacity="0.5" fill="#444444" enable-background="new    " d="M105.999,60.141c-26.303,0-51.032-10.243-69.631-28.844
			C17.769,12.697,7.526-12.03,7.526-38.334s10.243-51.032,28.842-69.632c18.599-18.6,43.327-28.843,69.631-28.843
			c26.305,0,51.033,10.243,69.632,28.843c18.599,18.601,28.843,43.328,28.843,69.632s-10.242,51.031-28.843,69.631
			C157.031,49.897,132.302,60.141,105.999,60.141z M105.999-136.559c-54.16,0-98.223,44.063-98.223,98.225
			c0,54.16,44.062,98.225,98.223,98.225c54.162,0,98.225-44.063,98.225-98.225C204.224-92.497,160.16-136.559,105.999-136.559z"/>
	</g>
	<g opacity="0.25">
		<circle opacity="0.3" fill="#737373" enable-background="new    " cx="105.999" cy="-38.333" r="109.277"/>
		<path opacity="0.5" fill="#444444" enable-background="new    " d="M105.999,71.068c-29.222,0-56.695-11.38-77.359-32.043
			C7.976,18.361-3.404-9.112-3.404-38.334c0-29.223,11.38-56.694,32.044-77.358s48.136-32.043,77.359-32.043
			c29.223,0,56.695,11.38,77.359,32.043c20.664,20.664,32.043,48.137,32.043,77.358c0,29.221-11.379,56.694-32.043,77.358
			S135.222,71.068,105.999,71.068z M105.999-147.485c-60.187,0-109.153,48.965-109.153,109.151
			c0,60.186,48.966,109.152,109.153,109.152c60.188,0,109.152-48.966,109.152-109.152
			C215.151-98.521,166.187-147.485,105.999-147.485z"/>
	</g>
	<g opacity="0.25">
		<circle opacity="0.2" fill="#555555" enable-background="new    " cx="105.999" cy="-87.271" r="43.711"/>
		<path opacity="0.5" fill="#444444" enable-background="new    " d="M105.999-43.436c-24.171,0-43.836-19.665-43.836-43.835
			c0-24.171,19.665-43.836,43.836-43.836s43.836,19.665,43.836,43.836C149.835-63.101,130.17-43.436,105.999-43.436z
			 M105.999-130.857c-24.033,0-43.586,19.553-43.586,43.586s19.552,43.586,43.586,43.586s43.586-19.552,43.586-43.585
			S130.032-130.857,105.999-130.857z"/>
	</g>
	<g opacity="0.25">
		<circle opacity="0.2" fill="#555555" enable-background="new    " cx="105.999" cy="-87.272" r="65.565"/>
		<path opacity="0.5" fill="#444444" enable-background="new    " d="M105.999-21.582c-36.221,0-65.689-29.469-65.689-65.689
			c-0.001-36.222,29.467-65.691,65.689-65.691c36.223,0,65.691,29.47,65.691,65.691S142.222-21.582,105.999-21.582z
			 M105.999-152.713c-36.083,0-65.439,29.357-65.439,65.441c-0.001,36.083,29.355,65.439,65.439,65.439s65.441-29.356,65.441-65.439
			C171.44-123.355,142.083-152.713,105.999-152.713z"/>
	</g>
	<g opacity="0.25">
		<circle opacity="0.2" fill="#555555" enable-background="new    " cx="105.999" cy="-87.272" r="87.421"/>
		<path opacity="0.5" fill="#444444" enable-background="new    " d="M105.999,0.273c-23.384,0-45.369-9.105-61.904-25.641
			C27.56-41.902,18.454-63.887,18.454-87.271s9.106-45.369,25.641-61.905c16.535-16.536,38.52-25.642,61.904-25.642
			s45.37,9.105,61.904,25.642c16.537,16.536,25.644,38.521,25.644,61.905s-9.106,45.369-25.644,61.904
			C151.368-8.834,129.383,0.273,105.999,0.273z M105.999-174.567c-48.135,0-87.295,39.161-87.295,87.297
			c0,48.134,39.16,87.294,87.295,87.294c48.137,0,87.297-39.16,87.297-87.294C193.296-135.406,154.136-174.567,105.999-174.567z"/>
	</g>
	<g opacity="0.25">
		<circle opacity="0.2" fill="#555555" enable-background="new    " cx="105.999" cy="-87.271" r="109.277"/>
		<path opacity="0.5" fill="#444444" enable-background="new    " d="M105.999,22.131c-29.222,0-56.695-11.381-77.359-32.043
			C7.976-30.576-3.404-58.05-3.404-87.271s11.38-56.695,32.043-77.359s48.137-32.043,77.36-32.043
			c29.223,0,56.695,11.38,77.359,32.043c20.664,20.664,32.043,48.138,32.043,77.359s-11.379,56.695-32.043,77.359
			C162.694,10.75,135.222,22.131,105.999,22.131z M105.999-196.424c-60.187,0-109.152,48.965-109.152,109.152
			S45.812,21.881,105.999,21.881c60.188,0,109.152-48.965,109.152-109.152S166.187-196.424,105.999-196.424z"/>
	</g>
	<g opacity="0.25">
		<circle opacity="0.2" fill="#555555" enable-background="new    " cx="105.999" cy="-87.272" r="131.132"/>
		<path opacity="0.5" fill="#444444" enable-background="new    " d="M105.999,43.984c-17.72,0-34.909-3.471-51.091-10.314
			c-15.63-6.609-29.667-16.073-41.721-28.129C1.132-6.512-8.332-20.549-14.942-36.18c-6.845-16.182-10.315-33.372-10.315-51.091
			s3.47-34.909,10.315-51.091c6.611-15.63,16.075-29.667,28.129-41.723c12.054-12.055,26.091-21.519,41.721-28.13
			c16.182-6.844,33.372-10.314,51.091-10.314s34.91,3.471,51.091,10.314c15.63,6.611,29.668,16.075,41.722,28.13
			c12.056,12.056,21.521,26.093,28.131,41.723c6.845,16.182,10.314,33.372,10.314,51.091c0,17.72-3.471,34.909-10.314,51.091
			c-6.61,15.631-16.075,29.668-28.131,41.721c-12.054,12.056-26.092,21.52-41.722,28.129
			C140.908,40.514,123.718,43.984,105.999,43.984z M105.999-218.278c-72.237,0-131.006,58.77-131.006,131.008
			c0,72.237,58.769,131.005,131.006,131.005c72.238,0,131.008-58.769,131.008-131.005
			C237.007-159.509,178.235-218.278,105.999-218.278z"/>
	</g>
	<g opacity="0.25">
		<circle opacity="0.2" fill="#555555" enable-background="new    " cx="105.999" cy="-87.272" r="152.987"/>
		<path opacity="0.5" fill="#444444" enable-background="new    " d="M105.999,65.84c-20.67,0-40.722-4.049-59.598-12.032
			C28.169,46.096,11.795,35.056-2.267,20.994C-16.329,6.934-27.369-9.441-35.081-27.674c-7.984-18.876-12.032-38.927-12.032-59.597
			s4.048-40.722,12.032-59.6c7.712-18.232,18.751-34.606,32.813-48.669c14.062-14.062,30.436-25.102,48.668-32.813
			c18.876-7.984,38.928-12.032,59.598-12.032s40.722,4.048,59.599,12.032c18.232,7.712,34.606,18.752,48.668,32.813
			c14.063,14.063,25.104,30.438,32.814,48.669c7.982,18.877,12.031,38.93,12.031,59.6s-4.049,40.721-12.031,59.597
			c-7.712,18.232-18.752,34.607-32.814,48.67c-14.062,14.061-30.436,25.101-48.668,32.813
			C146.722,61.791,126.669,65.84,105.999,65.84z M105.999-240.135c-84.288,0-152.861,68.574-152.861,152.863
			c0,84.288,68.573,152.861,152.861,152.861c84.29,0,152.864-68.573,152.864-152.861
			C258.862-171.561,190.288-240.135,105.999-240.135z"/>
	</g>
	<g opacity="0.25">
		<circle opacity="0.2" fill="#555555" enable-background="new    " cx="105.999" cy="-87.271" r="174.842"/>
		<path opacity="0.5" fill="#444444" enable-background="new    " d="M105.999,87.695c-23.621,0-46.534-4.626-68.105-13.75
			C17.059,65.134-1.653,52.518-17.722,36.449C-33.791,20.381-46.406,1.67-55.218-19.166c-9.124-21.57-13.75-44.484-13.75-68.105
			c0-23.62,4.626-46.534,13.75-68.105c8.812-20.835,21.428-39.547,37.497-55.615c16.069-16.069,34.78-28.686,55.615-37.497
			c21.571-9.124,44.485-13.75,68.105-13.75c23.621,0,46.535,4.626,68.105,13.75c20.834,8.813,39.547,21.428,55.615,37.497
			c16.068,16.068,28.685,34.779,37.496,55.615c9.124,21.571,13.75,44.485,13.75,68.105c0,23.621-4.626,46.535-13.75,68.105
			c-8.813,20.836-21.428,39.547-37.496,55.615c-16.068,16.067-34.781,28.685-55.615,37.495
			C152.533,83.069,129.619,87.695,105.999,87.695z M105.999-261.988c-96.339,0-174.717,78.378-174.717,174.718
			c0,96.339,78.377,174.716,174.717,174.716S280.716,9.068,280.716-87.271C280.716-183.61,202.338-261.988,105.999-261.988z"/>
	</g>
	<g opacity="0.25">
		<circle opacity="0.2" fill="#555555" enable-background="new    " cx="105.999" cy="-87.271" r="196.698"/>
		<path opacity="0.5" fill="#444444" enable-background="new    " d="M105.999,109.551c-26.571,0-52.348-5.204-76.613-15.467
			C5.948,84.17-15.101,69.979-33.177,51.902c-18.075-18.074-32.267-39.123-42.18-62.562c-10.263-24.265-15.467-50.04-15.467-76.612
			c0-26.571,5.204-52.347,15.467-76.612c9.913-23.438,24.104-44.487,42.18-62.563c18.076-18.076,39.125-32.269,62.563-42.182
			c24.265-10.263,50.042-15.467,76.613-15.467c26.57,0,52.348,5.204,76.613,15.467c23.438,9.914,44.486,24.105,62.562,42.182
			c18.076,18.075,32.269,39.125,42.181,62.563c10.265,24.267,15.469,50.042,15.469,76.612c0,26.571-5.204,52.348-15.469,76.613
			c-9.912,23.438-24.104,44.486-42.181,62.563c-18.075,18.075-39.124,32.268-62.562,42.18
			C158.347,104.347,132.569,109.551,105.999,109.551z M105.999-283.845c-108.39,0-196.572,88.183-196.572,196.573
			s88.182,196.572,196.572,196.572c108.391,0,196.572-88.182,196.572-196.572S214.39-283.845,105.999-283.845z"/>
	</g>
	<g opacity="0.25">
		<circle opacity="0.2" fill="#555555" enable-background="new    " cx="105.999" cy="-87.272" r="218.553"/>
		<path opacity="0.5" fill="#444444" enable-background="new    " d="M105.999,131.406c-29.521,0-58.16-5.781-85.119-17.185
			c-26.04-11.015-49.426-26.782-69.509-46.864c-20.083-20.083-35.851-43.47-46.864-69.51
			c-11.403-26.959-17.185-55.599-17.185-85.119c0-29.521,5.782-58.16,17.185-85.12c11.014-26.04,26.781-49.427,46.864-69.51
			s43.469-35.852,69.509-46.865c26.959-11.403,55.598-17.184,85.119-17.184c29.521,0,58.16,5.781,85.12,17.185
			c26.04,11.014,49.427,26.782,69.51,46.865c20.084,20.083,35.853,43.47,46.865,69.51c11.403,26.96,17.187,55.599,17.187,85.12
			c0,29.521-5.783,58.16-17.187,85.119c-11.015,26.04-26.781,49.427-46.865,69.51c-20.083,20.082-43.47,35.851-69.51,46.864
			C164.158,125.623,135.521,131.406,105.999,131.406z M105.999-305.7c-120.441,0-218.428,97.986-218.428,218.43
			c0,120.44,97.986,218.427,218.428,218.427c120.443,0,218.43-97.986,218.43-218.427C324.429-207.714,226.44-305.7,105.999-305.7z"
			/>
	</g>
	<g opacity="0.25">
		<circle opacity="0.2" fill="#707070" enable-background="new    " cx="-43.064" cy="-79.115" r="21.855"/>
		<path opacity="0.5" fill="#444444" enable-background="new    " d="M-43.064-57.135c-12.12,0-21.98-9.86-21.98-21.979
			c0-12.12,9.86-21.98,21.98-21.98s21.98,9.86,21.98,21.98C-21.084-66.995-30.944-57.135-43.064-57.135z M-43.064-100.846
			c-11.982,0-21.73,9.748-21.73,21.73c0,11.981,9.748,21.729,21.73,21.729s21.73-9.748,21.73-21.729
			C-21.334-91.098-31.082-100.846-43.064-100.846z"/>
	</g>
	<g opacity="0.25">
		<circle opacity="0.2" fill="#707070" enable-background="new    " cx="-43.064" cy="-79.115" r="43.711"/>
		<path opacity="0.5" fill="#444444" enable-background="new    " d="M-43.064-35.279c-24.171,0-43.836-19.665-43.836-43.835
			c0-24.172,19.665-43.836,43.836-43.836S0.772-103.287,0.772-79.114C0.772-54.943-18.893-35.279-43.064-35.279z M-43.064-122.7
			c-24.033,0-43.586,19.553-43.586,43.586c0,24.032,19.553,43.585,43.586,43.585S0.522-55.082,0.522-79.114
			C0.522-103.147-19.031-122.7-43.064-122.7z"/>
	</g>
	<g opacity="0.25">
		<circle opacity="0.2" fill="#707070" enable-background="new    " cx="-43.064" cy="-79.115" r="65.566"/>
		<path opacity="0.5" fill="#444444" enable-background="new    " d="M-43.064-13.424c-36.221,0-65.689-29.469-65.689-65.69
			c0-36.223,29.468-65.691,65.689-65.691s65.689,29.469,65.689,65.691C22.625-42.893-6.843-13.424-43.064-13.424z M-43.064-144.557
			c-36.083,0-65.439,29.357-65.439,65.441s29.356,65.441,65.439,65.441S22.375-43.03,22.375-79.115S-6.98-144.557-43.064-144.557z"
			/>
	</g>
	<g opacity="0.25">
		<circle opacity="0.2" fill="#707070" enable-background="new    " cx="-43.064" cy="-79.116" r="87.422"/>
		<path opacity="0.5" fill="#444444" enable-background="new    " d="M-43.064,8.432c-23.384,0-45.369-9.105-61.904-25.643
			c-16.535-16.535-25.641-38.521-25.641-61.904c0-23.385,9.106-45.369,25.641-61.905c16.535-16.536,38.52-25.643,61.904-25.643
			c23.384,0,45.369,9.106,61.904,25.643c16.535,16.536,25.641,38.521,25.641,61.905c0,23.384-9.106,45.369-25.641,61.904
			C2.305-0.674-19.68,8.432-43.064,8.432z M-43.064-166.412c-48.135,0-87.295,39.161-87.295,87.298
			c0,48.135,39.16,87.296,87.295,87.296c48.135,0,87.295-39.161,87.295-87.296C44.231-127.251,5.071-166.412-43.064-166.412z"/>
	</g>
	<g opacity="0.25">
		<circle opacity="0.2" fill="#707070" enable-background="new    " cx="-43.064" cy="-79.115" r="109.277"/>
		<path opacity="0.5" fill="#444444" enable-background="new    " d="M-43.064,30.287c-29.222,0-56.695-11.379-77.359-32.043
			s-32.043-48.137-32.043-77.358c0-29.223,11.38-56.695,32.043-77.359s48.137-32.043,77.359-32.043s56.695,11.38,77.359,32.043
			s32.043,48.137,32.043,77.359c0,29.222-11.38,56.694-32.043,77.358C13.631,18.908-13.842,30.287-43.064,30.287z M-43.064-188.268
			c-60.187,0-109.152,48.965-109.152,109.152S-103.251,30.037-43.064,30.037S66.088-18.928,66.088-79.114
			C66.088-139.302,17.123-188.268-43.064-188.268z"/>
	</g>
	<g opacity="0.25">
		<circle opacity="0.2" fill="#707070" enable-background="new    " cx="-43.064" cy="-79.116" r="131.133"/>
		<path opacity="0.5" fill="#444444" enable-background="new    " d="M-43.064,52.143c-17.719,0-34.909-3.471-51.091-10.314
			c-15.63-6.61-29.667-16.076-41.721-28.129c-12.054-12.056-21.518-26.093-28.129-41.723c-6.845-16.184-10.315-33.372-10.315-51.091
			c0-17.72,3.47-34.909,10.315-51.092c6.611-15.63,16.075-29.667,28.129-41.722s26.091-21.519,41.721-28.13
			c16.182-6.844,33.372-10.315,51.091-10.315s34.909,3.472,51.091,10.315c15.63,6.611,29.667,16.075,41.721,28.13
			s21.518,26.092,28.129,41.722c6.845,16.183,10.315,33.372,10.315,51.092c0,17.719-3.47,34.908-10.315,51.091
			c-6.611,15.63-16.075,29.667-28.129,41.723C37.694,25.752,23.657,35.217,8.027,41.828C-8.155,48.672-25.345,52.143-43.064,52.143z
			 M-43.064-210.123c-72.237,0-131.006,58.771-131.006,131.009c0,72.237,58.769,131.007,131.006,131.007S87.942-6.877,87.942-79.114
			S29.173-210.123-43.064-210.123z"/>
	</g>
	<g opacity="0.25">
		<circle opacity="0.2" fill="#707070" enable-background="new    " cx="-43.064" cy="-79.115" r="152.988"/>
		<path opacity="0.5" fill="#444444" enable-background="new    " d="M-43.064,73.998c-20.67,0-40.722-4.049-59.598-12.032
			c-18.232-7.712-34.606-18.753-48.668-32.813c-14.062-14.063-25.101-30.437-32.813-48.669
			c-7.984-18.877-12.032-38.928-12.032-59.598s4.048-40.723,12.032-59.599c7.712-18.232,18.751-34.606,32.813-48.669
			c14.062-14.062,30.436-25.102,48.668-32.813c18.876-7.984,38.928-12.033,59.598-12.033s40.722,4.048,59.598,12.033
			c18.233,7.712,34.607,18.752,48.669,32.813c14.062,14.063,25.102,30.437,32.813,48.669c7.984,18.876,12.033,38.929,12.033,59.599
			s-4.048,40.721-12.033,59.598C90.304-1.284,79.264,15.09,65.203,29.152C51.141,43.215,34.766,54.254,16.534,61.966
			C-2.342,69.949-22.394,73.998-43.064,73.998z M-43.064-231.979c-84.288,0-152.861,68.574-152.861,152.863
			S-127.352,73.748-43.064,73.748c84.29,0,152.864-68.574,152.864-152.863C109.8-163.403,41.226-231.979-43.064-231.979z"/>
	</g>
	<g opacity="0.25">
		<circle opacity="0.1" fill="#A5A5A5" enable-background="new    " cx="255.062" cy="-79.115" r="21.855"/>
		<path opacity="0.5" fill="#444444" enable-background="new    " d="M255.062-57.135c-12.119,0-21.979-9.86-21.979-21.979
			c0-12.12,9.86-21.98,21.979-21.98c12.121,0,21.98,9.86,21.98,21.98C277.042-66.995,267.183-57.135,255.062-57.135z
			 M255.062-100.846c-11.981,0-21.729,9.748-21.729,21.73c0,11.981,9.748,21.729,21.729,21.729c11.982,0,21.73-9.748,21.73-21.729
			C276.792-91.098,267.044-100.846,255.062-100.846z"/>
	</g>
	<g opacity="0.25">
		<circle opacity="0.1" fill="#A5A5A5" enable-background="new    " cx="255.062" cy="-79.115" r="43.711"/>
		<path opacity="0.5" fill="#444444" enable-background="new    " d="M255.062-35.279c-24.17,0-43.836-19.665-43.836-43.835
			c0-24.172,19.666-43.836,43.836-43.836c24.172,0,43.836,19.664,43.836,43.836C298.897-54.943,279.231-35.279,255.062-35.279z
			 M255.062-122.7c-24.033,0-43.586,19.553-43.586,43.586c0,24.032,19.553,43.585,43.586,43.585s43.586-19.553,43.586-43.585
			C298.647-103.147,279.095-122.7,255.062-122.7z"/>
	</g>
	<g opacity="0.25">
		<circle opacity="0.1" fill="#A5A5A5" enable-background="new    " cx="255.062" cy="-79.115" r="65.566"/>
		<path opacity="0.5" fill="#444444" enable-background="new    " d="M255.062-13.424c-36.223,0-65.69-29.469-65.69-65.69
			c0-36.223,29.469-65.691,65.69-65.691c36.223,0,65.691,29.469,65.691,65.691C320.753-42.893,291.284-13.424,255.062-13.424z
			 M255.062-144.557c-36.084,0-65.44,29.357-65.44,65.441s29.356,65.441,65.44,65.441c36.086,0,65.441-29.356,65.441-65.441
			S291.146-144.557,255.062-144.557z"/>
	</g>
	<g opacity="0.25">
		<circle opacity="0.1" fill="#A5A5A5" enable-background="new    " cx="255.062" cy="-79.116" r="87.422"/>
		<path opacity="0.5" fill="#444444" enable-background="new    " d="M255.062,8.432c-23.385,0-45.369-9.105-61.904-25.643
			c-16.535-16.535-25.643-38.521-25.643-61.904c0-23.385,9.106-45.369,25.643-61.905c16.535-16.536,38.521-25.643,61.904-25.643
			c23.385,0,45.369,9.106,61.905,25.643c16.535,16.536,25.642,38.521,25.642,61.905c0,23.384-9.105,45.369-25.642,61.904
			C300.431-0.674,278.446,8.432,255.062,8.432z M255.062-166.412c-48.136,0-87.297,39.161-87.297,87.298
			c0,48.135,39.161,87.296,87.297,87.296c48.137,0,87.297-39.161,87.297-87.296C342.358-127.251,303.197-166.412,255.062-166.412z"
			/>
	</g>
	<g opacity="0.25">
		<circle opacity="0.1" fill="#A5A5A5" enable-background="new    " cx="255.062" cy="-79.115" r="109.277"/>
		<path opacity="0.5" fill="#444444" enable-background="new    " d="M255.062,30.287c-29.222,0-56.694-11.379-77.358-32.043
			s-32.044-48.138-32.044-77.358c0-29.223,11.38-56.695,32.043-77.359c20.664-20.664,48.138-32.043,77.359-32.043
			c29.221,0,56.694,11.38,77.358,32.043c20.663,20.664,32.043,48.137,32.043,77.359c0,29.222-11.38,56.694-32.043,77.358
			S284.283,30.287,255.062,30.287z M255.062-188.268c-60.187,0-109.151,48.965-109.151,109.152S194.875,30.037,255.062,30.037
			c60.188,0,109.152-48.965,109.152-109.151C364.214-139.302,315.248-188.268,255.062-188.268z"/>
	</g>
	<g opacity="0.25">
		<circle opacity="0.1" fill="#A5A5A5" enable-background="new    " cx="255.062" cy="-79.116" r="131.133"/>
		<path opacity="0.5" fill="#444444" enable-background="new    " d="M255.062,52.143c-17.72,0-34.908-3.471-51.09-10.314
			c-15.632-6.61-29.668-16.076-41.724-28.129c-12.054-12.056-21.519-26.093-28.129-41.723
			c-6.845-16.184-10.315-33.372-10.315-51.091c0-17.72,3.471-34.909,10.315-51.092c6.61-15.63,16.075-29.667,28.129-41.722
			c12.056-12.055,26.092-21.519,41.724-28.13c16.182-6.844,33.37-10.315,51.09-10.315c17.721,0,34.91,3.472,51.092,10.315
			c15.631,6.611,29.668,16.075,41.723,28.13s21.52,26.092,28.129,41.722c6.846,16.183,10.314,33.372,10.314,51.092
			c0,17.719-3.471,34.908-10.314,51.091c-6.609,15.63-16.074,29.667-28.129,41.723c-12.055,12.053-26.092,21.519-41.723,28.129
			C289.972,48.672,272.781,52.143,255.062,52.143z M255.062-210.123c-72.237,0-131.008,58.771-131.008,131.009
			c0,72.237,58.771,131.007,131.008,131.007c72.238,0,131.008-58.77,131.008-131.007S327.3-210.123,255.062-210.123z"/>
	</g>
	<g opacity="0.25">
		<circle opacity="0.1" fill="#A5A5A5" enable-background="new    " cx="255.062" cy="-79.115" r="152.988"/>
		<path opacity="0.5" fill="#444444" enable-background="new    " d="M255.062,73.998c-20.67,0-40.722-4.049-59.598-12.032
			c-18.232-7.712-34.607-18.753-48.669-32.813c-14.062-14.063-25.103-30.437-32.813-48.669
			c-7.983-18.877-12.032-38.928-12.032-59.598s4.048-40.723,12.032-59.599c7.711-18.232,18.752-34.606,32.813-48.669
			c14.062-14.062,30.437-25.102,48.669-32.813c18.876-7.984,38.928-12.033,59.598-12.033s40.723,4.048,59.6,12.033
			c18.232,7.712,34.605,18.752,48.669,32.813c14.062,14.063,25.103,30.437,32.813,48.669c7.983,18.876,12.032,38.929,12.032,59.599
			s-4.049,40.721-12.032,59.598c-7.712,18.232-18.751,34.606-32.813,48.669c-14.063,14.063-30.437,25.102-48.669,32.813
			C295.783,69.949,275.731,73.998,255.062,73.998z M255.062-231.979c-84.287,0-152.861,68.574-152.861,152.863
			S170.774,73.748,255.062,73.748c84.289,0,152.863-68.574,152.863-152.863C407.925-163.403,339.351-231.979,255.062-231.979z"/>
	</g>
	<g opacity="0.25">
		<circle opacity="0.1" fill="#D3D3D3" enable-background="new    " cx="255.062" cy="2.448" r="21.855"/>
		<path opacity="0.5" fill="#444444" enable-background="new    " d="M255.062,24.428c-12.119,0-21.979-9.86-21.979-21.98
			c0-12.119,9.86-21.979,21.979-21.979c12.121,0,21.98,9.86,21.98,21.979C277.042,14.567,267.183,24.428,255.062,24.428z
			 M255.062-19.283c-11.981,0-21.729,9.748-21.729,21.73c0,11.981,9.748,21.729,21.729,21.729c11.982,0,21.73-9.748,21.73-21.729
			C276.792-9.535,267.044-19.283,255.062-19.283z"/>
	</g>
	<g opacity="0.25">
		<circle opacity="0.1" fill="#D3D3D3" enable-background="new    " cx="255.062" cy="2.447" r="43.711"/>
		<path opacity="0.5" fill="#444444" enable-background="new    " d="M255.062,46.283c-24.17,0-43.836-19.664-43.836-43.836
			c0-24.171,19.666-43.836,43.836-43.836c24.172,0,43.836,19.665,43.836,43.836C298.897,26.619,279.231,46.283,255.062,46.283z
			 M255.062-41.139c-24.033,0-43.586,19.553-43.586,43.586s19.553,43.586,43.586,43.586s43.586-19.553,43.586-43.586
			S279.095-41.139,255.062-41.139z"/>
	</g>
	<g opacity="0.25">
		<circle opacity="0.1" fill="#D3D3D3" enable-background="new    " cx="255.062" cy="2.448" r="65.566"/>
		<path opacity="0.5" fill="#444444" enable-background="new    " d="M255.062,68.139c-36.223,0-65.69-29.469-65.69-65.691
			c0-36.222,29.469-65.69,65.69-65.69c36.223,0,65.691,29.469,65.691,65.69C320.753,38.67,291.284,68.139,255.062,68.139z
			 M255.062-62.993c-36.084,0-65.44,29.356-65.44,65.44c0,36.086,29.356,65.441,65.44,65.441c36.086,0,65.441-29.355,65.441-65.441
			C320.503-33.637,291.146-62.993,255.062-62.993z"/>
	</g>
	<g opacity="0.25">
		<circle opacity="0.1" fill="#D3D3D3" enable-background="new    " cx="255.062" cy="2.447" r="87.422"/>
		<path opacity="0.5" fill="#444444" enable-background="new    " d="M255.062,89.994c-23.385,0-45.369-9.105-61.904-25.642
			s-25.643-38.521-25.643-61.905c0-23.384,9.106-45.369,25.643-61.905C209.692-75.992,231.679-85.1,255.062-85.1
			c23.385,0,45.369,9.106,61.905,25.642c16.535,16.536,25.642,38.521,25.642,61.905s-9.105,45.369-25.642,61.905
			C300.431,80.888,278.446,89.994,255.062,89.994z M255.062-84.85c-48.136,0-87.297,39.161-87.297,87.297
			c0,48.135,39.161,87.297,87.297,87.297c48.137,0,87.297-39.162,87.297-87.297C342.358-45.688,303.197-84.85,255.062-84.85z"/>
	</g>
	<g opacity="0.25">
		<circle opacity="0.1" fill="#D3D3D3" enable-background="new    " cx="255.062" cy="2.447" r="109.277"/>
		<path opacity="0.5" fill="#444444" enable-background="new    " d="M255.062,111.85c-29.222,0-56.694-11.38-77.358-32.043
			c-20.664-20.664-32.044-48.139-32.044-77.359s11.38-56.695,32.043-77.358c20.664-20.663,48.138-32.043,77.359-32.043
			c29.221,0,56.694,11.381,77.358,32.043c20.663,20.664,32.043,48.138,32.043,77.358s-11.38,56.695-32.043,77.359
			C311.757,100.47,284.283,111.85,255.062,111.85z M255.062-106.705c-60.187,0-109.151,48.966-109.151,109.152
			c0,60.188,48.966,109.152,109.151,109.152c60.187,0,109.152-48.966,109.152-109.152
			C364.214-57.738,315.248-106.705,255.062-106.705z"/>
	</g>
	<g opacity="0.25">
		<circle opacity="0.1" fill="#D3D3D3" enable-background="new    " cx="255.062" cy="2.447" r="131.133"/>
		<path opacity="0.5" fill="#444444" enable-background="new    " d="M255.062,133.705c-17.72,0-34.908-3.471-51.09-10.314
			c-15.632-6.609-29.668-16.075-41.724-28.129c-12.054-12.055-21.519-26.092-28.129-41.723
			c-6.845-16.183-10.315-33.371-10.315-51.092c0-17.72,3.471-34.908,10.315-51.091c6.61-15.63,16.075-29.667,28.129-41.722
			c12.056-12.056,26.092-21.52,41.724-28.131c16.182-6.845,33.37-10.314,51.09-10.314c17.721,0,34.91,3.47,51.092,10.314
			c15.631,6.611,29.668,16.075,41.723,28.131c12.055,12.054,21.52,26.092,28.129,41.722c6.844,16.183,10.314,33.371,10.314,51.091
			c0,17.721-3.471,34.909-10.315,51.092c-6.61,15.631-16.075,29.668-28.129,41.723c-12.056,12.054-26.092,21.52-41.724,28.129
			C289.972,130.234,272.781,133.705,255.062,133.705z M255.062-128.561c-72.237,0-131.008,58.77-131.008,131.008
			c0,72.237,58.771,131.008,131.008,131.008c72.238,0,131.008-58.77,131.008-131.008S327.3-128.561,255.062-128.561z"/>
	</g>
	<g opacity="0.25">
		<circle opacity="0.1" fill="#D3D3D3" enable-background="new    " cx="255.062" cy="2.447" r="152.988"/>
		<path opacity="0.5" fill="#444444" enable-background="new    " d="M255.062,155.561c-20.67,0-40.722-4.049-59.598-12.031
			c-18.232-7.713-34.607-18.753-48.669-32.814c-14.062-14.063-25.103-30.436-32.813-48.668c-7.983-18.877-12.032-38.93-12.032-59.6
			s4.048-40.722,12.032-59.598c7.711-18.232,18.752-34.607,32.813-48.668c14.062-14.062,30.437-25.103,48.669-32.813
			c18.876-7.983,38.928-12.033,59.598-12.033s40.723,4.049,59.6,12.033c18.232,7.711,34.605,18.752,48.669,32.813
			c14.062,14.062,25.103,30.436,32.813,48.668c7.983,18.876,12.032,38.928,12.032,59.598s-4.049,40.723-12.032,59.6
			c-7.712,18.232-18.751,34.605-32.813,48.668c-14.063,14.063-30.437,25.103-48.669,32.814
			C295.783,151.512,275.731,155.561,255.062,155.561z M255.062-150.416c-84.287,0-152.861,68.574-152.861,152.863
			s68.574,152.863,152.861,152.863c84.289,0,152.863-68.574,152.863-152.863S339.351-150.416,255.062-150.416z"/>
	</g>
	<g opacity="0.25">
		<circle opacity="0.1" fill="#A8A8A8" enable-background="new    " cx="-43.064" cy="2.448" r="21.855"/>
		<path opacity="0.5" fill="#444444" enable-background="new    " d="M-43.064,24.428c-12.12,0-21.98-9.86-21.98-21.98
			c0-12.119,9.86-21.979,21.98-21.979s21.98,9.86,21.98,21.979C-21.084,14.567-30.944,24.428-43.064,24.428z M-43.064-19.283
			c-11.982,0-21.73,9.748-21.73,21.73c0,11.981,9.748,21.729,21.73,21.729s21.73-9.748,21.73-21.729
			C-21.334-9.535-31.082-19.283-43.064-19.283z"/>
	</g>
	<g opacity="0.25">
		<circle opacity="0.1" fill="#A8A8A8" enable-background="new    " cx="-43.064" cy="2.447" r="43.711"/>
		<path opacity="0.5" fill="#444444" enable-background="new    " d="M-43.064,46.283c-24.171,0-43.836-19.664-43.836-43.836
			c0-24.171,19.665-43.836,43.836-43.836S0.772-21.724,0.772,2.447C0.772,26.619-18.893,46.283-43.064,46.283z M-43.064-41.139
			c-24.033,0-43.586,19.553-43.586,43.586s19.553,43.586,43.586,43.586S0.522,26.48,0.522,2.447S-19.031-41.139-43.064-41.139z"/>
	</g>
	<g opacity="0.25">
		<circle opacity="0.1" fill="#A8A8A8" enable-background="new    " cx="-43.064" cy="2.448" r="65.566"/>
		<path opacity="0.5" fill="#444444" enable-background="new    " d="M-43.064,68.139c-36.221,0-65.689-29.469-65.689-65.691
			c0-36.222,29.468-65.69,65.689-65.69s65.689,29.469,65.689,65.69C22.625,38.67-6.843,68.139-43.064,68.139z M-43.064-62.993
			c-36.083,0-65.439,29.356-65.439,65.44c0,36.086,29.356,65.441,65.439,65.441S22.375,38.533,22.375,2.447
			C22.375-33.637-6.98-62.993-43.064-62.993z"/>
	</g>
	<g opacity="0.25">
		<circle opacity="0.1" fill="#A8A8A8" enable-background="new    " cx="-43.064" cy="2.447" r="87.422"/>
		<path opacity="0.5" fill="#444444" enable-background="new    " d="M-43.064,89.994c-23.384,0-45.369-9.105-61.904-25.642
			c-16.535-16.536-25.641-38.521-25.641-61.905c0-23.384,9.106-45.369,25.641-61.905C-88.433-75.992-66.448-85.1-43.064-85.1
			c23.384,0,45.369,9.107,61.904,25.642C35.375-42.922,44.481-20.938,44.481,2.447S35.375,47.816,18.84,64.353
			C2.305,80.888-19.68,89.994-43.064,89.994z M-43.064-84.85c-48.135,0-87.295,39.161-87.295,87.297
			c0,48.135,39.16,87.297,87.295,87.297c48.135,0,87.295-39.162,87.295-87.297C44.231-45.688,5.071-84.85-43.064-84.85z"/>
	</g>
	<g opacity="0.25">
		<circle opacity="0.1" fill="#A8A8A8" enable-background="new    " cx="-43.064" cy="2.447" r="109.277"/>
		<path opacity="0.5" fill="#444444" enable-background="new    " d="M-43.064,111.85c-29.222,0-56.695-11.38-77.359-32.043
			c-20.664-20.664-32.043-48.139-32.043-77.359s11.38-56.695,32.043-77.358c20.663-20.662,48.137-32.043,77.359-32.043
			s56.695,11.381,77.359,32.043C54.959-54.248,66.338-26.774,66.338,2.447c0,29.223-11.38,56.695-32.043,77.359
			C13.631,100.47-13.842,111.85-43.064,111.85z M-43.064-106.705c-60.187,0-109.152,48.966-109.152,109.152
			c0,60.188,48.965,109.152,109.152,109.152S66.088,62.634,66.088,2.447C66.088-57.738,17.123-106.705-43.064-106.705z"/>
	</g>
	<g opacity="0.25">
		<circle opacity="0.1" fill="#A8A8A8" enable-background="new    " cx="-43.064" cy="2.447" r="131.133"/>
		<path opacity="0.5" fill="#444444" enable-background="new    " d="M-43.064,133.705c-17.719,0-34.909-3.471-51.091-10.314
			c-15.63-6.609-29.667-16.075-41.721-28.129c-12.054-12.055-21.518-26.092-28.129-41.723
			c-6.845-16.183-10.315-33.371-10.315-51.092c0-17.72,3.47-34.908,10.315-51.091c6.611-15.63,16.075-29.667,28.129-41.722
			c12.054-12.056,26.091-21.52,41.721-28.131c16.182-6.845,33.372-10.314,51.091-10.314s34.909,3.47,51.091,10.314
			c15.63,6.611,29.667,16.075,41.721,28.131c12.054,12.054,21.518,26.092,28.129,41.722c6.845,16.183,10.315,33.371,10.315,51.091
			c0,17.721-3.47,34.909-10.315,51.092C71.266,69.17,61.802,83.207,49.748,95.262c-12.054,12.054-26.091,21.52-41.721,28.129
			C-8.155,130.234-25.345,133.705-43.064,133.705z M-43.064-128.561c-72.237,0-131.006,58.77-131.006,131.008
			c0,72.237,58.769,131.008,131.006,131.008S87.942,74.686,87.942,2.447S29.173-128.561-43.064-128.561z"/>
	</g>
	<g opacity="0.25">
		<circle opacity="0.1" fill="#A8A8A8" enable-background="new    " cx="-43.064" cy="2.447" r="152.988"/>
		<path opacity="0.5" fill="#444444" enable-background="new    " d="M-43.064,155.561c-20.67,0-40.722-4.049-59.598-12.031
			c-18.232-7.713-34.606-18.753-48.668-32.814c-14.062-14.063-25.101-30.436-32.813-48.668c-7.984-18.877-12.032-38.93-12.032-59.6
			s4.048-40.722,12.032-59.598c7.712-18.232,18.751-34.607,32.813-48.668c14.062-14.062,30.436-25.103,48.668-32.813
			c18.876-7.983,38.928-12.033,59.598-12.033s40.722,4.049,59.598,12.033c18.233,7.711,34.607,18.752,48.669,32.813
			C79.265-91.758,90.305-75.384,98.017-57.15c7.984,18.876,12.033,38.928,12.033,59.598s-4.048,40.723-12.033,59.6
			c-7.712,18.231-18.752,34.605-32.813,48.668c-14.062,14.063-30.437,25.103-48.669,32.813
			C-2.342,151.512-22.394,155.561-43.064,155.561z M-43.064-150.416c-84.288,0-152.861,68.574-152.861,152.863
			s68.573,152.863,152.861,152.863c84.29,0,152.864-68.574,152.864-152.863S41.226-150.416-43.064-150.416z"/>
	</g>
</g>
</svg>
