<?xml version="1.0" encoding="iso-8859-1"?>
<!-- Generator: Adobe Illustrator 16.0.0, SVG Export Plug-In . SVG Version: 6.00 Build 0)  -->
<!DOCTYPE svg PUBLIC "-//W3C//DTD SVG 1.1//EN" "http://www.w3.org/Graphics/SVG/1.1/DTD/svg11.dtd">
<svg version="1.1" id="Layer_1" xmlns="http://www.w3.org/2000/svg" xmlns:xlink="http://www.w3.org/1999/xlink" x="0px" y="0px"
	 width="50px" height="50px" viewBox="0 0 50 50" style="enable-background:new 0 0 50 50;" xml:space="preserve">
<g>
	<path style="fill:#C75C5C;" d="M9,29c0,1.104-0.896,2-2,2l0,0c-1.104,0-2-0.896-2-2v-2c0-1.104,0.896-2,2-2l0,0
		c1.104,0,2,0.896,2,2V29z"/>
</g>
<g>
	<path style="fill:#F5CF87;" d="M17,21c0,1.104-0.896,2-2,2l0,0c-1.104,0-2-0.896-2-2v-2c0-1.104,0.896-2,2-2l0,0
		c1.104,0,2,0.896,2,2V21z"/>
</g>
<g>
	<path style="fill:#F5CF87;" d="M37,21c0,1.104-0.895,2-2,2l0,0c-1.104,0-2-0.896-2-2v-2c0-1.104,0.896-2,2-2l0,0
		c1.105,0,2,0.896,2,2V21z"/>
</g>
<g>
	<path style="fill:#76C2AF;" d="M41,29c0,1.104,0.896,2,2,2l0,0c1.104,0,2-0.896,2-2v-2c0-1.104-0.896-2-2-2l0,0
		c-1.104,0-2,0.896-2,2V29z"/>
</g>
<g style="opacity:0.2;">
	<path style="fill:#231F20;" d="M25,25.595l17,4.798c2.891,0.861,3-0.412,3-2.399v1.199c0-1.987,0.094-3.354-1.75-4.479L25,16
		L6.75,24.714C4.906,25.838,5,27.205,5,29.192v-1.199c0,1.987,0.109,3.261,3,2.399L25,25.595z"/>
</g>
<g>
	<path style="fill:#E0E0D1;" d="M25,23.595l17,4.798c2.891,0.861,3-0.412,3-2.399v1.199c0-1.987,0.094-3.354-1.75-4.479L25,14
		L6.75,22.714C4.906,23.838,5,25.205,5,27.192v-1.199c0,1.987,0.109,3.261,3,2.399L25,23.595z"/>
</g>
<g>
	<g>
		<path style="fill:#E0E0D1;" d="M44.998,26.362c0,0.032,0.002,0.062,0.002,0.094v-0.463C45,26.119,44.999,26.242,44.998,26.362z"/>
	</g>
	<g>
		<path style="fill:#E0E0D1;" d="M45,26.456v0.736C45,26.938,45.001,26.692,45,26.456z"/>
	</g>
	<g style="opacity:0.2;">
		<polygon style="fill:#231F20;" points="25,14 19.98,16.396 20.417,24.888 25,23.595 29.583,24.888 30.02,16.396 		"/>
	</g>
</g>
<g>
	<path style="fill:#E0E0D1;" d="M28,36.618c0,1.592-0.343,2.882-2,2.882h-2c-1.657,0-2-1.29-2-2.882L21,9.764
		C21,8.172,23.343,3,25,3l0,0c1.657,0,4,5.172,4,6.764L28,36.618z"/>
</g>
<g style="opacity:0.2;">
	<path style="fill:#231F20;" d="M35.992,41.847L25,35l-10.992,6.847C12.855,42.764,13,44.137,13,45.757c0,0,0.193,1.826,2,1.123
		L25,43l10,3.88c1.807,0.703,2-1.123,2-1.123C37,44.137,37.145,42.764,35.992,41.847z"/>
</g>
<g>
	<path style="fill:#E0E0D1;" d="M35.992,39.847L25,33l-10.992,6.847C12.855,40.764,13,42.137,13,43.757c0,0,0.193,1.826,2,1.123
		L25,41l10,3.88c1.807,0.703,2-1.123,2-1.123C37,42.137,37.145,40.764,35.992,39.847z"/>
</g>
<g style="opacity:0.2;">
	<path style="fill:#231F20;" d="M27,44c0,1.104-0.896,2-2,2l0,0c-1.104,0-2-0.896-2-2v-5c0-1.104,0.896-2,2-2l0,0
		c1.104,0,2,0.896,2,2V44z"/>
</g>
<g>
	<path style="fill:#E0E0D1;" d="M27,42c0,1.104-0.896,2-2,2l0,0c-1.104,0-2-0.896-2-2v-5c0-1.104,0.896-2,2-2l0,0
		c1.104,0,2,0.896,2,2V42z"/>
</g>
<g>
	<g>
		<path style="fill:#77B3D4;" d="M25,9c1.163,0,2.176-1.223,2.714-3.032C26.907,4.4,25.861,3,25,3s-1.907,1.4-2.714,2.968
			C22.824,7.777,23.837,9,25,9z"/>
	</g>
</g>
</svg>
