<?xml version="1.0" encoding="iso-8859-1"?>
<!-- Generator: Adobe Illustrator 16.0.0, SVG Export Plug-In . SVG Version: 6.00 Build 0)  -->
<!DOCTYPE svg PUBLIC "-//W3C//DTD SVG 1.1//EN" "http://www.w3.org/Graphics/SVG/1.1/DTD/svg11.dtd">
<svg version="1.1" id="Layer_1" xmlns="http://www.w3.org/2000/svg" xmlns:xlink="http://www.w3.org/1999/xlink" x="0px" y="0px"
	 width="50px" height="50px" viewBox="0 0 50 50" style="enable-background:new 0 0 50 50;" xml:space="preserve">
<path style="opacity:0.2;fill:#231F20;" d="M43.485,18.37L24.018,36.145c0,0-4.348,3.837-10.367,3.023
	c-2.688-0.363-6.146-1.257-10.522-3.08L5,33.634h10.245c0,0,17.574-14.635,19.838-16.899c1.927-1.926,6.75-3.267,9.917-2.528
	C46.063,14.454,46.485,15.37,43.485,18.37z"/>
<polygon style="opacity:0.2;fill:#231F20;" points="26.167,28.301 8.75,25.634 11.344,22.072 33.5,22.072 "/>
<path style="fill:#FFFFFF;" d="M43.485,16.37L24.018,34.145c0,0-4.348,3.837-10.367,3.023c-2.688-0.364-6.146-1.257-10.522-3.08
	L5,31.634h10.245c0,0,17.574-14.635,19.838-16.899c1.927-1.926,6.75-3.267,9.917-2.528C46.063,12.454,46.485,13.37,43.485,16.37z"/>
<polygon style="fill:#FFFFFF;" points="26.167,26.301 8.75,23.634 11,19.634 34,19.634 "/>
</svg>
