<?xml version="1.0" encoding="iso-8859-1"?>
<!-- Generator: Adobe Illustrator 16.0.0, SVG Export Plug-In . SVG Version: 6.00 Build 0)  -->
<!DOCTYPE svg PUBLIC "-//W3C//DTD SVG 1.1//EN" "http://www.w3.org/Graphics/SVG/1.1/DTD/svg11.dtd">
<svg version="1.1" id="Layer_1" xmlns="http://www.w3.org/2000/svg" xmlns:xlink="http://www.w3.org/1999/xlink" x="0px" y="0px"
	 width="50px" height="50px" viewBox="0 0 50 50" style="enable-background:new 0 0 50 50;" xml:space="preserve">
<g style="opacity:0.2;">
	<path style="fill:#231F20;" d="M9.954,43c-4.4,0-6.2-3.117-4-6.928L21,10.012c2.2-3.811,5.8-3.811,8,0l15.046,26.061
		c2.2,3.811,0.4,6.928-4,6.928H9.954z"/>
</g>
<g>
	<path style="fill:#F5CF87;" d="M9.954,41c-4.4,0-6.2-3.117-4-6.928L21,8.012c2.2-3.811,5.8-3.811,8,0l15.046,26.061
		c2.2,3.811,0.4,6.928-4,6.928H9.954z"/>
</g>
<g>
	<path style="fill:#4F5D73;" d="M27,25c0,1.104-0.896,2-2,2l0,0c-1.104,0-2-0.896-2-2v-8c0-1.104,0.896-2,2-2l0,0
		c1.104,0,2,0.896,2,2V25z"/>
</g>
<g>
	<path style="fill:#4F5D73;" d="M27,33c0,1.104-0.896,2-2,2l0,0c-1.104,0-2-0.896-2-2l0,0c0-1.104,0.896-2,2-2l0,0
		C26.104,31,27,31.896,27,33L27,33z"/>
</g>
</svg>
