<?xml version="1.0" encoding="iso-8859-1"?>
<!-- Generator: Adobe Illustrator 16.0.0, SVG Export Plug-In . SVG Version: 6.00 Build 0)  -->
<!DOCTYPE svg PUBLIC "-//W3C//DTD SVG 1.1//EN" "http://www.w3.org/Graphics/SVG/1.1/DTD/svg11.dtd">
<svg version="1.1" id="Layer_1" xmlns="http://www.w3.org/2000/svg" xmlns:xlink="http://www.w3.org/1999/xlink" x="0px" y="0px"
	 width="50px" height="50px" viewBox="0 0 50 50" style="enable-background:new 0 0 50 50;" xml:space="preserve">
<g style="opacity:0.2;">
	<path style="fill:#231F20;" d="M37.554,31c-0.907,0-1.161-0.622-0.563-1.382l4.757-6.048c0.597-0.761,1.575-0.761,2.173,0
		l4.756,6.048C49.274,30.378,49.021,31,48.113,31H37.554z"/>
</g>
<g style="opacity:0.2;">
	<path style="fill:#231F20;" d="M1.887,31c-0.908,0-1.161-0.622-0.563-1.382L6.08,23.57c0.598-0.761,1.576-0.761,2.173,0
		l4.757,6.048C13.607,30.378,13.354,31,12.446,31H1.887z"/>
</g>
<g>
	<path style="fill:#E0E0D1;" d="M37.554,29c-0.907,0-1.161-0.622-0.563-1.382l4.757-6.048c0.597-0.761,1.575-0.761,2.173,0
		l4.756,6.048C49.274,28.378,49.021,29,48.113,29H37.554z"/>
</g>
<g>
	<path style="fill:#E0E0D1;" d="M1.887,29c-0.908,0-1.161-0.622-0.563-1.382L6.08,21.57c0.598-0.761,1.576-0.761,2.173,0
		l4.757,6.048C13.607,28.378,13.354,29,12.446,29H1.887z"/>
</g>
<g style="opacity:0.2;">
	<g>
		<path style="fill:#231F20;" d="M25,49C13.972,49,5,40.027,5,29c0-1.104,0.896-2,2-2s2,0.896,2,2c0,8.822,7.178,16,16,16
			s16-7.178,16-16c0-1.104,0.896-2,2-2s2,0.896,2,2C45,40.027,36.028,49,25,49z"/>
	</g>
</g>
<g>
	<path style="fill:#E0E0D1;" d="M25,47C13.972,47,5,38.028,5,27c0-1.104,0.896-2,2-2s2,0.896,2,2c0,8.822,7.178,16,16,16
		s16-7.178,16-16c0-1.104,0.896-2,2-2s2,0.896,2,2C45,38.028,36.028,47,25,47z"/>
</g>
<g>
	<rect x="23" y="13" style="fill:#E0E0D1;" width="4" height="32"/>
</g>
<g style="opacity:0.2;">
	<g>
		<path style="fill:#231F20;" d="M25,17c-3.309,0-6-2.691-6-6s2.691-6,6-6s6,2.691,6,6S28.309,17,25,17z M25,9c-1.103,0-2,0.897-2,2
			c0,1.104,0.897,2,2,2s2-0.896,2-2C27,9.897,26.103,9,25,9z"/>
	</g>
</g>
<g style="opacity:0.2;">
	<g>
		<path style="fill:#231F20;" d="M33,24c0,1.104-0.896,2-2,2H19c-1.104,0-2-0.896-2-2l0,0c0-1.104,0.896-2,2-2h12
			C32.104,22,33,22.896,33,24L33,24z"/>
	</g>
</g>
<g>
	<path style="fill:#E0E0D1;" d="M25,15c-3.309,0-6-2.691-6-6s2.691-6,6-6s6,2.691,6,6S28.309,15,25,15z M25,7c-1.103,0-2,0.897-2,2
		s0.897,2,2,2s2-0.897,2-2S26.103,7,25,7z"/>
</g>
<g>
	<path style="fill:#E0E0D1;" d="M33,22c0,1.104-0.896,2-2,2H19c-1.104,0-2-0.896-2-2l0,0c0-1.104,0.896-2,2-2h12
		C32.104,20,33,20.896,33,22L33,22z"/>
</g>
</svg>
