<?xml version="1.0" encoding="iso-8859-1"?>
<!-- Generator: Adobe Illustrator 16.0.0, SVG Export Plug-In . SVG Version: 6.00 Build 0)  -->
<!DOCTYPE svg PUBLIC "-//W3C//DTD SVG 1.1//EN" "http://www.w3.org/Graphics/SVG/1.1/DTD/svg11.dtd">
<svg version="1.1" id="Layer_1" xmlns="http://www.w3.org/2000/svg" xmlns:xlink="http://www.w3.org/1999/xlink" x="0px" y="0px"
	 width="50px" height="50px" viewBox="0 0 50 50" style="enable-background:new 0 0 50 50;" xml:space="preserve">
<g style="opacity:0.2;">
	<path style="fill:#231F20;" d="M40.838,23H33V11c0-2.209-1.791-4-4-4h-8c-2.209,0-4,1.791-4,4v12H9.162
		c-2.723,0-3.483,1.865-1.69,4.145l14.27,18.146c1.792,2.279,4.726,2.279,6.519,0l14.27-18.146C44.321,24.865,43.561,23,40.838,23z"
		/>
</g>
<g>
	<path style="fill:#FFFFFF;" d="M17,9c0-2.209,1.791-4,4-4h8c2.209,0,4,1.791,4,4v24c0,2.209-1.791,4-4,4h-8c-2.209,0-4-1.791-4-4V9
		z"/>
</g>
<g>
	<path style="fill:#FFFFFF;" d="M40.838,21c2.723,0,3.483,1.865,1.69,4.145l-14.27,18.146c-1.792,2.279-4.726,2.279-6.519,0
		L7.471,25.145C5.679,22.865,6.439,21,9.162,21H40.838z"/>
</g>
</svg>
