<?xml version="1.0" encoding="iso-8859-1"?>
<!-- Generator: Adobe Illustrator 16.0.0, SVG Export Plug-In . SVG Version: 6.00 Build 0)  -->
<!DOCTYPE svg PUBLIC "-//W3C//DTD SVG 1.1//EN" "http://www.w3.org/Graphics/SVG/1.1/DTD/svg11.dtd">
<svg version="1.1" id="Layer_1" xmlns="http://www.w3.org/2000/svg" xmlns:xlink="http://www.w3.org/1999/xlink" x="0px" y="0px"
	 width="50px" height="50px" viewBox="0 0 50 50" style="enable-background:new 0 0 50 50;" xml:space="preserve">
<g style="opacity:0.2;">
	<path style="fill:#231F20;" d="M42.529,26.855L28.259,8.709c-1.792-2.279-4.726-2.279-6.519,0L7.471,26.855
		C5.679,29.135,6.439,31,9.162,31H17v12c0,2.209,1.791,4,4,4h8c2.209,0,4-1.791,4-4V31h7.838C43.561,31,44.321,29.135,42.529,26.855
		z"/>
</g>
<g>
	<path style="fill:#FFFFFF;" d="M33,41c0,2.209-1.791,4-4,4h-8c-2.209,0-4-1.791-4-4V17c0-2.209,1.791-4,4-4h8c2.209,0,4,1.791,4,4
		V41z"/>
</g>
<g>
	<path style="fill:#FFFFFF;" d="M9.162,29c-2.723,0-3.483-1.865-1.69-4.145l14.27-18.146c1.792-2.279,4.726-2.279,6.519,0
		l14.27,18.146C44.321,27.135,43.561,29,40.838,29H9.162z"/>
</g>
</svg>
