<?xml version="1.0" encoding="iso-8859-1"?>
<!-- Generator: Adobe Illustrator 16.0.0, SVG Export Plug-In . SVG Version: 6.00 Build 0)  -->
<!DOCTYPE svg PUBLIC "-//W3C//DTD SVG 1.1//EN" "http://www.w3.org/Graphics/SVG/1.1/DTD/svg11.dtd">
<svg version="1.1" id="Layer_1" xmlns="http://www.w3.org/2000/svg" xmlns:xlink="http://www.w3.org/1999/xlink" x="0px" y="0px"
	 width="50px" height="50px" viewBox="0 0 50 50" style="enable-background:new 0 0 50 50;" xml:space="preserve">
<g>
	<g style="opacity:0.2;">
		<path style="fill:#231F20;" d="M23,50c-1.657,0-3-1.343-3-3V14h6c0,22.148,13.439,25.029,13.575,25.056
			c1.626,0.317,2.687,1.893,2.369,3.52s-1.895,2.689-3.52,2.369c-0.459-0.09-7.224-1.527-12.425-8.783V47C26,48.657,24.657,50,23,50
			z"/>
	</g>
	<path style="fill:none;stroke:#4F5D73;stroke-width:6;stroke-linecap:round;stroke-miterlimit:10;" d="M39,40c0,0-16-3.125-16-28
		v33"/>
	<g style="opacity:0.2;">
		<path style="fill:#231F20;" d="M14.438,16c-1.471,0-1.882-1.088-0.914-2.417l7.713-10.585c0.969-1.33,2.555-1.33,3.523,0
			l7.713,10.585C33.444,14.912,33.033,16,31.562,16H14.438z"/>
	</g>
	<path style="fill:#4F5D73;" d="M14.438,14c-1.471,0-1.882-1.088-0.914-2.417l7.713-10.585c0.969-1.33,2.555-1.33,3.523,0
		l7.713,10.585C33.444,12.912,33.033,14,31.562,14H14.438z"/>
</g>
</svg>
