<?xml version="1.0" encoding="iso-8859-1"?>
<!-- Generator: Adobe Illustrator 16.0.0, SVG Export Plug-In . SVG Version: 6.00 Build 0)  -->
<!DOCTYPE svg PUBLIC "-//W3C//DTD SVG 1.1//EN" "http://www.w3.org/Graphics/SVG/1.1/DTD/svg11.dtd">
<svg version="1.1" id="Layer_1" xmlns="http://www.w3.org/2000/svg" xmlns:xlink="http://www.w3.org/1999/xlink" x="0px" y="0px"
	 width="50px" height="50px" viewBox="0 0 50 50" style="enable-background:new 0 0 50 50;" xml:space="preserve">
<g style="opacity:0.2;">
	<path style="fill:#231F20;" d="M25,50c-1.657,0-3-1.343-3-3v-1c0-3.872,2.483-5.858,4.125-7.173C27.621,37.63,28,37.229,28,36.338
		c-0.363-0.583-3.05-1.526-4.494-2.033C19.917,33.044,15,31.318,15,26.61c0-4.022,2.898-5.988,4.816-7.288
		C21.633,18.09,22,17.7,22,17v-5c0-1.657,1.343-3,3-3s3,1.343,3,3v5c0,4.022-2.898,5.988-4.816,7.288
		C21.367,25.52,21,25.911,21,26.61c0.363,0.583,3.05,1.526,4.494,2.033C29.083,29.904,34,31.63,34,36.338
		c0,3.872-2.483,5.858-4.125,7.173C28.379,44.708,28,45.108,28,46v1C28,48.657,26.657,50,25,50z"/>
</g>
<path style="fill:none;stroke:#4F5D73;stroke-width:6;stroke-linecap:round;stroke-miterlimit:10;" d="M25,45v-1
	c0-4.86,6-4.802,6-9.662c0-5.163-13-4.564-13-9.728c0-4.864,7-4.747,7-9.61v-5"/>
<g style="opacity:0.2;">
	<path style="fill:#231F20;" d="M16.438,16c-1.471,0-1.882-1.088-0.914-2.417l7.713-10.585c0.969-1.33,2.555-1.33,3.523,0
		l7.713,10.585C35.444,14.912,35.033,16,33.562,16H16.438z"/>
</g>
<path style="fill:#4F5D73;" d="M16.438,14c-1.471,0-1.882-1.088-0.914-2.417l7.713-10.585c0.969-1.33,2.555-1.33,3.523,0
	l7.713,10.585C35.444,12.912,35.033,14,33.562,14H16.438z"/>
</svg>
