<?xml version="1.0" encoding="iso-8859-1"?>
<!-- Generator: Adobe Illustrator 16.0.0, SVG Export Plug-In . SVG Version: 6.00 Build 0)  -->
<!DOCTYPE svg PUBLIC "-//W3C//DTD SVG 1.1//EN" "http://www.w3.org/Graphics/SVG/1.1/DTD/svg11.dtd">
<svg version="1.1" id="Layer_1" xmlns="http://www.w3.org/2000/svg" xmlns:xlink="http://www.w3.org/1999/xlink" x="0px" y="0px"
	 width="50px" height="50px" viewBox="0 0 50 50" style="enable-background:new 0 0 50 50;" xml:space="preserve">
<g style="opacity:0.2;">
	<path style="fill:#231F20;" d="M25,5C12.869,5,3,14.869,3,27s9.869,22,22,22c3.499,0,6.982-0.842,10.072-2.437
		c0.981-0.507,1.367-1.712,0.86-2.694c-0.506-0.982-1.714-1.367-2.694-0.86C30.677,44.33,27.905,45,25,45c-9.926,0-18-8.074-18-18
		S15.074,9,25,9s18,8.074,18,18c0,3.041-0.752,5.982-2.189,8.612c-1.753-1.388-4.395-4.196-4.395-8.528v-8.791c0-1.104-0.895-2-2-2
		c-1.104,0-2,0.896-2,2v0.083c-1.992-1.716-4.58-2.759-7.416-2.759c-6.287,0-11.383,5.096-11.383,11.383S18.713,38.383,25,38.383
		c3.734,0,7.038-1.807,9.114-4.584c2.304,4.245,6.165,6.283,6.396,6.4c0.89,0.458,1.979,0.185,2.552-0.636
		C45.639,35.865,47,31.521,47,27C47,14.869,37.131,5,25,5z M25,34.383c-4.071,0-7.383-3.312-7.383-7.383s3.312-7.383,7.383-7.383
		s7.383,3.312,7.383,7.383S29.071,34.383,25,34.383z"/>
</g>
<g>
	<path style="fill:#FFFFFF;" d="M25,47C12.869,47,3,37.131,3,25S12.869,3,25,3s22,9.869,22,22c0,4.521-1.361,8.866-3.938,12.563
		c-0.571,0.821-1.663,1.092-2.552,0.637c-0.331-0.169-8.094-4.246-8.094-13.117v-8.789c0-1.104,0.896-2,2-2s2,0.896,2,2v8.789
		c0,4.333,2.641,7.143,4.395,8.529C42.248,30.982,43,28.041,43,25c0-9.925-8.075-18-18-18S7,15.075,7,25s8.075,18,18,18
		c2.905,0,5.677-0.67,8.238-1.991c0.979-0.508,2.188-0.122,2.694,0.86c0.507,0.981,0.121,2.188-0.86,2.694
		C31.982,46.157,28.499,47,25,47z"/>
</g>
<g>
	<path style="fill:#FFFFFF;" d="M25,17.617c4.071,0,7.383,3.312,7.383,7.383S29.071,32.383,25,32.383S17.617,29.071,17.617,25
		S20.929,17.617,25,17.617 M25,13.617c-6.287,0-11.383,5.096-11.383,11.383S18.713,36.383,25,36.383
		c6.286,0,11.383-5.096,11.383-11.383S31.286,13.617,25,13.617L25,13.617z"/>
</g>
</svg>
