<?xml version="1.0" encoding="iso-8859-1"?>
<!-- Generator: Adobe Illustrator 16.0.0, SVG Export Plug-In . SVG Version: 6.00 Build 0)  -->
<!DOCTYPE svg PUBLIC "-//W3C//DTD SVG 1.1//EN" "http://www.w3.org/Graphics/SVG/1.1/DTD/svg11.dtd">
<svg version="1.1" id="Layer_1" xmlns="http://www.w3.org/2000/svg" xmlns:xlink="http://www.w3.org/1999/xlink" x="0px" y="0px"
	 width="50px" height="50px" viewBox="0 0 50 50" style="enable-background:new 0 0 50 50;" xml:space="preserve">
<g>
	<g style="opacity:0.2;">
		<ellipse style="fill:#231F20;" cx="25" cy="21.938" rx="20" ry="19.969"/>
	</g>
	<path style="opacity:0.2;fill:#231F20;" d="M31,46.906c0,1.657-1.343,3-3,3h-6c-1.657,0-3-1.343-3-3l0,0c0-1.657,1.343-3,3-3h6
		C29.657,43.906,31,45.25,31,46.906L31,46.906z"/>
	<g>
		<ellipse style="fill:#4F5D73;" cx="25" cy="19.969" rx="20" ry="19.969"/>
	</g>
	<g>
		<ellipse style="fill:#FFFFFF;" cx="25" cy="19.969" rx="16" ry="19.969"/>
	</g>
	<g>
		<ellipse style="fill:#4F5D73;" cx="25" cy="19.969" rx="8" ry="19.969"/>
	</g>
	<path style="fill:#C75C5C;" d="M31,44.938c0,1.657-1.343,3-3,3h-6c-1.657,0-3-1.343-3-3l0,0c0-1.657,1.343-3,3-3h6
		C29.657,41.938,31,43.281,31,44.938L31,44.938z"/>
</g>
</svg>
