<?xml version="1.0" encoding="iso-8859-1"?>
<!-- Generator: Adobe Illustrator 16.0.0, SVG Export Plug-In . SVG Version: 6.00 Build 0)  -->
<!DOCTYPE svg PUBLIC "-//W3C//DTD SVG 1.1//EN" "http://www.w3.org/Graphics/SVG/1.1/DTD/svg11.dtd">
<svg version="1.1" id="Layer_1" xmlns="http://www.w3.org/2000/svg" xmlns:xlink="http://www.w3.org/1999/xlink" x="0px" y="0px"
	 width="50px" height="50px" viewBox="0 0 50 50" style="enable-background:new 0 0 50 50;" xml:space="preserve">
<g style="opacity:0.2;">
	<path style="fill:#231F20;" d="M43,21h-2v12h2c1.104,0,2-0.896,2-2v-8C45,21.896,44.104,21,43,21z"/>
	<g>
		<path style="fill:#231F20;" d="M41,18c0-1.104-0.896-2-2-2H7c-1.104,0-2,0.896-2,2v5v8v5c0,1.104,0.896,2,2,2h32
			c1.104,0,2-0.896,2-2v-3V21V18z M38,35H8V19h30V35z"/>
	</g>
	<rect x="10" y="21" style="fill:#231F20;" width="26" height="12"/>
</g>
<g>
	<path style="fill:#4F5D73;" d="M43,19h-2v12h2c1.104,0,2-0.896,2-2v-8C45,19.896,44.104,19,43,19z"/>
	<g>
		<rect x="8" y="17" style="fill:#FFFFFF;" width="30" height="16"/>
		<g>
			<path style="fill:#4F5D73;" d="M39,14H7c-1.104,0-2,0.896-2,2v5v8v5c0,1.104,0.896,2,2,2h32c1.104,0,2-0.896,2-2v-3V19v-3
				C41,14.896,40.104,14,39,14z M38,33H8V17h30V33z"/>
		</g>
	</g>
	<rect x="10" y="19" style="fill:#C75C5C;" width="11" height="12"/>
</g>
</svg>
