<?xml version="1.0" encoding="iso-8859-1"?>
<!-- Generator: Adobe Illustrator 16.0.0, SVG Export Plug-In . SVG Version: 6.00 Build 0)  -->
<!DOCTYPE svg PUBLIC "-//W3C//DTD SVG 1.1//EN" "http://www.w3.org/Graphics/SVG/1.1/DTD/svg11.dtd">
<svg version="1.1" id="Layer_1" xmlns="http://www.w3.org/2000/svg" xmlns:xlink="http://www.w3.org/1999/xlink" x="0px" y="0px"
	 width="50px" height="50px" viewBox="0 0 50 50" style="enable-background:new 0 0 50 50;" xml:space="preserve">
<path style="opacity:0.2;fill:#231F20;" d="M39,25c3.309,0,6,2.691,6,6s-2.691,6-6,6s-6-2.691-6-6S35.691,25,39,25 M39,21
	c-5.523,0-10,4.477-10,10s4.477,10,10,10s10-4.477,10-10S44.523,21,39,21L39,21z"/>
<path style="opacity:0.2;fill:#231F20;" d="M11,24c3.86,0,7,3.14,7,7s-3.14,7-7,7s-7-3.14-7-7S7.14,24,11,24 M11,21
	C5.477,21,1,25.477,1,31s4.477,10,10,10s10-4.477,10-10S16.523,21,11,21L11,21z"/>
<g>
	<path style="fill:#4F5D73;" d="M11,22c3.86,0,7,3.14,7,7s-3.14,7-7,7s-7-3.14-7-7S7.14,22,11,22 M11,19C5.477,19,1,23.477,1,29
		s4.477,10,10,10s10-4.477,10-10S16.523,19,11,19L11,19z"/>
</g>
<g>
	<path style="fill:#4F5D73;" d="M39,22c3.86,0,7,3.14,7,7s-3.14,7-7,7s-7-3.14-7-7S35.14,22,39,22 M39,19c-5.523,0-10,4.477-10,10
		s4.477,10,10,10s10-4.477,10-10S44.523,19,39,19L39,19z"/>
</g>
<path style="opacity:0.2;fill:#231F20;" d="M40.334,30.314l-9-17.5C31.077,12.314,30.562,12,30,12h-5c-0.829,0-1.5,0.671-1.5,1.5
	S24.171,15,25,15h4.084l3.086,6h-8.743l-2.085-4.171C21.087,16.321,20.568,16,20,16h-5c-0.829,0-1.5,0.671-1.5,1.5S14.171,19,15,19
	h4.073l1.404,2.808L10.05,30.339c-0.491,0.402-0.676,1.068-0.463,1.666C9.8,32.602,10.366,33,11,33h14
	c0.398,0,0.779-0.158,1.061-0.439l7.961-7.961l3.645,7.086c0.266,0.517,0.791,0.814,1.335,0.814c0.23,0,0.465-0.054,0.685-0.167
	C40.423,31.955,40.713,31.051,40.334,30.314z M15.202,30l6.65-5.441l2.656,5.312L24.379,30H15.202z M26.745,27.634L24.927,24h5.452
	L26.745,27.634z"/>
<polyline style="fill:none;stroke:#FFFFFF;stroke-width:3;stroke-linecap:round;stroke-linejoin:round;stroke-miterlimit:10;" points="
	39,29 30,11.5 25,11.5 "/>
<polyline style="fill:none;stroke:#FFFFFF;stroke-width:3;stroke-linecap:round;stroke-linejoin:round;stroke-miterlimit:10;" points="
	26,27 20,15.5 15,15.5 "/>
<polygon style="fill:none;stroke:#FFFFFF;stroke-width:3;stroke-linecap:round;stroke-linejoin:round;stroke-miterlimit:10;" points="
	11,29.5 25,29.5 34,20.5 22,20.5 "/>
</svg>
