<?xml version="1.0" encoding="iso-8859-1"?>
<!-- Generator: Adobe Illustrator 16.0.0, SVG Export Plug-In . SVG Version: 6.00 Build 0)  -->
<!DOCTYPE svg PUBLIC "-//W3C//DTD SVG 1.1//EN" "http://www.w3.org/Graphics/SVG/1.1/DTD/svg11.dtd">
<svg version="1.1" id="Layer_1" xmlns="http://www.w3.org/2000/svg" xmlns:xlink="http://www.w3.org/1999/xlink" x="0px" y="0px"
	 width="50px" height="50px" viewBox="0 0 50 50" style="enable-background:new 0 0 50 50;" xml:space="preserve">
<g style="opacity:0.2;">
	<path style="fill:#231F20;" d="M25,26c4.962,0,9,4.037,9,9c0,4.962-4.038,9-9,9s-9-4.038-9-9C16,30.037,20.038,26,25,26 M25,22
		c-7.18,0-13,5.82-13,13s5.82,13,13,13s13-5.82,13-13S32.18,22,25,22L25,22z"/>
</g>
<g style="opacity:0.2;">
	<path style="fill:#231F20;" d="M21.002,39.667c-0.646,0-1.281-0.313-1.666-0.891c-0.613-0.919-0.364-2.161,0.555-2.773l8-5.333
		c0.918-0.614,2.161-0.364,2.773,0.555c0.613,0.919,0.364,2.161-0.555,2.773l-8,5.333C21.769,39.558,21.383,39.667,21.002,39.667z"
		/>
</g>
<g>
	<path style="fill:#4F5D73;" d="M25,24c4.962,0,9,4.038,9,9s-4.038,9-9,9s-9-4.038-9-9S20.038,24,25,24 M25,20
		c-7.18,0-13,5.82-13,13s5.82,13,13,13s13-5.82,13-13S32.18,20,25,20L25,20z"/>
</g>
<line style="fill:none;stroke:#E0E0D1;stroke-width:4;stroke-linecap:round;stroke-miterlimit:10;" x1="25" y1="33" x2="25" y2="7.406"/>
<line style="fill:none;stroke:#FFFFFF;stroke-width:4;stroke-linecap:round;stroke-miterlimit:10;" x1="21" y1="35.667" x2="29" y2="30.333"/>
<g style="opacity:0.2;">
	<path style="fill:#231F20;" d="M24.37,10.502c-2.779,0-5.152-0.953-6.479-1.838c-0.919-0.613-1.167-1.854-0.555-2.773
		c0.61-0.916,1.844-1.167,2.764-0.561c0.22,0.141,4.896,3.071,9.62-0.866c0.848-0.707,2.109-0.593,2.817,0.256
		c0.707,0.849,0.592,2.109-0.256,2.817C29.623,9.751,26.836,10.502,24.37,10.502z"/>
</g>
<path style="fill:none;stroke:#4F5D73;stroke-width:4;stroke-linecap:round;stroke-miterlimit:10;" d="M19,5c0,0,6,4,12-1"/>
</svg>
