<?xml version="1.0" encoding="iso-8859-1"?>
<!-- Generator: Adobe Illustrator 16.0.0, SVG Export Plug-In . SVG Version: 6.00 Build 0)  -->
<!DOCTYPE svg PUBLIC "-//W3C//DTD SVG 1.1//EN" "http://www.w3.org/Graphics/SVG/1.1/DTD/svg11.dtd">
<svg version="1.1" id="Layer_1" xmlns="http://www.w3.org/2000/svg" xmlns:xlink="http://www.w3.org/1999/xlink" x="0px" y="0px"
	 width="50px" height="50px" viewBox="0 0 50 50" style="enable-background:new 0 0 50 50;" xml:space="preserve">
<g>
	<path style="opacity:0.2;fill:#231F20;" d="M12.5,33.571c2.048,0,3.714,1.667,3.714,3.714c0,2.048-1.667,3.714-3.714,3.714
		c-2.048,0-3.714-1.666-3.714-3.714C8.786,35.238,10.452,33.571,12.5,33.571 M12.5,29.571c-4.261,0-7.714,3.454-7.714,7.714
		C4.786,41.546,8.239,45,12.5,45s7.714-3.454,7.714-7.714C20.214,33.025,16.761,29.571,12.5,29.571L12.5,29.571z"/>
	<path style="opacity:0.2;fill:#231F20;" d="M40.357,33.571c2.048,0,3.714,1.667,3.714,3.714c0,2.048-1.666,3.714-3.714,3.714
		c-2.048,0-3.714-1.666-3.714-3.714C36.643,35.238,38.309,33.571,40.357,33.571 M40.357,29.571c-4.26,0-7.714,3.454-7.714,7.714
		c0,4.261,3.454,7.714,7.714,7.714c4.261,0,7.714-3.454,7.714-7.714C48.071,33.025,44.618,29.571,40.357,29.571L40.357,29.571z"/>
	<g>
		<path style="fill:#4F5D73;" d="M12.5,31.571c2.048,0,3.714,1.667,3.714,3.714c0,2.048-1.667,3.714-3.714,3.714
			c-2.048,0-3.714-1.666-3.714-3.714C8.786,33.238,10.452,31.571,12.5,31.571 M12.5,27.571c-4.261,0-7.714,3.454-7.714,7.714
			C4.786,39.546,8.239,43,12.5,43s7.714-3.454,7.714-7.714C20.214,31.025,16.761,27.571,12.5,27.571L12.5,27.571z"/>
	</g>
	<g>
		<path style="fill:#4F5D73;" d="M40.357,31.571c2.048,0,3.714,1.667,3.714,3.714c0,2.048-1.666,3.714-3.714,3.714
			c-2.048,0-3.714-1.666-3.714-3.714C36.643,33.238,38.309,31.571,40.357,31.571 M40.357,27.571c-4.26,0-7.714,3.454-7.714,7.714
			c0,4.261,3.454,7.714,7.714,7.714c4.261,0,7.714-3.454,7.714-7.714C48.071,31.025,44.618,27.571,40.357,27.571L40.357,27.571z"/>
	</g>
	<g style="opacity:0.2;">
		<path style="fill:#231F20;" d="M39.861,28.307c0,0,6.555,0.693,8.139,6.693"/>
		<path style="fill:#231F20;" d="M47.999,37c-0.886,0-1.696-0.593-1.932-1.49c-1.218-4.613-6.364-5.209-6.416-5.215
			c-1.098-0.116-1.895-1.101-1.778-2.199c0.116-1.099,1.095-1.903,2.199-1.778c0.324,0.034,7.949,0.922,9.862,8.172
			c0.282,1.068-0.355,2.162-1.423,2.444C48.339,36.979,48.167,37,47.999,37z"/>
	</g>
	<g style="opacity:0.2;">
		<path style="fill:#231F20;" d="M32.167,35.75c-7.146,0-9.538-7.315-9.805-11.184c-0.076-1.102,0.755-2.057,1.857-2.133
			c1.099-0.071,2.054,0.753,2.133,1.852l0,0c0.022,0.305,0.616,7.464,5.814,7.464c2.597,0,4.715-1.595,5.397-4.064
			c1.146-4.145-1.59-10.94-12.622-17.686h-2.549c-1.104,0-2-0.896-2-2s0.896-2,2-2H25.5c0.362,0,0.717,0.098,1.027,0.284
			c16.801,10.058,15.646,19.74,14.892,22.468C40.263,32.938,36.544,35.75,32.167,35.75z"/>
	</g>
	<g style="opacity:0.2;">
		<path style="fill:#231F20;" d="M26.929,37c0,0-1.286-10-11.572-10C5.071,27,2.5,37,2.5,37h28.333l11.417-7.561"/>
		<path style="fill:#231F20;" d="M26.926,39c-0.01,0-0.02,0-0.029,0H2.5c-0.618,0-1.202-0.286-1.581-0.774
			c-0.379-0.489-0.51-1.125-0.356-1.724C1.586,32.523,5.994,25,15.357,25c8.288,0,12.019,5.813,13.193,10h1.681l10.914-7.228
			c0.92-0.611,2.163-0.358,2.772,0.563c0.61,0.921,0.358,2.162-0.563,2.772l-11.417,7.561C31.61,38.884,31.226,39,30.833,39h-3.878
			C26.946,39,26.936,39,26.926,39z M5.497,35h18.811c-0.978-2.45-3.359-6-8.951-6C9.793,29,6.875,32.493,5.497,35z"/>
	</g>
	<g style="opacity:0.2;">
		<path style="fill:#231F20;" d="M2.5,37c0,0,4.571-11,14.857-11c10.286,0,9.572,11,9.572,11H2.5z"/>
		<path style="fill:#231F20;" d="M26.929,39H2.5c-0.668,0-1.292-0.334-1.664-0.89c-0.371-0.556-0.44-1.261-0.183-1.878
			C0.861,35.733,5.869,24,17.357,24c3.487,0,6.284,1.098,8.313,3.264c3.601,3.842,3.27,9.621,3.254,9.865
			C28.856,38.182,27.983,39,26.929,39z M5.898,35h18.938c-0.187-1.481-0.703-3.537-2.099-5.016C21.478,28.649,19.718,28,17.357,28
			C11.587,28,7.827,32.112,5.898,35z"/>
	</g>
	<g style="opacity:0.2;">
		<path style="fill:#231F20;" d="M24.357,26.429h-18c-1.104,0-2-0.896-2-2s0.896-2,2-2h18c1.104,0,2,0.896,2,2
			S25.461,26.429,24.357,26.429z"/>
	</g>
	<path style="fill:#E0995E;stroke:#F5CF87;stroke-width:4;stroke-linecap:round;stroke-linejoin:round;stroke-miterlimit:10;" d="
		M39.861,26.307c0,0,6.555,0.693,8.139,6.693"/>
	<path style="fill:#E0995E;stroke:#F5CF87;stroke-width:4;stroke-linecap:round;stroke-linejoin:round;stroke-miterlimit:10;" d="
		M26.929,35c0,0-1.286-10-11.572-10C5.071,25,2.5,35,2.5,35h28.333l11.417-7.561"/>
	<path style="fill:#E0995E;stroke:#F5CF87;stroke-width:4;stroke-linecap:round;stroke-linejoin:round;stroke-miterlimit:10;" d="
		M2.5,35c0,0,4.571-11,14.857-11c10.286,0,9.572,11,9.572,11H2.5z"/>
	<path style="fill:none;stroke:#F5CF87;stroke-width:4;stroke-linecap:round;stroke-linejoin:round;stroke-miterlimit:10;" d="
		M6.357,22.429h18c0,0,0.643,9.321,7.81,9.321c8.666,0,13.905-13.436-6.667-25.75h-3.107"/>
</g>
</svg>
