<?xml version="1.0" encoding="iso-8859-1"?>
<!-- Generator: Adobe Illustrator 16.0.0, SVG Export Plug-In . SVG Version: 6.00 Build 0)  -->
<!DOCTYPE svg PUBLIC "-//W3C//DTD SVG 1.1//EN" "http://www.w3.org/Graphics/SVG/1.1/DTD/svg11.dtd">
<svg version="1.1" id="Layer_1" xmlns="http://www.w3.org/2000/svg" xmlns:xlink="http://www.w3.org/1999/xlink" x="0px" y="0px"
	 width="50px" height="50px" viewBox="0 0 50 50" style="enable-background:new 0 0 50 50;" xml:space="preserve">
<g style="opacity:0.2;">
	<path style="fill:#231F20;" d="M12,28c3.309,0,6,2.691,6,6s-2.691,6-6,6s-6-2.691-6-6S8.691,28,12,28 M12,25c-4.971,0-9,4.029-9,9
		s4.029,9,9,9s9-4.029,9-9S16.971,25,12,25L12,25z"/>
</g>
<g style="opacity:0.2;">
	<path style="fill:#231F20;" d="M39,28c3.309,0,6,2.691,6,6s-2.691,6-6,6s-6-2.691-6-6S35.691,28,39,28 M39,25c-4.971,0-9,4.029-9,9
		s4.029,9,9,9s9-4.029,9-9S43.971,25,39,25L39,25z"/>
</g>
<g style="opacity:0.2;">
	<path style="fill:#231F20;" d="M25.5,37.498c-0.828,0-1.5-0.671-1.5-1.5V28.7l-8.229-7.933c-0.29-0.28-0.455-0.664-0.459-1.066
		c-0.004-0.402,0.154-0.79,0.439-1.074l5.188-5.188c0.567-0.569,1.485-0.589,2.078-0.042L29.087,19H32c0.828,0,1.5,0.671,1.5,1.5
		S32.828,22,32,22h-3.5c-0.377,0-0.74-0.142-1.018-0.398l-5.44-5.022l-3.089,3.088l7.588,7.314C26.834,27.265,27,27.655,27,28.063
		v7.936C27,36.827,26.328,37.498,25.5,37.498z"/>
</g>
<g style="opacity:0.2;">
	<circle style="fill:#231F20;" cx="27.5" cy="9.5" r="3.5"/>
</g>
<g>
	<path style="fill:#FFFFFF;" d="M12,26c3.309,0,6,2.691,6,6s-2.691,6-6,6s-6-2.691-6-6S8.691,26,12,26 M12,23c-4.971,0-9,4.029-9,9
		s4.029,9,9,9s9-4.029,9-9S16.971,23,12,23L12,23z"/>
</g>
<g>
	<path style="fill:#FFFFFF;" d="M39,26c3.309,0,6,2.691,6,6s-2.691,6-6,6s-6-2.691-6-6S35.691,26,39,26 M39,23c-4.971,0-9,4.029-9,9
		s4.029,9,9,9s9-4.029,9-9S43.971,23,39,23L39,23z"/>
</g>
<polyline style="fill:none;stroke:#FFFFFF;stroke-width:3;stroke-linecap:round;stroke-linejoin:round;stroke-miterlimit:10;" points="
	25.5,33.998 25.5,26.063 16.813,17.688 22,12.5 28.5,18.5 32,18.5 "/>
<circle style="fill:#FFFFFF;" cx="27.5" cy="7.5" r="3.5"/>
</svg>
