<?xml version="1.0" encoding="iso-8859-1"?>
<!-- Generator: Adobe Illustrator 16.0.0, SVG Export Plug-In . SVG Version: 6.00 Build 0)  -->
<!DOCTYPE svg PUBLIC "-//W3C//DTD SVG 1.1//EN" "http://www.w3.org/Graphics/SVG/1.1/DTD/svg11.dtd">
<svg version="1.1" id="Layer_1" xmlns="http://www.w3.org/2000/svg" xmlns:xlink="http://www.w3.org/1999/xlink" x="0px" y="0px"
	 width="50px" height="50px" viewBox="0 0 50 50" style="enable-background:new 0 0 50 50;" xml:space="preserve">
<g>
	<path style="opacity:0.2;fill:#231F20;" d="M48.824,26.433C48.637,26.162,48.329,26,48,26h-7.127l-4.064-5.588
		C36.621,20.153,36.32,20,36,20h-4.568l-3.047-4.556C28.2,15.167,27.888,15,27.554,15H12.85c-0.506,0-0.933,0.378-0.993,0.881
		L11.362,20H8c-0.483,0-0.897,0.346-0.984,0.821L6.075,26H2c-0.552,0-1,0.448-1,1c0,4.062,1.015,6.963,1.041,7.032
		C3.502,39,6.654,39,8,39h26.8c9.582,0,13.953-11.168,14.134-11.644C49.052,27.049,49.01,26.704,48.824,26.433z"/>
	<polygon style="fill:#E0E0D1;stroke:#E0E0D1;stroke-width:2;stroke-linejoin:round;stroke-miterlimit:10;" points="31.938,20.554 
		12.063,20.554 12.85,14 27.554,14 	"/>
	<polygon style="fill:#E0E0D1;stroke:#E0E0D1;stroke-width:2;stroke-linejoin:round;stroke-miterlimit:10;" points="44,30 6,30 
		8,19 36,19 	"/>
	<circle style="fill:#77B3D4;" cx="15" cy="23" r="2"/>
	<circle style="fill:#77B3D4;" cx="23" cy="23" r="2"/>
	<circle style="fill:#77B3D4;" cx="31" cy="23" r="2"/>
	<path style="fill:#FFFFFF;stroke:#FFFFFF;stroke-width:2;stroke-linejoin:round;stroke-miterlimit:10;" d="M8,36
		c0,0,17.797,0,26.8,0C43.803,36,48,25,48,25H2c0,3.936,1,6.75,1,6.75C4.25,36,6.687,36,8,36z"/>
</g>
</svg>
