<?xml version="1.0" encoding="iso-8859-1"?>
<!-- Generator: Adobe Illustrator 16.0.0, SVG Export Plug-In . SVG Version: 6.00 Build 0)  -->
<!DOCTYPE svg PUBLIC "-//W3C//DTD SVG 1.1//EN" "http://www.w3.org/Graphics/SVG/1.1/DTD/svg11.dtd">
<svg version="1.1" id="Layer_1" xmlns="http://www.w3.org/2000/svg" xmlns:xlink="http://www.w3.org/1999/xlink" x="0px" y="0px"
	 width="50px" height="50px" viewBox="0 0 50 50" style="enable-background:new 0 0 50 50;" xml:space="preserve">
<g>
	<path style="opacity:0.2;fill:#231F20;" d="M39.885,7.535C39.712,7.206,39.371,7,39,7H22c-0.379,0-0.725,0.214-0.895,0.553l-8,16
		c-0.155,0.31-0.139,0.678,0.044,0.973C13.332,24.82,13.653,25,14,25h5.453l-8.365,18.59c-0.191,0.424-0.063,0.925,0.308,1.207
		C11.574,44.933,11.787,45,12,45c0.228,0,0.455-0.078,0.641-0.232l24-20c0.323-0.27,0.443-0.712,0.3-1.108S36.421,23,36,23h-6.099
		l9.923-14.434C40.034,8.261,40.058,7.863,39.885,7.535z"/>
	<path style="fill:#F5CF87;" d="M39.885,5.535C39.712,5.206,39.371,5,39,5H22c-0.379,0-0.725,0.214-0.895,0.553l-8,16
		c-0.155,0.31-0.139,0.678,0.044,0.973C13.332,22.82,13.653,23,14,23h5.453l-8.365,18.59c-0.191,0.424-0.063,0.925,0.308,1.207
		C11.574,42.933,11.787,43,12,43c0.228,0,0.455-0.078,0.641-0.232l24-20c0.323-0.27,0.443-0.712,0.3-1.108S36.421,21,36,21h-6.099
		l9.923-14.434C40.034,6.261,40.058,5.863,39.885,5.535z"/>
</g>
</svg>
