<?xml version="1.0" encoding="iso-8859-1"?>
<!-- Generator: Adobe Illustrator 16.0.0, SVG Export Plug-In . SVG Version: 6.00 Build 0)  -->
<!DOCTYPE svg PUBLIC "-//W3C//DTD SVG 1.1//EN" "http://www.w3.org/Graphics/SVG/1.1/DTD/svg11.dtd">
<svg version="1.1" id="Layer_1" xmlns="http://www.w3.org/2000/svg" xmlns:xlink="http://www.w3.org/1999/xlink" x="0px" y="0px"
	 width="50px" height="50px" viewBox="0 0 50 50" style="enable-background:new 0 0 50 50;" xml:space="preserve">
<g style="opacity:0.2;">
	<path style="fill:#231F20;" d="M41,43c0,2.209-1.791,4-4,4H13c-2.209,0-4-1.791-4-4V11c0-2.209,1.791-4,4-4h24c2.209,0,4,1.791,4,4
		V43z"/>
</g>
<g>
	<path style="fill:#4F5D73;" d="M41,41c0,2.209-1.791,4-4,4H13c-2.209,0-4-1.791-4-4V9c0-2.209,1.791-4,4-4h24c2.209,0,4,1.791,4,4
		V41z"/>
</g>
<g style="opacity:0.2;">
	<g>
		<path style="fill:#231F20;" d="M28,7v7.846c0,0.265,0.163,0.503,0.411,0.604c0.083,0.033,0.169,0.05,0.255,0.05
			c0.173,0,0.344-0.066,0.472-0.191L32,12.502l2.862,2.807c0.127,0.125,0.298,0.191,0.472,0.191c0.086,0,0.172-0.017,0.254-0.05
			C35.837,15.349,36,15.11,36,14.846V7H28z"/>
	</g>
</g>
<g>
	<g>
		<path style="fill:#C75C5C;" d="M28,5v7.846c0,0.265,0.163,0.503,0.411,0.604c0.083,0.033,0.169,0.05,0.255,0.05
			c0.173,0,0.344-0.066,0.472-0.191L32,10.502l2.862,2.807c0.127,0.125,0.298,0.191,0.472,0.191c0.086,0,0.172-0.017,0.254-0.05
			C35.837,13.349,36,13.11,36,12.846V5H28z"/>
	</g>
</g>
<g>
	<rect x="13" y="5" style="fill:#E0E0D1;" width="3" height="40"/>
</g>
</svg>
