<?xml version="1.0" encoding="iso-8859-1"?>
<!-- Generator: Adobe Illustrator 16.0.0, SVG Export Plug-In . SVG Version: 6.00 Build 0)  -->
<!DOCTYPE svg PUBLIC "-//W3C//DTD SVG 1.1//EN" "http://www.w3.org/Graphics/SVG/1.1/DTD/svg11.dtd">
<svg version="1.1" id="Layer_1" xmlns="http://www.w3.org/2000/svg" xmlns:xlink="http://www.w3.org/1999/xlink" x="0px" y="0px"
	 width="50px" height="50px" viewBox="0 0 50 50" style="enable-background:new 0 0 50 50;" xml:space="preserve">
<g style="opacity:0.2;">
	<path style="fill:#231F20;" d="M45,41c0,1.104-0.896,2-2,2H7c-1.104,0-2-0.896-2-2l0,0c0-1.104,0.896-2,2-2h36
		C44.104,39,45,39.896,45,41L45,41z"/>
</g>
<g>
	<path style="fill:#E0995E;" d="M45,39c0,1.104-0.896,2-2,2H7c-1.104,0-2-0.896-2-2l0,0c0-1.104,0.896-2,2-2h36
		C44.104,37,45,37.896,45,39L45,39z"/>
</g>
<g>
	<path style="fill:#C75C5C;" d="M16,13h-4c-1.657,0-3,1.343-3,3v17v1v3h3h4h3v-3v-1V16C19,14.343,17.657,13,16,13z"/>
</g>
<g>
	<path style="fill:#E0E0D1;" d="M38,9h-4c-1.657,0-3,1.343-3,3v21v1v3h3h4h3v-3v-1V12C41,10.343,39.657,9,38,9z"/>
</g>
<g>
	<rect x="9" y="17" style="fill:#E0995E;" width="10" height="3"/>
</g>
<g>
	<rect x="9" y="30" style="fill:#E0995E;" width="10" height="3"/>
</g>
<g>
	<rect x="31" y="30" style="fill:#FFFFFF;" width="10" height="3"/>
</g>
<g>
	<rect x="31" y="13" style="fill:#FFFFFF;" width="10" height="3"/>
</g>
<g>
	<g style="opacity:0.2;">
		<path style="fill:#231F20;" d="M33,33V9.184c-1.163,0.413-2,1.512-2,2.816v21v1v3h2v-3V33z"/>
	</g>
	<g style="opacity:0.2;">
		<path style="fill:#231F20;" d="M19,33V16c0-1.305-0.837-2.403-2-2.816V33v1v3h2v-3V33z"/>
	</g>
</g>
<g>
	<path style="fill:#4F5D73;" d="M28,5h-6c-1.657,0-3,1.343-3,3v25v1v3h3h6h3v-3v-1V8C31,6.343,29.657,5,28,5z"/>
</g>
<g>
	<rect x="19" y="9" style="fill:#76C2AF;" width="12" height="3"/>
</g>
<g>
	<rect x="19" y="30" style="fill:#76C2AF;" width="12" height="3"/>
</g>
</svg>
