<?xml version="1.0" encoding="iso-8859-1"?>
<!-- Generator: Adobe Illustrator 16.0.0, SVG Export Plug-In . SVG Version: 6.00 Build 0)  -->
<!DOCTYPE svg PUBLIC "-//W3C//DTD SVG 1.1//EN" "http://www.w3.org/Graphics/SVG/1.1/DTD/svg11.dtd">
<svg version="1.1" id="Layer_1" xmlns="http://www.w3.org/2000/svg" xmlns:xlink="http://www.w3.org/1999/xlink" x="0px" y="0px"
	 width="50px" height="50px" viewBox="0 0 50 50" style="enable-background:new 0 0 50 50;" xml:space="preserve">
<g style="opacity:0.2;">
	<g>
		<path style="fill:#231F20;" d="M9,14v31.385c0,1.057,0.651,2.011,1.646,2.416C10.976,47.935,11.323,48,11.667,48
			c0.693,0,1.376-0.267,1.885-0.767L25,36.006l11.448,11.228C36.958,47.733,37.64,48,38.333,48c0.344,0,0.69-0.065,1.019-0.199
			C40.349,47.396,41,46.441,41,45.385V14H9z"/>
	</g>
</g>
<g>
	<g>
		<path style="fill:#F5CF87;" d="M9,12v31.385c0,1.057,0.651,2.011,1.646,2.416C10.976,45.935,11.323,46,11.667,46
			c0.693,0,1.376-0.267,1.885-0.767L25,34.006l11.448,11.228C36.958,45.733,37.64,46,38.333,46c0.344,0,0.69-0.065,1.019-0.199
			C40.349,45.396,41,44.441,41,43.385V12H9z"/>
	</g>
</g>
<g style="opacity:0.2;">
	<path style="fill:#231F20;" d="M41,14v-2c0-1.104-1.195-2-2.667-2H11.667C10.195,10,9,10.896,9,12v2H41z"/>
</g>
<g>
	<path style="fill:#E0995E;" d="M41,12V7c0-1.104-1.195-2-2.667-2H11.667C10.195,5,9,5.896,9,7v5H41z"/>
</g>
</svg>
