<?xml version="1.0" encoding="iso-8859-1"?>
<!-- Generator: Adobe Illustrator 16.0.0, SVG Export Plug-In . SVG Version: 6.00 Build 0)  -->
<!DOCTYPE svg PUBLIC "-//W3C//DTD SVG 1.1//EN" "http://www.w3.org/Graphics/SVG/1.1/DTD/svg11.dtd">
<svg version="1.1" id="Layer_1" xmlns="http://www.w3.org/2000/svg" xmlns:xlink="http://www.w3.org/1999/xlink" x="0px" y="0px"
	 width="50px" height="50px" viewBox="0 0 50 50" style="enable-background:new 0 0 50 50;" xml:space="preserve">
<g>
	<g style="opacity:0.2;">
		<path style="fill:#231F20;" d="M42,19c-1.104,0-2-0.896-2-2v-3c0-1.104,0.896-2,2-2l0,0c1.104,0,2,0.896,2,2v3
			C44,18.104,43.104,19,42,19L42,19z"/>
	</g>
	<g style="opacity:0.2;">
		<path style="fill:#231F20;" d="M42,28c-1.104,0-2-0.896-2-2v-3c0-1.104,0.896-2,2-2l0,0c1.104,0,2,0.896,2,2v3
			C44,27.104,43.104,28,42,28L42,28z"/>
	</g>
	<g style="opacity:0.2;">
		<path style="fill:#231F20;" d="M42,37c-1.104,0-2-0.896-2-2v-3c0-1.104,0.896-2,2-2l0,0c1.104,0,2,0.896,2,2v3
			C44,36.104,43.104,37,42,37L42,37z"/>
	</g>
	<g>
		<path style="fill:#77B3D4;" d="M42,17c-1.104,0-2-0.896-2-2v-3c0-1.104,0.896-2,2-2l0,0c1.104,0,2,0.896,2,2v3
			C44,16.104,43.104,17,42,17L42,17z"/>
	</g>
	<g>
		<path style="fill:#FFFFFF;" d="M42,26c-1.104,0-2-0.896-2-2v-3c0-1.104,0.896-2,2-2l0,0c1.104,0,2,0.896,2,2v3
			C44,25.104,43.104,26,42,26L42,26z"/>
	</g>
	<g>
		<path style="fill:#76C2AF;" d="M42,35c-1.104,0-2-0.896-2-2v-3c0-1.104,0.896-2,2-2l0,0c1.104,0,2,0.896,2,2v3
			C44,34.104,43.104,35,42,35L42,35z"/>
	</g>
	<g style="opacity:0.2;">
		<path style="fill:#231F20;" d="M42,43c0,2.209-1.791,4-4,4H14c-2.209,0-4-1.791-4-4V11c0-2.209,1.791-4,4-4h24
			c2.209,0,4,1.791,4,4V43z"/>
	</g>
	<g>
		<path style="fill:#E0995E;" d="M41,41c0,2.209-1.791,4-4,4H13c-2.209,0-4-1.791-4-4V9c0-2.209,1.791-4,4-4h24c2.209,0,4,1.791,4,4
			V41z"/>
	</g>
	<g>
		<rect x="15" y="5" style="fill:#4F5D73;" width="3" height="40"/>
	</g>
	<g style="opacity:0.2;">
		<g>
			<path style="fill:#231F20;" d="M13,15c0,1.104-0.896,2-2,2H8c-1.104,0-2-0.896-2-2l0,0c0-1.104,0.896-2,2-2h3
				C12.104,13,13,13.896,13,15L13,15z"/>
		</g>
		<g>
			<path style="fill:#231F20;" d="M13,23c0,1.104-0.896,2-2,2H8c-1.104,0-2-0.896-2-2l0,0c0-1.104,0.896-2,2-2h3
				C12.104,21,13,21.896,13,23L13,23z"/>
		</g>
		<g>
			<path style="fill:#231F20;" d="M13,31c0,1.104-0.896,2-2,2H8c-1.104,0-2-0.896-2-2l0,0c0-1.104,0.896-2,2-2h3
				C12.104,29,13,29.896,13,31L13,31z"/>
		</g>
		<g>
			<path style="fill:#231F20;" d="M13,39c0,1.104-0.896,2-2,2H8c-1.104,0-2-0.896-2-2l0,0c0-1.104,0.896-2,2-2h3
				C12.104,37,13,37.896,13,39L13,39z"/>
		</g>
	</g>
	<g>
		<g>
			<path style="fill:#E0E0D1;" d="M13,13c0,1.104-0.896,2-2,2H8c-1.104,0-2-0.896-2-2l0,0c0-1.104,0.896-2,2-2h3
				C12.104,11,13,11.896,13,13L13,13z"/>
		</g>
		<g>
			<path style="fill:#E0E0D1;" d="M13,21c0,1.104-0.896,2-2,2H8c-1.104,0-2-0.896-2-2l0,0c0-1.104,0.896-2,2-2h3
				C12.104,19,13,19.896,13,21L13,21z"/>
		</g>
		<g>
			<path style="fill:#E0E0D1;" d="M13,29c0,1.104-0.896,2-2,2H8c-1.104,0-2-0.896-2-2l0,0c0-1.104,0.896-2,2-2h3
				C12.104,27,13,27.896,13,29L13,29z"/>
		</g>
		<g>
			<path style="fill:#E0E0D1;" d="M13,37c0,1.104-0.896,2-2,2H8c-1.104,0-2-0.896-2-2l0,0c0-1.104,0.896-2,2-2h3
				C12.104,35,13,35.896,13,37L13,37z"/>
		</g>
	</g>
	<g>
		<circle style="fill:#F5CF87;" cx="29" cy="20" r="4"/>
	</g>
	<g>
		<path style="fill:#F5CF87;" d="M35,32.26c0,3.01-2.687,2.725-6,2.725s-6,0.285-6-2.725c0-3.011,2.687-7.268,6-7.268
			S35,29.249,35,32.26z"/>
	</g>
</g>
</svg>
