<?xml version="1.0" encoding="iso-8859-1"?>
<!-- Generator: Adobe Illustrator 16.0.0, SVG Export Plug-In . SVG Version: 6.00 Build 0)  -->
<!DOCTYPE svg PUBLIC "-//W3C//DTD SVG 1.1//EN" "http://www.w3.org/Graphics/SVG/1.1/DTD/svg11.dtd">
<svg version="1.1" id="Layer_1" xmlns="http://www.w3.org/2000/svg" xmlns:xlink="http://www.w3.org/1999/xlink" x="0px" y="0px"
	 width="50px" height="50px" viewBox="0 0 50 50" style="enable-background:new 0 0 50 50;" xml:space="preserve">
<g style="opacity:0.2;">
	<path style="fill:#231F20;" d="M36,44c0,0-10.173,2-18.917,2S3.917,38.917,3.917,38.917h41.916C45.833,38.917,44.167,43,36,44z"/>
	<path style="fill:#231F20;" d="M17.083,46.5c-8.919,0-13.403-7.02-13.59-7.319c-0.097-0.154-0.102-0.348-0.014-0.507
		c0.088-0.159,0.256-0.257,0.438-0.257h41.916c0.167,0,0.322,0.083,0.415,0.221s0.11,0.313,0.048,0.468
		c-0.072,0.178-1.873,4.367-10.235,5.391C35.994,44.511,25.775,46.5,17.083,46.5z M4.902,39.417
		c1.422,1.787,5.533,6.083,12.181,6.083c8.596,0,18.72-1.971,18.82-1.991c5.716-0.701,8.14-2.944,9.026-4.093H4.902z"/>
</g>
<path style="opacity:0.2;fill:#231F20;" d="M21.085,4.507c-0.203-0.037-0.405,0.057-0.512,0.232C20.467,4.914,20.478,5.136,20.6,5.3
	c6.73,8.975,3.678,21.564,1.9,26.919V11c0-0.25-0.185-0.461-0.433-0.496c-0.244-0.028-0.482,0.121-0.549,0.361
	C21.462,11.07,15.734,31.299,6.829,34.53c-0.228,0.083-0.363,0.318-0.321,0.557C6.55,35.326,6.757,35.5,7,35.5h15h20
	c0.276,0,0.5-0.224,0.5-0.5C42.5,8.504,21.299,4.544,21.085,4.507z"/>
<path style="fill:#FFFFFF;stroke:#FFFFFF;stroke-linejoin:round;stroke-miterlimit:10;" d="M36,42c0,0-10.173,2-18.917,2
	S3.917,36.917,3.917,36.917h41.916C45.833,36.917,44.167,41,36,42z"/>
<path style="fill:#F5CF87;stroke:#F5CF87;stroke-linejoin:round;stroke-miterlimit:10;" d="M22,9c0,0-5.75,20.644-15,24h15V9z"/>
<path style="fill:#C75C5C;stroke:#C75C5C;stroke-linejoin:round;stroke-miterlimit:10;" d="M22,33c0,0,8-18-1-30c0,0,21,3.619,21,30
	H22z"/>
</svg>
