<?xml version="1.0" encoding="iso-8859-1"?>
<!-- Generator: Adobe Illustrator 16.0.0, SVG Export Plug-In . SVG Version: 6.00 Build 0)  -->
<!DOCTYPE svg PUBLIC "-//W3C//DTD SVG 1.1//EN" "http://www.w3.org/Graphics/SVG/1.1/DTD/svg11.dtd">
<svg version="1.1" id="Layer_1" xmlns="http://www.w3.org/2000/svg" xmlns:xlink="http://www.w3.org/1999/xlink" x="0px" y="0px"
	 width="50px" height="50px" viewBox="0 0 50 50" style="enable-background:new 0 0 50 50;" xml:space="preserve">
<g style="opacity:0.2;">
	<path style="fill:#231F20;" d="M18,36.338v7.895c0,0.481,0.563,1.308,0.98,1.548l5.262,3.038c0.417,0.241,1.099,0.241,1.516,0
		l5.262-3.038c0.417-0.24,0.98-1.067,0.98-1.548v-7.895C29.888,37.392,27.516,38,25,38S20.112,37.392,18,36.338z"/>
</g>
<g>
	<path style="fill:#E0E0D1;" d="M18,34.338v7.895c0,0.481,0.563,1.308,0.98,1.548l5.262,3.038c0.417,0.241,1.099,0.241,1.516,0
		l5.262-3.038c0.417-0.24,0.98-1.067,0.98-1.548v-7.895C29.888,35.392,27.516,36,25,36S20.112,35.392,18,34.338z"/>
</g>
<g style="opacity:0.2;">
	<circle style="fill:#231F20;" cx="25" cy="27.567" r="14.433"/>
</g>
<g>
	<circle style="fill:#FFFFFF;" cx="25" cy="25" r="14.434"/>
</g>
<g>
	<path style="opacity:0.2;fill:#231F20;" d="M26.5,8.5c0,0.829-0.671,1.5-1.5,1.5l0,0c-0.829,0-1.5-0.671-1.5-1.5v-2
		C23.5,5.671,24.171,5,25,5l0,0c0.829,0,1.5,0.672,1.5,1.5V8.5z"/>
	<path style="opacity:0.2;fill:#231F20;" d="M43.5,28.5c-0.829,0-1.5-0.671-1.5-1.5l0,0c0-0.828,0.671-1.5,1.5-1.5h2
		c0.829,0,1.5,0.672,1.5,1.5l0,0c0,0.829-0.671,1.5-1.5,1.5H43.5z"/>
	<path style="opacity:0.2;fill:#231F20;" d="M6.5,25.5C7.329,25.5,8,26.171,8,27l0,0c0,0.829-0.671,1.5-1.5,1.5h-2
		C3.671,28.5,3,27.828,3,27l0,0c0-0.828,0.671-1.5,1.5-1.5H6.5z"/>
	<path style="opacity:0.2;fill:#231F20;" d="M17.049,10.229c0.415,0.717,0.168,1.635-0.549,2.049l0,0
		c-0.717,0.414-1.635,0.168-2.049-0.549l-1-1.732C13.037,9.279,13.283,8.361,14,7.947l0,0c0.717-0.414,1.635-0.168,2.049,0.549
		L17.049,10.229z"/>
	<path style="opacity:0.2;fill:#231F20;" d="M41.771,19.049c-0.717,0.414-1.635,0.168-2.049-0.549l0,0
		c-0.414-0.717-0.168-1.635,0.549-2.049l1.732-1c0.718-0.414,1.635-0.168,2.049,0.549l0,0c0.414,0.718,0.168,1.635-0.549,2.049
		L41.771,19.049z"/>
	<path style="opacity:0.2;fill:#231F20;" d="M8.229,34.951c0.717-0.414,1.635-0.168,2.049,0.549l0,0
		c0.415,0.718,0.168,1.635-0.549,2.049l-1.732,1C7.279,38.963,6.362,38.717,5.947,38l0,0c-0.414-0.717-0.168-1.635,0.549-2.049
		L8.229,34.951z"/>
	<path style="opacity:0.2;fill:#231F20;" d="M9.729,16.451c0.717,0.414,0.963,1.332,0.549,2.049l0,0
		c-0.414,0.718-1.332,0.963-2.049,0.549l-1.732-1C5.779,17.635,5.533,16.717,5.947,16l0,0c0.415-0.717,1.332-0.963,2.049-0.549
		L9.729,16.451z"/>
	<path style="opacity:0.2;fill:#231F20;" d="M40.271,37.549c-0.717-0.414-0.963-1.332-0.549-2.049l0,0
		c0.415-0.717,1.332-0.963,2.049-0.549l1.732,1c0.718,0.414,0.963,1.332,0.549,2.049l0,0c-0.415,0.718-1.332,0.963-2.049,0.549
		L40.271,37.549z"/>
	<path style="opacity:0.2;fill:#231F20;" d="M35.549,11.729c-0.414,0.717-1.332,0.963-2.049,0.549l0,0
		c-0.717-0.414-0.963-1.332-0.549-2.049l1-1.732C34.365,7.779,35.283,7.533,36,7.947l0,0c0.717,0.414,0.963,1.332,0.549,2.049
		L35.549,11.729z"/>
</g>
<g>
	<circle style="fill:#FFFFFF;" cx="25" cy="25" r="14.434"/>
</g>
<g>
	<path style="fill:#E0E0D1;" d="M26.5,6.5C26.5,7.329,25.829,8,25,8l0,0c-0.829,0-1.5-0.671-1.5-1.5v-2C23.5,3.671,24.171,3,25,3
		l0,0c0.829,0,1.5,0.671,1.5,1.5V6.5z"/>
	<path style="fill:#E0E0D1;" d="M43.5,26.5c-0.829,0-1.5-0.671-1.5-1.5l0,0c0-0.829,0.671-1.5,1.5-1.5h2c0.829,0,1.5,0.671,1.5,1.5
		l0,0c0,0.829-0.671,1.5-1.5,1.5H43.5z"/>
	<path style="fill:#E0E0D1;" d="M6.5,23.5C7.329,23.5,8,24.171,8,25l0,0c0,0.829-0.671,1.5-1.5,1.5h-2C3.671,26.5,3,25.829,3,25l0,0
		c0-0.829,0.671-1.5,1.5-1.5H6.5z"/>
	<path style="fill:#E0E0D1;" d="M17.049,8.229c0.415,0.717,0.168,1.635-0.549,2.049l0,0c-0.717,0.415-1.635,0.168-2.049-0.549
		l-1-1.732C13.037,7.279,13.283,6.362,14,5.947l0,0c0.717-0.414,1.635-0.168,2.049,0.549L17.049,8.229z"/>
	<path style="fill:#E0E0D1;" d="M41.771,17.049c-0.717,0.415-1.635,0.168-2.049-0.549l0,0c-0.414-0.717-0.168-1.635,0.549-2.049
		l1.732-1c0.718-0.415,1.635-0.168,2.049,0.549l0,0c0.414,0.717,0.168,1.635-0.549,2.049L41.771,17.049z"/>
	<path style="fill:#E0E0D1;" d="M8.229,32.951c0.717-0.415,1.635-0.168,2.049,0.549l0,0c0.415,0.717,0.168,1.635-0.549,2.049
		l-1.732,1C7.279,36.963,6.362,36.717,5.947,36l0,0c-0.414-0.717-0.168-1.635,0.549-2.049L8.229,32.951z"/>
	<path style="fill:#E0E0D1;" d="M9.729,14.451c0.717,0.414,0.963,1.332,0.549,2.049l0,0c-0.414,0.717-1.332,0.963-2.049,0.549
		l-1.732-1C5.779,15.635,5.533,14.717,5.947,14l0,0c0.415-0.717,1.332-0.963,2.049-0.549L9.729,14.451z"/>
	<path style="fill:#E0E0D1;" d="M40.271,35.549c-0.717-0.414-0.963-1.332-0.549-2.049l0,0c0.415-0.717,1.332-0.963,2.049-0.549
		l1.732,1c0.718,0.414,0.963,1.332,0.549,2.049l0,0c-0.415,0.717-1.332,0.963-2.049,0.549L40.271,35.549z"/>
	<path style="fill:#E0E0D1;" d="M35.549,9.729c-0.414,0.717-1.332,0.963-2.049,0.549l0,0c-0.717-0.414-0.963-1.332-0.549-2.049
		l1-1.732C34.365,5.779,35.283,5.533,36,5.947l0,0c0.717,0.415,0.963,1.332,0.549,2.049L35.549,9.729z"/>
</g>
</svg>
