<?xml version="1.0" encoding="iso-8859-1"?>
<!-- Generator: Adobe Illustrator 16.0.0, SVG Export Plug-In . SVG Version: 6.00 Build 0)  -->
<!DOCTYPE svg PUBLIC "-//W3C//DTD SVG 1.1//EN" "http://www.w3.org/Graphics/SVG/1.1/DTD/svg11.dtd">
<svg version="1.1" id="Layer_1" xmlns="http://www.w3.org/2000/svg" xmlns:xlink="http://www.w3.org/1999/xlink" x="0px" y="0px"
	 width="50px" height="50px" viewBox="0 0 50 50" style="enable-background:new 0 0 50 50;" xml:space="preserve">
<g>
	<circle style="fill:#C75C5C;" cx="37" cy="16" r="2"/>
	<circle style="fill:#C75C5C;" cx="47" cy="26" r="2"/>
	<path style="fill:#F5CF87;" d="M37,32c0,2.209,0,4,0,4H5c-2.209,0-4-1.791-4-4V17c0-2.209,1.791-4,4-4h30c2.209,0,2,1.791,2,4V32z"
		/>
	<path style="fill:#F5CF87;" d="M46.997,32c0,0,0.25,4-4,4h-8c0,0,0-1.791,0-4v-5c0-2.209,0-4,0-4H44c2,0,2.997,0.786,2.997,2.995
		V32z"/>
	<rect x="6" y="17" style="fill:#E0995E;" width="18" height="6"/>
	<rect x="28" y="17" style="fill:#E0995E;" width="5" height="6"/>
	<rect x="5" y="17" style="fill:#E0995E;" width="5" height="6"/>
	<circle style="fill:#E0E0D1;stroke:#4F5D73;stroke-width:2;stroke-miterlimit:10;" cx="10" cy="36" r="4"/>
	<circle style="fill:#E0E0D1;stroke:#4F5D73;stroke-width:2;stroke-miterlimit:10;" cx="38" cy="36" r="4"/>
</g>
</svg>
