<?xml version="1.0" encoding="iso-8859-1"?>
<!-- Generator: Adobe Illustrator 16.0.0, SVG Export Plug-In . SVG Version: 6.00 Build 0)  -->
<!DOCTYPE svg PUBLIC "-//W3C//DTD SVG 1.1//EN" "http://www.w3.org/Graphics/SVG/1.1/DTD/svg11.dtd">
<svg version="1.1" id="Layer_1" xmlns="http://www.w3.org/2000/svg" xmlns:xlink="http://www.w3.org/1999/xlink" x="0px" y="0px"
	 width="50px" height="50px" viewBox="0 0 50 50" style="enable-background:new 0 0 50 50;" xml:space="preserve">
<g>
	<g style="opacity:0.2;">
		<path style="fill:#231F20;" d="M5,18v25c0,2.209,1.791,4,4,4h32c2.209,0,4-1.791,4-4V18H5z"/>
	</g>
	<g>
		<path style="fill:#FFFFFF;" d="M5,16v25c0,2.209,1.791,4,4,4h32c2.209,0,4-1.791,4-4V16H5z"/>
	</g>
	<g style="opacity:0.2;">
		<path style="fill:#231F20;" d="M41,7H9c-2.209,0-4,1.791-4,4v7h40v-7C45,8.791,43.209,7,41,7z"/>
	</g>
	<g>
		<path style="fill:#C75C5C;" d="M41,5H9C6.791,5,5,6.791,5,9v7h40V9C45,6.791,43.209,5,41,5z"/>
	</g>
	<g>
		<path style="fill:#4F5D73;" d="M25,41c-1.104,0-2-0.896-2-2c0-5.515,1.757-9.455,3.491-12H20c-1.104,0-2-0.896-2-2s0.896-2,2-2h11
			c0.871,0,1.642,0.563,1.906,1.394s-0.039,1.735-0.75,2.238C31.957,26.778,27,30.493,27,39C27,40.104,26.104,41,25,41z"/>
	</g>
	<g style="opacity:0.2;">
		<path style="fill:#231F20;" d="M13,14c-1.104,0-2-0.896-2-2V5c0-1.104,0.896-2,2-2l0,0c1.104,0,2,0.896,2,2v7
			C15,13.104,14.104,14,13,14L13,14z"/>
	</g>
	<g style="opacity:0.2;">
		<path style="fill:#231F20;" d="M38,14c-1.104,0-2-0.896-2-2V5c0-1.104,0.896-2,2-2l0,0c1.104,0,2,0.896,2,2v7
			C40,13.104,39.104,14,38,14L38,14z"/>
	</g>
	<g>
		<path style="fill:#E0E0D1;" d="M13,12c-1.104,0-2-0.896-2-2V3c0-1.104,0.896-2,2-2l0,0c1.104,0,2,0.896,2,2v7
			C15,11.104,14.104,12,13,12L13,12z"/>
	</g>
	<g>
		<path style="fill:#E0E0D1;" d="M38,12c-1.104,0-2-0.896-2-2V3c0-1.104,0.896-2,2-2l0,0c1.104,0,2,0.896,2,2v7
			C40,11.104,39.104,12,38,12L38,12z"/>
	</g>
</g>
</svg>
