<?xml version="1.0" encoding="iso-8859-1"?>
<!-- Generator: Adobe Illustrator 16.0.0, SVG Export Plug-In . SVG Version: 6.00 Build 0)  -->
<!DOCTYPE svg PUBLIC "-//W3C//DTD SVG 1.1//EN" "http://www.w3.org/Graphics/SVG/1.1/DTD/svg11.dtd">
<svg version="1.1" id="Layer_1" xmlns="http://www.w3.org/2000/svg" xmlns:xlink="http://www.w3.org/1999/xlink" x="0px" y="0px"
	 width="50px" height="50px" viewBox="0 0 50 50" style="enable-background:new 0 0 50 50;" xml:space="preserve">
<g>
	<g style="opacity:0.2;">
		<path style="fill:#231F20;" d="M42.5,15.333h-5c0,0-1.445,0-2.5-2.666C34.463,11.31,33.88,10,32.5,10h-10
			c-1.38,0-1.98,1.302-2.5,2.667c-1.015,2.666-2.5,2.666-2.5,2.666H15c0-1.472-1.12-2.666-2.5-2.666H10c-1.38,0-2.5,1.194-2.5,2.666
			C6.12,15.333,5,16.528,5,18v21.333C5,40.806,6.12,42,7.5,42h35c1.38,0,2.5-1.194,2.5-2.667V18C45,16.528,43.88,15.333,42.5,15.333
			z"/>
	</g>
	<g>
		<path style="fill:#4F5D73;" d="M42.5,13h-5c0,0-1.445,0.333-2.5-2.333C34.463,9.31,33.88,8,32.5,8h-10
			c-1.38,0-1.98,1.302-2.5,2.667C18.985,13.333,17.5,13,17.5,13H15c0-1.472-1.12-2-2.5-2H10c-1.38,0-2.5,0.528-2.5,2
			C6.12,13,5,14.528,5,16v21.333C5,38.806,6.12,40,7.5,40h35c1.38,0,2.5-1.194,2.5-2.667V16C45,14.528,43.88,13,42.5,13z"/>
	</g>
	<g>
		<circle style="fill:#77B3D4;" cx="27" cy="26" r="9"/>
	</g>
	<g style="opacity:0.2;">
		<g>
			<path style="fill:#231F20;" d="M27,39c-6.065,0-11-4.935-11-11s4.935-11,11-11s11,4.935,11,11S33.065,39,27,39z M27,21
				c-3.859,0-7,3.141-7,7s3.141,7,7,7s7-3.141,7-7S30.859,21,27,21z"/>
		</g>
	</g>
	<g>
		<path style="fill:#FFFFFF;" d="M27,36.5c-5.79,0-10.5-4.71-10.5-10.5S21.21,15.5,27,15.5S37.5,20.21,37.5,26S32.79,36.5,27,36.5z
			 M27,18.5c-4.136,0-7.5,3.364-7.5,7.5s3.364,7.5,7.5,7.5s7.5-3.364,7.5-7.5S31.136,18.5,27,18.5z"/>
	</g>
</g>
</svg>
