<?xml version="1.0" encoding="iso-8859-1"?>
<!-- Generator: Adobe Illustrator 16.0.0, SVG Export Plug-In . SVG Version: 6.00 Build 0)  -->
<!DOCTYPE svg PUBLIC "-//W3C//DTD SVG 1.1//EN" "http://www.w3.org/Graphics/SVG/1.1/DTD/svg11.dtd">
<svg version="1.1" id="Layer_1" xmlns="http://www.w3.org/2000/svg" xmlns:xlink="http://www.w3.org/1999/xlink" x="0px" y="0px"
	 width="50px" height="50px" viewBox="0 0 50 50" style="enable-background:new 0 0 50 50;" xml:space="preserve">
<g style="opacity:0.2;">
	<path style="fill:#231F20;" d="M25,5C12.85,5,3,14.85,3,27s9.85,22,22,22s22-9.85,22-22S37.15,5,25,5z M41,27
		c0,3.329-1.024,6.423-2.771,8.986L16.014,13.771C18.577,12.024,21.67,11,25,11C33.822,11,41,18.178,41,27z M9,27
		c0-3.329,1.024-6.423,2.771-8.986l22.215,22.215C31.423,41.976,28.33,43,25,43C16.178,43,9,35.822,9,27z"/>
</g>
<g>
	<path style="fill:#C75C5C;" d="M25,9c8.822,0,16,7.178,16,16s-7.178,16-16,16S9,33.822,9,25S16.178,9,25,9 M25,3
		C12.85,3,3,12.85,3,25s9.85,22,22,22s22-9.85,22-22S37.15,3,25,3L25,3z"/>
</g>
<g>
	
		<rect x="5.201" y="22" transform="matrix(0.7071 0.7071 -0.7071 0.7071 25 -10.3553)" style="fill:#C75C5C;" width="39.598" height="5.999"/>
</g>
</svg>
