<?xml version="1.0" encoding="iso-8859-1"?>
<!-- Generator: Adobe Illustrator 16.0.0, SVG Export Plug-In . SVG Version: 6.00 Build 0)  -->
<!DOCTYPE svg PUBLIC "-//W3C//DTD SVG 1.1//EN" "http://www.w3.org/Graphics/SVG/1.1/DTD/svg11.dtd">
<svg version="1.1" id="Layer_1" xmlns="http://www.w3.org/2000/svg" xmlns:xlink="http://www.w3.org/1999/xlink" x="0px" y="0px"
	 width="50px" height="50px" viewBox="0 0 50 50" style="enable-background:new 0 0 50 50;" xml:space="preserve">
<g>
	<path style="opacity:0.2;fill:#231F20;" d="M13,43c0,1.104-0.896,2-2,2H9c-1.104,0-2-0.896-2-2V32c0-1.104,0.896-2,2-2h2
		c1.104,0,2,0.896,2,2V43z"/>
	<path style="opacity:0.2;fill:#231F20;" d="M43,43c0,1.104-0.896,2-2,2h-2c-1.104,0-2-0.896-2-2V32c0-1.104,0.896-2,2-2h2
		c1.104,0,2,0.896,2,2V43z"/>
	<path style="fill:#4F5D73;" d="M13,41c0,1.104-0.896,2-2,2H9c-1.104,0-2-0.896-2-2V30c0-1.104,0.896-2,2-2h2c1.104,0,2,0.896,2,2
		V41z"/>
	<path style="fill:#4F5D73;" d="M43,41c0,1.104-0.896,2-2,2h-2c-1.104,0-2-0.896-2-2V30c0-1.104,0.896-2,2-2h2c1.104,0,2,0.896,2,2
		V41z"/>
	<g style="opacity:0.2;">
		<path style="fill:#231F20;" d="M37,30H13c-3.309,0-6-2.691-6-6l0.039-0.392l2.03-10.129C9.995,10.048,12.212,8,15,8h20
			c2.788,0,5.005,2.048,5.931,5.479l0.03,0.129L43,24C43,27.309,40.309,30,37,30z M11.007,24.165C11.091,25.19,11.953,26,13,26h24
			c1.047,0,1.909-0.81,1.993-1.835l-1.94-9.704C36.833,13.674,36.222,12,35,12H15c-1.222,0-1.833,1.674-2.053,2.461L11.007,24.165z"
			/>
	</g>
	<path style="fill:none;stroke:#C75C5C;stroke-width:4;stroke-miterlimit:10;" d="M41,22c0,2.209-1.791,4-4,4H13
		c-2.209,0-4-1.791-4-4l2-10c0.54-2,1.791-4,4-4h20c2.209,0,3.46,2,4,4L41,22z"/>
	<g style="opacity:0.2;">
		<path style="fill:#231F20;" d="M45,35c0,2.209-1.791,4-4,4H9c-2.209,0-4-1.791-4-4v-5c0-2.209,1.791-4,4-4h32c2.209,0,4,1.791,4,4
			V35z"/>
		<path style="fill:#231F20;" d="M41,41H9c-3.309,0-6-2.691-6-6v-5c0-3.309,2.691-6,6-6h32c3.309,0,6,2.691,6,6v5
			C47,38.309,44.309,41,41,41z M9,28c-1.103,0-2,0.897-2,2v5c0,1.103,0.897,2,2,2h32c1.103,0,2-0.897,2-2v-5c0-1.103-0.897-2-2-2H9z
			"/>
	</g>
	<path style="fill:#C75C5C;stroke:#C75C5C;stroke-width:4;stroke-miterlimit:10;" d="M45,33c0,2.209-1.791,4-4,4H9
		c-2.209,0-4-1.791-4-4v-5c0-2.209,1.791-4,4-4h32c2.209,0,4,1.791,4,4V33z"/>
	<path style="fill:#F5CF87;stroke:#C75C5C;stroke-width:2;stroke-miterlimit:10;" d="M14,31c0,2.209-1.791,4-4,4l0,0
		c-2.209,0-4-1.791-4-4l0,0c0-2.209,1.791-4,4-4l0,0C12.209,27,14,28.791,14,31L14,31z"/>
	<path style="fill:#F5CF87;stroke:#C75C5C;stroke-width:2;stroke-miterlimit:10;" d="M44,31c0,2.209-1.791,4-4,4l0,0
		c-2.209,0-4-1.791-4-4l0,0c0-2.209,1.791-4,4-4l0,0C42.209,27,44,28.791,44,31L44,31z"/>
</g>
</svg>
