<?xml version="1.0" encoding="iso-8859-1"?>
<!-- Generator: Adobe Illustrator 16.0.0, SVG Export Plug-In . SVG Version: 6.00 Build 0)  -->
<!DOCTYPE svg PUBLIC "-//W3C//DTD SVG 1.1//EN" "http://www.w3.org/Graphics/SVG/1.1/DTD/svg11.dtd">
<svg version="1.1" id="Layer_1" xmlns="http://www.w3.org/2000/svg" xmlns:xlink="http://www.w3.org/1999/xlink" x="0px" y="0px"
	 width="50px" height="50px" viewBox="0 0 50 50" style="enable-background:new 0 0 50 50;" xml:space="preserve">
<g style="opacity:0.2;">
	<g>
		<path style="fill:#231F20;" d="M37,41c0,2.209-1.791,4-4,4H17c-2.209,0-4-1.791-4-4V9c0-2.209,1.791-4,4-4h16c2.209,0,4,1.791,4,4
			V41z"/>
	</g>
</g>
<g>
	<g>
		<path style="fill:#4F5D73;" d="M17,41.5c-1.379,0-2.5-1.121-2.5-2.5V7c0-1.379,1.121-2.5,2.5-2.5h16c1.379,0,2.5,1.121,2.5,2.5v32
			c0,1.379-1.121,2.5-2.5,2.5H17z"/>
	</g>
	<g>
		<path style="fill:#FFFFFF;" d="M33,6c0.552,0,1,0.448,1,1v32c0,0.552-0.448,1-1,1H17c-0.552,0-1-0.448-1-1V7c0-0.552,0.448-1,1-1
			H33 M33,3H17c-2.209,0-4,1.791-4,4v32c0,2.209,1.791,4,4,4h16c2.209,0,4-1.791,4-4V7C37,4.791,35.209,3,33,3L33,3z"/>
	</g>
</g>
<g style="opacity:0.2;">
	<polygon style="fill:#FFFFFF;" points="19.25,4.5 35.001,42.62 35.001,4.5 	"/>
</g>
<g>
	<polygon style="fill:#FFFFFF;" points="33,43 17,43 13,35 37,35 	"/>
</g>
<g>
	<circle style="fill:#E0E0D1;" cx="25" cy="39" r="2"/>
</g>
</svg>
