<?xml version="1.0" encoding="iso-8859-1"?>
<!-- Generator: Adobe Illustrator 16.0.0, SVG Export Plug-In . SVG Version: 6.00 Build 0)  -->
<!DOCTYPE svg PUBLIC "-//W3C//DTD SVG 1.1//EN" "http://www.w3.org/Graphics/SVG/1.1/DTD/svg11.dtd">
<svg version="1.1" id="Layer_1" xmlns="http://www.w3.org/2000/svg" xmlns:xlink="http://www.w3.org/1999/xlink" x="0px" y="0px"
	 width="50px" height="50px" viewBox="0 0 50 50" style="enable-background:new 0 0 50 50;" xml:space="preserve">
<g style="opacity:0.2;">
	<g>
		<path style="fill:#231F20;" d="M39,38c0,2.209-1.791,4-4,4H15c-2.209,0-4-1.791-4-4V18c0-2.209,1.791-4,4-4h20
			c2.209,0,4,1.791,4,4V38z"/>
	</g>
</g>
<g>
	<g>
		<path style="fill:#FFFFFF;" d="M15,38c-1.103,0-2-0.897-2-2V16c0-1.103,0.897-2,2-2h20c1.103,0,2,0.897,2,2v20
			c0,1.103-0.897,2-2,2H15z"/>
	</g>
	<g>
		<path style="fill:#4F5D73;" d="M35,16v20H15V16H35 M35,12H15c-2.209,0-4,1.791-4,4v20c0,2.209,1.791,4,4,4h20c2.209,0,4-1.791,4-4
			V16C39,13.791,37.209,12,35,12L35,12z"/>
	</g>
</g>
<g style="opacity:0.2;">
	<g>
		<path style="fill:#231F20;" d="M25.452,34c-0.618,0-1.208-0.287-1.588-0.785l-6.12-8c-0.671-0.877-0.503-2.133,0.375-2.804
			c0.876-0.669,2.132-0.503,2.803,0.374l4.188,5.475c2.31-4.155,7.326-11.783,15.306-16.939c0.927-0.6,2.166-0.334,2.765,0.595
			c0.6,0.927,0.334,2.165-0.595,2.765c-10.207,6.596-15.249,18.003-15.299,18.117c-0.282,0.65-0.888,1.103-1.592,1.188
			C25.613,33.995,25.532,34,25.452,34z"/>
	</g>
</g>
<g>
	<path style="fill:#C75C5C;" d="M25.452,32c-0.618,0-1.207-0.287-1.589-0.785l-6.119-8c-0.671-0.877-0.504-2.133,0.374-2.804
		c0.877-0.67,2.134-0.503,2.804,0.374l4.188,5.475c2.309-4.155,7.325-11.783,15.305-16.939c0.929-0.599,2.166-0.333,2.766,0.594
		c0.6,0.928,0.334,2.166-0.594,2.766c-10.208,6.596-15.25,18.003-15.3,18.117c-0.282,0.65-0.888,1.103-1.592,1.188
		C25.613,31.995,25.532,32,25.452,32z"/>
</g>
</svg>
