<?xml version="1.0" encoding="iso-8859-1"?>
<!-- Generator: Adobe Illustrator 16.0.0, SVG Export Plug-In . SVG Version: 6.00 Build 0)  -->
<!DOCTYPE svg PUBLIC "-//W3C//DTD SVG 1.1//EN" "http://www.w3.org/Graphics/SVG/1.1/DTD/svg11.dtd">
<svg version="1.1" id="Layer_1" xmlns="http://www.w3.org/2000/svg" xmlns:xlink="http://www.w3.org/1999/xlink" x="0px" y="0px"
	 width="50px" height="50px" viewBox="0 0 50 50" style="enable-background:new 0 0 50 50;" xml:space="preserve">
<g style="opacity:0.2;">
	<g>
		<path style="fill:#231F20;" d="M39,38c0,2.209-1.791,4-4,4H15c-2.209,0-4-1.791-4-4V18c0-2.209,1.791-4,4-4h20
			c2.209,0,4,1.791,4,4V38z"/>
	</g>
</g>
<g>
	<g>
		<path style="fill:#FFFFFF;" d="M15,38c-1.103,0-2-0.897-2-2V16c0-1.103,0.897-2,2-2h20c1.103,0,2,0.897,2,2v20
			c0,1.103-0.897,2-2,2H15z"/>
	</g>
	<g>
		<path style="fill:#4F5D73;" d="M35,16v20H15V16H35 M35,12H15c-2.209,0-4,1.791-4,4v20c0,2.209,1.791,4,4,4h20c2.209,0,4-1.791,4-4
			V16C39,13.791,37.209,12,35,12L35,12z"/>
	</g>
</g>
<g style="opacity:0.2;">
	<g>
		<path style="fill:#231F20;" d="M39.998,44.382c-0.661,0-1.308-0.327-1.688-0.925C26.478,24.891,7.34,15.513,7.147,15.42
			c-0.994-0.479-1.412-1.675-0.934-2.669c0.479-0.995,1.673-1.412,2.668-0.936c0.825,0.396,20.337,9.934,32.801,29.491
			c0.594,0.932,0.32,2.168-0.611,2.762C40.738,44.28,40.365,44.382,39.998,44.382z"/>
	</g>
</g>
<g>
	<path style="fill:#C75C5C;" d="M39.998,42.382c-0.661,0-1.307-0.327-1.688-0.925C26.478,22.891,7.34,13.513,7.148,13.42
		c-0.995-0.479-1.413-1.675-0.934-2.669s1.671-1.413,2.668-0.936c0.824,0.396,20.337,9.934,32.8,29.491
		c0.594,0.932,0.32,2.168-0.612,2.762C40.738,42.28,40.366,42.382,39.998,42.382z"/>
</g>
<g style="opacity:0.2;">
	<g>
		<path style="fill:#231F20;" d="M10.617,45.047c-0.46,0-0.922-0.157-1.299-0.479c-0.84-0.719-0.938-1.98-0.221-2.82
			c0.158-0.185,15.932-18.611,28.841-32.064c0.765-0.797,2.032-0.823,2.828-0.059c0.797,0.765,0.823,2.031,0.059,2.828
			c-12.83,13.369-28.53,31.711-28.687,31.895C11.742,44.81,11.182,45.047,10.617,45.047z"/>
	</g>
</g>
<g>
	<path style="fill:#C75C5C;" d="M10.617,43.047c-0.46,0-0.922-0.157-1.299-0.479c-0.839-0.719-0.938-1.98-0.22-2.82
		c0.158-0.185,15.931-18.611,28.841-32.064c0.764-0.797,2.03-0.824,2.828-0.059c0.797,0.765,0.823,2.031,0.058,2.828
		C27.996,23.821,12.295,42.163,12.138,42.347C11.743,42.81,11.182,43.047,10.617,43.047z"/>
</g>
</svg>
