<?xml version="1.0" encoding="iso-8859-1"?>
<!-- Generator: Adobe Illustrator 16.0.0, SVG Export Plug-In . SVG Version: 6.00 Build 0)  -->
<!DOCTYPE svg PUBLIC "-//W3C//DTD SVG 1.1//EN" "http://www.w3.org/Graphics/SVG/1.1/DTD/svg11.dtd">
<svg version="1.1" id="Layer_1" xmlns="http://www.w3.org/2000/svg" xmlns:xlink="http://www.w3.org/1999/xlink" x="0px" y="0px"
	 width="50px" height="50px" viewBox="0 0 50 50" style="enable-background:new 0 0 50 50;" xml:space="preserve">
<g style="opacity:0.2;">
	<path style="fill:#231F20;" d="M12,6.831c-4.47,2.887-7.917,7.217-9.685,12.334L12,28.85V6.831z"/>
</g>
<g style="opacity:0.2;">
	<path style="fill:#231F20;" d="M1.425,22.517C1.15,23.97,1,25.467,1,27c0,3.57,0.786,6.955,2.184,10h12.725L1.425,22.517z"/>
</g>
<g style="opacity:0.2;">
	<path style="fill:#231F20;" d="M20.517,49.575C21.97,49.85,23.467,50,25,50c3.57,0,6.955-0.786,10-2.184V35.092L20.517,49.575z"/>
</g>
<g style="opacity:0.2;">
	<path style="fill:#231F20;" d="M4.831,39c2.887,4.47,7.217,7.917,12.334,9.685L26.85,39H4.831z"/>
</g>
<g style="opacity:0.2;">
	<path style="fill:#231F20;" d="M48.575,30.483C48.85,29.03,49,27.533,49,26c0-3.57-0.786-6.955-2.184-10H34.092L48.575,30.483z"/>
</g>
<g style="opacity:0.2;">
	<path style="fill:#231F20;" d="M38,47.169c4.47-2.887,7.917-7.217,9.685-12.334L38,25.15V47.169z"/>
</g>
<g style="opacity:0.2;">
	<path style="fill:#231F20;" d="M45.169,13c-2.887-4.47-7.217-7.917-12.334-9.685L23.15,13H45.169z"/>
</g>
<g style="opacity:0.2;">
	<path style="fill:#231F20;" d="M29.483,2.425C28.03,2.15,26.533,2,25,2c-3.57,0-6.955,0.786-10,2.184v12.725L29.483,2.425z"/>
</g>
<g>
	<g>
		<path style="fill:#4F5D73;" d="M12,3.831c-4.47,2.887-7.917,7.217-9.685,12.334L12,25.85V3.831z"/>
	</g>
	<g>
		<path style="fill:#4F5D73;" d="M1.425,19.517C1.15,20.97,1,22.467,1,24c0,3.57,0.786,6.955,2.184,10h12.725L1.425,19.517z"/>
	</g>
	<g>
		<path style="fill:#4F5D73;" d="M20.517,47.575C21.97,47.85,23.467,48,25,48c3.57,0,6.955-0.786,10-2.184V33.092L20.517,47.575z"/>
	</g>
	<g>
		<path style="fill:#4F5D73;" d="M4.831,37c2.887,4.47,7.217,7.917,12.334,9.685L26.85,37H4.831z"/>
	</g>
	<g>
		<path style="fill:#4F5D73;" d="M48.575,28.483C48.85,27.03,49,25.533,49,24c0-3.57-0.786-6.955-2.184-10H34.092L48.575,28.483z"/>
	</g>
	<g>
		<path style="fill:#4F5D73;" d="M38,44.169c4.47-2.887,7.917-7.217,9.685-12.334L38,22.15V44.169z"/>
	</g>
	<g>
		<path style="fill:#4F5D73;" d="M45.169,11c-2.887-4.47-7.217-7.917-12.334-9.685L23.15,11H45.169z"/>
	</g>
	<g>
		<path style="fill:#4F5D73;" d="M29.483,0.425C28.03,0.15,26.533,0,25,0c-3.57,0-6.955,0.786-10,2.184v12.725L29.483,0.425z"/>
	</g>
</g>
</svg>
