<?xml version="1.0" encoding="iso-8859-1"?>
<!-- Generator: Adobe Illustrator 16.0.0, SVG Export Plug-In . SVG Version: 6.00 Build 0)  -->
<!DOCTYPE svg PUBLIC "-//W3C//DTD SVG 1.1//EN" "http://www.w3.org/Graphics/SVG/1.1/DTD/svg11.dtd">
<svg version="1.1" id="Layer_1" xmlns="http://www.w3.org/2000/svg" xmlns:xlink="http://www.w3.org/1999/xlink" x="0px" y="0px"
	 width="50px" height="50px" viewBox="0 0 50 50" style="enable-background:new 0 0 50 50;" xml:space="preserve">
<path style="fill:none;stroke:#E0E0D1;stroke-width:4;stroke-linecap:round;stroke-miterlimit:10;" d="M37.237,27.309
	c-6.304,7.474-18.171,7.474-24.475,0"/>
<line style="fill:none;stroke:#E0E0D1;stroke-width:4;stroke-linecap:round;stroke-linejoin:round;stroke-miterlimit:10;" x1="25" y1="10" x2="25" y2="5"/>
<g style="opacity:0.2;">
	<path style="fill:#231F20;" d="M40.761,44.052L28.743,21.734c-1.396,1.225-3.018,1.672-5.041,0.744
		c-0.748-0.342-1.484-0.772-2.157-1.28L9.239,44.052c-0.524,0.973-0.16,2.186,0.813,2.709c0.974,0.525,2.186,0.159,2.709-0.813
		L25,23.219l12.239,22.729C37.6,46.619,38.29,47,39.002,47c0.32,0,0.645-0.077,0.946-0.239
		C40.921,46.237,41.285,45.024,40.761,44.052z"/>
</g>
<path style="fill:none;stroke:#E0E0D1;stroke-width:4;stroke-linecap:round;stroke-linejoin:round;stroke-miterlimit:10;" d="
	M28.145,22.839C32.272,30.505,39,43,39,43"/>
<path style="fill:none;stroke:#E0E0D1;stroke-width:4;stroke-linecap:round;stroke-linejoin:round;stroke-miterlimit:10;" d="M11,43
	c0,0,6.843-12.708,10.96-20.355"/>
<g style="opacity:0.2;">
	<path style="fill:#231F20;" d="M25,27c-4.411,0-8-3.589-8-8s3.589-8,8-8s8,3.589,8,8S29.411,27,25,27z M25,15c-2.206,0-4,1.794-4,4
		s1.794,4,4,4s4-1.794,4-4S27.206,15,25,15z"/>
</g>
<circle style="fill:none;stroke:#E0E0D1;stroke-width:4;stroke-miterlimit:10;" cx="25" cy="17" r="6"/>
</svg>
