<?xml version="1.0" encoding="iso-8859-1"?>
<!-- Generator: Adobe Illustrator 16.0.0, SVG Export Plug-In . SVG Version: 6.00 Build 0)  -->
<!DOCTYPE svg PUBLIC "-//W3C//DTD SVG 1.1//EN" "http://www.w3.org/Graphics/SVG/1.1/DTD/svg11.dtd">
<svg version="1.1" id="Layer_1" xmlns="http://www.w3.org/2000/svg" xmlns:xlink="http://www.w3.org/1999/xlink" x="0px" y="0px"
	 width="50px" height="50px" viewBox="0 0 50 50" style="enable-background:new 0 0 50 50;" xml:space="preserve">
<g style="opacity:0.2;">
	<path style="fill:#231F20;" d="M43.328,22h-5.656h-6.344h-5.656h-6.344h-5.656H5v7v15c0,1.104,0.896,2,2,2h36c1.104,0,2-0.896,2-2
		V29v-7H43.328z"/>
	<path style="fill:#231F20;" d="M11.063,20.735l6.092-1.271l5.432-1.133l6.092-1.271l5.432-1.133l10.048-2.096l-1.226-5.874
		c-0.226-1.082-1.285-1.775-2.366-1.549l-0.56,0.117l-5.432,1.133l-6.092,1.271l-5.432,1.133l-6.092,1.271l-5.432,1.133L5.324,13.76
		c-1.081,0.226-1.775,1.285-1.55,2.366L5,22l0.631-0.132L11.063,20.735z"/>
</g>
<path style="fill:#4F5D73;" d="M5,27v15c0,1.104,0.896,2,2,2h36c1.104,0,2-0.896,2-2V27H5z"/>
<g>
	<polygon style="fill:#4F5D73;" points="5,20 5,27 6.672,27 13.672,20 	"/>
	<polygon style="fill:#4F5D73;" points="31.328,20 24.328,27 30.672,27 37.672,20 	"/>
	<polygon style="fill:#4F5D73;" points="19.328,20 12.328,27 18.672,27 25.672,20 	"/>
	<polygon style="fill:#FFFFFF;" points="13.672,20 6.672,27 12.328,27 19.328,20 	"/>
	<polygon style="fill:#FFFFFF;" points="25.672,20 18.672,27 24.328,27 31.328,20 	"/>
	<polygon style="fill:#FFFFFF;" points="37.672,20 30.672,27 36.328,27 43.328,20 	"/>
	<g>
		<polygon style="fill:#4F5D73;" points="45,20 43.328,20 36.328,27 42.344,27 45,24.344 		"/>
		<polygon style="fill:#FFFFFF;" points="42.344,27 45,27 45,24.344 		"/>
	</g>
</g>
<g>
	<polygon style="fill:#4F5D73;" points="16.959,9.333 11.063,18.735 17.154,17.464 23.051,8.062 	"/>
	<polygon style="fill:#4F5D73;" points="28.482,6.929 22.586,16.332 28.678,15.061 34.574,5.658 	"/>
	<path style="fill:#4F5D73;" d="M5.324,11.76c-1.081,0.226-1.775,1.285-1.55,2.366L5,20l0.631-0.132l5.896-9.402L5.324,11.76z"/>
	<polygon style="fill:#FFFFFF;" points="11.527,10.466 5.631,19.868 11.063,18.735 16.959,9.333 	"/>
	<polygon style="fill:#FFFFFF;" points="23.051,8.062 17.154,17.464 22.586,16.332 28.482,6.929 	"/>
	<polygon style="fill:#FFFFFF;" points="40.006,4.525 34.574,5.658 28.678,15.061 34.109,13.928 	"/>
	<g>
		<path style="fill:#4F5D73;" d="M42.932,5.958c-0.226-1.082-1.285-1.775-2.366-1.55l-0.56,0.117l-5.896,9.402l6.108-1.274
			l3.085-4.919L42.932,5.958z"/>
		<polygon style="fill:#FFFFFF;" points="43.303,7.734 40.218,12.653 44.157,11.832 		"/>
	</g>
</g>
<circle style="opacity:0.2;fill:#231F20;" cx="6" cy="22" r="3"/>
<circle style="fill:#4F5D73;" cx="6" cy="20" r="3"/>
</svg>
