<?xml version="1.0" encoding="iso-8859-1"?>
<!-- Generator: Adobe Illustrator 16.0.0, SVG Export Plug-In . SVG Version: 6.00 Build 0)  -->
<!DOCTYPE svg PUBLIC "-//W3C//DTD SVG 1.1//EN" "http://www.w3.org/Graphics/SVG/1.1/DTD/svg11.dtd">
<svg version="1.1" id="Layer_1" xmlns="http://www.w3.org/2000/svg" xmlns:xlink="http://www.w3.org/1999/xlink" x="0px" y="0px"
	 width="50px" height="50px" viewBox="0 0 50 50" style="enable-background:new 0 0 50 50;" xml:space="preserve">
<g style="opacity:0.2;">
	<path style="fill:#231F20;" d="M25,9c9.925,0,18,8.075,18,18s-8.075,18-18,18S7,36.925,7,27S15.075,9,25,9z M25,5
		C12.85,5,3,14.85,3,27s9.85,22,22,22s22-9.85,22-22S37.15,5,25,5L25,5z"/>
</g>
<g>
	<path style="fill:#C75C5C;" d="M25,7c9.925,0,18,8.075,18,18s-8.075,18-18,18S7,34.925,7,25S15.075,7,25,7 M25,3
		C12.85,3,3,12.85,3,25s9.85,22,22,22s22-9.85,22-22S37.15,3,25,3L25,3z"/>
</g>
<g style="opacity:0.2;">
	<g>
		<path style="fill:#231F20;" d="M33,37c-0.512,0-1.023-0.195-1.414-0.586L23,27.829V19c0-1.104,0.896-2,2-2s2,0.896,2,2v7.171
			l7.414,7.415c0.781,0.781,0.781,2.047,0,2.828C34.023,36.805,33.512,37,33,37z"/>
	</g>
</g>
<g>
	<path style="fill:#4F5D73;" d="M33,35c-0.512,0-1.023-0.195-1.414-0.586L23,25.829V17c0-1.104,0.896-2,2-2s2,0.896,2,2v7.171
		l7.414,7.415c0.781,0.781,0.781,2.047,0,2.828C34.023,34.805,33.512,35,33,35z"/>
</g>
</svg>
