<?xml version="1.0" encoding="iso-8859-1"?>
<!-- Generator: Adobe Illustrator 16.0.0, SVG Export Plug-In . SVG Version: 6.00 Build 0)  -->
<!DOCTYPE svg PUBLIC "-//W3C//DTD SVG 1.1//EN" "http://www.w3.org/Graphics/SVG/1.1/DTD/svg11.dtd">
<svg version="1.1" id="Layer_1" xmlns="http://www.w3.org/2000/svg" xmlns:xlink="http://www.w3.org/1999/xlink" x="0px" y="0px"
	 width="50px" height="50px" viewBox="0 0 50 50" style="enable-background:new 0 0 50 50;" xml:space="preserve">
<g style="opacity:0.2;">
	<path style="fill:#231F20;" d="M39,43h-2c0-0.74,0-1.968,0-4c0-4.542-3-7.389-3-7.389s-2.976-2.847-3.891-3.722
		c-0.914-0.875,0-1.778,0-1.778s1.341-1.282,4.174-3.993S37,15.458,37,15.458l0.001-5.125L25,9.333l-12.001,1L13,15.458
		c0,0-0.116,3.949,2.717,6.66s4.174,3.993,4.174,3.993s0.914,0.903,0,1.778C18.976,28.764,16,31.611,16,31.611S13,34.458,13,39
		c0,2.032,0,3.26,0,4h-2c-1.104,0-2,0.896-2,2s0.896,2,2,2h28c1.104,0,2-0.896,2-2S40.104,43,39,43z"/>
</g>
<g>
	<path style="fill:#FFFFFF;" d="M34,29.611c0,0-2.976-2.847-3.891-3.722c-0.914-0.875,0-1.778,0-1.778s1.341-1.282,4.174-3.993
		S37,13.458,37,13.458l0.001-5.125L25,7.333l-12.001,1L13,13.458c0,0-0.116,3.949,2.717,6.66s4.174,3.993,4.174,3.993
		s0.914,0.903,0,1.778C18.976,26.764,16,29.611,16,29.611S13,32.458,13,37s-0.001,5.083-0.001,5.083H25h12.001
		c0,0-0.001-0.542-0.001-5.083S34,29.611,34,29.611z"/>
</g>
<g>
	<path style="fill:#4F5D73;" d="M24,36l0.031-11c0.016-2.061-0.953-3.362-1.331-3.736l-4.219-4.036
		c-1.432-1.371-1.483-3.63-1.483-3.652H25h8.002v0c-0.002,0-0.023,2.255-1.484,3.652l-4.173,3.992
		C26.922,21.638,25.983,22.939,26,25v11H24z"/>
</g>
<g style="opacity:0.3;">
	<path style="fill:#231F20;" d="M41,9c0,1.104-0.896,2-2,2H11c-1.104,0-2-0.896-2-2l0,0c0-1.104,0.896-2,2-2h28
		C40.104,7,41,7.896,41,9L41,9z"/>
</g>
<g>
	<path style="fill:#F5CF87;" d="M41,7c0,1.104-0.896,2-2,2H11C9.896,9,9,8.104,9,7l0,0c0-1.104,0.896-2,2-2h28
		C40.104,5,41,5.896,41,7L41,7z"/>
</g>
<g>
	<path style="fill:#F5CF87;" d="M41,43c0,1.104-0.896,2-2,2H11c-1.104,0-2-0.896-2-2l0,0c0-1.104,0.896-2,2-2h28
		C40.104,41,41,41.896,41,43L41,43z"/>
</g>
<g>
	<polygon style="fill:#4F5D73;" points="34,41 34,41 16,41 16,41 25,33 	"/>
</g>
</svg>
