<?xml version="1.0" encoding="iso-8859-1"?>
<!-- Generator: Adobe Illustrator 16.0.0, SVG Export Plug-In . SVG Version: 6.00 Build 0)  -->
<!DOCTYPE svg PUBLIC "-//W3C//DTD SVG 1.1//EN" "http://www.w3.org/Graphics/SVG/1.1/DTD/svg11.dtd">
<svg version="1.1" id="Layer_1" xmlns="http://www.w3.org/2000/svg" xmlns:xlink="http://www.w3.org/1999/xlink" x="0px" y="0px"
	 width="50px" height="50px" viewBox="0 0 50 50" style="enable-background:new 0 0 50 50;" xml:space="preserve">
<g style="opacity:0.2;">
	<path style="fill:#231F20;" d="M41,25c0-8.837-7.164-16-16-16c-7.498,0-13.773,5.165-15.508,12.126C4.687,21.854,1,25.991,1,31
		c0,5.522,4.477,10,10,10h30c4.418,0,8-3.582,8-8S45.418,25,41,25z"/>
</g>
<g>
	<path style="fill:#FFFFFF;" d="M41,23c0-8.837-7.164-16-16-16c-7.498,0-13.773,5.165-15.508,12.126C4.687,19.854,1,23.991,1,29
		c0,5.522,4.477,10,10,10h30c4.418,0,8-3.582,8-8S45.418,23,41,23z"/>
</g>
</svg>
