<?xml version="1.0" encoding="iso-8859-1"?>
<!-- Generator: Adobe Illustrator 16.0.0, SVG Export Plug-In . SVG Version: 6.00 Build 0)  -->
<!DOCTYPE svg PUBLIC "-//W3C//DTD SVG 1.1//EN" "http://www.w3.org/Graphics/SVG/1.1/DTD/svg11.dtd">
<svg version="1.1" id="Layer_1" xmlns="http://www.w3.org/2000/svg" xmlns:xlink="http://www.w3.org/1999/xlink" x="0px" y="0px"
	 width="50px" height="50px" viewBox="0 0 50 50" style="enable-background:new 0 0 50 50;" xml:space="preserve">
<path style="opacity:0.2;fill:#231F20;" d="M47,33c0,5.523-4.478,10-10,10s-10-4.477-10-10c0-10,10-18,10-18S47,23,47,33z"/>
<path style="fill:#C75C5C;" d="M47,31c0,5.523-4.478,10-10,10s-10-4.477-10-10c0-10,10-18,10-18S47,21,47,31z"/>
<path style="opacity:0.2;fill:#231F20;" d="M35,25c0,5.523-4.478,10-10,10s-10-4.477-10-10C15,15,25,7,25,7S35,15,35,25z"/>
<path style="fill:#77B3D4;" d="M35,23c0,5.523-4.478,10-10,10s-10-4.477-10-10C15,13,25,5,25,5S35,13,35,23z"/>
<path style="opacity:0.2;fill:#231F20;" d="M23,33c0,5.523-4.478,10-10,10S3,38.523,3,33c0-10,10-18,10-18S23,23,23,33z"/>
<path style="fill:#F5CF87;" d="M23,31c0,5.523-4.478,10-10,10S3,36.523,3,31c0-10,10-18,10-18S23,21,23,31z"/>
</svg>
