<?xml version="1.0" encoding="iso-8859-1"?>
<!-- Generator: Adobe Illustrator 16.0.0, SVG Export Plug-In . SVG Version: 6.00 Build 0)  -->
<!DOCTYPE svg PUBLIC "-//W3C//DTD SVG 1.1//EN" "http://www.w3.org/Graphics/SVG/1.1/DTD/svg11.dtd">
<svg version="1.1" id="Layer_1" xmlns="http://www.w3.org/2000/svg" xmlns:xlink="http://www.w3.org/1999/xlink" x="0px" y="0px"
	 width="50px" height="50px" viewBox="0 0 50 50" style="enable-background:new 0 0 50 50;" xml:space="preserve">
<g style="opacity:0.2;">
	<g>
		<g>
			<path style="fill:#231F20;" d="M35.461,37c-0.671,0-1.326-0.338-1.705-0.95c-0.58-0.94-0.287-2.173,0.653-2.753l10.124-6.241
				c0.005-0.018,0.007-0.036,0.007-0.056s-0.002-0.038-0.007-0.056L34.41,20.702c-0.94-0.579-1.232-1.812-0.653-2.752
				s1.812-1.232,2.752-0.653l10.63,6.555l0.165,0.165c0.797,0.797,1.236,1.856,1.236,2.983s-0.439,2.186-1.236,2.982l-0.166,0.166
				l-10.63,6.554C36.182,36.904,35.819,37,35.461,37z"/>
		</g>
	</g>
	<g>
		<g>
			<path style="fill:#231F20;" d="M14.539,37c-0.358,0-0.721-0.096-1.048-0.298l-10.63-6.554l-0.166-0.166
				C1.898,29.186,1.459,28.127,1.459,27s0.439-2.187,1.236-2.983l0.165-0.165l10.63-6.555c0.941-0.579,2.172-0.287,2.752,0.653
				c0.58,0.94,0.287,2.173-0.653,2.752L5.466,26.944C5.461,26.962,5.459,26.98,5.459,27s0.002,0.038,0.007,0.056l10.124,6.241
				c0.94,0.58,1.232,1.813,0.653,2.753C15.865,36.662,15.209,37,14.539,37z"/>
		</g>
	</g>
</g>
<g style="opacity:0.2;">
	<g>
		<path style="fill:#231F20;" d="M18.5,46c-0.237,0-0.479-0.042-0.714-0.132c-1.032-0.395-1.548-1.551-1.154-2.583l13-34
			c0.395-1.031,1.551-1.549,2.583-1.153c1.032,0.395,1.548,1.551,1.154,2.583l-13,34C20.063,45.511,19.305,46,18.5,46z"/>
	</g>
</g>
<g>
	<g>
		<path style="fill:#FFFFFF;" d="M35.461,35c-0.671,0-1.327-0.337-1.705-0.95c-0.58-0.94-0.287-2.173,0.653-2.752l10.123-6.241
			c0.01-0.037,0.01-0.076,0-0.113L34.41,18.702c-0.94-0.579-1.233-1.812-0.653-2.752c0.58-0.94,1.811-1.233,2.752-0.652
			l10.631,6.554l0.166,0.165c1.644,1.646,1.644,4.321,0,5.967l-0.166,0.165l-10.631,6.554C36.182,34.904,35.819,35,35.461,35z"/>
	</g>
	<g>
		<path style="fill:#FFFFFF;" d="M14.539,35c-0.358,0-0.72-0.096-1.047-0.298L2.86,28.148l-0.166-0.165
			c-1.644-1.646-1.644-4.321,0-5.967l0.166-0.165l10.631-6.554c0.939-0.581,2.173-0.288,2.752,0.652
			c0.58,0.94,0.287,2.173-0.653,2.752L5.467,24.943c-0.01,0.037-0.01,0.076,0,0.113l10.123,6.241
			c0.94,0.579,1.233,1.812,0.653,2.752C15.865,34.663,15.209,35,14.539,35z"/>
	</g>
</g>
<g>
	<path style="fill:#FFFFFF;" d="M18.5,44.001c-0.237,0-0.479-0.043-0.714-0.133c-1.032-0.395-1.548-1.551-1.154-2.582l13-34
		c0.395-1.031,1.551-1.55,2.583-1.154c1.032,0.395,1.548,1.551,1.154,2.582l-13,34C20.063,43.511,19.305,44.001,18.5,44.001z"/>
</g>
</svg>
