<?xml version="1.0" encoding="iso-8859-1"?>
<!-- Generator: Adobe Illustrator 16.0.0, SVG Export Plug-In . SVG Version: 6.00 Build 0)  -->
<!DOCTYPE svg PUBLIC "-//W3C//DTD SVG 1.1//EN" "http://www.w3.org/Graphics/SVG/1.1/DTD/svg11.dtd">
<svg version="1.1" id="Layer_1" xmlns="http://www.w3.org/2000/svg" xmlns:xlink="http://www.w3.org/1999/xlink" x="0px" y="0px"
	 width="50px" height="50px" viewBox="0 0 50 50" style="enable-background:new 0 0 50 50;" xml:space="preserve">
<g style="opacity:0.2;">
	<path style="fill:#231F20;" d="M12.485,30.466C12.245,29.6,11.456,29,10.558,29H5.406c-0.601,0-1.169,0.27-1.549,0.735
		c-0.38,0.465-0.53,1.076-0.411,1.665c0.911,4.469,3.151,8.489,6.48,11.625c0.374,0.352,0.865,0.544,1.371,0.544
		c0.097,0,0.194-0.007,0.291-0.021c0.604-0.088,1.136-0.449,1.441-0.979l2.6-4.502c0.435-0.752,0.333-1.699-0.25-2.343
		C14.024,34.227,13.023,32.408,12.485,30.466z"/>
	<path style="fill:#231F20;" d="M29.903,40.656c-0.362-0.627-1.028-1-1.732-1c-0.142,0-0.284,0.015-0.427,0.046
		C26.839,39.899,25.915,40,25,40c-1.279,0-2.544-0.188-3.76-0.558c-0.192-0.059-0.389-0.087-0.582-0.087c-0.7,0-1.368,0.369-1.732,1
		l-2.553,4.422c-0.295,0.511-0.349,1.125-0.148,1.68c0.2,0.555,0.635,0.992,1.188,1.197C19.832,48.547,22.385,49,25,49
		c2.164,0,4.299-0.313,6.346-0.931c0.585-0.176,1.058-0.61,1.282-1.178c0.226-0.568,0.178-1.208-0.127-1.736L29.903,40.656z"/>
	<path style="fill:#231F20;" d="M37.516,23.529C37.755,24.398,38.544,25,39.444,25h5.151c0.601,0,1.169-0.27,1.549-0.733
		c0.38-0.464,0.531-1.075,0.412-1.663c-0.984-4.871-3.635-9.309-7.464-12.498c-0.362-0.301-0.815-0.463-1.279-0.463
		c-0.117,0-0.234,0.01-0.352,0.031c-0.581,0.104-1.086,0.458-1.381,0.969l-2.557,4.428c-0.465,0.806-0.313,1.825,0.366,2.46
		C35.633,19.162,36.887,21.235,37.516,23.529z"/>
	<path style="fill:#231F20;" d="M31.346,5.93C29.299,5.313,27.164,5,25,5c-2.615,0-5.168,0.453-7.587,1.346
		c-0.554,0.205-0.988,0.643-1.188,1.197s-0.146,1.169,0.148,1.68l2.553,4.422c0.364,0.631,1.032,1,1.732,1
		c0.193,0,0.39-0.028,0.582-0.086C22.456,14.188,23.721,14,25,14c0.915,0,1.839,0.1,2.744,0.298
		c0.143,0.031,0.285,0.046,0.427,0.046c0.704,0,1.369-0.373,1.732-1l2.598-4.499c0.305-0.529,0.353-1.168,0.127-1.736
		C32.403,6.541,31.931,6.107,31.346,5.93z"/>
	<path style="fill:#231F20;" d="M44.596,29h-5.151c-0.9,0-1.689,0.602-1.929,1.471c-0.629,2.294-1.883,4.368-3.625,5.998
		c-0.68,0.635-0.831,1.655-0.366,2.46l2.557,4.428c0.295,0.511,0.8,0.865,1.381,0.969c0.117,0.021,0.234,0.031,0.352,0.031
		c0.464,0,0.917-0.162,1.279-0.463c3.829-3.188,6.479-7.627,7.464-12.498c0.119-0.588-0.032-1.198-0.412-1.663S45.196,29,44.596,29z
		"/>
	<path style="fill:#231F20;" d="M13.03,11.432c-0.306-0.529-0.837-0.89-1.441-0.979c-0.097-0.014-0.194-0.021-0.291-0.021
		c-0.506,0-0.997,0.192-1.371,0.544c-3.329,3.136-5.569,7.156-6.48,11.625c-0.119,0.588,0.031,1.2,0.411,1.665S4.806,25,5.406,25
		h5.151c0.898,0,1.688-0.6,1.928-1.466c0.538-1.942,1.539-3.761,2.895-5.257c0.583-0.644,0.685-1.59,0.25-2.343L13.03,11.432z"/>
</g>
<g>
	<path style="fill:#77B3D4;" d="M12.485,28.466C12.245,27.6,11.456,27,10.558,27H5.406c-0.601,0-1.169,0.27-1.549,0.735
		c-0.38,0.465-0.53,1.076-0.411,1.665c0.911,4.469,3.151,8.489,6.48,11.625c0.374,0.352,0.865,0.544,1.371,0.544
		c0.097,0,0.194-0.007,0.291-0.021c0.604-0.088,1.136-0.449,1.441-0.979l2.6-4.502c0.435-0.752,0.333-1.699-0.25-2.343
		C14.024,32.227,13.023,30.408,12.485,28.466z"/>
	<path style="fill:#76C2AF;" d="M29.903,38.656c-0.362-0.627-1.028-1-1.732-1c-0.142,0-0.284,0.015-0.427,0.046
		C26.839,37.899,25.915,38,25,38c-1.279,0-2.544-0.188-3.76-0.558c-0.192-0.059-0.389-0.087-0.582-0.087c-0.7,0-1.368,0.369-1.732,1
		l-2.553,4.422c-0.295,0.511-0.349,1.125-0.148,1.68c0.2,0.555,0.635,0.992,1.188,1.197C19.832,46.547,22.385,47,25,47
		c2.164,0,4.299-0.313,6.346-0.931c0.585-0.176,1.058-0.61,1.282-1.178c0.226-0.568,0.178-1.208-0.127-1.736L29.903,38.656z"/>
	<path style="fill:#E0995E;" d="M37.516,21.529C37.755,22.398,38.544,23,39.444,23h5.151c0.601,0,1.169-0.27,1.549-0.733
		c0.38-0.464,0.531-1.075,0.412-1.663c-0.984-4.871-3.635-9.309-7.464-12.498c-0.362-0.301-0.815-0.463-1.279-0.463
		c-0.117,0-0.234,0.01-0.352,0.031c-0.581,0.104-1.086,0.458-1.381,0.969l-2.557,4.428c-0.465,0.806-0.313,1.825,0.366,2.46
		C35.633,17.162,36.887,19.235,37.516,21.529z"/>
	<path style="fill:#C75C5C;" d="M31.346,3.93C29.299,3.313,27.164,3,25,3c-2.615,0-5.168,0.453-7.587,1.346
		c-0.554,0.205-0.988,0.643-1.188,1.197s-0.146,1.169,0.148,1.68l2.553,4.422c0.364,0.631,1.032,1,1.732,1
		c0.193,0,0.39-0.028,0.582-0.086C22.456,12.188,23.721,12,25,12c0.915,0,1.839,0.1,2.744,0.298
		c0.143,0.031,0.285,0.046,0.427,0.046c0.704,0,1.369-0.373,1.732-1l2.598-4.499c0.305-0.529,0.353-1.168,0.127-1.736
		C32.403,4.541,31.931,4.107,31.346,3.93z"/>
	<path style="fill:#F5CF87;" d="M44.596,27h-5.151c-0.9,0-1.689,0.602-1.929,1.471c-0.629,2.294-1.883,4.368-3.625,5.998
		c-0.68,0.635-0.831,1.655-0.366,2.46l2.557,4.428c0.295,0.511,0.8,0.865,1.381,0.969c0.117,0.021,0.234,0.031,0.352,0.031
		c0.464,0,0.917-0.162,1.279-0.463c3.829-3.188,6.479-7.627,7.464-12.498c0.119-0.588-0.032-1.198-0.412-1.663S45.196,27,44.596,27z
		"/>
	<path style="fill:#4F5D73;" d="M13.03,9.432c-0.306-0.529-0.837-0.89-1.441-0.979c-0.097-0.014-0.194-0.021-0.291-0.021
		c-0.506,0-0.997,0.192-1.371,0.544c-3.329,3.136-5.569,7.156-6.48,11.625c-0.119,0.588,0.031,1.2,0.411,1.665S4.806,23,5.406,23
		h5.151c0.898,0,1.688-0.6,1.928-1.466c0.538-1.942,1.539-3.761,2.895-5.257c0.583-0.644,0.685-1.59,0.25-2.343L13.03,9.432z"/>
</g>
</svg>
