<?xml version="1.0" encoding="iso-8859-1"?>
<!-- Generator: Adobe Illustrator 16.0.0, SVG Export Plug-In . SVG Version: 6.00 Build 0)  -->
<!DOCTYPE svg PUBLIC "-//W3C//DTD SVG 1.1//EN" "http://www.w3.org/Graphics/SVG/1.1/DTD/svg11.dtd">
<svg version="1.1" id="Layer_1" xmlns="http://www.w3.org/2000/svg" xmlns:xlink="http://www.w3.org/1999/xlink" x="0px" y="0px"
	 width="50px" height="50px" viewBox="0 0 50 50" style="enable-background:new 0 0 50 50;" xml:space="preserve">
<g style="opacity:0.2;">
	<path style="fill:#231F20;" d="M45,25c0-9.941-8.954-18-20-18S5,15.059,5,25c0,9.569,8.303,17.372,18.775,17.944
		C24.463,46.597,25,49,25,49s5.045-3.044,9.639-8.23C40.814,37.706,45,31.794,45,25z"/>
</g>
<g>
	<path style="fill:#FFFFFF;" d="M42,21.8C42,36.763,25,47,25,47S15.611,5,25,5S42,12.521,42,21.8z"/>
</g>
<g>
	<ellipse style="fill:#FFFFFF;" cx="25" cy="23" rx="20" ry="18"/>
</g>
<g>
	<circle style="fill:#4F5D73;" cx="25" cy="23" r="2"/>
</g>
<g>
	<circle style="fill:#4F5D73;" cx="33" cy="23" r="2"/>
</g>
<g>
	<circle style="fill:#4F5D73;" cx="17" cy="23" r="2"/>
</g>
</svg>
