<?xml version="1.0" encoding="iso-8859-1"?>
<!-- Generator: Adobe Illustrator 16.0.0, SVG Export Plug-In . SVG Version: 6.00 Build 0)  -->
<!DOCTYPE svg PUBLIC "-//W3C//DTD SVG 1.1//EN" "http://www.w3.org/Graphics/SVG/1.1/DTD/svg11.dtd">
<svg version="1.1" id="Layer_1" xmlns="http://www.w3.org/2000/svg" xmlns:xlink="http://www.w3.org/1999/xlink" x="0px" y="0px"
	 width="50px" height="50px" viewBox="0 0 50 50" style="enable-background:new 0 0 50 50;" xml:space="preserve">
<g>
	<circle style="fill:#77B3D4;" cx="25" cy="25" r="22"/>
</g>
<g style="opacity:0.2;">
	<path style="fill:#231F20;" d="M25,9c9.925,0,18,8.075,18,18s-8.075,18-18,18S7,36.925,7,27S15.075,9,25,9z M25,5
		C12.85,5,3,14.85,3,27s9.85,22,22,22s22-9.85,22-22S37.15,5,25,5L25,5z"/>
</g>
<g>
	<path style="fill:#FFFFFF;" d="M25,7c9.925,0,18,8.075,18,18s-8.075,18-18,18S7,34.925,7,25S15.075,7,25,7 M25,3
		C12.85,3,3,12.85,3,25s9.85,22,22,22s22-9.85,22-22S37.15,3,25,3L25,3z"/>
</g>
<g style="opacity:0.2;">
	<g>
		<path style="fill:#231F20;" d="M34.81,18.912l-2.904,4.655l-1.938,3.105c0.007,0.109-5.186,5.302-5.295,5.295l-3.107,1.938
			l-4.653,2.904C16.71,36.938,16.48,37,16.25,37c-0.322,0-0.643-0.125-0.885-0.365c-0.413-0.412-0.485-1.053-0.175-1.545
			l2.904-4.655l1.938-3.104c-0.007-0.112,5.186-5.305,5.295-5.298l3.107-1.938l4.653-2.904c0.484-0.308,1.132-0.235,1.545,0.177
			C35.048,17.777,35.12,18.418,34.81,18.912z M22.5,27c0,1.381,1.119,2.5,2.5,2.5s2.5-1.119,2.5-2.5s-1.119-2.5-2.5-2.5
			S22.5,25.619,22.5,27z"/>
	</g>
</g>
<g>
	<g>
		<path style="fill:#C75C5C;" d="M34.81,16.912l-2.904,4.655l-1.938,3.105c0.007,0.109-5.186,5.302-5.295,5.295l-3.107,1.938
			l-4.653,2.904C16.71,34.938,16.48,35,16.25,35c-0.322,0-0.643-0.125-0.885-0.365c-0.413-0.412-0.485-1.053-0.175-1.545
			l2.904-4.655l1.938-3.104c-0.007-0.112,5.186-5.305,5.295-5.298l3.107-1.938l4.653-2.904c0.484-0.308,1.132-0.235,1.545,0.177
			C35.048,15.777,35.12,16.418,34.81,16.912z M22.5,25c0,1.381,1.119,2.5,2.5,2.5s2.5-1.119,2.5-2.5s-1.119-2.5-2.5-2.5
			S22.5,23.619,22.5,25z"/>
	</g>
</g>
<g style="opacity:0.2;">
	<circle style="fill:#231F20;" cx="25" cy="27" r="5"/>
</g>
<g>
	<circle style="fill:#FFFFFF;" cx="25" cy="25" r="5"/>
</g>
</svg>
