<?xml version="1.0" encoding="iso-8859-1"?>
<!-- Generator: Adobe Illustrator 16.0.0, SVG Export Plug-In . SVG Version: 6.00 Build 0)  -->
<!DOCTYPE svg PUBLIC "-//W3C//DTD SVG 1.1//EN" "http://www.w3.org/Graphics/SVG/1.1/DTD/svg11.dtd">
<svg version="1.1" id="Layer_1" xmlns="http://www.w3.org/2000/svg" xmlns:xlink="http://www.w3.org/1999/xlink" x="0px" y="0px"
	 width="50px" height="50px" viewBox="0 0 50 50" style="enable-background:new 0 0 50 50;" xml:space="preserve">
<g>
	<g style="opacity:0.2;">
		<path style="fill:#231F20;" d="M47.5,24.5h-2.576c-0.119-1.603-0.416-3.155-0.891-4.631l2.371-0.965
			c0.767-0.313,1.136-1.188,0.823-1.955c-0.312-0.767-1.188-1.137-1.955-0.823l-2.383,0.97c-0.744-1.491-1.661-2.876-2.737-4.126
			l1.818-1.818c0.586-0.585,0.586-1.536,0-2.121c-0.586-0.586-1.535-0.586-2.121,0l-1.818,1.818
			c-1.19-1.025-2.501-1.909-3.911-2.633l0.998-2.368c0.322-0.764-0.037-1.643-0.8-1.965c-0.762-0.32-1.643,0.036-1.965,0.8
			l-0.997,2.367c-1.544-0.518-3.17-0.848-4.856-0.973V3.5C26.5,2.671,25.829,2,25,2s-1.5,0.671-1.5,1.5v2.576
			c-1.603,0.119-3.155,0.416-4.631,0.891l-0.965-2.371c-0.312-0.767-1.187-1.137-1.955-0.823c-0.767,0.313-1.136,1.188-0.823,1.955
			l0.97,2.383c-1.491,0.744-2.876,1.661-4.126,2.737L10.151,9.03c-0.586-0.586-1.535-0.586-2.121,0
			c-0.586,0.585-0.586,1.536,0,2.121l1.818,1.818c-1.025,1.19-1.909,2.501-2.633,3.911l-2.368-0.998
			c-0.764-0.321-1.643,0.036-1.965,0.8s0.037,1.643,0.8,1.965l2.367,0.997c-0.518,1.544-0.848,3.17-0.973,4.856H2.5
			C1.671,24.5,1,25.171,1,26s0.671,1.5,1.5,1.5h2.576c0.119,1.603,0.416,3.155,0.891,4.631l-2.371,0.965
			c-0.767,0.313-1.136,1.188-0.823,1.955c0.237,0.582,0.798,0.935,1.39,0.935c0.188,0,0.38-0.036,0.565-0.111l2.383-0.97
			c0.744,1.491,1.661,2.876,2.737,4.126L8.03,40.849c-0.586,0.585-0.586,1.536,0,2.121c0.293,0.293,0.677,0.439,1.061,0.439
			s0.768-0.146,1.061-0.439l1.818-1.818c1.19,1.025,2.501,1.909,3.911,2.633l-0.998,2.368c-0.322,0.764,0.037,1.643,0.8,1.965
			c0.19,0.08,0.388,0.118,0.582,0.118c0.585,0,1.141-0.345,1.383-0.918l0.997-2.367c1.544,0.518,3.17,0.848,4.856,0.973V48.5
			c0,0.829,0.671,1.5,1.5,1.5s1.5-0.671,1.5-1.5v-2.576c1.603-0.119,3.155-0.416,4.631-0.891l0.965,2.371
			c0.237,0.582,0.798,0.935,1.39,0.935c0.188,0,0.38-0.036,0.565-0.111c0.767-0.313,1.136-1.188,0.823-1.955l-0.97-2.383
			c1.491-0.744,2.876-1.661,4.126-2.737l1.818,1.818c0.293,0.293,0.677,0.439,1.061,0.439s0.768-0.146,1.061-0.439
			c0.586-0.585,0.586-1.536,0-2.121l-1.818-1.818c1.025-1.19,1.909-2.501,2.633-3.911l2.368,0.998
			c0.19,0.08,0.388,0.118,0.582,0.118c0.585,0,1.141-0.345,1.383-0.918c0.322-0.764-0.037-1.643-0.8-1.965l-2.367-0.997
			c0.518-1.544,0.848-3.17,0.973-4.856H47.5c0.829,0,1.5-0.671,1.5-1.5S48.329,24.5,47.5,24.5z M42,26c0,9.374-7.626,17-17,17
			S8,35.374,8,26S15.626,9,25,9S42,16.626,42,26z"/>
		<path style="fill:#231F20;" d="M25,12c-7.732,0-14,6.268-14,14s6.268,14,14,14s14-6.268,14-14S32.732,12,25,12z M14,26
			c0-6.065,4.935-11,11-11v22C18.935,37,14,32.065,14,26z"/>
	</g>
	<g>
		<path style="fill:#E0E0D1;" d="M47.5,22.5h-2.576c-0.119-1.603-0.416-3.155-0.891-4.631l2.371-0.965
			c0.767-0.313,1.136-1.188,0.823-1.955c-0.312-0.767-1.188-1.137-1.955-0.823l-2.383,0.97c-0.744-1.491-1.661-2.876-2.737-4.126
			l1.818-1.818c0.586-0.585,0.586-1.536,0-2.121c-0.586-0.586-1.535-0.586-2.121,0l-1.818,1.818
			c-1.19-1.025-2.501-1.909-3.911-2.633l0.998-2.368c0.322-0.764-0.037-1.643-0.8-1.965c-0.762-0.32-1.643,0.036-1.965,0.8
			l-0.997,2.367c-1.544-0.518-3.17-0.848-4.856-0.973V1.5C26.5,0.671,25.829,0,25,0s-1.5,0.671-1.5,1.5v2.576
			c-1.603,0.119-3.155,0.416-4.631,0.891l-0.965-2.371c-0.312-0.767-1.187-1.137-1.955-0.823c-0.767,0.313-1.136,1.188-0.823,1.955
			l0.97,2.383c-1.491,0.744-2.876,1.661-4.126,2.737L10.151,7.03c-0.586-0.586-1.535-0.586-2.121,0
			c-0.586,0.585-0.586,1.536,0,2.121l1.818,1.818c-1.025,1.19-1.909,2.501-2.633,3.911l-2.368-0.998
			c-0.764-0.321-1.643,0.036-1.965,0.8s0.037,1.643,0.8,1.965l2.367,0.997c-0.518,1.544-0.848,3.17-0.973,4.856H2.5
			C1.671,22.5,1,23.171,1,24s0.671,1.5,1.5,1.5h2.576c0.119,1.603,0.416,3.155,0.891,4.631l-2.371,0.965
			c-0.767,0.313-1.136,1.188-0.823,1.955c0.237,0.582,0.798,0.935,1.39,0.935c0.188,0,0.38-0.036,0.565-0.111l2.383-0.97
			c0.744,1.491,1.661,2.876,2.737,4.126L8.03,38.849c-0.586,0.585-0.586,1.536,0,2.121c0.293,0.293,0.677,0.439,1.061,0.439
			s0.768-0.146,1.061-0.439l1.818-1.818c1.19,1.025,2.501,1.909,3.911,2.633l-0.998,2.368c-0.322,0.764,0.037,1.643,0.8,1.965
			c0.19,0.08,0.388,0.118,0.582,0.118c0.585,0,1.141-0.345,1.383-0.918l0.997-2.367c1.544,0.518,3.17,0.848,4.856,0.973V46.5
			c0,0.829,0.671,1.5,1.5,1.5s1.5-0.671,1.5-1.5v-2.576c1.603-0.119,3.155-0.416,4.631-0.891l0.965,2.371
			c0.237,0.582,0.798,0.935,1.39,0.935c0.188,0,0.38-0.036,0.565-0.111c0.767-0.313,1.136-1.188,0.823-1.955l-0.97-2.383
			c1.491-0.744,2.876-1.661,4.126-2.737l1.818,1.818c0.293,0.293,0.677,0.439,1.061,0.439s0.768-0.146,1.061-0.439
			c0.586-0.585,0.586-1.536,0-2.121l-1.818-1.818c1.025-1.19,1.909-2.501,2.633-3.911l2.368,0.998
			c0.19,0.08,0.388,0.118,0.582,0.118c0.585,0,1.141-0.345,1.383-0.918c0.322-0.764-0.037-1.643-0.8-1.965l-2.367-0.997
			c0.518-1.544,0.848-3.17,0.973-4.856H47.5c0.829,0,1.5-0.671,1.5-1.5S48.329,22.5,47.5,22.5z M42,24c0,9.374-7.626,17-17,17
			S8,33.374,8,24S15.626,7,25,7S42,14.626,42,24z"/>
		<path style="fill:#E0E0D1;" d="M25,10c-7.732,0-14,6.268-14,14s6.268,14,14,14s14-6.268,14-14S32.732,10,25,10z M14,24
			c0-6.065,4.935-11,11-11v22C18.935,35,14,30.065,14,24z"/>
	</g>
</g>
</svg>
