<?xml version="1.0" encoding="iso-8859-1"?>
<!-- Generator: Adobe Illustrator 16.0.0, SVG Export Plug-In . SVG Version: 6.00 Build 0)  -->
<!DOCTYPE svg PUBLIC "-//W3C//DTD SVG 1.1//EN" "http://www.w3.org/Graphics/SVG/1.1/DTD/svg11.dtd">
<svg version="1.1" id="Layer_1" xmlns="http://www.w3.org/2000/svg" xmlns:xlink="http://www.w3.org/1999/xlink" x="0px" y="0px"
	 width="50px" height="50px" viewBox="0 0 50 50" style="enable-background:new 0 0 50 50;" xml:space="preserve">
<g>
	<g>
		<path style="fill:#E0995E;" d="M25,6.4V24l12.32,13.2C50.52,19.6,34.72,6.4,25,6.4z"/>
	</g>
	<g style="opacity:0.2;">
		<path style="fill:#231F20;" d="M25,2.5C12.042,2.5,1.5,13.042,1.5,26S12.042,49.5,25,49.5S48.5,38.958,48.5,26S37.958,2.5,25,2.5z
			 M45.424,24.5h-2C42.696,15.496,35.504,8.304,26.5,7.576v-2C36.606,6.313,44.687,14.394,45.424,24.5z M23.5,24.5H9.576
			c0.709-7.351,6.572-13.214,13.924-13.924V24.5z M23.5,27.5v13.924C16.148,40.714,10.285,34.851,9.576,27.5H23.5z M26.5,27.5
			h13.924c-0.709,7.351-6.572,13.214-13.924,13.924V27.5z M26.5,24.5V10.576c7.352,0.709,13.215,6.573,13.924,13.924H26.5z
			 M23.5,5.576v2C14.496,8.304,7.304,15.496,6.576,24.5h-2C5.313,14.394,13.394,6.313,23.5,5.576z M4.576,27.5h2
			c0.728,9.004,7.92,16.196,16.924,16.924v2C13.394,45.687,5.313,37.606,4.576,27.5z M26.5,46.424v-2
			c9.004-0.728,16.196-7.919,16.924-16.924h2C44.687,37.606,36.606,45.687,26.5,46.424z"/>
	</g>
	<g>
		<path style="fill:none;" d="M23.5,39.424V25.5H9.576C10.285,32.851,16.148,38.714,23.5,39.424z"/>
		<path style="fill:none;" d="M40.424,25.5H26.5v13.924C33.852,38.714,39.715,32.851,40.424,25.5z"/>
		<path style="fill:none;" d="M26.5,8.576V22.5h13.924C39.715,15.149,33.852,9.286,26.5,8.576z"/>
		<path style="fill:none;" d="M26.5,5.576c9.004,0.728,16.196,7.919,16.924,16.924h2C44.687,12.394,36.606,4.313,26.5,3.576V5.576z"
			/>
		<path style="fill:none;" d="M9.576,22.5H23.5V8.576C16.148,9.286,10.285,15.149,9.576,22.5z"/>
		<path style="fill:none;" d="M6.576,22.5C7.304,13.496,14.496,6.304,23.5,5.576v-2C13.394,4.313,5.313,12.394,4.576,22.5H6.576z"/>
		<path style="fill:none;" d="M43.424,25.5c-0.728,9.004-7.92,16.196-16.924,16.924v2c10.106-0.737,18.187-8.817,18.924-18.924
			H43.424z"/>
		<path style="fill:none;" d="M23.5,42.424C14.496,41.696,7.304,34.504,6.576,25.5h-2C5.313,35.606,13.394,43.687,23.5,44.424
			V42.424z"/>
		<path style="fill:#4F5D73;" d="M25,0.5C12.042,0.5,1.5,11.042,1.5,24S12.042,47.5,25,47.5S48.5,36.958,48.5,24S37.958,0.5,25,0.5z
			 M45.424,22.5h-2C42.696,13.496,35.504,6.304,26.5,5.576v-2C36.606,4.313,44.687,12.394,45.424,22.5z M23.5,22.5H9.576
			C10.285,15.149,16.148,9.286,23.5,8.576V22.5z M23.5,25.5v13.924C16.148,38.714,10.285,32.851,9.576,25.5H23.5z M26.5,25.5h13.924
			c-0.709,7.351-6.572,13.214-13.924,13.924V25.5z M26.5,22.5V8.576c7.352,0.709,13.215,6.573,13.924,13.924H26.5z M23.5,3.576v2
			C14.496,6.304,7.304,13.496,6.576,22.5h-2C5.313,12.394,13.394,4.313,23.5,3.576z M4.576,25.5h2
			c0.728,9.004,7.92,16.196,16.924,16.924v2C13.394,43.687,5.313,35.606,4.576,25.5z M26.5,44.424v-2
			c9.004-0.728,16.196-7.919,16.924-16.924h2C44.687,35.606,36.606,43.687,26.5,44.424z"/>
	</g>
</g>
</svg>
