<?xml version="1.0" encoding="iso-8859-1"?>
<!-- Generator: Adobe Illustrator 16.0.0, SVG Export Plug-In . SVG Version: 6.00 Build 0)  -->
<!DOCTYPE svg PUBLIC "-//W3C//DTD SVG 1.1//EN" "http://www.w3.org/Graphics/SVG/1.1/DTD/svg11.dtd">
<svg version="1.1" id="Layer_1" xmlns="http://www.w3.org/2000/svg" xmlns:xlink="http://www.w3.org/1999/xlink" x="0px" y="0px"
	 width="50px" height="50px" viewBox="0 0 50 50" style="enable-background:new 0 0 50 50;" xml:space="preserve">
<g style="opacity:0.2;">
	<path style="fill:#231F20;" d="M45,38c0,2.209-1.791,4-4,4H9c-2.209,0-4-1.791-4-4V18c0-2.209,1.791-4,4-4h32c2.209,0,4,1.791,4,4
		V38z"/>
</g>
<g>
	<path style="fill:#FFFFFF;" d="M45,36c0,2.209-1.791,4-4,4H9c-2.209,0-4-1.791-4-4V16c0-2.209,1.791-4,4-4h32c2.209,0,4,1.791,4,4
		V36z"/>
</g>
<g>
	<rect x="5" y="18" style="fill:#4F5D73;" width="40" height="6"/>
</g>
<g>
	<circle style="fill:#E0995E;" cx="31" cy="34" r="2"/>
</g>
<g>
	<circle style="fill:#E0995E;" cx="39" cy="34" r="2"/>
</g>
<g>
	<circle style="fill:#E0995E;" cx="23" cy="34" r="2"/>
</g>
</svg>
