<?xml version="1.0" encoding="iso-8859-1"?>
<!-- Generator: Adobe Illustrator 16.0.0, SVG Export Plug-In . SVG Version: 6.00 Build 0)  -->
<!DOCTYPE svg PUBLIC "-//W3C//DTD SVG 1.1//EN" "http://www.w3.org/Graphics/SVG/1.1/DTD/svg11.dtd">
<svg version="1.1" id="Layer_1" xmlns="http://www.w3.org/2000/svg" xmlns:xlink="http://www.w3.org/1999/xlink" x="0px" y="0px"
	 width="50px" height="50px" viewBox="0 0 50 50" style="enable-background:new 0 0 50 50;" xml:space="preserve">
<g style="opacity:0.2;">
	<path style="fill:#231F20;" d="M43.5,38H43H31H18.035L36,20.035V35h5V15.035l2.768-2.768c0.473-0.472,0.732-1.1,0.732-1.768
		s-0.26-1.296-0.732-1.768C43.295,8.26,42.668,8,42,8s-1.295,0.26-1.768,0.732L36.465,12.5H17V17h14.465L14,34.965V22V10
		c0-1.378-1.121-2.5-2.5-2.5S9,8.622,9,10v2H6.5C5.121,12,4,13.122,4,14.5S5.121,17,6.5,17H9v23.5c0,1.378,1.121,2.5,2.5,2.5H36v2.5
		c0,1.378,1.121,2.5,2.5,2.5s2.5-1.122,2.5-2.5V43h2.5c1.379,0,2.5-1.122,2.5-2.5S44.879,38,43.5,38z"/>
</g>
<g>
	<path style="fill:#4F5D73;" d="M43.5,36H43H31H18.035L36,18.035V33h5V13.035l2.768-2.768C44.24,9.796,44.5,9.168,44.5,8.5
		s-0.26-1.296-0.732-1.768C43.295,6.26,42.668,6,42,6s-1.295,0.26-1.768,0.732L36.982,10H17v5h14.982L14,32.965V20V8
		c0-1.378-1.121-2.5-2.5-2.5S9,6.622,9,8v2H6.5C5.121,10,4,11.122,4,12.5S5.121,15,6.5,15H9v23.5c0,1.378,1.121,2.5,2.5,2.5H36v2.5
		c0,1.378,1.121,2.5,2.5,2.5s2.5-1.122,2.5-2.5V41h2.5c1.379,0,2.5-1.122,2.5-2.5S44.879,36,43.5,36z"/>
</g>
</svg>
