<?xml version="1.0" encoding="iso-8859-1"?>
<!-- Generator: Adobe Illustrator 16.0.0, SVG Export Plug-In . SVG Version: 6.00 Build 0)  -->
<!DOCTYPE svg PUBLIC "-//W3C//DTD SVG 1.1//EN" "http://www.w3.org/Graphics/SVG/1.1/DTD/svg11.dtd">
<svg version="1.1" id="Layer_1" xmlns="http://www.w3.org/2000/svg" xmlns:xlink="http://www.w3.org/1999/xlink" x="0px" y="0px"
	 width="50px" height="50px" viewBox="0 0 50 50" style="enable-background:new 0 0 50 50;" xml:space="preserve">
<g>
	<g style="opacity:0.2;">
		<path style="fill:#231F20;" d="M42.425,12.492L28.714,4.576c-1.992-1.15-5.436-1.15-7.428,0L7.575,12.492
			c-2.048,1.183-3.714,4.068-3.714,6.434v15.832c0,2.365,1.667,5.251,3.714,6.434l13.711,7.916C22.282,49.683,23.601,50,25,50
			s2.718-0.317,3.714-0.893l13.711-7.916c2.048-1.183,3.714-4.068,3.714-6.434V18.926C46.14,16.561,44.473,13.675,42.425,12.492z"/>
	</g>
	<g>
		<g>
			<path style="fill:#E0E0D1;" d="M28.464,3.01c-1.905-1.101-5.022-1.101-6.928,0L7.825,10.926c-1.905,1.1-3.464,3.8-3.464,6v15.832
				c0,2.2,1.559,4.9,3.464,6l13.711,7.916c1.905,1.101,5.022,1.101,6.928,0l13.711-7.916c1.905-1.1,3.464-3.8,3.464-6V16.926
				c0-2.2-1.559-4.9-3.464-6L28.464,3.01z"/>
			<path style="fill:#E0E0D1;" d="M25,47.999c-1.399,0-2.718-0.316-3.714-0.893L7.575,39.19c-2.048-1.182-3.714-4.067-3.714-6.433
				V16.926c0-2.365,1.667-5.251,3.714-6.433l13.711-7.916c1.992-1.152,5.436-1.152,7.428,0l13.711,7.916
				c2.048,1.182,3.714,4.067,3.714,6.433v15.832c0,2.365-1.667,5.251-3.714,6.433l-13.711,7.916
				C27.718,47.683,26.399,47.999,25,47.999z M25,2.685c-1.226,0-2.367,0.27-3.214,0.758L8.075,11.358
				c-1.742,1.006-3.214,3.556-3.214,5.567v15.832c0,2.012,1.472,4.562,3.214,5.567l13.711,7.916c1.693,0.977,4.734,0.977,6.428,0
				l13.711-7.916c1.742-1.006,3.214-3.556,3.214-5.567V16.926c0-2.012-1.472-4.562-3.214-5.567L28.214,3.442
				C27.367,2.954,26.226,2.685,25,2.685z"/>
		</g>
		<g>
			<path style="fill:#FFFFFF;" d="M25,22.667c-1.123,0-2.203-0.252-2.964-0.69L8.325,14.06c-0.59-0.341-0.929-0.754-0.929-1.134
				c0-0.38,0.339-0.793,0.929-1.134l13.711-7.917C22.797,3.437,23.877,3.184,25,3.184s2.203,0.253,2.964,0.691l13.711,7.917
				c0.59,0.341,0.929,0.754,0.929,1.134c0,0.38-0.339,0.793-0.929,1.134l-13.711,7.916C27.203,22.415,26.123,22.667,25,22.667z"/>
		</g>
		<g>
			<path style="fill:#FFFFFF;" d="M22.909,46.144c-0.3,0-0.659-0.115-1.039-0.335L8.158,37.892
				c-1.607-0.927-2.964-3.278-2.964-5.134V16.926c0-0.441,0.09-1.47,0.925-1.47c0.299,0,0.659,0.116,1.039,0.336l13.711,7.916
				c1.606,0.928,2.964,3.278,2.964,5.134v15.832c0,0.518-0.112,0.942-0.315,1.195C23.368,46.057,23.174,46.144,22.909,46.144
				L22.909,46.144z"/>
		</g>
		<g>
			<path style="fill:#FFFFFF;" d="M26.925,46.144c-0.835,0-0.925-1.027-0.925-1.47V28.842c0-1.855,1.357-4.206,2.964-5.134
				l13.711-7.916c0.38-0.22,0.74-0.336,1.039-0.336c0.835,0,0.925,1.028,0.925,1.47v15.832c0,1.855-1.357,4.207-2.964,5.134
				l-13.711,7.917C27.584,46.028,27.225,46.144,26.925,46.144L26.925,46.144z"/>
		</g>
		<g>
			<path style="fill:#4F5D73;" d="M25,14.342c-1.265,0-2.333-0.648-2.333-1.416S23.735,11.51,25,11.51s2.333,0.648,2.333,1.416
				S26.265,14.342,25,14.342z"/>
		</g>
		<g>
			<path style="fill:#4F5D73;" d="M8.146,35.21c-0.768,0-1.416-0.951-1.416-2.076c0-1.126,0.648-2.077,1.416-2.077
				s1.416,0.951,1.416,2.077C9.562,34.259,8.914,35.21,8.146,35.21z"/>
		</g>
		<g>
			<path style="fill:#4F5D73;" d="M41.354,35.21c-0.768,0-1.416-0.951-1.416-2.076c0-1.126,0.648-2.077,1.416-2.077
				s1.416,0.951,1.416,2.077C42.77,34.259,42.122,35.21,41.354,35.21z"/>
		</g>
		<g>
			<path style="fill:#4F5D73;" d="M8.146,23.272c-0.768,0-1.416-0.951-1.416-2.076c0-1.126,0.648-2.077,1.416-2.077
				s1.416,0.951,1.416,2.077C9.562,22.321,8.914,23.272,8.146,23.272z"/>
		</g>
		<g>
			<path style="fill:#4F5D73;" d="M19.917,30.96c-0.768,0-1.416-0.951-1.416-2.076c0-1.126,0.648-2.077,1.416-2.077
				s1.417,0.951,1.417,2.077C21.333,30.009,20.685,30.96,19.917,30.96z"/>
		</g>
		<g>
			<path style="fill:#4F5D73;" d="M29.958,30.96c-0.768,0-1.416-0.951-1.416-2.076c0-1.126,0.648-2.077,1.416-2.077
				s1.417,0.951,1.417,2.077C31.375,30.009,30.726,30.96,29.958,30.96z"/>
		</g>
		<g>
			<path style="fill:#4F5D73;" d="M19.917,41.981c-0.768,0-1.416-0.951-1.416-2.077c0-1.125,0.648-2.077,1.416-2.077
				s1.417,0.952,1.417,2.077C21.333,41.03,20.685,41.981,19.917,41.981z"/>
		</g>
	</g>
</g>
</svg>
