<?xml version="1.0" encoding="iso-8859-1"?>
<!-- Generator: Adobe Illustrator 16.0.0, SVG Export Plug-In . SVG Version: 6.00 Build 0)  -->
<!DOCTYPE svg PUBLIC "-//W3C//DTD SVG 1.1//EN" "http://www.w3.org/Graphics/SVG/1.1/DTD/svg11.dtd">
<svg version="1.1" id="Layer_1" xmlns="http://www.w3.org/2000/svg" xmlns:xlink="http://www.w3.org/1999/xlink" x="0px" y="0px"
	 width="50px" height="50px" viewBox="0 0 50 50" style="enable-background:new 0 0 50 50;" xml:space="preserve">
<g style="opacity:0.2;">
	<polygon style="fill:#231F20;" points="25,9.846 10.641,42.154 25,34.975 39.359,42.154 	"/>
	<path style="fill:#231F20;" d="M39.359,43.5c-0.205,0-0.411-0.047-0.603-0.143L25,36.479l-13.757,6.878
		c-0.508,0.256-1.121,0.164-1.532-0.23c-0.411-0.393-0.531-1-0.301-1.52L23.77,9.299C23.986,8.813,24.468,8.5,25,8.5
		s1.014,0.313,1.23,0.799L40.59,41.607c0.23,0.52,0.11,1.127-0.301,1.52C40.033,43.372,39.698,43.5,39.359,43.5z M25,33.628
		c0.206,0,0.413,0.047,0.603,0.142l11.003,5.501L25,13.161L13.395,39.271l11.003-5.501C24.587,33.676,24.794,33.628,25,33.628z"/>
</g>
<polygon style="fill:#FFFFFF;stroke:#FFFFFF;stroke-width:3;stroke-linecap:round;stroke-linejoin:round;stroke-miterlimit:10;" points="
	25,8 10.921,39.678 25,32.638 39.079,39.678 "/>
</svg>
