<?xml version="1.0" encoding="iso-8859-1"?>
<!-- Generator: Adobe Illustrator 16.0.0, SVG Export Plug-In . SVG Version: 6.00 Build 0)  -->
<!DOCTYPE svg PUBLIC "-//W3C//DTD SVG 1.1//EN" "http://www.w3.org/Graphics/SVG/1.1/DTD/svg11.dtd">
<svg version="1.1" id="Layer_1" xmlns="http://www.w3.org/2000/svg" xmlns:xlink="http://www.w3.org/1999/xlink" x="0px" y="0px"
	 width="50px" height="50px" viewBox="0 0 50 50" style="enable-background:new 0 0 50 50;" xml:space="preserve">
<g>
	<g>
		<rect x="17" y="9" style="fill:#F5CF87;" width="6" height="14"/>
	</g>
	<g>
		<rect x="17" y="27" style="fill:#F5CF87;" width="6" height="14"/>
	</g>
	<g>
		<rect x="27" y="9" style="fill:#F5CF87;" width="6" height="14"/>
	</g>
	<g>
		<rect x="27" y="27" style="fill:#F5CF87;" width="6" height="14"/>
	</g>
</g>
<g style="opacity:0.2;">
	<path style="fill:#231F20;" d="M33,7H17c-2.209,0-4,1.791-4,4v32c0,2.209,1.791,4,4,4h16c2.209,0,4-1.791,4-4V11
		C37,8.791,35.209,7,33,7z M23,43h-6V29h6V43z M23,25h-6V11h6V25z M33,43h-6V29h6V43z M33,25h-6V11h6V25z"/>
</g>
<g>
	<path style="fill:#E0995E;" d="M33,5H17c-2.209,0-4,1.791-4,4v32c0,2.209,1.791,4,4,4h16c2.209,0,4-1.791,4-4V9
		C37,6.791,35.209,5,33,5z M23,41h-6V27h6V41z M23,23h-6V9h6V23z M33,41h-6V27h6V41z M33,23h-6V9h6V23z"/>
</g>
<g style="opacity:0.2;">
	<circle style="fill:#231F20;" cx="33" cy="27" r="3"/>
</g>
<g>
	<circle style="fill:#F5CF87;" cx="33" cy="25" r="3"/>
</g>
</svg>
