<?xml version="1.0" encoding="iso-8859-1"?>
<!-- Generator: Adobe Illustrator 16.0.0, SVG Export Plug-In . SVG Version: 6.00 Build 0)  -->
<!DOCTYPE svg PUBLIC "-//W3C//DTD SVG 1.1//EN" "http://www.w3.org/Graphics/SVG/1.1/DTD/svg11.dtd">
<svg version="1.1" id="Layer_1" xmlns="http://www.w3.org/2000/svg" xmlns:xlink="http://www.w3.org/1999/xlink" x="0px" y="0px"
	 width="50px" height="50px" viewBox="0 0 50 50" style="enable-background:new 0 0 50 50;" xml:space="preserve">
<g style="opacity:0.2;">
	<g>
		<path style="fill:#231F20;" d="M32.983,4.174C32.986,4.157,33,4.131,33,4.116C33,3.956,32.995,4.004,32.983,4.174z"/>
	</g>
	<g>
		<path style="fill:#231F20;" d="M17,4.116c0,0.017,0.015,0.045,0.018,0.063C17.006,4.005,17,3.953,17,4.116z"/>
	</g>
</g>
<g>
	<g style="opacity:0.2;">
		<path style="fill:#231F20;" d="M41,25c0-6.469-3.847-12.027-9.371-14.549C29.904,9.728,29,11.046,29,12.116v8.5
			C29,21.445,29.671,22,30.5,22h3.062c1.471,0,1.882,1.127,0.914,2.361l-7.713,9.829c-0.969,1.235-2.555,1.235-3.523,0l-7.713-9.829
			C14.556,23.127,14.967,22,16.438,22H19.5c0.829,0,1.5-0.555,1.5-1.384v-8.5c0-1.104-1.504-2.142-2.752-1.609
			c-0.003,0.001-0.005-0.002-0.008-0.001c-4.311,2.02-7.573,5.904-8.748,10.62C4.687,21.854,1,25.991,1,31c0,5.522,4.477,10,10,10
			h30c4.418,0,8-3.582,8-8S45.418,25,41,25z"/>
	</g>
	<g>
		<path style="fill:#FFFFFF;" d="M41,23c0-6.469-3.847-12.027-9.371-14.549C29.904,7.728,29,9.046,29,10.116v8.5
			C29,19.445,29.671,20,30.5,20h3.062c1.471,0,1.882,1.127,0.914,2.361l-7.713,9.829c-0.969,1.235-2.555,1.235-3.523,0l-7.713-9.829
			C14.556,21.127,14.967,20,16.438,20H19.5c0.829,0,1.5-0.555,1.5-1.384v-8.5c0-1.104-1.504-2.142-2.752-1.609
			c-0.003,0.001-0.005-0.002-0.008-0.001c-4.311,2.02-7.573,5.904-8.748,10.62C4.687,19.854,1,23.991,1,29c0,5.522,4.477,10,10,10
			h30c4.418,0,8-3.582,8-8S45.418,23,41,23z"/>
	</g>
	<g>
		<path style="fill:#8C81D4;" d="M32.983,2.174C32.986,2.157,33,2.131,33,2.116C33,1.956,32.995,2.004,32.983,2.174z"/>
	</g>
	<g>
		<path style="fill:#8C81D4;" d="M17,2.116c0,0.017,0.015,0.045,0.018,0.063C17.006,2.005,17,1.953,17,2.116z"/>
	</g>
</g>
</svg>
