<?xml version="1.0" encoding="iso-8859-1"?>
<!-- Generator: Adobe Illustrator 16.0.0, SVG Export Plug-In . SVG Version: 6.00 Build 0)  -->
<!DOCTYPE svg PUBLIC "-//W3C//DTD SVG 1.1//EN" "http://www.w3.org/Graphics/SVG/1.1/DTD/svg11.dtd">
<svg version="1.1" id="Layer_1" xmlns="http://www.w3.org/2000/svg" xmlns:xlink="http://www.w3.org/1999/xlink" x="0px" y="0px"
	 width="50px" height="50px" viewBox="0 0 50 50" style="enable-background:new 0 0 50 50;" xml:space="preserve">
<g style="opacity:0.2;">
	<line style="fill:#231F20;" x1="21" y1="7" x2="12" y2="47"/>
	<path style="fill:#231F20;" d="M12.002,48.5c-0.109,0-0.221-0.012-0.331-0.037c-0.809-0.182-1.315-0.983-1.135-1.792l9-40
		c0.183-0.809,0.986-1.316,1.793-1.134c0.809,0.182,1.315,0.984,1.134,1.792l-9,40C13.307,48.026,12.688,48.5,12.002,48.5z"/>
</g>
<g style="opacity:0.2;">
	<line style="fill:#231F20;" x1="30" y1="7" x2="38" y2="47"/>
	<path style="fill:#231F20;" d="M37.998,48.5c-0.7,0-1.326-0.493-1.469-1.206l-8-40c-0.162-0.812,0.364-1.603,1.177-1.765
		c0.813-0.166,1.603,0.364,1.765,1.177l8,40c0.162,0.812-0.364,1.603-1.177,1.765C38.194,48.49,38.096,48.5,37.998,48.5z"/>
</g>
<g style="opacity:0.2;">
	<path style="fill:#231F20;" d="M25,48.5c-0.828,0-1.5-0.672-1.5-1.5V30.375c0-0.828,0.672-1.5,1.5-1.5s1.5,0.672,1.5,1.5V47
		C26.5,47.828,25.828,48.5,25,48.5z"/>
</g>
<line style="fill:#F5CF87;stroke:#E0995E;stroke-width:3;stroke-linecap:round;stroke-linejoin:round;stroke-miterlimit:10;" x1="21" y1="5" x2="12" y2="45"/>
<line style="fill:#F5CF87;stroke:#E0995E;stroke-width:3;stroke-linecap:round;stroke-linejoin:round;stroke-miterlimit:10;" x1="30" y1="5" x2="38" y2="45"/>
<line style="fill:none;stroke:#E0995E;stroke-width:3;stroke-linecap:round;stroke-linejoin:round;stroke-miterlimit:10;" x1="25" y1="28.375" x2="25" y2="45"/>
<path style="opacity:0.2;fill:#231F20;" d="M42,33.242C42,34.213,41.049,35,39.875,35h-29.75C8.951,35,8,34.213,8,33.242V14.758
	C8,13.787,8.951,13,10.125,13h29.75C41.049,13,42,13.787,42,14.758V33.242z"/>
<path style="fill:#FFFFFF;" d="M42,31.242C42,32.213,41.049,33,39.875,33h-29.75C8.951,33,8,32.213,8,31.242V12.758
	C8,11.787,8.951,11,10.125,11h29.75C41.049,11,42,11.787,42,12.758V31.242z"/>
<g style="opacity:0.2;">
	<path style="fill:#231F20;" d="M34,14.5H16c-0.828,0-1.5-0.671-1.5-1.5s0.672-1.5,1.5-1.5h18c0.828,0,1.5,0.671,1.5,1.5
		S34.828,14.5,34,14.5z"/>
</g>
<g style="opacity:0.2;">
	<path style="fill:#231F20;" d="M34,36.5H16c-0.828,0-1.5-0.672-1.5-1.5s0.672-1.5,1.5-1.5h18c0.828,0,1.5,0.672,1.5,1.5
		S34.828,36.5,34,36.5z"/>
</g>
<line style="fill:none;stroke:#F5CF87;stroke-width:3;stroke-linecap:round;stroke-linejoin:round;stroke-miterlimit:10;" x1="16" y1="11.5" x2="34" y2="11.5"/>
<line style="fill:none;stroke:#F5CF87;stroke-width:3;stroke-linecap:round;stroke-linejoin:round;stroke-miterlimit:10;" x1="16" y1="33.5" x2="34" y2="33.5"/>
<path style="fill:none;stroke:#C75C5C;stroke-width:3;stroke-linecap:round;stroke-miterlimit:10;" d="M12.5,29c0,0,11-18,11-10
	s0,10,2,8s7-8,12-9"/>
</svg>
