<?xml version="1.0" encoding="iso-8859-1"?>
<!-- Generator: Adobe Illustrator 16.0.0, SVG Export Plug-In . SVG Version: 6.00 Build 0)  -->
<!DOCTYPE svg PUBLIC "-//W3C//DTD SVG 1.1//EN" "http://www.w3.org/Graphics/SVG/1.1/DTD/svg11.dtd">
<svg version="1.1" id="Layer_1" xmlns="http://www.w3.org/2000/svg" xmlns:xlink="http://www.w3.org/1999/xlink" x="0px" y="0px"
	 width="50px" height="50px" viewBox="0 0 50 50" style="enable-background:new 0 0 50 50;" xml:space="preserve">
<g>
	<path style="fill:#4F5D73;" d="M25,45c-1.104,0-2-0.896-2-2V11c0-1.104,0.896-2,2-2l0,0c1.104,0,2,0.896,2,2v32
		C27,44.104,26.104,45,25,45L25,45z"/>
</g>
<g>
	<path style="fill:#4F5D73;" d="M39,45c-1.104,0-2-0.896-2-2V11c0-1.104,0.896-2,2-2l0,0c1.104,0,2,0.896,2,2v32
		C41,44.104,40.104,45,39,45L39,45z"/>
</g>
<g>
	<path style="fill:#4F5D73;" d="M11,45c-1.104,0-2-0.896-2-2V11c0-1.104,0.896-2,2-2l0,0c1.104,0,2,0.896,2,2v32
		C13,44.104,12.104,45,11,45L11,45z"/>
</g>
<g style="opacity:0.2;">
	<circle style="fill:#231F20;" cx="38.865" cy="31" r="4"/>
</g>
<g style="opacity:0.2;">
	<circle style="fill:#231F20;" cx="25" cy="20" r="4"/>
</g>
<g style="opacity:0.2;">
	<circle style="fill:#231F20;" cx="11" cy="37" r="4"/>
</g>
<g>
	<circle style="fill:#FFFFFF;" cx="38.865" cy="29" r="4"/>
</g>
<g>
	<circle style="fill:#FFFFFF;" cx="25" cy="18" r="4"/>
</g>
<g>
	<circle style="fill:#FFFFFF;" cx="11" cy="35" r="4"/>
</g>
</svg>
