<?xml version="1.0" encoding="iso-8859-1"?>
<!-- Generator: Adobe Illustrator 16.0.0, SVG Export Plug-In . SVG Version: 6.00 Build 0)  -->
<!DOCTYPE svg PUBLIC "-//W3C//DTD SVG 1.1//EN" "http://www.w3.org/Graphics/SVG/1.1/DTD/svg11.dtd">
<svg version="1.1" id="Layer_1" xmlns="http://www.w3.org/2000/svg" xmlns:xlink="http://www.w3.org/1999/xlink" x="0px" y="0px"
	 width="50px" height="50px" viewBox="0 0 50 50" style="enable-background:new 0 0 50 50;" xml:space="preserve">
<path style="opacity:0.2;fill:#231F20;" d="M30.235,18.286c1.042,0.885,2.03,1.788,2.917,2.74L18.153,36.024
	c-0.165,0.165-0.682,0.487-1.37,0.651l-0.013,0.003l-0.031,0.008c-0.096,0.021-0.191,0.04-0.287,0.053l-0.142,0.019l-0.139,0.031
	c-0.274,0.063-0.577,0.145-0.899,0.252l-1.265,0.305l0.4-1.673c0.07-0.223,0.126-0.433,0.171-0.627l0.025-0.107l0.017-0.11
	c0.012-0.073,0.025-0.146,0.042-0.22l0.007-0.03l0.003-0.013c0.165-0.688,0.487-1.205,0.651-1.369L30.235,18.286 M30.037,14.242
	L13.204,31.075c-0.639,0.639-1.185,1.695-1.447,2.792l-0.01-0.007c0,0-0.002,0.03-0.008,0.086c-0.032,0.142-0.059,0.282-0.08,0.424
	c-0.156,0.671-0.595,1.917-1.868,3.19l0,0l-0.884,0.884c-1.074,1.074-1.301,2.588-0.507,3.382l1.014,1.015
	c0.32,0.319,0.756,0.474,1.233,0.474c0.708,0,1.507-0.34,2.149-0.981l0.884-0.884c1.125-1.125,2.407-1.563,3.16-1.735
	c0.188-0.024,0.375-0.06,0.563-0.102c0.054-0.006,0.087-0.009,0.087-0.009l-0.008-0.01c1.097-0.262,2.154-0.809,2.793-1.447
	l16.92-16.92C35.262,18.518,32.645,16.334,30.037,14.242L30.037,14.242z"/>
<g>
	<path style="fill:#E0E0D1;" d="M30.235,16.286c1.041,0.885,2.029,1.788,2.917,2.74L18.153,34.024
		c-0.165,0.165-0.682,0.487-1.37,0.651l-0.013,0.003l-0.031,0.007c-0.096,0.022-0.191,0.041-0.287,0.054l-0.142,0.019l-0.139,0.031
		c-0.274,0.063-0.577,0.145-0.899,0.252l-1.265,0.305l0.4-1.672c0.071-0.223,0.127-0.434,0.172-0.627l0.025-0.109l0.017-0.11
		c0.011-0.072,0.025-0.146,0.041-0.218l0.008-0.035l0.002-0.009c0.165-0.688,0.487-1.205,0.651-1.369L30.235,16.286 M30.037,12.242
		L13.204,29.075c-0.639,0.639-1.185,1.695-1.447,2.792l-0.01-0.007c0,0-0.002,0.03-0.008,0.086c-0.032,0.142-0.059,0.282-0.08,0.424
		c-0.156,0.671-0.595,1.917-1.868,3.19l0,0l-0.884,0.884c-1.074,1.074-1.301,2.588-0.507,3.382l1.014,1.015
		c0.32,0.319,0.756,0.474,1.233,0.474c0.708,0,1.507-0.34,2.149-0.981l0.884-0.884c1.125-1.125,2.407-1.563,3.16-1.735
		c0.188-0.024,0.375-0.06,0.563-0.102c0.054-0.006,0.087-0.009,0.087-0.009l-0.008-0.01c1.097-0.262,2.154-0.809,2.793-1.447
		l16.92-16.92C35.262,16.518,32.645,14.334,30.037,12.242L30.037,12.242z"/>
</g>
<path style="opacity:0.2;fill:#231F20;" d="M36.9,20.192l5.207-5.206c1.057-1.058,0.95-2.879-0.239-4.068l-1.436-1.437
	c-1.189-1.189-3.011-1.296-4.068-0.239l-5.286,5.286C33.179,16.249,35.265,18.041,36.9,20.192z"/>
<path style="opacity:0.2;fill:#231F20;" d="M38.604,23.948c-0.781,0.781-2.121,2.122-2.121,2.122L25.169,14.756
	c0,0,1.34-1.34,2.122-2.121l1.414-1.414c0.781-0.781,2.047-0.781,2.829,0l8.485,8.485c0.781,0.781,0.781,2.047,0,2.828
	L38.604,23.948z"/>
<path style="fill:#4F5D73;" d="M36.9,18.192l5.207-5.206c1.057-1.058,0.95-2.879-0.239-4.068l-1.436-1.437
	c-1.189-1.189-3.011-1.296-4.068-0.239l-5.286,5.286C33.179,14.249,35.265,16.041,36.9,18.192z"/>
<path style="fill:#4F5D73;" d="M38.604,21.948c-0.781,0.781-2.121,2.122-2.121,2.122L25.169,12.756c0,0,1.34-1.34,2.122-2.121
	l1.414-1.414c0.781-0.781,2.047-0.781,2.829,0l8.485,8.485c0.781,0.781,0.781,2.047,0,2.828L38.604,21.948z"/>
</svg>
