<?xml version="1.0" encoding="iso-8859-1"?>
<!-- Generator: Adobe Illustrator 16.0.0, SVG Export Plug-In . SVG Version: 6.00 Build 0)  -->
<!DOCTYPE svg PUBLIC "-//W3C//DTD SVG 1.1//EN" "http://www.w3.org/Graphics/SVG/1.1/DTD/svg11.dtd">
<svg version="1.1" id="Layer_1" xmlns="http://www.w3.org/2000/svg" xmlns:xlink="http://www.w3.org/1999/xlink" x="0px" y="0px"
	 width="50px" height="50px" viewBox="0 0 50 50" style="enable-background:new 0 0 50 50;" xml:space="preserve">
<circle style="opacity:0.2;fill:#231F20;" cx="25" cy="24.917" r="13.083"/>
<circle style="fill:#4F5D73;" cx="25" cy="24.083" r="13.083"/>
<circle style="fill:#4F5D73;" cx="25" cy="23" r="13.083"/>
<g style="opacity:0.2;">
	<path style="fill:#231F20;" d="M25,3C12.85,3,3,12.85,3,25s9.85,22,22,22s22-9.85,22-22S37.15,3,25,3z M7.5,21.5
		c0-3.038,2.463-5.5,5.5-5.5s5.5,2.462,5.5,5.5S16.037,27,13,27S7.5,24.538,7.5,21.5z M17.469,40.5c-3.037,0-5.5-2.462-5.5-5.5
		s2.463-5.5,5.5-5.5c3.038,0,5.5,2.462,5.5,5.5S20.507,40.5,17.469,40.5z M19.5,12.5C19.5,9.462,21.963,7,25,7s5.5,2.462,5.5,5.5
		S28.037,18,25,18S19.5,15.538,19.5,12.5z M32.469,40.5c-3.037,0-5.5-2.462-5.5-5.5s2.463-5.5,5.5-5.5c3.038,0,5.5,2.462,5.5,5.5
		S35.507,40.5,32.469,40.5z M37.042,27c-3.038,0-5.5-2.462-5.5-5.5s2.462-5.5,5.5-5.5c3.037,0,5.5,2.462,5.5,5.5
		S40.079,27,37.042,27z"/>
</g>
<g>
	<path style="fill:#FFFFFF;" d="M25,1C12.85,1,3,10.85,3,23s9.85,22,22,22s22-9.85,22-22S37.15,1,25,1z M7.5,19.5
		c0-3.038,2.463-5.5,5.5-5.5s5.5,2.462,5.5,5.5S16.037,25,13,25S7.5,22.538,7.5,19.5z M17.469,38.5c-3.037,0-5.5-2.462-5.5-5.5
		s2.463-5.5,5.5-5.5c3.038,0,5.5,2.462,5.5,5.5S20.507,38.5,17.469,38.5z M19.5,10.5C19.5,7.462,21.963,5,25,5s5.5,2.462,5.5,5.5
		S28.037,16,25,16S19.5,13.538,19.5,10.5z M32.469,38.5c-3.037,0-5.5-2.462-5.5-5.5s2.463-5.5,5.5-5.5c3.038,0,5.5,2.462,5.5,5.5
		S35.507,38.5,32.469,38.5z M37.042,25c-3.038,0-5.5-2.462-5.5-5.5s2.462-5.5,5.5-5.5c3.037,0,5.5,2.462,5.5,5.5
		S40.079,25,37.042,25z"/>
</g>
</svg>
