<?xml version="1.0" encoding="iso-8859-1"?>
<!-- Generator: Adobe Illustrator 16.0.0, SVG Export Plug-In . SVG Version: 6.00 Build 0)  -->
<!DOCTYPE svg PUBLIC "-//W3C//DTD SVG 1.1//EN" "http://www.w3.org/Graphics/SVG/1.1/DTD/svg11.dtd">
<svg version="1.1" id="Layer_1" xmlns="http://www.w3.org/2000/svg" xmlns:xlink="http://www.w3.org/1999/xlink" x="0px" y="0px"
	 width="50px" height="50px" viewBox="0 0 50 50" style="enable-background:new 0 0 50 50;" xml:space="preserve">
<path style="opacity:0.2;fill:#231F20;" d="M43,16H30v22h8c1.104,0,2-0.896,2-2v-6c0,0,0-2,2-2h1c1.104,0,2-0.896,2-2v-8
	C45,16.896,44.104,16,43,16z"/>
<path style="opacity:0.2;fill:#231F20;" d="M29,42c0,1.104-0.896,2-2,2H11c-1.104,0-2-0.896-2-2V14c0-1.104,0.896-2,2-2h16
	c1.104,0,2,0.896,2,2V42z"/>
<path style="opacity:0.2;fill:#231F20;" d="M25,12c0,1.104-0.896,2-2,2h-8c-1.104,0-2-0.896-2-2l0,0c0-1.104,0.896-2,2-2h8
	C24.104,10,25,10.896,25,12L25,12z"/>
<path style="fill:#F5CF87;" d="M43,14H30v22h8c1.104,0,2-0.896,2-2v-6c0,0,0-2,2-2h1c1.104,0,2-0.896,2-2v-8
	C45,14.896,44.104,14,43,14z"/>
<path style="fill:#4F5D73;" d="M29,40c0,1.104-0.896,2-2,2H11c-1.104,0-2-0.896-2-2V12c0-1.104,0.896-2,2-2h16c1.104,0,2,0.896,2,2
	V40z"/>
<path style="fill:#4F5D73;" d="M25,10c0,1.104-0.896,2-2,2h-8c-1.104,0-2-0.896-2-2l0,0c0-1.104,0.896-2,2-2h8
	C24.104,8,25,8.896,25,10L25,10z"/>
</svg>
