<?xml version="1.0" encoding="iso-8859-1"?>
<!-- Generator: Adobe Illustrator 16.0.0, SVG Export Plug-In . SVG Version: 6.00 Build 0)  -->
<!DOCTYPE svg PUBLIC "-//W3C//DTD SVG 1.1//EN" "http://www.w3.org/Graphics/SVG/1.1/DTD/svg11.dtd">
<svg version="1.1" id="Layer_1" xmlns="http://www.w3.org/2000/svg" xmlns:xlink="http://www.w3.org/1999/xlink" x="0px" y="0px"
	 width="50px" height="50px" viewBox="0 0 50 50" style="enable-background:new 0 0 50 50;" xml:space="preserve">
<g>
	<g>
		<rect x="9" y="23" style="fill:#4F5D73;" width="4" height="4"/>
	</g>
	<g>
		<rect x="9" y="30" style="fill:#4F5D73;" width="4" height="4"/>
	</g>
	<g>
		<rect x="9" y="37" style="fill:#4F5D73;" width="4" height="4"/>
	</g>
	<g>
		<rect x="9" y="16" style="fill:#4F5D73;" width="4" height="4"/>
	</g>
	<g>
		<rect x="9" y="9" style="fill:#4F5D73;" width="4" height="4"/>
	</g>
	<g>
		<rect x="37" y="23" style="fill:#4F5D73;" width="4" height="4"/>
	</g>
	<g>
		<rect x="37" y="30" style="fill:#4F5D73;" width="4" height="4"/>
	</g>
	<g>
		<rect x="37" y="37" style="fill:#4F5D73;" width="4" height="4"/>
	</g>
	<g>
		<rect x="37" y="16" style="fill:#4F5D73;" width="4" height="4"/>
	</g>
	<g>
		<rect x="37" y="9" style="fill:#4F5D73;" width="4" height="4"/>
	</g>
	<g>
		<rect x="17" y="9" style="fill:#4F5D73;" width="16" height="14"/>
	</g>
	<g>
		<rect x="17" y="27" style="fill:#4F5D73;" width="16" height="14"/>
	</g>
</g>
<g style="opacity:0.2;">
	<path style="fill:#231F20;" d="M41,7H9c-2.209,0-4,1.791-4,4v32c0,2.209,1.791,4,4,4h32c2.209,0,4-1.791,4-4V11
		C45,8.791,43.209,7,41,7z M13,43H9v-4h4V43z M13,36H9v-4h4V36z M13,29H9v-4h4V29z M13,22H9v-4h4V22z M13,15H9v-4h4V15z M33,43H17
		V29h16V43z M33,25H17V11h16V25z M41,43h-4v-4h4V43z M41,36h-4v-4h4V36z M41,29h-4v-4h4V29z M41,22h-4v-4h4V22z M41,15h-4v-4h4V15z"
		/>
</g>
<g>
	<path style="fill:#E0E0D1;" d="M41,5H9C6.791,5,5,6.791,5,9v32c0,2.209,1.791,4,4,4h32c2.209,0,4-1.791,4-4V9
		C45,6.791,43.209,5,41,5z M13,41H9v-4h4V41z M13,34H9v-4h4V34z M13,27H9v-4h4V27z M13,20H9v-4h4V20z M13,13H9V9h4V13z M33,41H17V27
		h16V41z M33,23H17V9h16V23z M41,41h-4v-4h4V41z M41,34h-4v-4h4V34z M41,27h-4v-4h4V27z M41,20h-4v-4h4V20z M41,13h-4V9h4V13z"/>
</g>
</svg>
