<?xml version="1.0" encoding="iso-8859-1"?>
<!-- Generator: Adobe Illustrator 16.0.0, SVG Export Plug-In . SVG Version: 6.00 Build 0)  -->
<!DOCTYPE svg PUBLIC "-//W3C//DTD SVG 1.1//EN" "http://www.w3.org/Graphics/SVG/1.1/DTD/svg11.dtd">
<svg version="1.1" id="Layer_1" xmlns="http://www.w3.org/2000/svg" xmlns:xlink="http://www.w3.org/1999/xlink" x="0px" y="0px"
	 width="51px" height="51px" viewBox="0 0 51 51" style="enable-background:new 0 0 51 51;" xml:space="preserve">
<g style="opacity:0.2;">
	<path style="fill:#231F20;" d="M21.625,51.563c0,0-16.063-2.377-16.063-16.063S26.565,20.509,21.917,3.531
		c0,0,15.726,4.921,11.887,20.245c0,0,2.08-1.328,3.671-3.913c0,0,7.962,6.151,7.962,15.512S34.4,51.62,29.171,51.556
		c0,0,5.642-7.618,0.509-12.529c-7.286-6.972-4.18-11.448-4.18-11.448S7.746,36.263,21.625,51.563z"/>
</g>
<g>
	<path style="fill:#F5CF87;" d="M21.625,49.563c0,0-16.063-2.377-16.063-16.063S26.565,18.509,21.917,1.531
		c0,0,15.726,4.921,11.887,20.245c0,0,2.08-1.328,3.671-3.913c0,0,7.962,6.151,7.962,15.512S34.4,49.62,29.171,49.556
		c0,0,5.642-7.618,0.509-12.529c-7.286-6.972-4.18-11.448-4.18-11.448S7.746,34.263,21.625,49.563z"/>
</g>
</svg>
