<?xml version="1.0" encoding="iso-8859-1"?>
<!-- Generator: Adobe Illustrator 16.0.0, SVG Export Plug-In . SVG Version: 6.00 Build 0)  -->
<!DOCTYPE svg PUBLIC "-//W3C//DTD SVG 1.1//EN" "http://www.w3.org/Graphics/SVG/1.1/DTD/svg11.dtd">
<svg version="1.1" id="Layer_1" xmlns="http://www.w3.org/2000/svg" xmlns:xlink="http://www.w3.org/1999/xlink" x="0px" y="0px"
	 width="50px" height="50px" viewBox="0 0 50 50" style="enable-background:new 0 0 50 50;" xml:space="preserve">
<g style="opacity:0.2;">
	<g>
		<g>
			<path style="fill:#231F20;" d="M31.609,15v-3.656c-0.018,0.895-3.903,3.276-5.174,4.107C26.892,15.17,27.425,15,28,15H31.609z"/>
		</g>
	</g>
	<g>
		<path style="fill:#231F20;" d="M31.609,11.344C31.613,11.129,31.394,11,30.858,11H17h-1h-3v3v14v3h3h1h8V18
			c0-0.237,0.029-0.467,0.081-0.688c0.149-0.638,0.501-1.197,0.985-1.606C26.498,15.342,31.589,12.367,31.609,11.344z"/>
	</g>
</g>
<g>
	<g>
		<g>
			<path style="fill:#76C2AF;" d="M31.609,13V9.344c-0.018,0.895-3.903,3.276-5.174,4.107C26.892,13.17,27.425,13,28,13H31.609z"/>
		</g>
	</g>
	<g>
		<path style="fill:#C75C5C;" d="M31.609,9.344C31.613,9.129,31.394,9,30.858,9H17h-1h-3v3v14v3h3h1h8V16
			c0-0.237,0.029-0.467,0.081-0.688c0.149-0.638,0.501-1.197,0.985-1.606C26.498,13.342,31.589,10.367,31.609,9.344z"/>
	</g>
</g>
<g style="opacity:0.2;">
	<path style="fill:#231F20;" d="M42,13H31.608v-1H27c-1.657,0-3,1.343-3,3v16v1c0,1.657,1.343,3,3,3h15c1.657,0,3-1.343,3-3V16
		C45,14.343,43.657,13,42,13z"/>
</g>
<g>
	<path style="fill:#C75C5C;" d="M42,13h-9h-5c-1.657,0-3,1.343-3,3v13v1c0,1.657,1.343,3,3,3h14c1.657,0,3-1.343,3-3V16
		C45,14.343,43.657,13,42,13z"/>
</g>
<g style="opacity:0.2;">
	<path style="fill:#231F20;" d="M13,45c0,1.104-0.896,2-2,2l0,0c-1.104,0-2-0.896-2-2V11c0-1.104,0.896-2,2-2l0,0
		c1.104,0,2,0.896,2,2V45z"/>
</g>
<g>
	<path style="fill:#E0995E;" d="M13,43c0,1.104-0.896,2-2,2l0,0c-1.104,0-2-0.896-2-2V9c0-1.104,0.896-2,2-2l0,0
		c1.104,0,2,0.896,2,2V43z"/>
</g>
<g style="opacity:0.2;">
	<circle style="fill:#231F20;" cx="11" cy="10" r="3"/>
</g>
<g>
	<circle style="fill:#E0995E;" cx="11" cy="8" r="3"/>
</g>
</svg>
