<?xml version="1.0" encoding="iso-8859-1"?>
<!-- Generator: Adobe Illustrator 16.0.0, SVG Export Plug-In . SVG Version: 6.00 Build 0)  -->
<!DOCTYPE svg PUBLIC "-//W3C//DTD SVG 1.1//EN" "http://www.w3.org/Graphics/SVG/1.1/DTD/svg11.dtd">
<svg version="1.1" id="Layer_1" xmlns="http://www.w3.org/2000/svg" xmlns:xlink="http://www.w3.org/1999/xlink" x="0px" y="0px"
	 width="50px" height="50px" viewBox="0 0 50 50" style="enable-background:new 0 0 50 50;" xml:space="preserve">
<g>
	<g style="opacity:0.2;">
		<path style="fill:#231F20;" d="M14.5,47.5c-0.828,0-1.5-0.671-1.5-1.5V6c0-0.829,0.672-1.5,1.5-1.5S16,5.171,16,6v40
			C16,46.829,15.328,47.5,14.5,47.5z"/>
	</g>
	<path style="opacity:0.2;fill:#231F20;" d="M42.588,13.058L37,11.94l0,0l-2.412-0.482l-3.813-0.762l-2.188-0.438l-6-1.2L19,8.341
		V12v20v3.659l3.588-0.717l6-1.2L31,33.259l0,0l3.588-0.718L37,32.06l0,0l5.588-1.118C43.99,30.661,45,29.43,45,28V16
		C45,14.57,43.99,13.339,42.588,13.058z"/>
	
		<line style="fill:none;stroke:#E0E0D1;stroke-width:3;stroke-linecap:round;stroke-miterlimit:10;" x1="14.5" y1="44" x2="14.5" y2="4"/>
	<g>
		<g>
			<polygon style="fill:#E0995E;" points="20.5,8.17 29.5,9.971 29.5,30.029 20.5,31.83 			"/>
			<path style="fill:#E0995E;" d="M22,10l6,1.2v17.6L22,30V10 M19,6.341V10v20v3.659l3.588-0.717l6-1.2L31,31.259V28.8V11.2V8.741
				l-2.412-0.482l-6-1.2L19,6.341L19,6.341z"/>
		</g>
		<g>
			<path style="fill:#E0995E;" d="M36,28.7c-0.344,0-0.681-0.118-0.951-0.34c-0.348-0.285-0.549-0.711-0.549-1.16V12.8
				c0-0.449,0.201-0.875,0.549-1.16c0.271-0.222,0.607-0.34,0.951-0.34c0.098,0,0.196,0.01,0.294,0.029l6,1.2
				C42.995,12.669,43.5,13.285,43.5,14v12c0,0.715-0.505,1.331-1.206,1.471l-6,1.2C36.196,28.69,36.098,28.7,36,28.7z"/>
			<path style="fill:#E0995E;" d="M36,12.8l6,1.2v12l-6,1.2V12.8 M36,9.8c-0.688,0-1.361,0.237-1.902,0.68
				C33.403,11.05,33,11.901,33,12.8v14.4c0,0.898,0.403,1.75,1.098,2.32c0.541,0.443,1.215,0.68,1.902,0.68
				c0.196,0,0.393-0.02,0.588-0.059l6-1.2C43.99,28.661,45,27.43,45,26V14c0-1.43-1.01-2.661-2.412-2.942l-6-1.2
				C36.393,9.819,36.196,9.8,36,9.8L36,9.8z"/>
		</g>
		<g>
			<g>
				<polygon style="fill:#FFFFFF;" points="28.5,9.771 35.5,11.17 35.5,28.83 28.5,30.229 				"/>
				<path style="fill:#FFFFFF;" d="M30,11.6l4,0.8v15.2l-4,0.8V11.6 M27,7.941V11.6v16.8v3.659l3.588-0.717l4-0.8L37,30.06V27.6
					V12.4V9.94l-2.412-0.482l-4-0.8L27,7.941L27,7.941z"/>
			</g>
		</g>
	</g>
</g>
</svg>
