<?xml version="1.0" encoding="iso-8859-1"?>
<!-- Generator: Adobe Illustrator 16.0.0, SVG Export Plug-In . SVG Version: 6.00 Build 0)  -->
<!DOCTYPE svg PUBLIC "-//W3C//DTD SVG 1.1//EN" "http://www.w3.org/Graphics/SVG/1.1/DTD/svg11.dtd">
<svg version="1.1" id="Layer_1" xmlns="http://www.w3.org/2000/svg" xmlns:xlink="http://www.w3.org/1999/xlink" x="0px" y="0px"
	 width="53px" height="53px" viewBox="0 0 53 53" style="enable-background:new 0 0 53 53;" xml:space="preserve">
<g>
	<g style="opacity:0.2;">
		<path style="fill:#231F20;" d="M52.175,26.396l-5.285-5.285l-6.286-6.286c-0.434-0.434-1.138-0.434-1.571,0l-3.928,3.929
			l-3.929,3.928c-0.434,0.434-0.434,1.138,0,1.571l6.285,6.286l5.285,5.285c0.435,0.434,1.138,0.434,1.572,0l3.928-3.928
			l3.929-3.929C52.608,27.534,52.608,26.83,52.175,26.396z"/>
		<path style="fill:#231F20;" d="M17.896,18.754l-3.928-3.929c-0.435-0.434-1.138-0.434-1.571,0L6.11,21.111l-5.285,5.285
			C0.392,26.83,0.066,27.884,0.5,28.318l3.929,3.928l3.928,3.929c0.435,0.434,1.138,0.434,1.571,0l5.611-5.636l6.285-6.286
			c0.434-0.434,0.434-1.137,0-1.571L17.896,18.754z"/>
	</g>
	<g>
		<path style="fill:#FFFFFF;" d="M42.175,23.825l-4.714,4.714l5.285,5.285c0.435,0.434,1.138,0.434,1.571,0l3.929-3.928
			L42.175,23.825z"/>
		<path style="fill:#FFFFFF;" d="M46.89,19.111l-6.286-6.286c-0.434-0.434-1.138-0.434-1.571,0l-3.928,3.929l7.07,7.071
			L46.89,19.111z"/>
		<path style="fill:#4F5D73;" d="M48.246,29.896l3.929-3.929c0.434-0.434,0.434-1.137,0-1.571l-5.285-5.285l-4.715,4.714
			L48.246,29.896z"/>
		<path style="fill:#4F5D73;" d="M35.104,16.754l-3.929,3.928c-0.434,0.434-0.434,1.138,0,1.571l6.285,6.286l4.714-4.714
			L35.104,16.754z"/>
	</g>
	<g>
		<path style="fill:#FFFFFF;" d="M10.825,23.825l4.714,4.714l-5.611,5.636c-0.434,0.434-1.137,0.434-1.571,0l-3.928-3.929
			L10.825,23.825z"/>
		<path style="fill:#FFFFFF;" d="M6.11,19.111l6.286-6.286c0.434-0.434,1.137-0.434,1.571,0l3.928,3.929l-7.07,7.071L6.11,19.111z"
			/>
		<path style="fill:#4F5D73;" d="M4.429,30.246L0.5,26.318c-0.434-0.434-0.108-1.488,0.325-1.922l5.285-5.285l4.715,4.714
			L4.429,30.246z"/>
		<path style="fill:#4F5D73;" d="M17.896,16.754l3.929,3.928c0.434,0.434,0.434,1.138,0,1.571l-6.285,6.286l-4.714-4.714
			L17.896,16.754z"/>
	</g>
	<g style="opacity:0.2;">
		<path style="fill:#231F20;" d="M12.068,44.703c-0.383,0-0.767-0.146-1.061-0.439c-0.585-0.585-0.585-1.536,0-2.121l28.457-28.456
			c0.586-0.586,1.535-0.586,2.121,0c0.586,0.585,0.586,1.536,0,2.121L13.129,44.264C12.836,44.557,12.452,44.703,12.068,44.703z"/>
	</g>
	
		<line style="fill:none;stroke:#E0E0D1;stroke-width:3;stroke-linecap:round;stroke-linejoin:round;stroke-miterlimit:10;" x1="40.525" y1="12.747" x2="12.069" y2="41.203"/>
	<g style="opacity:0.2;">
		<path style="fill:#231F20;" d="M40.932,44.703c-0.384,0-0.768-0.146-1.062-0.439L11.414,15.808c-0.586-0.585-0.586-1.536,0-2.121
			c0.586-0.586,1.535-0.586,2.121,0l28.457,28.456c0.585,0.585,0.585,1.536,0,2.121C41.698,44.557,41.314,44.703,40.932,44.703z"/>
	</g>
	
		<line style="fill:none;stroke:#E0E0D1;stroke-width:3;stroke-linecap:round;stroke-linejoin:round;stroke-miterlimit:10;" x1="12.475" y1="12.747" x2="40.931" y2="41.203"/>
</g>
</svg>
