<?xml version="1.0" encoding="iso-8859-1"?>
<!-- Generator: Adobe Illustrator 16.0.0, SVG Export Plug-In . SVG Version: 6.00 Build 0)  -->
<!DOCTYPE svg PUBLIC "-//W3C//DTD SVG 1.1//EN" "http://www.w3.org/Graphics/SVG/1.1/DTD/svg11.dtd">
<svg version="1.1" id="Layer_1" xmlns="http://www.w3.org/2000/svg" xmlns:xlink="http://www.w3.org/1999/xlink" x="0px" y="0px"
	 width="50px" height="50px" viewBox="0 0 50 50" style="enable-background:new 0 0 50 50;" xml:space="preserve">
<g>
	<path style="fill:#4F5D73;" d="M27.485,43c0,1.104-0.896,2-2,2h-12c-1.104,0-2-0.896-2-2V19c0-1.104,0.896-2,2-2h12
		c1.104,0,2,0.896,2,2V43z"/>
	<path style="fill:#FFFFFF;" d="M24.643,31.157c-0.781,0.781-2.048,0.781-2.829,0l-8.485-8.485c-0.78-0.781-0.78-2.047,0-2.828
		L30.299,2.873c0.781-0.781,2.048-0.781,2.828,0l8.485,8.485c0.781,0.781,0.781,2.047,0,2.829L24.643,31.157z"/>
	<path style="opacity:0.2;fill:#231F20;" d="M20.899,37.87c-0.781,0.781-2.047,0.781-2.828,0l-8.485-8.485
		c-0.781-0.781-0.781-2.047,0-2.829l16.971-16.97c0.781-0.781,2.047-0.781,2.828,0l8.485,8.485c0.781,0.781,0.781,2.047,0,2.828
		L20.899,37.87z"/>
	<path style="fill:#4F5D73;" d="M20.899,34.899c-0.781,0.781-2.047,0.781-2.828,0l-8.485-8.485c-0.781-0.781-0.781-2.047,0-2.828
		L26.557,6.615c0.781-0.781,2.047-0.781,2.828,0l8.485,8.485c0.781,0.781,0.781,2.047,0,2.828L20.899,34.899z"/>
	<circle style="opacity:0.2;fill:#231F20;" cx="19.5" cy="25.5" r="6.5"/>
	<circle style="fill:#4F5D73;" cx="19.5" cy="24.827" r="6.015"/>
</g>
</svg>
