<?xml version="1.0" encoding="iso-8859-1"?>
<!-- Generator: Adobe Illustrator 16.0.0, SVG Export Plug-In . SVG Version: 6.00 Build 0)  -->
<!DOCTYPE svg PUBLIC "-//W3C//DTD SVG 1.1//EN" "http://www.w3.org/Graphics/SVG/1.1/DTD/svg11.dtd">
<svg version="1.1" id="Layer_1" xmlns="http://www.w3.org/2000/svg" xmlns:xlink="http://www.w3.org/1999/xlink" x="0px" y="0px"
	 width="50px" height="50px" viewBox="0 0 50 50" style="enable-background:new 0 0 50 50;" xml:space="preserve">
<line style="fill:none;stroke:#76C2AF;stroke-width:4;stroke-linecap:round;stroke-miterlimit:10;" x1="25" y1="17" x2="25" y2="42"/>
<path style="opacity:0.2;fill:#231F20;" d="M42.911,30.22c-0.708-0.362-1.563-0.27-2.178,0.233
	c-0.046,0.038-4.611,3.758-10.129,6.795c-2.774,1.528-4.532,3.411-5.652,5.194c-1.12-1.784-2.878-3.667-5.653-5.194
	c-5.507-3.032-9.971-6.745-10.016-6.782c-0.613-0.513-1.472-0.612-2.185-0.251c-0.713,0.36-1.144,1.109-1.095,1.907
	c0.385,6.333,4.832,18.311,18.903,18.311c0.015,0,0.029-0.004,0.044-0.004c0.015,0,0.029,0.004,0.044,0.004
	c14.148,0,18.615-11.978,19-18.311C44.044,31.328,43.618,30.582,42.911,30.22z"/>
<path style="fill:#76C2AF;stroke:#76C2AF;stroke-width:4;stroke-linecap:round;stroke-linejoin:round;stroke-miterlimit:10;" d="
	M24.996,46.432c0,0,0-5.813,6.573-9.432C37.327,33.83,42,30,42,30S41,46.432,24.996,46.432z"/>
<path style="fill:#76C2AF;stroke:#76C2AF;stroke-width:4;stroke-linecap:round;stroke-linejoin:round;stroke-miterlimit:10;" d="
	M24.907,46.432c0,0,0-5.813-6.573-9.432C12.577,33.83,8,30,8,30S9,46.432,24.907,46.432z"/>
<circle style="opacity:0.2;fill:#231F20;" cx="19" cy="17" r="8"/>
<circle style="opacity:0.2;fill:#231F20;" cx="31" cy="17" r="8"/>
<circle style="opacity:0.2;fill:#231F20;" cx="25" cy="13" r="8"/>
<circle style="opacity:0.2;fill:#231F20;" cx="25" cy="23" r="8"/>
<circle style="fill:#C75C5C;" cx="19" cy="15" r="8"/>
<circle style="fill:#C75C5C;" cx="31" cy="15" r="8"/>
<circle style="fill:#C75C5C;" cx="25" cy="9" r="8"/>
<circle style="fill:#C75C5C;" cx="25" cy="21" r="8"/>
<circle style="opacity:0.2;fill:#231F20;" cx="25" cy="17" r="5"/>
<circle style="fill:#F5CF87;" cx="25" cy="15" r="5"/>
</svg>
