<?xml version="1.0" encoding="iso-8859-1"?>
<!-- Generator: Adobe Illustrator 16.0.0, SVG Export Plug-In . SVG Version: 6.00 Build 0)  -->
<!DOCTYPE svg PUBLIC "-//W3C//DTD SVG 1.1//EN" "http://www.w3.org/Graphics/SVG/1.1/DTD/svg11.dtd">
<svg version="1.1" id="Layer_1" xmlns="http://www.w3.org/2000/svg" xmlns:xlink="http://www.w3.org/1999/xlink" x="0px" y="0px"
	 width="50px" height="50px" viewBox="0 0 50 50" style="enable-background:new 0 0 50 50;" xml:space="preserve">
<g style="opacity:0.2;">
	<g>
		<path style="fill:#231F20;" d="M25,15.923h-0.417H7.5c-1.38,0-2.5,1.063-2.5,2.422v22.193C5,41.897,6.12,43,7.5,43h35
			c1.38,0,2.5-1.103,2.5-2.462V20.846v-2.501v-2.422H25z"/>
	</g>
</g>
<g>
	<g>
		<path style="fill:#FFFFFF;" d="M25,13.923h-0.417H7.5c-1.38,0-2.5,1.063-2.5,2.422v22.193C5,39.897,6.12,41,7.5,41h35
			c1.38,0,2.5-1.103,2.5-2.462V18.846v-2.501v-2.422H25z"/>
	</g>
</g>
<g>
	<path style="fill:#E0E0D1;" d="M45,11.462C45,10.103,43.88,9,42.5,9H30c-1.38,0-2.5,1.103-2.5,2.462c0,0-0.325,2.257-2.5,2.461h20
		V11.462z"/>
</g>
</svg>
