<?xml version="1.0" encoding="iso-8859-1"?>
<!-- Generator: Adobe Illustrator 16.0.0, SVG Export Plug-In . SVG Version: 6.00 Build 0)  -->
<!DOCTYPE svg PUBLIC "-//W3C//DTD SVG 1.1//EN" "http://www.w3.org/Graphics/SVG/1.1/DTD/svg11.dtd">
<svg version="1.1" id="Layer_1" xmlns="http://www.w3.org/2000/svg" xmlns:xlink="http://www.w3.org/1999/xlink" x="0px" y="0px"
	 width="50px" height="50px" viewBox="0 0 50 50" style="enable-background:new 0 0 50 50;" xml:space="preserve">
<g>
	<g>
		<path style="fill:#4F5D73;" d="M19.095,29.737c0.563-1.625,1.625-4.313,0.125-9.5s-3.688-7.216-6.688-7.216
			c0,0-5.153-0.283-5.5,7.903c-0.384,9.049,2.791,11.271,3.787,16.446l7.524-2.149C18.076,32.985,18.702,30.869,19.095,29.737z"/>
	</g>
	<g>
		<path style="fill:#4F5D73;" d="M19.264,38.079l-8.122,2.32c0.421,5.322,3.012,9.598,7.453,8.397
			c4.625-1.25,2.511-7.534,0.698-10.659C19.282,38.118,19.274,38.099,19.264,38.079z"/>
	</g>
</g>
<g>
	<g>
		<path style="fill:#4F5D73;" d="M30.905,21.727c-0.563-1.625-1.625-4.313-0.125-9.5s3.688-7.215,6.688-7.215
			c0,0,5.153-0.283,5.5,7.902c0.384,9.049-2.791,11.271-3.787,16.447l-7.524-2.15C31.924,24.975,31.298,22.859,30.905,21.727z"/>
	</g>
	<g>
		<path style="fill:#4F5D73;" d="M30.736,30.068l8.122,2.321c-0.421,5.321-3.012,9.597-7.453,8.396
			c-4.625-1.25-2.511-7.534-0.698-10.659C30.718,30.107,30.726,30.088,30.736,30.068z"/>
	</g>
</g>
</svg>
