<?xml version="1.0" encoding="iso-8859-1"?>
<!-- Generator: Adobe Illustrator 16.0.0, SVG Export Plug-In . SVG Version: 6.00 Build 0)  -->
<!DOCTYPE svg PUBLIC "-//W3C//DTD SVG 1.1//EN" "http://www.w3.org/Graphics/SVG/1.1/DTD/svg11.dtd">
<svg version="1.1" id="Layer_1" xmlns="http://www.w3.org/2000/svg" xmlns:xlink="http://www.w3.org/1999/xlink" x="0px" y="0px"
	 width="50px" height="50px" viewBox="0 0 50 50" style="enable-background:new 0 0 50 50;" xml:space="preserve">
<g>
	<path style="opacity:0.2;fill:#231F20;" d="M30,12v18H8V12H30 M30,9H8c-1.657,0-3,1.343-3,3v18c0,1.657,1.343,3,3,3h22
		c1.657,0,3-1.343,3-3V12C33,10.343,31.657,9,30,9L30,9z"/>
	<g style="opacity:0.2;">
		<path style="fill:#231F20;" d="M41.5,43H17c-0.828,0-1.5-0.671-1.5-1.5S16.172,40,17,40h23V21c0-0.829,0.672-1.5,1.5-1.5
			S43,20.171,43,21v20.5C43,42.329,42.328,43,41.5,43z"/>
	</g>
	<g style="opacity:0.2;">
		<path style="fill:#231F20;" d="M36.5,38H12c-0.828,0-1.5-0.671-1.5-1.5S11.172,35,12,35h23V16c0-0.829,0.672-1.5,1.5-1.5
			S38,15.171,38,16v20.5C38,37.329,37.328,38,36.5,38z"/>
	</g>
	<path style="fill:#FFFFFF;" d="M30,10v18H8V10H30 M30,7H8c-1.657,0-3,1.343-3,3v18c0,1.657,1.343,3,3,3h22c1.657,0,3-1.343,3-3V10
		C33,8.343,31.657,7,30,7L30,7z"/>
	<g>
		<path style="fill:#E0E0D1;" d="M41.5,41H17c-0.828,0-1.5-0.671-1.5-1.5S16.172,38,17,38h23V19c0-0.829,0.672-1.5,1.5-1.5
			S43,18.171,43,19v20.5C43,40.329,42.328,41,41.5,41z"/>
	</g>
	<g>
		<path style="fill:#E0E0D1;" d="M36.5,36H12c-0.828,0-1.5-0.671-1.5-1.5S11.172,33,12,33h23V14c0-0.829,0.672-1.5,1.5-1.5
			S38,13.171,38,14v20.5C38,35.329,37.328,36,36.5,36z"/>
	</g>
</g>
</svg>
