<?xml version="1.0" encoding="iso-8859-1"?>
<!-- Generator: Adobe Illustrator 16.0.0, SVG Export Plug-In . SVG Version: 6.00 Build 0)  -->
<!DOCTYPE svg PUBLIC "-//W3C//DTD SVG 1.1//EN" "http://www.w3.org/Graphics/SVG/1.1/DTD/svg11.dtd">
<svg version="1.1" id="Layer_1" xmlns="http://www.w3.org/2000/svg" xmlns:xlink="http://www.w3.org/1999/xlink" x="0px" y="0px"
	 width="50px" height="50px" viewBox="0 0 50 50" style="enable-background:new 0 0 50 50;" xml:space="preserve">
<path style="fill:#77B3D4;" d="M11,38"/>
<path style="fill:#77B3D4;" d="M9,17"/>
<path style="opacity:0.2;fill:#231F20;" d="M25,32.8c9.2,0,9.55,3.051,13,6.103c3.45,3.051,10,4.063,10-6.103
	s-4.6-16.273-4.6-16.273S39,9,33,14.885c-4.274,4.192-11.726,4.192-16,0C11,9,6.6,16.526,6.6,16.526S2,22.634,2,32.8
	s6.55,9.153,10,6.103C15.45,35.851,15.8,32.8,25,32.8z"/>
<path style="fill:#4F5D73;" d="M25,29.8c9.2,0,9.55,3.051,13,6.103c3.45,3.051,10,4.063,10-6.103s-4.6-16.273-4.6-16.273
	S39,6,33,11.885c-4.274,4.192-11.726,4.192-16,0C11,6,6.6,13.526,6.6,13.526S2,19.634,2,29.8s6.55,9.153,10,6.103
	C15.45,32.851,15.8,29.8,25,29.8z"/>
<circle style="fill:#E0E0D1;" cx="37" cy="27" r="2"/>
<circle style="fill:#E0E0D1;" cx="41" cy="22" r="2"/>
<path style="fill:#E0E0D1;" d="M12,28.495C12,29.326,11.329,30,10.5,30l0,0C9.671,30,9,29.326,9,28.495v-6.991
	C9,20.674,9.671,20,10.5,20l0,0c0.829,0,1.5,0.674,1.5,1.504V28.495z"/>
<path style="fill:#E0E0D1;" d="M7.004,26.5C6.174,26.5,5.5,25.828,5.5,25l0,0c0-0.829,0.674-1.5,1.504-1.5h6.991
	c0.831,0,1.504,0.671,1.504,1.5l0,0c0,0.828-0.674,1.5-1.504,1.5H7.004z"/>
</svg>
