<?xml version="1.0" encoding="iso-8859-1"?>
<!-- Generator: Adobe Illustrator 16.0.0, SVG Export Plug-In . SVG Version: 6.00 Build 0)  -->
<!DOCTYPE svg PUBLIC "-//W3C//DTD SVG 1.1//EN" "http://www.w3.org/Graphics/SVG/1.1/DTD/svg11.dtd">
<svg version="1.1" id="Layer_1" xmlns="http://www.w3.org/2000/svg" xmlns:xlink="http://www.w3.org/1999/xlink" x="0px" y="0px"
	 width="50px" height="50px" viewBox="0 0 50 50" style="enable-background:new 0 0 50 50;" xml:space="preserve">
<path style="opacity:0.2;fill:#231F20;" d="M37,9H25h-2l-2.232,2.232c-0.976-0.977-2.56-0.977-3.535,0L15.5,12.965
	c-1.723-1.572-4.278-3.075-8.066-3.917c-1.079-0.242-2.146,0.44-2.386,1.518c-0.24,1.079,0.44,2.147,1.518,2.386
	c2.919,0.648,4.834,1.744,6.099,2.848l-1.433,1.433c-0.977,0.976-0.977,2.559,0,3.535L9,23v7v11c0,2.209,1.791,4,4,4h17h11
	c2.209,0,4-1.791,4-4V24v-7C45,14.791,39.209,9,37,9z M41,17.449V22l-9-9h4.551C37.797,13.65,40.35,16.203,41,17.449z"/>
<g>
	<path style="fill:#C75C5C;" d="M36.551,11c1.246,0.65,3.798,3.203,4.449,4.449V39H13V22.657L24.657,11H36.551 M37,7H23L9,21v18
		c0,2.209,1.791,4,4,4h28c2.209,0,4-1.791,4-4V15C45,12.791,39.209,7,37,7L37,7z"/>
</g>
<g>
	<path style="fill:#C75C5C;" d="M13,41.5c-1.378,0-2.5-1.122-2.5-2.5V28.666L29.948,11.07L41.379,22.5H42
		c0.584,0,1.091-0.069,1.5-0.146V39c0,1.378-1.122,2.5-2.5,2.5H13z"/>
	<path style="fill:#C75C5C;" d="M29.896,13.139l9.982,9.982L40.757,24H42v15c0,0.551-0.449,1-1,1H13c-0.551,0-1-0.449-1-1v-9.668
		L29.896,13.139 M30,9L9,28v11c0,2.209,1.791,4,4,4h28c2.209,0,4-1.791,4-4V22c0-1.055-0.18-1.33-0.609-1.33
		C43.921,20.67,43.154,21,42,21L30,9L30,9z"/>
</g>
<path style="fill:none;stroke:#4F5D73;stroke-width:4;stroke-linecap:round;stroke-miterlimit:10;" d="M17,17c0,0-1-6-10-8"/>
<line style="fill:none;stroke:#4F5D73;stroke-width:5;stroke-linecap:round;stroke-miterlimit:10;" x1="13" y1="17" x2="19" y2="11"/>
<g>
	<path style="fill:#C75C5C;" d="M13,41.5c-1.378,0-2.5-1.122-2.5-2.5V21.621L23.621,8.5H25c1.378,0,2.5,1.122,2.5,2.5v0.133
		l4.997,27.985C32.436,40.442,31.339,41.5,30,41.5H13z"/>
	<path style="fill:#C75C5C;" d="M25,10c0.551,0,1,0.449,1,1v0.266l0.047,0.262l4.938,27.65C30.9,39.645,30.491,40,30,40H13
		c-0.551,0-1-0.449-1-1V22.243L24.243,10H25 M25,7h-2L9,21v18c0,2.209,1.791,4,4,4h17c2.209,0,4-1.791,4-4l-5-28
		C29,8.791,27.209,7,25,7L25,7z"/>
</g>
</svg>
