<?xml version="1.0" encoding="iso-8859-1"?>
<!-- Generator: Adobe Illustrator 16.0.0, SVG Export Plug-In . SVG Version: 6.00 Build 0)  -->
<!DOCTYPE svg PUBLIC "-//W3C//DTD SVG 1.1//EN" "http://www.w3.org/Graphics/SVG/1.1/DTD/svg11.dtd">
<svg version="1.1" id="Layer_1" xmlns="http://www.w3.org/2000/svg" xmlns:xlink="http://www.w3.org/1999/xlink" x="0px" y="0px"
	 width="50px" height="50px" viewBox="0 0 50 50" style="enable-background:new 0 0 50 50;" xml:space="preserve">
<g style="opacity:0.2;">
	<path style="fill:#231F20;" d="M45,43c0,2.209-1.791,4-4,4H9c-2.209,0-4-1.791-4-4V11c0-2.209,1.791-4,4-4h32c2.209,0,4,1.791,4,4
		V43z"/>
</g>
<g>
	<path style="fill:#C75C5C;" d="M45,41c0,2.209-1.791,4-4,4H9c-2.209,0-4-1.791-4-4V9c0-2.209,1.791-4,4-4h32c2.209,0,4,1.791,4,4
		V41z"/>
</g>
<g style="opacity:0.2;">
	<rect x="17" y="7" style="fill:#231F20;" width="4" height="40"/>
</g>
<g style="opacity:0.2;">
	<rect x="5" y="23" style="fill:#231F20;" width="40" height="4"/>
</g>
<g>
	<rect x="17" y="5" style="fill:#F5CF87;" width="4" height="40"/>
</g>
<g>
	<rect x="5" y="21" style="fill:#F5CF87;" width="40" height="4"/>
</g>
<g style="opacity:0.2;">
	<path style="fill:#231F20;" d="M29.032,15.032c-1.254-1.254-2.898-1.882-4.543-1.882c-1.644,0-3.288,0.628-4.542,1.882
		c-1.831,1.831-1.991,4.549-1.944,7.548c-0.63-0.291-4.857-2.38-5.276-6.187c-0.091-0.823-0.835-1.415-1.655-1.327
		c-0.823,0.091-1.418,0.831-1.327,1.655c0.393,3.564,2.859,5.949,4.797,7.301c-2.237,0.086-4.223,0.492-5.659,1.929
		c-2.509,2.509-2.509,6.577,0,9.086c1.254,1.255,2.898,1.882,4.543,1.882c1.644,0,3.288-0.627,4.543-1.882
		c1.721-1.721,1.966-4.225,1.95-7.01c0.102,0.107,0.216,0.206,0.352,0.283c0.047,0.025,4.646,2.654,4.646,6.773
		c0,0.828,0.672,1.5,1.5,1.5c0.829,0,1.5-0.672,1.5-1.5c0-4.852-4.008-7.978-5.575-9.016c2.657-0.006,5.037-0.296,6.691-1.95
		C31.541,21.609,31.541,17.541,29.032,15.032z M15.846,32.916c-0.646,0.646-1.506,1.003-2.421,1.003s-1.775-0.356-2.422-1.003
		c-1.335-1.336-1.335-3.508,0-4.844C11.765,27.311,13.114,27,15.66,27c0.408,0,0.823,0.007,1.242,0.016
		C16.96,29.627,16.924,31.838,15.846,32.916z M26.911,21.997c-0.762,0.762-2.111,1.072-4.656,1.072
		c-0.408,0-0.823-0.007-1.243-0.016c-0.058-2.611-0.021-4.822,1.057-5.899c0.646-0.647,1.507-1.004,2.421-1.004
		c0.915,0,1.775,0.356,2.422,1.004C28.246,18.489,28.246,20.662,26.911,21.997z"/>
</g>
<g>
	<path style="fill:#F5CF87;" d="M24.489,14.15c0.915,0,1.775,0.356,2.422,1.004c1.335,1.335,1.335,3.508,0,4.843
		c-0.762,0.762-2.111,1.072-4.656,1.072c-0.408,0-0.823-0.007-1.243-0.016c-0.058-2.611-0.021-4.822,1.057-5.9
		C22.715,14.507,23.575,14.15,24.489,14.15 M24.489,11.15c-1.644,0-3.288,0.628-4.542,1.882c-2.51,2.509-1.882,6.685-1.882,10.968
		c1.428,0,2.843,0.069,4.189,0.069c2.692,0,5.105-0.278,6.777-1.951c2.509-2.509,2.509-6.577,0-9.086
		C27.778,11.778,26.134,11.15,24.489,11.15L24.489,11.15z"/>
</g>
<g>
	<path style="fill:#F5CF87;" d="M15.659,25c0.409,0,0.823,0.007,1.243,0.016c0.058,2.612,0.021,4.822-1.057,5.9
		c-0.646,0.646-1.506,1.003-2.421,1.003s-1.775-0.356-2.422-1.003c-1.335-1.336-1.335-3.508,0-4.844
		C11.765,25.311,13.114,25,15.659,25 M15.659,22c-2.691,0-5.104,0.278-6.777,1.951c-2.509,2.509-2.509,6.577,0,9.086
		c1.254,1.255,2.898,1.882,4.543,1.882c1.644,0,3.288-0.627,4.543-1.882c2.509-2.509,1.882-6.685,1.882-10.968
		C18.422,22.069,17.006,22,15.659,22L15.659,22z"/>
</g>
<g>
	<path style="fill:#F5CF87;" d="M26.417,34.583c-0.828,0-1.5-0.672-1.5-1.5c0-4.118-4.601-6.747-4.647-6.772
		c-0.721-0.405-0.98-1.317-0.578-2.04c0.402-0.722,1.312-0.983,2.035-0.583c0.253,0.141,6.19,3.496,6.19,9.396
		C27.917,33.911,27.245,34.583,26.417,34.583z"/>
</g>
<g>
	<path style="fill:#F5CF87;" d="M17.502,23.5c-0.192,0-0.389-0.037-0.578-0.116c-0.267-0.111-6.534-2.798-7.18-8.662
		c-0.091-0.823,0.504-1.564,1.327-1.655c0.821-0.089,1.564,0.504,1.655,1.327c0.453,4.126,5.307,6.202,5.355,6.223
		c0.764,0.319,1.124,1.198,0.805,1.963C18.646,23.154,18.089,23.5,17.502,23.5z"/>
</g>
</svg>
