<?xml version="1.0" encoding="iso-8859-1"?>
<!-- Generator: Adobe Illustrator 16.0.0, SVG Export Plug-In . SVG Version: 6.00 Build 0)  -->
<!DOCTYPE svg PUBLIC "-//W3C//DTD SVG 1.1//EN" "http://www.w3.org/Graphics/SVG/1.1/DTD/svg11.dtd">
<svg version="1.1" id="Layer_1" xmlns="http://www.w3.org/2000/svg" xmlns:xlink="http://www.w3.org/1999/xlink" x="0px" y="0px"
	 width="51px" height="51px" viewBox="0 0 51 51" style="enable-background:new 0 0 51 51;" xml:space="preserve">
<g>
	<g style="opacity:0.2;">
		<path style="fill:#231F20;" d="M49.448,24.5C48.704,12.441,39.059,2.796,27,2.052V2h-3v0.052
			C11.941,2.796,2.296,12.441,1.552,24.5H1.5v3h0.052C2.296,39.559,11.941,49.204,24,49.948V50h3v-0.052
			c12.059-0.744,21.704-10.39,22.448-22.448H49.5v-3H49.448z M38.971,24.5c-0.097-2.784-0.458-5.44-1.043-7.888
			c1.835-0.595,3.55-1.315,5.091-2.165c1.935,2.924,3.143,6.357,3.405,10.053H38.971z M32.432,10.5
			c0.688,1.223,1.27,2.583,1.767,4.03c-2.271,0.52-4.693,0.833-7.198,0.924V5.268C28.947,5.902,30.867,7.719,32.432,10.5z M24,5.268
			v10.187c-2.505-0.091-4.928-0.404-7.198-0.924c0.496-1.447,1.079-2.808,1.767-4.03C20.133,7.719,22.053,5.902,24,5.268z
			 M24,18.453V24.5h-8.96c0.092-2.477,0.399-4.867,0.924-7.091C18.505,18.003,21.211,18.358,24,18.453z M24,27.5v6.196
			c-2.775,0.094-5.469,0.445-8,1.033c-0.544-2.264-0.866-4.7-0.96-7.229H24z M24,36.695v10.037
			c-1.947-0.635-3.867-2.451-5.432-5.232c-0.666-1.185-1.233-2.498-1.721-3.894C19.105,37.094,21.512,36.784,24,36.695z M27,46.732
			V36.695c2.488,0.091,4.895,0.402,7.151,0.915c-0.487,1.395-1.055,2.707-1.72,3.89C30.867,44.281,28.947,46.098,27,46.732z
			 M27,33.696V27.5h8.96c-0.094,2.531-0.417,4.97-0.962,7.234C32.469,34.145,29.775,33.792,27,33.696z M27,24.5v-6.047
			c2.789-0.095,5.495-0.45,8.036-1.044c0.524,2.224,0.832,4.614,0.924,7.091H27z M41.15,12.047c-1.238,0.65-2.596,1.215-4.046,1.69
			c-0.944-2.817-2.203-5.26-3.691-7.178C36.4,7.78,39.034,9.676,41.15,12.047z M17.587,6.56c-1.488,1.918-2.747,4.36-3.691,7.178
			c-1.45-0.476-2.807-1.04-4.046-1.69C11.966,9.675,14.6,7.78,17.587,6.56z M7.981,14.448c1.541,0.85,3.257,1.569,5.091,2.164
			c-0.585,2.447-0.946,5.104-1.043,7.888H4.576C4.839,20.806,6.047,17.371,7.981,14.448z M12.029,27.5
			c0.098,2.836,0.473,5.538,1.078,8.023c-1.821,0.588-3.528,1.295-5.063,2.134c-1.974-2.945-3.203-6.42-3.469-10.157H12.029z
			 M9.94,40.053c1.228-0.637,2.567-1.19,3.998-1.657c0.939,2.762,2.184,5.156,3.648,7.045C14.643,44.237,12.042,42.378,9.94,40.053z
			 M33.413,45.44c1.464-1.887,2.708-4.279,3.646-7.039c1.43,0.468,2.768,1.022,3.993,1.659
			C38.952,42.382,36.354,44.238,33.413,45.44z M42.949,37.666c-1.532-0.839-3.238-1.548-5.058-2.137
			c0.605-2.486,0.98-5.19,1.079-8.029h7.453C46.157,31.241,44.927,34.719,42.949,37.666z"/>
	</g>
	<g>
		<path style="fill:#FFFFFF;" d="M25.5,3c11.579,0,21,9.421,21,21s-9.421,21-21,21s-21-9.421-21-21S13.921,3,25.5,3 M25.5,0
			c-13.255,0-24,10.745-24,24s10.745,24,24,24s24-10.745,24-24S38.755,0,25.5,0L25.5,0z"/>
	</g>
	<g>
		<path style="fill:#FFFFFF;" d="M25.5,3c2.438,0,4.965,2.005,6.932,5.5C34.732,12.592,36,18.096,36,24s-1.268,11.408-3.568,15.5
			C30.465,42.995,27.938,45,25.5,45s-4.965-2.005-6.932-5.5C16.268,35.408,15,29.904,15,24s1.268-11.408,3.568-15.5
			C20.535,5.005,23.062,3,25.5,3 M25.5,0C18.044,0,12,10.745,12,24s6.044,24,13.5,24S39,37.255,39,24S32.956,0,25.5,0L25.5,0z"/>
	</g>
	<g>
		<rect x="24" style="fill:#FFFFFF;" width="3" height="48"/>
	</g>
	<g>
		<path style="fill:#FFFFFF;" d="M25.5,16.5c-7.425,0-14.447-1.861-19.266-5.106L7.91,8.905c4.336,2.92,10.747,4.595,17.59,4.595
			c6.836,0,13.244-1.672,17.58-4.588l1.674,2.49C39.936,14.642,32.918,16.5,25.5,16.5z"/>
	</g>
	<g>
		<path style="fill:#FFFFFF;" d="M43.079,39.244c-4.336-2.92-10.747-4.595-17.59-4.595c-6.837,0-13.244,1.673-17.58,4.589
			l-1.674-2.49c4.817-3.24,11.836-5.099,19.254-5.099c7.425,0,14.447,1.861,19.266,5.106L43.079,39.244z"/>
	</g>
	<g>
		<rect x="1.5" y="22.5" style="fill:#FFFFFF;" width="48" height="3"/>
	</g>
</g>
</svg>
