<?xml version="1.0" encoding="iso-8859-1"?>
<!-- Generator: Adobe Illustrator 16.0.0, SVG Export Plug-In . SVG Version: 6.00 Build 0)  -->
<!DOCTYPE svg PUBLIC "-//W3C//DTD SVG 1.1//EN" "http://www.w3.org/Graphics/SVG/1.1/DTD/svg11.dtd">
<svg version="1.1" id="Layer_1" xmlns="http://www.w3.org/2000/svg" xmlns:xlink="http://www.w3.org/1999/xlink" x="0px" y="0px"
	 width="50px" height="50px" viewBox="0 0 50 50" style="enable-background:new 0 0 50 50;" xml:space="preserve">
<g style="opacity:0.2;">
	<g>
		<path style="fill:#231F20;" d="M42.982,24.003c-0.095-5.521-4.575-10.442-10.107-10.442c-3.199,0-6.019,1.674-7.875,4.131
			c-1.856-2.457-4.676-4.131-7.875-4.131c-5.533,0-10.013,4.921-10.107,10.442H7c0,0.033,0.007,0.065,0.007,0.099
			c0,0.025-0.007,0.05-0.007,0.076c0,0.156,0.038,0.272,0.045,0.421C7.54,38.671,24.858,44.439,24.858,44.439
			s17.572-5.762,18.092-19.818C42.96,24.464,43,24.34,43,24.178c0-0.026-0.007-0.051-0.007-0.076c0-0.036,0.007-0.065,0.007-0.099
			H42.982z"/>
	</g>
</g>
<g>
	<g>
		<path style="fill:#FFFFFF;" d="M42.982,22.003c-0.095-5.521-4.575-10.442-10.107-10.442c-3.199,0-6.019,1.674-7.875,4.131
			c-1.856-2.457-4.676-4.131-7.875-4.131c-5.533,0-10.013,4.921-10.107,10.442H7c0,0.033,0.007,0.065,0.007,0.099
			c0,0.025-0.007,0.05-0.007,0.076c0,0.156,0.038,0.272,0.045,0.421C7.54,36.671,24.858,42.439,24.858,42.439
			s17.572-5.762,18.092-19.818C42.96,22.464,43,22.34,43,22.178c0-0.026-0.007-0.051-0.007-0.076c0-0.036,0.007-0.065,0.007-0.099
			H42.982z"/>
	</g>
</g>
</svg>
