<?xml version="1.0" encoding="iso-8859-1"?>
<!-- Generator: Adobe Illustrator 16.0.0, SVG Export Plug-In . SVG Version: 6.00 Build 0)  -->
<!DOCTYPE svg PUBLIC "-//W3C//DTD SVG 1.1//EN" "http://www.w3.org/Graphics/SVG/1.1/DTD/svg11.dtd">
<svg version="1.1" id="Layer_1" xmlns="http://www.w3.org/2000/svg" xmlns:xlink="http://www.w3.org/1999/xlink" x="0px" y="0px"
	 width="50px" height="50px" viewBox="0 0 50 50" style="enable-background:new 0 0 50 50;" xml:space="preserve">
<g>
	<path style="fill:#4F5D73;" d="M37,47H23c-1.104,0-2-0.896-2-2s0.896-2,2-2h14c1.104,0,2,0.896,2,2S38.104,47,37,47z"/>
</g>
<g style="opacity:0.2;">
	<path style="fill:#231F20;" d="M43,13H15c-1.104,0-2-0.896-2-2s0.896-2,2-2h28c1.104,0,2,0.896,2,2S44.104,13,43,13z"/>
</g>
<line style="fill:#4F5D73;stroke:#FFFFFF;stroke-width:3;stroke-linecap:round;stroke-miterlimit:10;" x1="43" y1="9.5" x2="15" y2="9.5"/>
<path style="opacity:0.2;fill:#231F20;" d="M30,18.5c0-0.505,0.031-1.002,0.075-1.496C30.05,17.004,30.025,17,30,17
	c-3.867,0-7.384,1.473-10.041,3.878c-0.39,0.353-1.271,1.117-2.605,1.117c-3.088,0-14.374-3.594-14.374,0
	C2.979,24.959,5,25.906,5,25.906l8.613,4.092c0,0,1.387,0.689,1.387,2.002c0,8.284,6.716,11,15,11
	c7.292,0,14.083-2.561,14.714-10.101C36.442,32.009,30,27.009,30,18.5z"/>
<path style="fill:#4F5D73;" d="M30,16.5c0-0.505,0.031-1.002,0.075-1.496C30.05,15.004,30.025,15,30,15
	c-3.867,0-7.384,1.473-10.041,3.878C19.569,19.23,18.688,20,17.354,20C14.266,20,3,20,3,20l2,3.906l8.613,4.092
	c0,0,1.387,0.689,1.387,2.002c0,8.284,6.716,11,15,11c7.292,0,13.362-1.205,14.714-8.101C36.442,32.009,30,25.009,30,16.5z"/>
<path style="opacity:0.2;fill:#231F20;" d="M6,20c0.552,0,1,0.449,1,1s-0.448,1-1,1s-1-0.449-1-1S5.448,20,6,20 M6,16
	c-2.762,0-5,2.238-5,5s2.238,5,5,5s5-2.238,5-5S8.762,16,6,16L6,16z"/>
<g>
	<path style="fill:#FFFFFF;" d="M6,17c1.103,0,2,0.897,2,2s-0.897,2-2,2s-2-0.897-2-2S4.897,17,6,17 M6,14c-2.762,0-5,2.238-5,5
		s2.238,5,5,5s5-2.238,5-5S8.762,14,6,14L6,14z"/>
</g>
<path style="fill:#E0E0D1;" d="M30.075,15.004C30.031,15.498,30,15.995,30,16.5c0,8.509,6.442,15.509,14.714,16.399
	C44.898,31.961,45,30.992,45,30C45,21.741,38.324,15.045,30.075,15.004z"/>
</svg>
