<?xml version="1.0" encoding="iso-8859-1"?>
<!-- Generator: Adobe Illustrator 16.0.0, SVG Export Plug-In . SVG Version: 6.00 Build 0)  -->
<!DOCTYPE svg PUBLIC "-//W3C//DTD SVG 1.1//EN" "http://www.w3.org/Graphics/SVG/1.1/DTD/svg11.dtd">
<svg version="1.1" id="Layer_1" xmlns="http://www.w3.org/2000/svg" xmlns:xlink="http://www.w3.org/1999/xlink" x="0px" y="0px"
	 width="50px" height="50px" viewBox="0 0 50 50" style="enable-background:new 0 0 50 50;" xml:space="preserve">
<g style="opacity:0.2;">
	<g>
		<path style="fill:#231F20;" d="M40,11h-4c-0.242,0-0.476,0.088-0.66,0.248L21.536,23.35C20.822,23.2,19.718,23,19,23
			c-5.514,0-10,4.486-10,10s4.486,10,10,10s10-4.486,10-10c0-1.638-0.312-2.736-0.666-3.648l3.404-1.155
			c0.414-0.141,0.688-0.534,0.678-0.971l-0.084-3.796l3.82-0.266c0.512-0.036,0.914-0.454,0.93-0.966l0.142-4.559l2.992-0.664
			C40.674,16.876,41,16.468,41,16v-4C41,11.448,40.552,11,40,11z M16,33c1.2,0,2.236,0.706,2.716,1.724
			C18.898,35.112,19,35.544,19,36c0,1.656-1.344,3-3,3s-3-1.344-3-3S14.344,33,16,33z"/>
	</g>
</g>
<g>
	<g>
		<path style="fill:#FFFFFF;" d="M40,9h-4c-0.242,0-0.476,0.088-0.66,0.248L21.536,21.35C20.822,21.2,19.718,21,19,21
			c-5.514,0-10,4.486-10,10s4.486,10,10,10s10-4.486,10-10c0-1.638-0.312-2.736-0.666-3.648l3.404-1.155
			c0.414-0.141,0.688-0.534,0.678-0.971l-0.084-3.796l3.82-0.266c0.512-0.036,0.914-0.454,0.93-0.966l0.142-4.559l2.992-0.664
			C40.674,14.876,41,14.468,41,14v-4C41,9.448,40.552,9,40,9z M16,31c1.2,0,2.236,0.706,2.716,1.724C18.898,33.112,19,33.544,19,34
			c0,1.656-1.344,3-3,3s-3-1.344-3-3S14.344,31,16,31z"/>
	</g>
</g>
</svg>
