<?xml version="1.0" encoding="iso-8859-1"?>
<!-- Generator: Adobe Illustrator 16.0.0, SVG Export Plug-In . SVG Version: 6.00 Build 0)  -->
<!DOCTYPE svg PUBLIC "-//W3C//DTD SVG 1.1//EN" "http://www.w3.org/Graphics/SVG/1.1/DTD/svg11.dtd">
<svg version="1.1" id="Layer_1" xmlns="http://www.w3.org/2000/svg" xmlns:xlink="http://www.w3.org/1999/xlink" x="0px" y="0px"
	 width="50px" height="50px" viewBox="0 0 50 50" style="enable-background:new 0 0 50 50;" xml:space="preserve">
<path style="opacity:0.2;fill:#231F20;" d="M45,35.921C45,37.069,44.104,38,43,38H7c-1.104,0-2-0.931-2-2.079V19.079
	C5,17.931,5.896,17,7,17h36c1.104,0,2,0.931,2,2.079V35.921z"/>
<path style="fill:#F5CF87;" d="M45,33.921C45,35.069,44.104,36,43,36H7c-1.104,0-2-0.931-2-2.079V17.079C5,15.931,5.896,15,7,15h36
	c1.104,0,2,0.931,2,2.079V33.921z"/>
<g style="opacity:0.2;">
	<path style="fill:#231F20;" d="M32.885,31H17.115c-0.892,0-1.615,0.672-1.615,1.5s0.723,1.5,1.615,1.5h15.771
		c0.892,0,1.615-0.672,1.615-1.5S33.777,31,32.885,31z"/>
	<circle style="fill:#231F20;" cx="13" cy="32.5" r="1.5"/>
	<circle style="fill:#231F20;" cx="9" cy="32.5" r="1.5"/>
	<circle style="fill:#231F20;" cx="41" cy="32.5" r="1.5"/>
	<circle style="fill:#231F20;" cx="37" cy="32.5" r="1.5"/>
	<path style="fill:#231F20;" d="M13,26.85H9c-0.829,0-1.5,0.672-1.5,1.5s0.671,1.5,1.5,1.5h4c0.829,0,1.5-0.672,1.5-1.5
		S13.829,26.85,13,26.85z"/>
	<path style="fill:#231F20;" d="M41,26.85h-4c-0.829,0-1.5,0.672-1.5,1.5s0.671,1.5,1.5,1.5h4c0.829,0,1.5-0.672,1.5-1.5
		S41.829,26.85,41,26.85z"/>
	<circle style="fill:#231F20;" cx="13" cy="24.5" r="1.5"/>
	<circle style="fill:#231F20;" cx="9" cy="24.5" r="1.5"/>
	<circle style="fill:#231F20;" cx="41" cy="24.5" r="1.5"/>
	<circle style="fill:#231F20;" cx="37" cy="24.5" r="1.5"/>
	<circle style="fill:#231F20;" cx="13" cy="20.517" r="1.5"/>
	<circle style="fill:#231F20;" cx="9" cy="20.517" r="1.5"/>
	<circle style="fill:#231F20;" cx="21" cy="28.35" r="1.5"/>
	<circle style="fill:#231F20;" cx="17" cy="28.35" r="1.5"/>
	<circle style="fill:#231F20;" cx="21" cy="24.5" r="1.5"/>
	<circle style="fill:#231F20;" cx="17" cy="24.5" r="1.5"/>
	<circle style="fill:#231F20;" cx="21" cy="20.517" r="1.5"/>
	<circle style="fill:#231F20;" cx="17" cy="20.517" r="1.5"/>
	<circle style="fill:#231F20;" cx="29" cy="28.35" r="1.5"/>
	<circle style="fill:#231F20;" cx="25" cy="28.35" r="1.5"/>
	<circle style="fill:#231F20;" cx="29" cy="24.5" r="1.5"/>
	<circle style="fill:#231F20;" cx="25" cy="24.5" r="1.5"/>
	<circle style="fill:#231F20;" cx="29" cy="20.517" r="1.5"/>
	<circle style="fill:#231F20;" cx="33" cy="28.35" r="1.5"/>
	<circle style="fill:#231F20;" cx="33" cy="24.5" r="1.5"/>
	<circle style="fill:#231F20;" cx="33" cy="20.517" r="1.5"/>
	<circle style="fill:#231F20;" cx="25" cy="20.517" r="1.5"/>
	<circle style="fill:#231F20;" cx="41" cy="20.517" r="1.5"/>
	<circle style="fill:#231F20;" cx="37" cy="20.517" r="1.5"/>
</g>
<g>
	<path style="fill:#FFFFFF;" d="M32.885,30H17.115c-0.892,0-1.615,0.672-1.615,1.5s0.723,1.5,1.615,1.5h15.771
		c0.892,0,1.615-0.672,1.615-1.5S33.777,30,32.885,30z"/>
	<circle style="fill:#FFFFFF;" cx="13" cy="31.5" r="1.5"/>
	<circle style="fill:#FFFFFF;" cx="9" cy="31.5" r="1.5"/>
	<circle style="fill:#FFFFFF;" cx="41" cy="31.5" r="1.5"/>
	<circle style="fill:#FFFFFF;" cx="37" cy="31.5" r="1.5"/>
	<path style="fill:#FFFFFF;" d="M13,25.85H9c-0.829,0-1.5,0.672-1.5,1.5s0.671,1.5,1.5,1.5h4c0.829,0,1.5-0.672,1.5-1.5
		S13.829,25.85,13,25.85z"/>
	<path style="fill:#FFFFFF;" d="M41,25.85h-4c-0.829,0-1.5,0.672-1.5,1.5s0.671,1.5,1.5,1.5h4c0.829,0,1.5-0.672,1.5-1.5
		S41.829,25.85,41,25.85z"/>
	<circle style="fill:#FFFFFF;" cx="13" cy="23.5" r="1.5"/>
	<circle style="fill:#FFFFFF;" cx="9" cy="23.5" r="1.5"/>
	<circle style="fill:#FFFFFF;" cx="41" cy="23.5" r="1.5"/>
	<circle style="fill:#FFFFFF;" cx="37" cy="23.5" r="1.5"/>
	<circle style="fill:#FFFFFF;" cx="13" cy="19.517" r="1.5"/>
	<circle style="fill:#FFFFFF;" cx="9" cy="19.517" r="1.5"/>
	<circle style="fill:#FFFFFF;" cx="21" cy="27.35" r="1.5"/>
	<circle style="fill:#FFFFFF;" cx="17" cy="27.35" r="1.5"/>
	<circle style="fill:#FFFFFF;" cx="21" cy="23.5" r="1.5"/>
	<circle style="fill:#FFFFFF;" cx="17" cy="23.5" r="1.5"/>
	<circle style="fill:#FFFFFF;" cx="21" cy="19.517" r="1.5"/>
	<circle style="fill:#FFFFFF;" cx="17" cy="19.517" r="1.5"/>
	<circle style="fill:#FFFFFF;" cx="29" cy="27.35" r="1.5"/>
	<circle style="fill:#FFFFFF;" cx="25" cy="27.35" r="1.5"/>
	<circle style="fill:#FFFFFF;" cx="29" cy="23.5" r="1.5"/>
	<circle style="fill:#FFFFFF;" cx="25" cy="23.5" r="1.5"/>
	<circle style="fill:#FFFFFF;" cx="29" cy="19.517" r="1.5"/>
	<circle style="fill:#FFFFFF;" cx="33" cy="27.35" r="1.5"/>
	<circle style="fill:#FFFFFF;" cx="33" cy="23.5" r="1.5"/>
	<circle style="fill:#FFFFFF;" cx="33" cy="19.517" r="1.5"/>
	<circle style="fill:#FFFFFF;" cx="25" cy="19.517" r="1.5"/>
	<circle style="fill:#FFFFFF;" cx="41" cy="19.517" r="1.5"/>
	<circle style="fill:#FFFFFF;" cx="37" cy="19.517" r="1.5"/>
</g>
</svg>
