<?xml version="1.0" encoding="iso-8859-1"?>
<!-- Generator: Adobe Illustrator 16.0.0, SVG Export Plug-In . SVG Version: 6.00 Build 0)  -->
<!DOCTYPE svg PUBLIC "-//W3C//DTD SVG 1.1//EN" "http://www.w3.org/Graphics/SVG/1.1/DTD/svg11.dtd">
<svg version="1.1" id="Layer_1" xmlns="http://www.w3.org/2000/svg" xmlns:xlink="http://www.w3.org/1999/xlink" x="0px" y="0px"
	 width="50px" height="50px" viewBox="0 0 50 50" style="enable-background:new 0 0 50 50;" xml:space="preserve">
<g style="opacity:0.2;">
	<path style="fill:#231F20;" d="M26.752,46.564c-0.967,0.581-2.537,0.581-3.504,0L5.726,36.051c-0.967-0.58-0.967-1.521,0-2.103
		l17.522-10.513c0.968-0.581,2.537-0.581,3.504,0l17.522,10.513c0.967,0.581,0.967,1.522,0,2.103L26.752,46.564z"/>
</g>
<g>
	<path style="fill:#C75C5C;" d="M26.752,44.564c-0.967,0.581-2.537,0.581-3.504,0L5.726,34.051c-0.967-0.58-0.967-1.521,0-2.103
		l17.522-10.513c0.968-0.581,2.537-0.581,3.504,0l17.522,10.513c0.967,0.581,0.967,1.522,0,2.103L26.752,44.564z"/>
</g>
<g style="opacity:0.2;">
	<path style="fill:#231F20;" d="M26.752,38.564c-0.967,0.581-2.537,0.581-3.504,0L5.726,28.051c-0.967-0.58-0.967-1.521,0-2.103
		l17.522-10.513c0.968-0.581,2.537-0.581,3.504,0l17.522,10.513c0.967,0.581,0.967,1.522,0,2.103L26.752,38.564z"/>
</g>
<g>
	<path style="fill:#76C2AF;" d="M26.752,36.564c-0.967,0.581-2.537,0.581-3.504,0L5.726,26.051c-0.967-0.58-0.967-1.521,0-2.103
		l17.522-10.513c0.968-0.581,2.537-0.581,3.504,0l17.522,10.513c0.967,0.581,0.967,1.522,0,2.103L26.752,36.564z"/>
</g>
<g style="opacity:0.2;">
	<path style="fill:#231F20;" d="M26.752,30.564c-0.967,0.581-2.537,0.581-3.504,0L5.726,20.051c-0.967-0.58-0.967-1.521,0-2.103
		L23.248,7.436c0.968-0.581,2.537-0.581,3.504,0l17.522,10.513c0.967,0.581,0.967,1.522,0,2.103L26.752,30.564z"/>
</g>
<g>
	<path style="fill:#4F5D73;" d="M26.752,28.564c-0.967,0.581-2.537,0.581-3.504,0L5.726,18.051c-0.967-0.58-0.967-1.521,0-2.103
		L23.248,5.436c0.968-0.581,2.537-0.581,3.504,0l17.522,10.513c0.967,0.581,0.967,1.522,0,2.103L26.752,28.564z"/>
</g>
</svg>
