<?xml version="1.0" encoding="iso-8859-1"?>
<!-- Generator: Adobe Illustrator 16.0.0, SVG Export Plug-In . SVG Version: 6.00 Build 0)  -->
<!DOCTYPE svg PUBLIC "-//W3C//DTD SVG 1.1//EN" "http://www.w3.org/Graphics/SVG/1.1/DTD/svg11.dtd">
<svg version="1.1" id="Layer_1" xmlns="http://www.w3.org/2000/svg" xmlns:xlink="http://www.w3.org/1999/xlink" x="0px" y="0px"
	 width="50px" height="50px" viewBox="0 0 50 50" style="enable-background:new 0 0 50 50;" xml:space="preserve">
<g>
	<g>
		<circle style="fill:#76C2AF;" cx="25" cy="25" r="15.4"/>
	</g>
	<circle style="fill:#4F5D73;" cx="25" cy="25" r="8.5"/>
	<g style="opacity:0.2;">
		<path style="fill:#FFFFFF;" d="M36.086,10.872c-6.148-1.315-13.977-0.786-20.297,0.886C15.284,13.281,15,14.906,15,16.6
			C15,25.105,21.895,32,30.4,32c5.463,0,10.249-2.852,12.983-7.141C42.387,19.028,40.762,11.872,36.086,10.872z"/>
	</g>
	<circle style="fill:#FFFFFF;" cx="29" cy="19" r="2"/>
	<path style="opacity:0.2;fill:#231F20;" d="M25,13.544c6.661,0,12.081,5.419,12.081,12.081S31.661,37.705,25,37.705
		s-12.081-5.419-12.081-12.08S18.339,13.544,25,13.544 M25,10.25c-8.492,0-15.375,6.884-15.375,15.375C9.625,34.116,16.508,41,25,41
		s15.375-6.884,15.375-15.375C40.375,17.133,33.492,10.25,25,10.25L25,10.25z"/>
	<g>
		<path style="fill:#4F5D73;" d="M25,12c7.168,0,13,5.832,13,13s-5.832,13-13,13s-13-5.832-13-13S17.832,12,25,12 M25,9
			C16.164,9,9,16.164,9,25s7.164,16,16,16s16-7.164,16-16S33.836,9,25,9L25,9z"/>
	</g>
	<path style="opacity:0.2;fill:#231F20;" d="M25,10.409c8.287,0,15.029,6.742,15.029,15.029S33.287,40.467,25,40.467
		S9.971,33.725,9.971,25.438S16.713,10.409,25,10.409 M25,7.188c-10.079,0-18.25,8.171-18.25,18.25s8.171,18.25,18.25,18.25
		s18.25-8.171,18.25-18.25S35.079,7.188,25,7.188L25,7.188z"/>
	<g>
		<path style="fill:#4F5D73;" d="M25,9c8.822,0,16,7.178,16,16s-7.178,16-16,16S9,33.822,9,25S16.178,9,25,9 M25,6
			C14.507,6,6,14.507,6,25s8.507,19,19,19s19-8.507,19-19S35.493,6,25,6L25,6z"/>
	</g>
	<path style="opacity:0.2;fill:#231F20;" d="M25,7.54c9.887,0,17.93,8.043,17.93,17.93S34.887,43.399,25,43.399
		S7.07,35.356,7.07,25.469S15.113,7.54,25,7.54 M25,4.375c-11.65,0-21.094,9.444-21.094,21.094S13.35,46.563,25,46.563
		s21.094-9.444,21.094-21.094S36.65,4.375,25,4.375L25,4.375z"/>
	<g style="opacity:0.2;">
		<circle style="fill:#231F20;" cx="25" cy="27" r="22"/>
	</g>
	<g>
		<path style="fill:#4F5D73;" d="M25,6c10.477,0,19,8.523,19,19s-8.523,19-19,19S6,35.477,6,25S14.523,6,25,6 M25,3
			C12.85,3,3,12.85,3,25s9.85,22,22,22s22-9.85,22-22S37.15,3,25,3L25,3z"/>
	</g>
</g>
</svg>
