<?xml version="1.0" encoding="iso-8859-1"?>
<!-- Generator: Adobe Illustrator 16.0.0, SVG Export Plug-In . SVG Version: 6.00 Build 0)  -->
<!DOCTYPE svg PUBLIC "-//W3C//DTD SVG 1.1//EN" "http://www.w3.org/Graphics/SVG/1.1/DTD/svg11.dtd">
<svg version="1.1" id="Layer_1" xmlns="http://www.w3.org/2000/svg" xmlns:xlink="http://www.w3.org/1999/xlink" x="0px" y="0px"
	 width="50px" height="50px" viewBox="0 0 50 50" style="enable-background:new 0 0 50 50;" xml:space="preserve">
<g>
	<path style="fill:#E0E0D1;" d="M17,33c0-0.55,0.644-0.494,1.12-0.769l6.014-3.472c0.477-0.275,1.256-0.275,1.732,0l6.014,3.472
		C32.356,32.506,33,32.45,33,33v7.406c0,0.55-0.644,1.495-1.12,1.77l-6.014,3.472c-0.477,0.275-1.256,0.275-1.732,0l-6.014-3.472
		C17.644,41.9,17,40.956,17,40.406V33z"/>
</g>
<g>
	<g>
		<path style="fill:#F5CF87;" d="M25,38c-9.374,0-17-7.626-17-17S15.626,4,25,4s17,7.626,17,17S34.374,38,25,38z"/>
	</g>
	<g>
		<path style="fill:#C75C5C;" d="M25,5c8.836,0,16,7.164,16,16s-7.164,16-16,16S9,29.836,9,21S16.164,5,25,5 M25,3
			C15.075,3,7,11.075,7,21s8.075,18,18,18s18-8.075,18-18S34.925,3,25,3L25,3z"/>
	</g>
</g>
<g style="opacity:0.2;">
	<g>
		<path style="fill:#231F20;" d="M17,39.101v3.305c0,0.55,0.644,1.495,1.12,1.77l6.014,3.472c0.477,0.275,1.256,0.275,1.732,0
			l6.014-3.472c0.477-0.275,1.12-1.22,1.12-1.77v-3.305C30.586,40.305,27.875,41,25,41S19.414,40.305,17,39.101z"/>
	</g>
</g>
<g>
	<g>
		<path style="fill:#E0E0D1;" d="M17,33.05v7.355c0,0.55,0.644,1.495,1.12,1.77l6.014,3.472c0.477,0.275,1.256,0.275,1.732,0
			l6.014-3.472c0.477-0.275,1.12-1.22,1.12-1.77V33.05c-2.414,1.205-5.125,1.899-8,1.899S19.414,34.255,17,33.05z"/>
	</g>
</g>
<g style="opacity:0.2;">
	<g>
		<circle style="fill:#231F20;" cx="25" cy="23" r="16"/>
	</g>
</g>
<g>
	<g>
		<circle style="fill:#F5CF87;" cx="25" cy="21" r="16"/>
	</g>
</g>
<g>
	<path style="fill:#FFFFFF;" d="M25,34.55c-0.829,0-1.5-0.671-1.5-1.5v-8.054c-2.667-0.142-4.806-0.801-6.372-1.965
		c-1.637-1.217-2.539-2.927-2.539-4.813c0-3.153,2.511-5.718,5.598-5.718c1.673,0,3.123,0.596,4.191,1.724
		c2.287,2.413,2.143,6.409,2.119,6.856L26.5,33.05C26.5,33.879,25.829,34.55,25,34.55z M20.188,15.5
		c-1.605,0-2.598,1.411-2.598,2.718c0,0.646,0.231,1.589,1.329,2.406c0.752,0.559,2.136,1.212,4.582,1.367V21
		c0.044-0.942-0.109-3.464-1.303-4.717C21.688,15.749,21.049,15.5,20.188,15.5z"/>
</g>
<g>
	<path style="fill:#FFFFFF;" d="M25.006,34.55c-0.829,0-1.5-0.671-1.5-1.5V21c-0.022-0.367-0.166-4.363,2.121-6.776
		c1.069-1.128,2.519-1.724,4.191-1.724c3.087,0,5.598,2.565,5.598,5.718c0,1.886-0.902,3.596-2.539,4.813
		c-1.566,1.165-3.706,1.824-6.373,1.965l0.001,8.054C26.506,33.879,25.834,34.55,25.006,34.55z M29.818,15.5
		c-0.865,0-1.505,0.25-2.014,0.788c-1.196,1.262-1.343,3.831-1.3,4.632v1.071c2.447-0.156,3.832-0.809,4.583-1.368
		c1.098-0.817,1.329-1.759,1.329-2.406C32.417,16.911,31.423,15.5,29.818,15.5z"/>
</g>
</svg>
