<?xml version="1.0" encoding="iso-8859-1"?>
<!-- Generator: Adobe Illustrator 16.0.0, SVG Export Plug-In . SVG Version: 6.00 Build 0)  -->
<!DOCTYPE svg PUBLIC "-//W3C//DTD SVG 1.1//EN" "http://www.w3.org/Graphics/SVG/1.1/DTD/svg11.dtd">
<svg version="1.1" id="Layer_1" xmlns="http://www.w3.org/2000/svg" xmlns:xlink="http://www.w3.org/1999/xlink" x="0px" y="0px"
	 width="50px" height="50px" viewBox="0 0 50 50" style="enable-background:new 0 0 50 50;" xml:space="preserve">
<g style="opacity:0.2;">
	<path style="fill:#231F20;" d="M25,5c-0.828,0-1.5,0.671-1.5,1.5v8.167c0,0.829,0.672,1.5,1.5,1.5s1.5-0.671,1.5-1.5V6.5
		C26.5,5.671,25.828,5,25,5z"/>
	<path style="fill:#231F20;" d="M14.5,26.5c0-0.829-0.672-1.5-1.5-1.5H5c-0.828,0-1.5,0.671-1.5,1.5S4.172,28,5,28h8
		C13.828,28,14.5,27.329,14.5,26.5z"/>
	<path style="fill:#231F20;" d="M25,37c-0.828,0-1.5,0.671-1.5,1.5v8c0,0.829,0.672,1.5,1.5,1.5s1.5-0.671,1.5-1.5v-8
		C26.5,37.671,25.828,37,25,37z"/>
	<path style="fill:#231F20;" d="M32.299,36.142c-0.413-0.716-1.33-0.962-2.049-0.549c-0.718,0.415-0.964,1.332-0.549,2.049l4,6.928
		c0.278,0.481,0.781,0.75,1.301,0.75c0.254,0,0.512-0.065,0.748-0.202c0.717-0.414,0.963-1.332,0.549-2.049L32.299,36.142z"/>
	<path style="fill:#231F20;" d="M16.299,8.43c-0.414-0.718-1.33-0.963-2.049-0.549c-0.718,0.414-0.964,1.332-0.549,2.049
		l4.084,7.072c0.277,0.481,0.781,0.75,1.3,0.75c0.255,0,0.513-0.065,0.749-0.202c0.717-0.414,0.963-1.332,0.548-2.049L16.299,8.43z"
		/>
	<path style="fill:#231F20;" d="M33.949,21.333c0.278,0.481,0.782,0.75,1.3,0.75c0.255,0,0.513-0.065,0.749-0.202l7.072-4.083
		c0.717-0.414,0.963-1.332,0.549-2.049c-0.414-0.718-1.33-0.963-2.049-0.549l-7.072,4.083
		C33.781,19.699,33.535,20.616,33.949,21.333z"/>
	<path style="fill:#231F20;" d="M45,25h-8.166c-0.829,0-1.5,0.671-1.5,1.5s0.671,1.5,1.5,1.5H45c0.828,0,1.5-0.671,1.5-1.5
		S45.828,25,45,25z"/>
	<path style="fill:#231F20;" d="M43.07,35.201l-6.928-4c-0.719-0.414-1.635-0.167-2.05,0.549c-0.414,0.717-0.168,1.635,0.55,2.049
		l6.928,4C41.807,37.936,42.064,38,42.318,38c0.52,0,1.022-0.269,1.301-0.75C44.033,36.533,43.787,35.615,43.07,35.201z"/>
	<path style="fill:#231F20;" d="M6.93,17.799l7.072,4.083c0.236,0.137,0.494,0.202,0.748,0.202c0.519,0,1.022-0.269,1.301-0.75
		c0.414-0.717,0.168-1.635-0.549-2.049L8.43,15.201c-0.717-0.415-1.635-0.169-2.049,0.549C5.966,16.467,6.213,17.385,6.93,17.799z"
		/>
	<path style="fill:#231F20;" d="M15.907,31.75c-0.414-0.716-1.33-0.963-2.05-0.549l-6.928,4c-0.717,0.414-0.964,1.332-0.549,2.049
		C6.658,37.731,7.162,38,7.682,38c0.254,0,0.512-0.065,0.748-0.202l6.928-4C16.075,33.385,16.321,32.467,15.907,31.75z"/>
	<path style="fill:#231F20;" d="M19.75,35.593c-0.719-0.413-1.636-0.167-2.049,0.549l-4,6.928c-0.415,0.717-0.169,1.635,0.549,2.049
		c0.236,0.137,0.494,0.202,0.748,0.202c0.52,0,1.023-0.269,1.301-0.75l4-6.928C20.713,36.925,20.467,36.007,19.75,35.593z"/>
	<path style="fill:#231F20;" d="M30.166,17.551c0.236,0.137,0.494,0.202,0.749,0.202c0.519,0,1.022-0.27,1.3-0.75l4.084-7.072
		c0.414-0.717,0.168-1.635-0.549-2.049c-0.718-0.415-1.634-0.169-2.049,0.549l-4.084,7.072
		C29.203,16.219,29.449,17.137,30.166,17.551z"/>
</g>
<g>
	<path style="fill:#FFFFFF;" d="M25,3c-0.828,0-1.5,0.671-1.5,1.5v8.167c0,0.829,0.672,1.5,1.5,1.5s1.5-0.671,1.5-1.5V4.5
		C26.5,3.671,25.828,3,25,3z"/>
	<path style="fill:#FFFFFF;" d="M14.5,24.5c0-0.829-0.672-1.5-1.5-1.5H5c-0.828,0-1.5,0.671-1.5,1.5S4.172,26,5,26h8
		C13.828,26,14.5,25.329,14.5,24.5z"/>
	<path style="fill:#FFFFFF;" d="M25,35c-0.828,0-1.5,0.671-1.5,1.5v8c0,0.829,0.672,1.5,1.5,1.5s1.5-0.671,1.5-1.5v-8
		C26.5,35.671,25.828,35,25,35z"/>
	<path style="fill:#FFFFFF;" d="M32.299,34.142c-0.413-0.716-1.33-0.962-2.049-0.549c-0.718,0.415-0.964,1.332-0.549,2.049l4,6.928
		c0.278,0.481,0.781,0.75,1.301,0.75c0.254,0,0.512-0.065,0.748-0.202c0.717-0.414,0.963-1.332,0.549-2.049L32.299,34.142z"/>
	<path style="fill:#FFFFFF;" d="M16.299,6.43c-0.414-0.718-1.33-0.963-2.049-0.549c-0.718,0.414-0.964,1.332-0.549,2.049
		l4.084,7.072c0.277,0.481,0.781,0.75,1.3,0.75c0.255,0,0.513-0.065,0.749-0.202c0.717-0.414,0.963-1.332,0.548-2.049L16.299,6.43z"
		/>
	<path style="fill:#FFFFFF;" d="M33.949,19.333c0.278,0.481,0.782,0.75,1.3,0.75c0.255,0,0.513-0.065,0.749-0.202l7.072-4.083
		c0.717-0.414,0.963-1.332,0.549-2.049c-0.414-0.718-1.33-0.963-2.049-0.549l-7.072,4.083
		C33.781,17.699,33.535,18.616,33.949,19.333z"/>
	<path style="fill:#FFFFFF;" d="M45,23h-8.166c-0.829,0-1.5,0.671-1.5,1.5s0.671,1.5,1.5,1.5H45c0.828,0,1.5-0.671,1.5-1.5
		S45.828,23,45,23z"/>
	<path style="fill:#FFFFFF;" d="M43.07,33.201l-6.928-4c-0.719-0.414-1.635-0.167-2.05,0.549c-0.414,0.717-0.168,1.635,0.55,2.049
		l6.928,4C41.807,35.936,42.064,36,42.318,36c0.52,0,1.022-0.269,1.301-0.75C44.033,34.533,43.787,33.615,43.07,33.201z"/>
	<path style="fill:#FFFFFF;" d="M6.93,15.799l7.072,4.083c0.236,0.137,0.494,0.202,0.748,0.202c0.519,0,1.022-0.269,1.301-0.75
		c0.414-0.717,0.168-1.635-0.549-2.049L8.43,13.201c-0.717-0.415-1.635-0.169-2.049,0.549C5.966,14.467,6.213,15.385,6.93,15.799z"
		/>
	<path style="fill:#FFFFFF;" d="M15.907,29.75c-0.414-0.716-1.33-0.963-2.05-0.549l-6.928,4c-0.717,0.414-0.964,1.332-0.549,2.049
		C6.658,35.731,7.162,36,7.682,36c0.254,0,0.512-0.065,0.748-0.202l6.928-4C16.075,31.385,16.321,30.467,15.907,29.75z"/>
	<path style="fill:#FFFFFF;" d="M19.75,33.593c-0.719-0.413-1.636-0.167-2.049,0.549l-4,6.928c-0.415,0.717-0.169,1.635,0.549,2.049
		c0.236,0.137,0.494,0.202,0.748,0.202c0.52,0,1.023-0.269,1.301-0.75l4-6.928C20.713,34.925,20.467,34.007,19.75,33.593z"/>
	<path style="fill:#FFFFFF;" d="M30.166,15.551c0.236,0.137,0.494,0.202,0.749,0.202c0.519,0,1.022-0.27,1.3-0.75l4.084-7.072
		c0.414-0.717,0.168-1.635-0.549-2.049c-0.718-0.415-1.634-0.169-2.049,0.549l-4.084,7.072
		C29.203,14.219,29.449,15.137,30.166,15.551z"/>
</g>
</svg>
