<?xml version="1.0" encoding="iso-8859-1"?>
<!-- Generator: Adobe Illustrator 16.0.0, SVG Export Plug-In . SVG Version: 6.00 Build 0)  -->
<!DOCTYPE svg PUBLIC "-//W3C//DTD SVG 1.1//EN" "http://www.w3.org/Graphics/SVG/1.1/DTD/svg11.dtd">
<svg version="1.1" id="Layer_1" xmlns="http://www.w3.org/2000/svg" xmlns:xlink="http://www.w3.org/1999/xlink" x="0px" y="0px"
	 width="50px" height="50px" viewBox="0 0 50 50" style="enable-background:new 0 0 50 50;" xml:space="preserve">
<g style="opacity:0.2;">
	<g>
		<path style="fill:#231F20;" d="M25,7C15.611,7,8,14.521,8,23.8C8,38.5,25,49,25,49s17-10.237,17-25.2C42,14.521,34.389,7,25,7z
			 M25,31c-4.418,0-8-3.582-8-8s3.582-8,8-8s8,3.582,8,8S29.418,31,25,31z"/>
	</g>
</g>
<g>
	<path style="fill:#FFFFFF;" d="M25,5C15.611,5,8,12.521,8,21.8C8,36.5,25,47,25,47s17-10.237,17-25.2C42,12.521,34.389,5,25,5z
		 M25,29c-4.418,0-8-3.582-8-8s3.582-8,8-8s8,3.582,8,8S29.418,29,25,29z"/>
</g>
</svg>
