<?xml version="1.0" encoding="iso-8859-1"?>
<!-- Generator: Adobe Illustrator 16.0.0, SVG Export Plug-In . SVG Version: 6.00 Build 0)  -->
<!DOCTYPE svg PUBLIC "-//W3C//DTD SVG 1.1//EN" "http://www.w3.org/Graphics/SVG/1.1/DTD/svg11.dtd">
<svg version="1.1" id="Layer_1" xmlns="http://www.w3.org/2000/svg" xmlns:xlink="http://www.w3.org/1999/xlink" x="0px" y="0px"
	 width="50px" height="50px" viewBox="0 0 50 50" style="enable-background:new 0 0 50 50;" xml:space="preserve">
<g style="opacity:0.2;">
	<g>
		<path style="fill:#231F20;" d="M38.5,26.167h-5v-7.334c0-4.687-3.813-8.5-8.5-8.5s-8.5,3.813-8.5,8.5v7.334h-5v-7.334
			c0-7.444,6.056-13.5,13.5-13.5s13.5,6.056,13.5,13.5V26.167z"/>
	</g>
</g>
<g>
	<path style="fill:#4F5D73;" d="M38.5,24.167h-5v-7.334c0-4.687-3.813-8.5-8.5-8.5s-8.5,3.813-8.5,8.5v7.334h-5v-7.334
		c0-7.444,6.056-13.5,13.5-13.5s13.5,6.056,13.5,13.5V24.167z"/>
</g>
<g>
	<g>
		<path style="fill:#4F5D73;" d="M25,25c-2.209,0-4,1.791-4,4c0,1.477,0.81,2.752,2,3.445V35c0,1.104,0.896,2,2,2s2-0.896,2-2
			v-2.555c1.19-0.693,2-1.969,2-3.445C29,26.791,27.209,25,25,25z"/>
	</g>
</g>
<g style="opacity:0.2;">
	<path style="fill:#231F20;" d="M40,20H10c-1.657,0-3,1.343-3,3v19c0,1.657,1.343,3,3,3h30c1.657,0,3-1.343,3-3V23
		C43,21.343,41.657,20,40,20z M27,34.445V37c0,1.104-0.896,2-2,2s-2-0.896-2-2v-2.555c-1.19-0.693-2-1.969-2-3.445
		c0-2.209,1.791-4,4-4s4,1.791,4,4C29,32.477,28.19,33.752,27,34.445z"/>
</g>
<g>
	<path style="fill:#FFFFFF;" d="M40,18H10c-1.657,0-3,1.343-3,3v19c0,1.657,1.343,3,3,3h30c1.657,0,3-1.343,3-3V21
		C43,19.343,41.657,18,40,18z M27,32.445V35c0,1.104-0.896,2-2,2s-2-0.896-2-2v-2.555c-1.19-0.693-2-1.969-2-3.445
		c0-2.209,1.791-4,4-4s4,1.791,4,4C29,30.477,28.19,31.752,27,32.445z"/>
</g>
</svg>
