<?xml version="1.0" encoding="iso-8859-1"?>
<!-- Generator: Adobe Illustrator 16.0.0, SVG Export Plug-In . SVG Version: 6.00 Build 0)  -->
<!DOCTYPE svg PUBLIC "-//W3C//DTD SVG 1.1//EN" "http://www.w3.org/Graphics/SVG/1.1/DTD/svg11.dtd">
<svg version="1.1" id="Layer_1" xmlns="http://www.w3.org/2000/svg" xmlns:xlink="http://www.w3.org/1999/xlink" x="0px" y="0px"
	 width="50px" height="50px" viewBox="0 0 50 50" style="enable-background:new 0 0 50 50;" xml:space="preserve">
<g style="opacity:0.2;">
	<path style="fill:#231F20;" d="M26.799,18.544L5.586,39.757c-0.781,0.781-0.781,2.047,0,2.829l2.828,2.828
		c0.781,0.781,2.048,0.781,2.828,0l21.214-21.213L26.799,18.544z"/>
</g>
<path style="opacity:0.2;fill:#231F20;" d="M40.941,15.716c0.781-0.781,0.781-2.047,0-2.829l-2.829-2.828
	c-0.78-0.781-2.047-0.781-2.828,0l-7.071,7.071l5.657,5.657L40.941,15.716z"/>
<g style="opacity:0.2;">
	<path style="fill:#231F20;" d="M13.5,24.563c-0.828,0-1.5-0.671-1.5-1.5v-8c0-0.829,0.672-1.5,1.5-1.5s1.5,0.671,1.5,1.5v8
		C15,23.892,14.328,24.563,13.5,24.563z"/>
</g>
<g style="opacity:0.2;">
	<path style="fill:#231F20;" d="M16.063,20h-5.127c-0.828,0-1.5-0.671-1.5-1.5s0.672-1.5,1.5-1.5h5.127c0.828,0,1.5,0.671,1.5,1.5
		S16.892,20,16.063,20z"/>
</g>
<g style="opacity:0.2;">
	<path style="fill:#231F20;" d="M26.5,15c-0.828,0-1.5-0.671-1.5-1.5v-8C25,4.671,25.672,4,26.5,4S28,4.671,28,5.5v8
		C28,14.329,27.328,15,26.5,15z"/>
</g>
<g style="opacity:0.2;">
	<path style="fill:#231F20;" d="M29.063,10.437h-5.127c-0.828,0-1.5-0.671-1.5-1.5s0.672-1.5,1.5-1.5h5.127
		c0.828,0,1.5,0.671,1.5,1.5S29.892,10.437,29.063,10.437z"/>
</g>
<g style="opacity:0.2;">
	<path style="fill:#231F20;" d="M42.5,34.563c-0.828,0-1.5-0.671-1.5-1.5v-8c0-0.829,0.672-1.5,1.5-1.5s1.5,0.671,1.5,1.5v8
		C44,33.892,43.328,34.563,42.5,34.563z"/>
</g>
<g style="opacity:0.2;">
	<path style="fill:#231F20;" d="M45.063,30h-5.127c-0.828,0-1.5-0.671-1.5-1.5s0.672-1.5,1.5-1.5h5.127c0.828,0,1.5,0.671,1.5,1.5
		S45.892,30,45.063,30z"/>
</g>
<g>
	<path style="fill:#4F5D73;" d="M26.799,16.544L5.586,37.757c-0.781,0.781-0.781,2.047,0,2.829l2.828,2.828
		c0.781,0.781,2.048,0.781,2.828,0l21.214-21.213L26.799,16.544z"/>
</g>
<path style="fill:#FFFFFF;" d="M40.941,13.716c0.781-0.781,0.781-2.047,0-2.829l-2.829-2.828c-0.78-0.781-2.047-0.781-2.828,0
	l-7.071,7.071l5.657,5.657L40.941,13.716z"/>
<g>
	<path style="fill:#F5CF87;" d="M13.5,22.563c-0.828,0-1.5-0.671-1.5-1.5v-8c0-0.829,0.672-1.5,1.5-1.5s1.5,0.671,1.5,1.5v8
		C15,21.892,14.328,22.563,13.5,22.563z"/>
</g>
<g>
	<path style="fill:#F5CF87;" d="M16.063,18h-5.127c-0.828,0-1.5-0.671-1.5-1.5s0.672-1.5,1.5-1.5h5.127c0.828,0,1.5,0.671,1.5,1.5
		S16.892,18,16.063,18z"/>
</g>
<g>
	<path style="fill:#F5CF87;" d="M26.5,13c-0.828,0-1.5-0.671-1.5-1.5v-8C25,2.671,25.672,2,26.5,2S28,2.671,28,3.5v8
		C28,12.329,27.328,13,26.5,13z"/>
</g>
<g>
	<path style="fill:#F5CF87;" d="M29.063,8.437h-5.127c-0.828,0-1.5-0.671-1.5-1.5s0.672-1.5,1.5-1.5h5.127
		c0.828,0,1.5,0.671,1.5,1.5S29.892,8.437,29.063,8.437z"/>
</g>
<g>
	<path style="fill:#F5CF87;" d="M42.5,32.563c-0.828,0-1.5-0.671-1.5-1.5v-8c0-0.829,0.672-1.5,1.5-1.5s1.5,0.671,1.5,1.5v8
		C44,31.892,43.328,32.563,42.5,32.563z"/>
</g>
<g>
	<path style="fill:#F5CF87;" d="M45.063,28h-5.127c-0.828,0-1.5-0.671-1.5-1.5s0.672-1.5,1.5-1.5h5.127c0.828,0,1.5,0.671,1.5,1.5
		S45.892,28,45.063,28z"/>
</g>
</svg>
