<?xml version="1.0" encoding="iso-8859-1"?>
<!-- Generator: Adobe Illustrator 16.0.0, SVG Export Plug-In . SVG Version: 6.00 Build 0)  -->
<!DOCTYPE svg PUBLIC "-//W3C//DTD SVG 1.1//EN" "http://www.w3.org/Graphics/SVG/1.1/DTD/svg11.dtd">
<svg version="1.1" id="Layer_1" xmlns="http://www.w3.org/2000/svg" xmlns:xlink="http://www.w3.org/1999/xlink" x="0px" y="0px"
	 width="50px" height="50px" viewBox="0 0 50 50" style="enable-background:new 0 0 50 50;" xml:space="preserve">
<g>
	<g style="opacity:0.2;">
		<path style="fill:#231F20;" d="M45,37c0,2.209-1.791,4-4,4H9c-2.209,0-4-1.791-4-4V17c0-2.209,1.791-4,4-4h32c2.209,0,4,1.791,4,4
			V37z"/>
	</g>
	<g>
		<path style="fill:#E0E0D1;" d="M45,35c0,2.209-1.791,4-4,4H9c-2.209,0-4-1.791-4-4V15c0-2.209,1.791-4,4-4h32c2.209,0,4,1.791,4,4
			V35z"/>
	</g>
	<g style="opacity:0.2;">
		<g>
			<path style="fill:#231F20;" d="M28.523,23.185c-1.938-2.146-5.109-2.146-7.047,0L6.05,36.228
				c-0.18,0.199-0.328,0.394-0.461,0.585C6.29,38.119,7.549,39,9,39h32c1.451,0,2.71-0.881,3.411-2.188
				c-0.133-0.191-0.281-0.386-0.461-0.585L28.523,23.185z"/>
		</g>
	</g>
	<g>
		<g>
			<path style="fill:#E0E0D1;" d="M28.523,25c-1.938-1.899-5.109-1.899-7.047,0L6.05,36.546c-0.18,0.177-0.328,0.349-0.461,0.518
				C6.29,38.22,7.549,39,9,39h32c1.451,0,2.71-0.78,3.411-1.937c-0.133-0.169-0.281-0.341-0.461-0.518L28.523,25z"/>
		</g>
	</g>
	<g style="opacity:0.2;">
		<g>
			<path style="fill:#231F20;" d="M5.589,13.188C6.29,11.881,7.549,11,9,11h32c1.451,0,2.71,0.881,3.411,2.188
				c-0.133,0.191-0.281,0.386-0.461,0.585L28.523,26.815c-1.938,2.146-5.109,2.146-7.047,0L5.589,13.188z"/>
		</g>
	</g>
	<g>
		<g>
			<path style="fill:#FFFFFF;" d="M21.477,25c1.938,1.899,5.109,1.899,7.047,0L43.95,13.454c0.18-0.177,0.328-0.349,0.461-0.518
				C43.71,11.78,42.451,11,41,11H9c-1.451,0-2.71,0.78-3.411,1.937c0.133,0.169,0.281,0.341,0.461,0.518L21.477,25z"/>
		</g>
	</g>
</g>
</svg>
