<?xml version="1.0" encoding="iso-8859-1"?>
<!-- Generator: Adobe Illustrator 16.0.0, SVG Export Plug-In . SVG Version: 6.00 Build 0)  -->
<!DOCTYPE svg PUBLIC "-//W3C//DTD SVG 1.1//EN" "http://www.w3.org/Graphics/SVG/1.1/DTD/svg11.dtd">
<svg version="1.1" id="Layer_1" xmlns="http://www.w3.org/2000/svg" xmlns:xlink="http://www.w3.org/1999/xlink" x="0px" y="0px"
	 width="50px" height="50px" viewBox="0 0 50 50" style="enable-background:new 0 0 50 50;" xml:space="preserve">
<g style="opacity:0.2;">
	<polygon style="fill:#231F20;" points="36.281,27 13.719,27 10.722,35 39.278,35 	"/>
	<path style="fill:#231F20;" d="M28.895,7.289c-2.142-5.718-5.648-5.718-7.79,0L16.717,19h16.566L28.895,7.289z"/>
	<path style="fill:#231F20;" d="M7,41c-1.104,0-2,0.896-2,2s0.896,2,2,2h36c1.104,0,2-0.896,2-2s-0.896-2-2-2H7z"/>
</g>
<g>
	<polygon style="fill:#FFFFFF;" points="36.281,25 13.719,25 10.722,33 39.278,33 	"/>
	<path style="fill:#FFFFFF;" d="M28.895,5.289c-2.142-5.718-5.648-5.718-7.79,0L16.717,17h16.566L28.895,5.289z"/>
	<path style="fill:#FFFFFF;" d="M7,39c-1.104,0-2,0.896-2,2s0.896,2,2,2h36c1.104,0,2-0.896,2-2s-0.896-2-2-2H7z"/>
</g>
</svg>
