<?xml version="1.0" encoding="iso-8859-1"?>
<!-- Generator: Adobe Illustrator 16.0.0, SVG Export Plug-In . SVG Version: 6.00 Build 0)  -->
<!DOCTYPE svg PUBLIC "-//W3C//DTD SVG 1.1//EN" "http://www.w3.org/Graphics/SVG/1.1/DTD/svg11.dtd">
<svg version="1.1" id="Layer_1" xmlns="http://www.w3.org/2000/svg" xmlns:xlink="http://www.w3.org/1999/xlink" x="0px" y="0px"
	 width="50px" height="50px" viewBox="0 0 50 50" style="enable-background:new 0 0 50 50;" xml:space="preserve">
<g style="opacity:0.2;">
	<g>
		<circle style="fill:#231F20;" cx="37" cy="32" r="2"/>
	</g>
	<g>
		<circle style="fill:#231F20;" cx="37" cy="44" r="2"/>
	</g>
	<g>
		<path style="fill:#231F20;" d="M19,15h-4v-4c0-1.104-0.896-2-2-2s-2,0.896-2,2v4H7c-1.104,0-2,0.896-2,2s0.896,2,2,2h4v4
			c0,1.104,0.896,2,2,2s2-0.896,2-2v-4h4c1.104,0,2-0.896,2-2S20.104,15,19,15z"/>
	</g>
	<g>
		<path style="fill:#231F20;" d="M31,19h12c1.104,0,2-0.896,2-2s-0.896-2-2-2H31c-1.104,0-2,0.896-2,2S29.896,19,31,19z"/>
	</g>
	<g>
		<path style="fill:#231F20;" d="M43,36H31c-1.104,0-2,0.896-2,2s0.896,2,2,2h12c1.104,0,2-0.896,2-2S44.104,36,43,36z"/>
	</g>
	<g>
		<path style="fill:#231F20;" d="M19.828,32.172c-0.78-0.781-2.047-0.781-2.828,0l-4,4l-4-4c-0.781-0.781-2.048-0.781-2.828,0
			c-0.781,0.78-0.781,2.047,0,2.828l4,4l-4,4c-0.781,0.781-0.781,2.048,0,2.828c0.78,0.781,2.047,0.781,2.828,0l4-4l4,4
			c0.781,0.781,2.048,0.781,2.828,0c0.781-0.78,0.781-2.047,0-2.828l-4-4l4-4C20.609,34.219,20.609,32.952,19.828,32.172z"/>
	</g>
</g>
<g>
	<circle style="fill:#E0E0D1;" cx="37" cy="30" r="2"/>
</g>
<g>
	<circle style="fill:#E0E0D1;" cx="37" cy="42" r="2"/>
</g>
<g>
	<path style="fill:#F5CF87;" d="M21,15c0,1.104-0.896,2-2,2H7c-1.104,0-2-0.896-2-2l0,0c0-1.104,0.896-2,2-2h12
		C20.104,13,21,13.896,21,15L21,15z"/>
</g>
<g>
	<path style="fill:#E0995E;" d="M45,15c0,1.104-0.896,2-2,2H31c-1.104,0-2-0.896-2-2l0,0c0-1.104,0.896-2,2-2h12
		C44.104,13,45,13.896,45,15L45,15z"/>
</g>
<g>
	<path style="fill:#F5CF87;" d="M13,23c-1.104,0-2-0.896-2-2V9c0-1.104,0.896-2,2-2l0,0c1.104,0,2,0.896,2,2v12
		C15,22.104,14.104,23,13,23L13,23z"/>
</g>
<g>
	<path style="fill:#E0E0D1;" d="M45,36c0,1.104-0.896,2-2,2H31c-1.104,0-2-0.896-2-2l0,0c0-1.104,0.896-2,2-2h12
		C44.104,34,45,34.896,45,36L45,36z"/>
</g>
<g>
	<path style="fill:#76C2AF;" d="M19.828,43.828c-0.78,0.781-2.047,0.781-2.828,0L6.172,33c-0.781-0.781-0.781-2.048,0-2.828l0,0
		c0.78-0.781,2.047-0.781,2.828,0L19.828,41C20.609,41.781,20.609,43.048,19.828,43.828L19.828,43.828z"/>
</g>
<g>
	<path style="fill:#76C2AF;" d="M6.172,43.828c-0.781-0.78-0.781-2.047,0-2.828L17,30.172c0.781-0.781,2.048-0.781,2.828,0l0,0
		c0.781,0.78,0.781,2.047,0,2.828L9,43.828C8.219,44.609,6.952,44.609,6.172,43.828L6.172,43.828z"/>
</g>
</svg>
