<?xml version="1.0" encoding="iso-8859-1"?>
<!-- Generator: Adobe Illustrator 16.0.0, SVG Export Plug-In . SVG Version: 6.00 Build 0)  -->
<!DOCTYPE svg PUBLIC "-//W3C//DTD SVG 1.1//EN" "http://www.w3.org/Graphics/SVG/1.1/DTD/svg11.dtd">
<svg version="1.1" id="Layer_1" xmlns="http://www.w3.org/2000/svg" xmlns:xlink="http://www.w3.org/1999/xlink" x="0px" y="0px"
	 width="50px" height="50px" viewBox="0 0 50 50" style="enable-background:new 0 0 50 50;" xml:space="preserve">
<g>
	<g style="opacity:0.2;">
		<path style="fill:#231F20;" d="M29.053,40c-0.284,0-0.569-0.035-0.847-0.104l-9.704-2.414c-1.872-0.466-3.017-2.369-2.551-4.241
			l1.448-5.823c0.389-1.563,1.785-2.655,3.395-2.655c0.284,0,0.569,0.035,0.847,0.104l9.704,2.414
			c1.873,0.466,3.018,2.369,2.552,4.241l-1.448,5.823C32.06,38.908,30.663,40,29.053,40z M20.794,27.763
			c-0.188,0-0.419,0.119-0.483,0.38l-1.448,5.822c-0.066,0.268,0.097,0.54,0.364,0.606l9.704,2.414
			c0.228,0.058,0.527-0.047,0.606-0.365l1.448-5.822c0.066-0.268-0.098-0.54-0.365-0.606l-9.704-2.414
			C20.876,27.768,20.835,27.763,20.794,27.763z"/>
	</g>
	<g>
		<path style="fill:#4F5D73;" d="M29.053,38c-0.284,0-0.569-0.035-0.847-0.104l-9.704-2.414c-1.872-0.466-3.017-2.369-2.551-4.241
			l1.448-5.823c0.389-1.563,1.785-2.655,3.395-2.655c0.284,0,0.569,0.035,0.847,0.104l9.704,2.414
			c1.873,0.466,3.018,2.369,2.552,4.241l-1.448,5.823C32.06,36.908,30.663,38,29.053,38z M20.794,25.763
			c-0.188,0-0.419,0.119-0.483,0.38l-1.448,5.822c-0.066,0.268,0.097,0.54,0.364,0.606l9.704,2.414
			c0.228,0.058,0.527-0.047,0.606-0.365l1.448-5.822c0.066-0.268-0.098-0.54-0.365-0.606l-9.704-2.414
			C20.876,25.768,20.835,25.763,20.794,25.763z"/>
	</g>
	<path style="opacity:0.2;fill:#231F20;" d="M43,12c-1.104,0-2,0.896-2,2v-0.5L6.664,20.891C6.305,20.354,5.694,20,5,20
		c-1.104,0-2,0.896-2,2v6c0,1.104,0.896,2,2,2c0.694,0,1.305-0.354,1.664-0.891L41,36.5V36c0,1.104,0.896,2,2,2s2-0.896,2-2V14
		C45,12.896,44.104,12,43,12z"/>
	<polygon style="fill:#C75C5C;" points="41,34.5 4,26.5 4,19.5 41,11.5 	"/>
	<path style="fill:#E0995E;" d="M7,26c0,1.104-0.896,2-2,2l0,0c-1.104,0-2-0.896-2-2v-6c0-1.104,0.896-2,2-2l0,0
		c1.104,0,2,0.896,2,2V26z"/>
	<path style="fill:#E0995E;" d="M45,34c0,1.104-0.896,2-2,2l0,0c-1.104,0-2-0.896-2-2V12c0-1.104,0.896-2,2-2l0,0
		c1.104,0,2,0.896,2,2V34z"/>
</g>
</svg>
