<?xml version="1.0" encoding="iso-8859-1"?>
<!-- Generator: Adobe Illustrator 16.0.0, SVG Export Plug-In . SVG Version: 6.00 Build 0)  -->
<!DOCTYPE svg PUBLIC "-//W3C//DTD SVG 1.1//EN" "http://www.w3.org/Graphics/SVG/1.1/DTD/svg11.dtd">
<svg version="1.1" id="Layer_1" xmlns="http://www.w3.org/2000/svg" xmlns:xlink="http://www.w3.org/1999/xlink" x="0px" y="0px"
	 width="50px" height="50px" viewBox="0 0 50 50" style="enable-background:new 0 0 50 50;" xml:space="preserve">
<path style="opacity:0.2;fill:#231F20;" d="M17.561,34.938c0.357,1.104-0.249,2-1.354,2h-2c-1.104,0-2.29-0.896-2.646-2l-3.233-10
	c-0.357-1.105,0.249-2,1.354-2h2c1.104,0,2.29,0.895,2.646,2L17.561,34.938z"/>
<path style="opacity:0.2;fill:#231F20;" d="M17.034,39.938c0.357,1.104-0.249,2-1.354,2h-2c-1.104,0-2.011-0.146-2.368-1.25
	l-3.512-10.75c-0.357-1.105,0.249-2,1.354-2h2c1.104,0,2.29,0.895,2.646,2L17.034,39.938z"/>
<path style="fill:#C75C5C;" d="M17.561,32.938c0.357,1.104-0.249,2-1.354,2h-2c-1.104,0-2.29-0.896-2.646-2l-3.233-10
	c-0.357-1.105,0.249-2,1.354-2h2c1.104,0,2.29,0.895,2.646,2L17.561,32.938z"/>
<path style="fill:#4F5D73;" d="M17.034,37.938c0.357,1.104-0.249,2-1.354,2h-2c-1.104,0-2.199-0.521-2.556-1.625L7.801,27.938
	c-0.357-1.105,0.249-2,1.354-2h2c1.104,0,2.29,0.895,2.646,2L17.034,37.938z"/>
<path style="opacity:0.2;fill:#231F20;" d="M41,21.938V11.5c0-0.829-0.671-1.5-1.5-1.5S38,10.671,38,11.5v1.008
	c-2.76,2.525-6.282,6.429-16,6.429H11H9H7c-1.104,0-2,0.896-2,2c-1.104,0-2,0.896-2,2v6c0,1.104,0.896,2,2,2c0,1.104,0.896,2,2,2h1
	h1h2h11c9.718,0,13.24,3.905,16,6.43v1.07c0,0.829,0.671,1.5,1.5,1.5s1.5-0.671,1.5-1.5v-10.5c1.104,0,2-0.896,2-2v-4
	C43,22.833,42.104,21.938,41,21.938z"/>
<path style="fill:#E0E0D1;" d="M43,25.938c0,1.104-0.896,2-2,2h-8c-1.104,0-2-0.896-2-2v-4c0-1.105,0.896-2,2-2h8
	c1.104,0,2,0.895,2,2V25.938z"/>
<path style="fill:#4F5D73;" d="M15,26.938c0,1.104-0.896,2-2,2H5c-1.104,0-2-0.896-2-2v-6c0-1.105,0.896-2,2-2h8
	c1.104,0,2,0.895,2,2V26.938z"/>
<path style="fill:#FFFFFF;" d="M39.066,9.591C36.063,11.932,33,16.938,22,16.938H9l-1,14h14c11,0,14.063,5.005,17.066,7.347V9.591z"
	/>
<path style="fill:#C75C5C;" d="M11,30.938c0,0-0.896,0-2,0H7c-1.104,0-2-0.896-2-2v-10c0-1.105,0.896-2,2-2h2c1.104,0,2,0,2,0
	V30.938z"/>
<path style="fill:#4F5D73;" d="M41,38.438c0,0.828-0.671,1.5-1.5,1.5l0,0c-0.829,0-1.5-0.672-1.5-1.5V9.5C38,8.671,38.671,8,39.5,8
	l0,0C40.329,8,41,8.671,41,9.5V38.438z"/>
</svg>
