<?xml version="1.0" encoding="iso-8859-1"?>
<!-- Generator: Adobe Illustrator 16.0.0, SVG Export Plug-In . SVG Version: 6.00 Build 0)  -->
<!DOCTYPE svg PUBLIC "-//W3C//DTD SVG 1.1//EN" "http://www.w3.org/Graphics/SVG/1.1/DTD/svg11.dtd">
<svg version="1.1" id="Layer_1" xmlns="http://www.w3.org/2000/svg" xmlns:xlink="http://www.w3.org/1999/xlink" x="0px" y="0px"
	 width="50px" height="50px" viewBox="0 0 50 50" style="enable-background:new 0 0 50 50;" xml:space="preserve">
<path style="opacity:0.2;fill:#231F20;" d="M41,45c0,1.104-0.896,2-2,2H11c-1.104,0-2-0.896-2-2V9c0-1.104,0.896-2,2-2h23
	c1.104,0,7,5.896,7,7V45z"/>
<path style="fill:#4F5D73;" d="M41,43c0,1.104-0.896,2-2,2H11c-1.104,0-2-0.896-2-2V7c0-1.104,0.896-2,2-2h23c1.104,0,7,5.896,7,7
	V43z"/>
<path style="fill:#E0E0D1;" d="M37,39c0,1.104-0.896,2-2,2H15c-1.104,0-2-0.896-2-2V19c0-1.104,0.896-2,2-2h20c1.104,0,2,0.896,2,2
	V39z"/>
<rect x="13" y="5" style="fill:#F5CF87;" width="4" height="6"/>
<rect x="19" y="5" style="fill:#F5CF87;" width="4" height="6"/>
<rect x="25" y="5" style="fill:#F5CF87;" width="4" height="6"/>
</svg>
