<?xml version="1.0" encoding="iso-8859-1"?>
<!-- Generator: Adobe Illustrator 16.0.0, SVG Export Plug-In . SVG Version: 6.00 Build 0)  -->
<!DOCTYPE svg PUBLIC "-//W3C//DTD SVG 1.1//EN" "http://www.w3.org/Graphics/SVG/1.1/DTD/svg11.dtd">
<svg version="1.1" id="Layer_1" xmlns="http://www.w3.org/2000/svg" xmlns:xlink="http://www.w3.org/1999/xlink" x="0px" y="0px"
	 width="50" height="50" viewBox="0 0 50 50" style="enable-background:new 0 0 50 50;" xml:space="preserve">
<g style="opacity:0.2;">
	<g>
		<g>
			<path style="fill:#231F20;" d="M25,34.5c3.315,0,6-2.685,6-6v-18c0-3.315-2.685-6-6-6s-6,2.685-6,6v18
				C19,31.815,21.685,34.5,25,34.5z"/>
		</g>
	</g>
</g>
<g style="opacity:0.2;">
	<g>
		<path style="fill:#231F20;" d="M25,41.25c-7.168,0-13-5.832-13-13V24.5c0-0.828,0.672-1.5,1.5-1.5s1.5,0.672,1.5,1.5v3.75
			c0,5.514,4.486,10,10,10s10-4.486,10-10V24.5c0-0.828,0.672-1.5,1.5-1.5s1.5,0.672,1.5,1.5v3.75C38,35.418,32.168,41.25,25,41.25z
			"/>
	</g>
</g>
<g style="opacity:0.2;">
	<g>
		<path style="fill:#231F20;" d="M25,48c-0.828,0-1.5-0.672-1.5-1.5v-6c0-0.828,0.672-1.5,1.5-1.5s1.5,0.672,1.5,1.5v6
			C26.5,47.328,25.828,48,25,48z"/>
	</g>
</g>
<g style="opacity:0.2;">
	<g>
		<path style="fill:#231F20;" d="M30,49H20c-0.828,0-1.5-0.672-1.5-1.5S19.172,46,20,46h10c0.828,0,1.5,0.672,1.5,1.5
			S30.828,49,30,49z"/>
	</g>
</g>
<g>
	<g>
		<path style="fill:#4F5D73;" d="M25,32.5c3.315,0,6-2.685,6-6v-18c0-3.315-2.685-6-6-6s-6,2.685-6,6v18
			C19,29.815,21.685,32.5,25,32.5z"/>
	</g>
</g>
<g>
	<path style="fill:#FFFFFF;" d="M25,39.25c-7.168,0-13-5.832-13-13V22.5c0-0.828,0.672-1.5,1.5-1.5s1.5,0.672,1.5,1.5v3.75
		c0,5.514,4.486,10,10,10s10-4.486,10-10V22.5c0-0.828,0.672-1.5,1.5-1.5s1.5,0.672,1.5,1.5v3.75C38,33.418,32.168,39.25,25,39.25z"
		/>
</g>
<g>
	<path style="fill:#FFFFFF;" d="M25,46c-0.828,0-1.5-0.672-1.5-1.5v-6c0-0.828,0.672-1.5,1.5-1.5s1.5,0.672,1.5,1.5v6
		C26.5,45.328,25.828,46,25,46z"/>
</g>
<g>
	<path style="fill:#FFFFFF;" d="M30,47H20c-0.828,0-1.5-0.672-1.5-1.5S19.172,44,20,44h10c0.828,0,1.5,0.672,1.5,1.5
		S30.828,47,30,47z"/>
</g>
</svg>
