<?xml version="1.0" encoding="iso-8859-1"?>
<!-- Generator: Adobe Illustrator 16.0.0, SVG Export Plug-In . SVG Version: 6.00 Build 0)  -->
<!DOCTYPE svg PUBLIC "-//W3C//DTD SVG 1.1//EN" "http://www.w3.org/Graphics/SVG/1.1/DTD/svg11.dtd">
<svg version="1.1" id="Layer_1" xmlns="http://www.w3.org/2000/svg" xmlns:xlink="http://www.w3.org/1999/xlink" x="0px" y="0px"
	 width="50px" height="50px" viewBox="0 0 50 50" style="enable-background:new 0 0 50 50;" xml:space="preserve">
<path style="fill:#E0E0D1;" d="M11,38"/>
<g style="opacity:0.2;">
	<path style="fill:#231F20;" d="M24.271,19.714L9.198,37.198c-0.674,0.674-0.674,1.768,0,2.441l0.771,0.771l-2.029,2.029
		c-0.586,0.586-0.586,1.535,0,2.121C8.232,44.854,8.616,45,9,45s0.768-0.146,1.061-0.439l2.029-2.029l0.563,0.563
		c0.674,0.674,1.768,0.674,2.441,0l17.679-14.859c-2.068-0.451-3.969-1.476-5.501-3.007C25.704,23.66,24.709,21.736,24.271,19.714z"
		/>
</g>
<circle style="opacity:0.2;fill:#231F20;" cx="35.164" cy="17.836" r="9.164"/>
<circle style="fill:#E0995E;" cx="35.164" cy="14.836" r="9.164"/>
<g>
	<path style="fill:#4F5D73;" d="M24.271,17.214L9.198,34.698c-0.674,0.674-0.674,1.768,0,2.441l0.771,0.771l-2.029,2.029
		c-0.586,0.586-0.586,1.535,0,2.121C8.232,42.354,8.616,42.5,9,42.5s0.768-0.146,1.061-0.439l2.029-2.029l0.563,0.563
		c0.674,0.674,1.768,0.674,2.441,0l17.679-14.86c-2.068-0.45-3.969-1.475-5.501-3.007C25.704,21.16,24.709,19.236,24.271,17.214z"/>
	<path style="fill:#4F5D73;" d="M41.045,21.866c-2.815-0.908-5.399-2.466-7.552-4.618c-2.505-2.505-4.138-5.547-4.942-8.756
		c-3.439,3.592-3.399,9.288,0.135,12.821C30.477,23.104,32.824,24,35.171,24C37.261,24,39.348,23.286,41.045,21.866z"/>
	<path style="fill:#4F5D73;" d="M41.657,8.343c-1.791-1.791-4.138-2.687-6.485-2.687c-1.425,0-2.848,0.335-4.148,0.995
		c0.55,3.15,2.031,6.17,4.464,8.603c2.165,2.165,4.797,3.566,7.569,4.241C45.142,15.977,44.682,11.369,41.657,8.343z"/>
</g>
</svg>
