<?xml version="1.0" encoding="iso-8859-1"?>
<!-- Generator: Adobe Illustrator 16.0.0, SVG Export Plug-In . SVG Version: 6.00 Build 0)  -->
<!DOCTYPE svg PUBLIC "-//W3C//DTD SVG 1.1//EN" "http://www.w3.org/Graphics/SVG/1.1/DTD/svg11.dtd">
<svg version="1.1" id="Layer_1" xmlns="http://www.w3.org/2000/svg" xmlns:xlink="http://www.w3.org/1999/xlink" x="0px" y="0px"
	 width="50px" height="50px" viewBox="0 0 50 50" style="enable-background:new 0 0 50 50;" xml:space="preserve">
<g>
	<g style="opacity:0.2;">
		<g>
			<path style="fill:#231F20;" d="M42.969,26.063c-2.227,0-4.031-1.805-4.031-4.031c0-0.358,0.062-0.7,0.149-1.031H14.882
				c0.088,0.331,0.149,0.673,0.149,1.031c0,2.227-1.805,4.031-4.031,4.031c-0.348,0-0.679-0.058-1-0.141v8.188
				c0.321-0.083,0.652-0.141,1-0.141c2.227,0,4.031,1.805,4.031,4.031c0,0.348-0.058,0.679-0.141,1h24.187
				c-0.082-0.321-0.14-0.652-0.14-1c0-2.227,1.805-4.031,4.031-4.031c0.358,0,0.7,0.062,1.031,0.149v-8.205
				C43.669,26.001,43.327,26.063,42.969,26.063z M27,36c-3.313,0-6-2.687-6-6s2.687-6,6-6s6,2.687,6,6S30.313,36,27,36z"/>
		</g>
		<g>
			<path style="fill:#231F20;" d="M43,18H11c-0.276,0-0.546,0.028-0.807,0.081c-1.84,0.374-3.225,2-3.225,3.95
				c0,0.106,0.023,0.206,0.031,0.31v15.35C6.992,37.794,6.969,37.894,6.969,38c0,2.227,1.805,4.031,4.031,4.031
				c0.106,0,0.206-0.023,0.31-0.031h31.35c0.104,0.008,0.203,0.031,0.31,0.031c1.95,0,3.576-1.385,3.95-3.225
				C46.972,38.546,47,38.276,47,38V22C47,19.791,45.209,18,43,18z M42.969,33.969c-2.227,0-4.031,1.805-4.031,4.031
				c0,0.348,0.058,0.679,0.14,1H14.891c0.083-0.321,0.141-0.652,0.141-1c0-2.227-1.805-4.031-4.031-4.031
				c-0.348,0-0.679,0.058-1,0.141v-8.188c0.321,0.083,0.652,0.141,1,0.141c2.227,0,4.031-1.805,4.031-4.031
				c0-0.358-0.062-0.7-0.149-1.031h24.205c-0.088,0.331-0.149,0.673-0.149,1.031c0,2.227,1.805,4.031,4.031,4.031
				c0.358,0,0.7-0.062,1.031-0.149v8.205C43.669,34.03,43.327,33.969,42.969,33.969z"/>
		</g>
		<g>
			<circle style="fill:#231F20;" cx="27" cy="30" r="6"/>
		</g>
	</g>
	<g>
		<g>
			<path style="fill:#76C2AF;" d="M11,39c-1.654,0-3-1.346-3-3V20c0-1.654,1.346-3,3-3h32c1.654,0,3,1.346,3,3v16
				c0,1.654-1.346,3-3,3H11z"/>
		</g>
		<g>
			<path style="fill:#E0E0D1;" d="M43,18c1.103,0,2,0.897,2,2v16c0,1.103-0.897,2-2,2H11c-1.103,0-2-0.897-2-2V20
				c0-1.103,0.897-2,2-2H43 M43,16H11c-2.209,0-4,1.791-4,4v16c0,2.209,1.791,4,4,4h32c2.209,0,4-1.791,4-4V20
				C47,17.791,45.209,16,43,16L43,16z"/>
		</g>
	</g>
	<g>
		<circle style="fill:#4F5D73;" cx="27" cy="28" r="6"/>
	</g>
	<g>
		<circle style="fill:#E0E0D1;" cx="42.969" cy="20.031" r="4.031"/>
	</g>
	<g>
		<circle style="fill:#E0E0D1;" cx="11" cy="20.031" r="4.031"/>
	</g>
	<g>
		<circle style="fill:#E0E0D1;" cx="42.969" cy="36" r="4.031"/>
	</g>
	<g>
		<circle style="fill:#E0E0D1;" cx="11" cy="36" r="4.031"/>
	</g>
</g>
<g>
	<g style="opacity:0.2;">
		<g>
			<path style="fill:#231F20;" d="M40.969,22.063c-2.227,0-4.031-1.805-4.031-4.031c0-0.358,0.062-0.7,0.149-1.031H12.882
				c0.088,0.331,0.149,0.673,0.149,1.031c0,2.227-1.805,4.031-4.031,4.031c-0.348,0-0.679-0.058-1-0.141v8.188
				c0.321-0.083,0.652-0.141,1-0.141c2.227,0,4.031,1.805,4.031,4.031c0,0.348-0.058,0.679-0.141,1h24.187
				c-0.082-0.321-0.14-0.652-0.14-1c0-2.227,1.805-4.031,4.031-4.031c0.358,0,0.7,0.062,1.031,0.149v-8.205
				C41.669,22.001,41.327,22.063,40.969,22.063z M25,32c-3.313,0-6-2.687-6-6s2.687-6,6-6s6,2.687,6,6S28.313,32,25,32z"/>
		</g>
		<g>
			<path style="fill:#231F20;" d="M41,14H9c-0.276,0-0.546,0.028-0.807,0.081c-1.84,0.374-3.225,2-3.225,3.95
				c0,0.106,0.023,0.206,0.031,0.31v15.35C4.992,33.794,4.969,33.894,4.969,34c0,2.227,1.805,4.031,4.031,4.031
				c0.106,0,0.206-0.023,0.31-0.031h31.35c0.104,0.008,0.203,0.031,0.31,0.031c1.95,0,3.576-1.385,3.95-3.225
				C44.972,34.546,45,34.276,45,34V18C45,15.791,43.209,14,41,14z M40.969,29.969c-2.227,0-4.031,1.805-4.031,4.031
				c0,0.348,0.058,0.679,0.14,1H12.891c0.083-0.321,0.141-0.652,0.141-1c0-2.227-1.805-4.031-4.031-4.031
				c-0.348,0-0.679,0.058-1,0.141v-8.188c0.321,0.083,0.652,0.141,1,0.141c2.227,0,4.031-1.805,4.031-4.031
				c0-0.358-0.062-0.7-0.149-1.031h24.205c-0.088,0.331-0.149,0.673-0.149,1.031c0,2.227,1.805,4.031,4.031,4.031
				c0.358,0,0.7-0.062,1.031-0.149v8.205C41.669,30.03,41.327,29.969,40.969,29.969z"/>
		</g>
		<g>
			<circle style="fill:#231F20;" cx="25" cy="26" r="6"/>
		</g>
	</g>
	<g>
		<g>
			<path style="fill:#76C2AF;" d="M7,35c-1.654,0-3-1.346-3-3V16c0-1.654,1.346-3,3-3h32c1.654,0,3,1.346,3,3v16
				c0,1.654-1.346,3-3,3H7z"/>
		</g>
		<g>
			<path style="fill:#E0E0D1;" d="M39,14c1.103,0,2,0.897,2,2v16c0,1.103-0.897,2-2,2H7c-1.103,0-2-0.897-2-2V16
				c0-1.103,0.897-2,2-2H39 M39,12H7c-2.209,0-4,1.791-4,4v16c0,2.209,1.791,4,4,4h32c2.209,0,4-1.791,4-4V16
				C43,13.791,41.209,12,39,12L39,12z"/>
		</g>
	</g>
	<g>
		<circle style="fill:#4F5D73;" cx="23" cy="24" r="6"/>
	</g>
	<g>
		<circle style="fill:#E0E0D1;" cx="38.969" cy="16.031" r="4.031"/>
	</g>
	<g>
		<circle style="fill:#E0E0D1;" cx="7" cy="16.031" r="4.031"/>
	</g>
	<g>
		<circle style="fill:#E0E0D1;" cx="38.969" cy="32" r="4.031"/>
	</g>
	<g>
		<circle style="fill:#E0E0D1;" cx="7" cy="32" r="4.031"/>
	</g>
</g>
</svg>
