<?xml version="1.0" encoding="iso-8859-1"?>
<!-- Generator: Adobe Illustrator 16.0.0, SVG Export Plug-In . SVG Version: 6.00 Build 0)  -->
<!DOCTYPE svg PUBLIC "-//W3C//DTD SVG 1.1//EN" "http://www.w3.org/Graphics/SVG/1.1/DTD/svg11.dtd">
<svg version="1.1" id="Layer_1" xmlns="http://www.w3.org/2000/svg" xmlns:xlink="http://www.w3.org/1999/xlink" x="0px" y="0px"
	 width="50px" height="50px" viewBox="0 0 50 50" style="enable-background:new 0 0 50 50;" xml:space="preserve">
<g style="opacity:0.2;">
	<circle style="fill:#231F20;" cx="15" cy="17" r="10"/>
</g>
<g>
	<circle style="fill:#E0995E;" cx="15" cy="15" r="10"/>
</g>
<g style="opacity:0.2;">
	<path style="fill:#231F20;" d="M41.667,29c0-7.732-6.566-14-14.667-14c-6.873,0-12.625,4.52-14.216,10.61
		C8.379,26.248,5,29.867,5,34.25C5,39.082,9.104,43,14.167,43h27.5C45.717,43,49,39.866,49,36S45.717,29,41.667,29z"/>
</g>
<g>
	<g style="opacity:0.2;">
		<path style="fill:#231F20;" d="M25,15c0-1.019-0.154-2.001-0.438-2.928c-6.226,0.58-11.3,4.877-12.778,10.538
			c-0.838,0.121-1.638,0.352-2.386,0.674C10.996,24.367,12.924,25,15,25C20.523,25,25,20.522,25,15z"/>
	</g>
</g>
<g>
	<path style="fill:#FFFFFF;" d="M41.667,27c0-7.732-6.566-14-14.667-14c-6.873,0-12.625,4.52-14.216,10.61
		C8.379,24.248,5,27.867,5,32.25C5,37.082,9.104,41,14.167,41h27.5C45.717,41,49,37.866,49,34S45.717,27,41.667,27z"/>
</g>
</svg>
