<?xml version="1.0" encoding="iso-8859-1"?>
<!-- Generator: Adobe Illustrator 16.0.0, SVG Export Plug-In . SVG Version: 6.00 Build 0)  -->
<!DOCTYPE svg PUBLIC "-//W3C//DTD SVG 1.1//EN" "http://www.w3.org/Graphics/SVG/1.1/DTD/svg11.dtd">
<svg version="1.1" id="Layer_1" xmlns="http://www.w3.org/2000/svg" xmlns:xlink="http://www.w3.org/1999/xlink" x="0px" y="0px"
	 width="50px" height="50px" viewBox="0 0 50 50" style="enable-background:new 0 0 50 50;" xml:space="preserve">
<g style="opacity:0.2;">
	<g>
		<path style="fill:#231F20;" d="M6.852,42.42c1.596,2.071,4.892,2.206,7.361,0.303C15.218,41.948,17,39.844,17,35.531V22.193
			l19-3.628v8.418c0,2.97-2.405,3.652-3.21,3.804c-0.07,0.008-0.139,0.025-0.209,0.038c-0.036,0.004-0.089,0.011-0.089,0.011
			l0.013,0.004c-0.952,0.173-1.91,0.572-2.77,1.233c-2.471,1.903-3.181,5.124-1.585,7.195c1.596,2.072,4.892,2.208,7.362,0.306
			C36.763,38.609,38,36.75,38,33.844V11.515c0-1.178-0.956-1.844-2.133-1.483l-19.2,3.629C15.489,14.019,15,15.267,15,16.444v12.993
			c0,2.974-2.745,4.351-3.547,4.5c-0.041,0.007-0.081,0.02-0.124,0.025c-0.104,0.018-0.173,0.024-0.173,0.024l0.023,0.01
			c-0.942,0.178-1.893,0.572-2.743,1.228C5.966,37.127,5.258,40.349,6.852,42.42z"/>
	</g>
</g>
<g>
	<g>
		<path style="fill:#FFFFFF;" d="M6.852,40.42c1.596,2.071,4.892,2.206,7.361,0.303C15.218,39.948,17,37.844,17,33.531V20.193
			l19-3.628v8.418c0,2.97-2.405,3.652-3.21,3.804c-0.07,0.008-0.139,0.025-0.209,0.038c-0.036,0.004-0.089,0.011-0.089,0.011
			l0.013,0.004c-0.952,0.173-1.91,0.572-2.77,1.233c-2.471,1.903-3.181,5.124-1.585,7.195c1.596,2.072,4.892,2.208,7.362,0.306
			C36.763,36.609,38,34.75,38,31.844V9.515c0-1.178-0.956-1.844-2.133-1.483l-19.2,3.629C15.489,12.019,15,13.267,15,14.444v12.993
			c0,2.974-2.745,4.351-3.547,4.5c-0.041,0.007-0.081,0.02-0.124,0.025c-0.104,0.018-0.173,0.024-0.173,0.024l0.023,0.01
			c-0.942,0.178-1.893,0.572-2.743,1.228C5.966,35.127,5.258,38.349,6.852,40.42z"/>
	</g>
</g>
</svg>
