<?xml version="1.0" encoding="iso-8859-1"?>
<!-- Generator: Adobe Illustrator 16.0.0, SVG Export Plug-In . SVG Version: 6.00 Build 0)  -->
<!DOCTYPE svg PUBLIC "-//W3C//DTD SVG 1.1//EN" "http://www.w3.org/Graphics/SVG/1.1/DTD/svg11.dtd">
<svg version="1.1" id="Layer_1" xmlns="http://www.w3.org/2000/svg" xmlns:xlink="http://www.w3.org/1999/xlink" x="0px" y="0px"
	 width="50px" height="50px" viewBox="0 0 50 50" style="enable-background:new 0 0 50 50;" xml:space="preserve">
<g style="opacity:0.2;">
	<path style="fill:#231F20;" d="M45,43c0,2.209-1.791,4-4,4H9c-2.209,0-4-1.791-4-4V15c0-2.209,1.791-4,4-4h32c2.209,0,4,1.791,4,4
		V43z"/>
</g>
<g>
	<path style="fill:#E0E0D1;" d="M45,41c0,2.209-1.791,4-4,4H9c-2.209,0-4-1.791-4-4V13c0-2.209,1.791-4,4-4h32c2.209,0,4,1.791,4,4
		V41z"/>
</g>
<g style="opacity:0.2;">
	<path style="fill:#231F20;" d="M45,39c0,2.209-1.791,4-4,4H9c-2.209,0-4-1.791-4-4V11c0-2.209,1.791-4,4-4h32c2.209,0,4,1.791,4,4
		V39z"/>
</g>
<g>
	<path style="fill:#E0E0D1;" d="M45,37c0,2.209-1.791,4-4,4H9c-2.209,0-4-1.791-4-4V9c0-2.209,1.791-4,4-4h32c2.209,0,4,1.791,4,4
		V37z"/>
</g>
<g>
	<rect x="9" y="17" style="fill:#4F5D73;" width="12" height="12"/>
</g>
<g>
	<rect x="29" y="20" style="fill:#4F5D73;" width="12" height="1"/>
</g>
<g>
	<rect x="29" y="18" style="fill:#4F5D73;" width="12" height="1"/>
</g>
<g>
	<rect x="25" y="17" style="fill:#4F5D73;" width="3" height="4"/>
</g>
<g>
	<rect x="25" y="23" style="fill:#4F5D73;" width="16" height="1"/>
</g>
<g>
	<rect x="25" y="25" style="fill:#4F5D73;" width="16" height="1"/>
</g>
<g>
	<rect x="25" y="27" style="fill:#4F5D73;" width="16" height="1"/>
</g>
<g>
	<rect x="25" y="29" style="fill:#4F5D73;" width="16" height="1"/>
</g>
<g>
	<rect x="28.875" y="32" style="fill:#4F5D73;" width="12.125" height="1"/>
</g>
<g>
	<rect x="9" y="32" style="fill:#4F5D73;" width="12" height="1"/>
</g>
<g>
	<rect x="9" y="34" style="fill:#4F5D73;" width="12" height="1"/>
</g>
<g>
	<rect x="9" y="36" style="fill:#4F5D73;" width="12" height="1"/>
</g>
<g>
	<rect x="9" y="38" style="fill:#4F5D73;" width="12" height="1"/>
</g>
<g>
	<rect x="25" y="34" style="fill:#4F5D73;" width="16" height="1"/>
</g>
<g>
	<rect x="25" y="36" style="fill:#4F5D73;" width="16" height="1"/>
</g>
<g>
	<rect x="25" y="38" style="fill:#4F5D73;" width="16" height="1"/>
</g>
<g>
	<circle style="fill:#E0E0D1;" cx="17" cy="21" r="2"/>
</g>
<g>
	<rect x="9" y="9" style="fill:#4F5D73;" width="32" height="4"/>
</g>
<g>
	<g>
		<path style="fill:#E0E0D1;" d="M20,28v-2.414l-0.785-0.78c-0.487-0.484-1.276-0.484-1.763,0l-0.844,0.839l-1.928-1.917
			c-0.977-0.97-2.56-0.97-3.536,0L10,24.865V28H20z"/>
	</g>
</g>
</svg>
