<?xml version="1.0" encoding="iso-8859-1"?>
<!-- Generator: Adobe Illustrator 16.0.0, SVG Export Plug-In . SVG Version: 6.00 Build 0)  -->
<!DOCTYPE svg PUBLIC "-//W3C//DTD SVG 1.1//EN" "http://www.w3.org/Graphics/SVG/1.1/DTD/svg11.dtd">
<svg version="1.1" id="Layer_1" xmlns="http://www.w3.org/2000/svg" xmlns:xlink="http://www.w3.org/1999/xlink" x="0px" y="0px"
	 width="50px" height="50px" viewBox="0 0 50 50" style="enable-background:new 0 0 50 50;" xml:space="preserve">
<g>
	<g>
		<g style="opacity:0.2;">
			<path style="fill:#231F20;" d="M21,16V7H8c-1.657,0-3,1.343-3,3v34c0,1.657,1.343,3,3,3h22c1.657,0,3-1.343,3-3V19h-9
				C22.343,19,21,17.657,21,16z"/>
		</g>
		<g>
			<path style="fill:#E0E0D1;" d="M30,5h-9H8C6.343,5,5,6.343,5,8v25v9c0,1.657,1.343,3,3,3h9h13c1.657,0,3-1.343,3-3V17V8
				C33,6.343,31.657,5,30,5z"/>
		</g>
	</g>
	<g style="opacity:0.2;">
		<rect x="9" y="12" style="fill:#231F20;" width="10" height="2"/>
	</g>
	<g style="opacity:0.2;">
		<rect x="9" y="28" style="fill:#231F20;" width="20" height="2"/>
	</g>
	<g style="opacity:0.2;">
		<rect x="9" y="23" style="fill:#231F20;" width="20" height="2"/>
	</g>
	<g style="opacity:0.2;">
		<rect x="9" y="18" style="fill:#231F20;" width="20" height="2"/>
	</g>
	<g style="opacity:0.2;">
		<rect x="9" y="33" style="fill:#231F20;" width="20" height="2"/>
	</g>
	<g style="opacity:0.2;">
		<rect x="9" y="38" style="fill:#231F20;" width="20" height="2"/>
	</g>
</g>
<g style="opacity:0.2;">
	<path style="fill:#231F20;" d="M48.121,14.864L41.05,7.793c-1.171-1.172-3.07-1.172-4.242,0l-3.535,3.535l-0.707,0.707
		L16.302,28.299l-1.886,9.428l-0.943,4.715l4.715-0.943l9.428-1.886L43.879,23.35l0.707-0.707l3.535-3.536
		C49.293,17.936,49.293,16.035,48.121,14.864z"/>
</g>
<g>
	<path style="fill:#C75C5C;" d="M43.879,21.436c-1.172,1.171-3.071,1.171-4.243,0l-7.07-7.071c-1.172-1.172-1.172-3.071,0-4.243
		l4.242-4.242c1.172-1.172,3.071-1.172,4.242,0l7.071,7.07c1.172,1.172,1.172,3.071,0,4.243L43.879,21.436z"/>
</g>
<g>
	
		<rect x="24.201" y="7.313" transform="matrix(0.7071 0.7071 -0.7071 0.7071 21.3308 -12.8702)" style="fill:#E0995E;" width="4" height="24"/>
</g>
<g>
	
		<rect x="25.737" y="11.263" transform="matrix(0.7071 0.7071 -0.7071 0.7071 25.8664 -13.9206)" style="fill:#F5CF87;" width="8.001" height="26"/>
</g>
<g>
	
		<rect x="32.687" y="15.799" transform="matrix(0.7071 0.7071 -0.7071 0.7071 29.8162 -16.385)" style="fill:#E0995E;" width="4" height="24"/>
</g>
<g>
	<g>
		<polygon style="fill:#4F5D73;" points="13.473,40.527 18.188,39.584 14.416,35.813 		"/>
	</g>
	<g>
		<polygon style="fill:#FFFFFF;" points="16.302,26.385 14.416,35.813 18.188,39.584 27.615,37.698 26.201,36.284 26.201,33.456 
			20.544,33.456 20.544,27.799 17.716,27.799 		"/>
	</g>
</g>
</svg>
