<?xml version="1.0" encoding="iso-8859-1"?>
<!-- Generator: Adobe Illustrator 16.0.0, SVG Export Plug-In . SVG Version: 6.00 Build 0)  -->
<!DOCTYPE svg PUBLIC "-//W3C//DTD SVG 1.1//EN" "http://www.w3.org/Graphics/SVG/1.1/DTD/svg11.dtd">
<svg version="1.1" id="Layer_1" xmlns="http://www.w3.org/2000/svg" xmlns:xlink="http://www.w3.org/1999/xlink" x="0px" y="0px"
	 width="50px" height="50px" viewBox="0 0 50 50" style="enable-background:new 0 0 50 50;" xml:space="preserve">
<path style="opacity:0.2;fill:#231F20;" d="M13,41c0,1.104-0.896,2-2,2l0,0c-1.104,0-2-0.896-2-2v-8c0-1.104,0.896-2,2-2l0,0
	c1.104,0,2,0.896,2,2V41z"/>
<path style="opacity:0.2;fill:#231F20;" d="M41,41c0,1.104-0.896,2-2,2l0,0c-1.104,0-2-0.896-2-2v-8c0-1.104,0.896-2,2-2l0,0
	c1.104,0,2,0.896,2,2V41z"/>
<path style="fill:#E0995E;" d="M13,39c0,1.104-0.896,2-2,2l0,0c-1.104,0-2-0.896-2-2v-8c0-1.104,0.896-2,2-2l0,0
	c1.104,0,2,0.896,2,2V39z"/>
<path style="fill:#E0995E;" d="M41,39c0,1.104-0.896,2-2,2l0,0c-1.104,0-2-0.896-2-2v-8c0-1.104,0.896-2,2-2l0,0
	c1.104,0,2,0.896,2,2V39z"/>
<path style="opacity:0.2;fill:#231F20;" d="M48.193,16.614C47.463,15.639,46.311,15,45,15h-8H23H11H5c-2.209,0-4,1.791-4,4v12
	c0,0.898,0.307,1.719,0.807,2.386C2.537,34.36,3.689,35,5,35h8h14h12h6c2.209,0,4-1.791,4-4V19
	C49,18.102,48.693,17.281,48.193,16.614z"/>
<path style="fill:#4F5D73;" d="M5,13c-2.209,0-4,1.791-4,4v12c0,0.898,0.307,1.719,0.807,2.386L11,13H5z"/>
<polygon style="fill:#4F5D73;" points="23,13 13,33 27,33 37,13 "/>
<path style="fill:#F5CF87;" d="M11,13L1.807,31.386C2.537,32.36,3.689,33,5,33h8l10-20H11z"/>
<path style="fill:#4F5D73;" d="M39,33h6c2.209,0,4-1.791,4-4V17c0-0.898-0.307-1.719-0.807-2.386L39,33z"/>
<path style="fill:#F5CF87;" d="M45,13h-8L27,33h12l9.193-18.386C47.463,13.639,46.311,13,45,13z"/>
</svg>
