<?xml version="1.0" encoding="iso-8859-1"?>
<!-- Generator: Adobe Illustrator 16.0.0, SVG Export Plug-In . SVG Version: 6.00 Build 0)  -->
<!DOCTYPE svg PUBLIC "-//W3C//DTD SVG 1.1//EN" "http://www.w3.org/Graphics/SVG/1.1/DTD/svg11.dtd">
<svg version="1.1" id="Layer_1" xmlns="http://www.w3.org/2000/svg" xmlns:xlink="http://www.w3.org/1999/xlink" x="0px" y="0px"
	 width="50px" height="50px" viewBox="0 0 50 50" style="enable-background:new 0 0 50 50;" xml:space="preserve">
<path style="opacity:0.2;fill:#231F20;" d="M41,43c0,1.104-0.896,2-2,2H11c-1.104,0-2-0.896-2-2V9c0-1.104,0.896-2,2-2h28
	c1.104,0,2,0.896,2,2V43z"/>
<path style="fill:#E0E0D1;" d="M41,41c0,1.104-0.896,2-2,2H11c-1.104,0-2-0.896-2-2V7c0-1.104,0.896-2,2-2h28c1.104,0,2,0.896,2,2
	V41z"/>
<path style="opacity:0.2;fill:#231F20;" d="M39,7H11C9.896,7,9,7.896,9,9v6c0,1.104,0,0,0,0l15.5,2c0.443,0,1.5,0.375,1.5,1.327
	c0,0,0,1.288,0,1.673c0,0.828,0.672,1.5,1.5,1.5S29,20.828,29,20c0-0.829,0.672-1.5,1.5-1.5S32,19.171,32,20v13.5
	c0,0.828,0.672,1.5,1.5,1.5s1.5-0.672,1.5-1.5V23c0-0.829,0.672-1.5,1.5-1.5S38,22.171,38,23v2.5c0,0.828,0.672,1.5,1.5,1.5
	s1.5-0.672,1.5-1.5V9C41,7.896,40.104,7,39,7z"/>
<path style="fill:#C75C5C;" d="M39,5H11C9.896,5,9,5.896,9,7v6c0,1.104,0,0,0,0l15.5,2c0.443,0,1.5,0.375,1.5,1.327
	c0,0,0,1.288,0,1.673c0,0.828,0.672,1.5,1.5,1.5S29,18.828,29,18c0-0.829,0.672-1.5,1.5-1.5S32,17.171,32,18v13.5
	c0,0.828,0.672,1.5,1.5,1.5s1.5-0.672,1.5-1.5V21c0-0.829,0.672-1.5,1.5-1.5S38,20.171,38,21v2.5c0,0.828,0.672,1.5,1.5,1.5
	s1.5-0.672,1.5-1.5V7C41,5.896,40.104,5,39,5z"/>
<g style="opacity:0.2;">
	<path style="fill:#231F20;" d="M25,27C15.354,27,7.505,19.152,7.505,9.505c0-0.552,0.447-1,1-1c0.552,0,1,0.448,1,1
		C9.505,18.049,16.456,25,25,25s15.495-6.951,15.495-15.495c0-0.552,0.448-1,1-1c0.553,0,1,0.448,1,1C42.495,19.152,34.647,27,25,27
		z"/>
</g>
<path style="fill:none;stroke:#4F5D73;stroke-width:2;stroke-linecap:round;stroke-miterlimit:10;" d="M41.495,7.505
	C41.495,16.615,34.11,24,25,24S8.505,16.615,8.505,7.505"/>
</svg>
