<?xml version="1.0" encoding="iso-8859-1"?>
<!-- Generator: Adobe Illustrator 16.0.0, SVG Export Plug-In . SVG Version: 6.00 Build 0)  -->
<!DOCTYPE svg PUBLIC "-//W3C//DTD SVG 1.1//EN" "http://www.w3.org/Graphics/SVG/1.1/DTD/svg11.dtd">
<svg version="1.1" id="Layer_1" xmlns="http://www.w3.org/2000/svg" xmlns:xlink="http://www.w3.org/1999/xlink" x="0px" y="0px"
	 width="50px" height="50px" viewBox="0 0 50 50" style="enable-background:new 0 0 50 50;" xml:space="preserve">
<g>
	<path style="opacity:0.2;fill:#231F20;" d="M45,6H13c-1.104,0-2,0.896-2,2v2H7c-2.206,0-4,1.794-4,4v7c0,2.206,1.794,4,4,4h18v19
		c0,1.104,0.896,2,2,2s2-0.896,2-2V25c0-2.206-1.794-4-4-4H7v-7h4v2c0,1.104,0.896,2,2,2h17.5c0.828,0,1.5,0.671,1.5,1.5
		s0.672,1.5,1.5,1.5s1.5-0.671,1.5-1.5s0.672-1.5,1.5-1.5s1.5,0.671,1.5,1.5v3c0,0.829,0.672,1.5,1.5,1.5s1.5-0.671,1.5-1.5v-3
		c0-0.829,0.672-1.5,1.5-1.5s1.5,0.671,1.5,1.5v1c0,0.829,0.672,1.5,1.5,1.5s1.5-0.671,1.5-1.5V16v-1.5V12V8C47,6.896,46.104,6,45,6
		z"/>
	<path style="fill:none;stroke:#4F5D73;stroke-width:4;stroke-linecap:round;stroke-miterlimit:10;" d="M27,42V23
		c0-1.104-0.896-2-2-2H7c-1.104,0-2-0.896-2-2v-7c0-1.104,0.896-2,2-2h18"/>
	<path style="fill:#C75C5C;" d="M47,18.5c0,0.829-0.672,1.5-1.5,1.5l0,0c-0.828,0-1.5-0.671-1.5-1.5v-6c0-0.829,0.672-1.5,1.5-1.5
		l0,0c0.828,0,1.5,0.671,1.5,1.5V18.5z"/>
	<path style="fill:#C75C5C;" d="M41,20.5c0,0.829-0.672,1.5-1.5,1.5l0,0c-0.828,0-1.5-0.671-1.5-1.5v-6c0-0.829,0.672-1.5,1.5-1.5
		l0,0c0.828,0,1.5,0.671,1.5,1.5V20.5z"/>
	<path style="fill:#C75C5C;" d="M44,13c0,0.829-0.672,1.5-1.5,1.5V15c-0.828,0-1.5-1.171-1.5-2v4.5c0-0.829,0.672-1.5,1.5-1.5l0,0
		c0.828,0,1.5,0.671,1.5,1.5V13z"/>
	<path style="fill:#C75C5C;" d="M35,17.5c0,0.829-0.672,1.5-1.5,1.5l0,0c-0.828,0-1.5-0.671-1.5-1.5v-6c0-0.829,0.672-1.5,1.5-1.5
		l0,0c0.828,0,1.5,0.671,1.5,1.5V17.5z"/>
	<path style="fill:#C75C5C;" d="M38,13c0,0.829-0.672,1.5-1.5,1.5V15c-0.828,0-1.5-1.171-1.5-2v4.5c0-0.829,0.672-1.5,1.5-1.5l0,0
		c0.828,0,1.5,0.671,1.5,1.5V13z"/>
	<path style="fill:#C75C5C;" d="M32,13c0,0.829-0.672,1.5-1.5,1.5V15c-0.828,0-1.5-1.171-1.5-2v2c0-0.829,0.672,1,1.5,1l0,0
		c0.828,0,1.5,0.671,1.5,1.5V13z"/>
	<g>
		<path style="fill:#E0995E;" d="M47,6c0-1.104-0.896-2-2-2H13c-1.104,0-2,0.896-2,2v4h36V6z"/>
		<path style="fill:#C75C5C;" d="M11,6v8c0,1.104,0.896,2,2,2h32c1.104,0,2-0.896,2-2v-4L11,6z"/>
	</g>
</g>
</svg>
