<?xml version="1.0" encoding="iso-8859-1"?>
<!-- Generator: Adobe Illustrator 16.0.0, SVG Export Plug-In . SVG Version: 6.00 Build 0)  -->
<!DOCTYPE svg PUBLIC "-//W3C//DTD SVG 1.1//EN" "http://www.w3.org/Graphics/SVG/1.1/DTD/svg11.dtd">
<svg version="1.1" id="Layer_1" xmlns="http://www.w3.org/2000/svg" xmlns:xlink="http://www.w3.org/1999/xlink" x="0px" y="0px"
	 width="50px" height="50px" viewBox="0 0 50 50" style="enable-background:new 0 0 50 50;" xml:space="preserve">
<path style="opacity:0.2;fill:#231F20;" d="M42.865,9.135c-1.933-1.934-13.04,6.04-19.874,12.874
	c-3.362,3.362-5.059,5.819-5.689,7.682c-2.108-0.204-4.402,0.571-5.913,2.082c-0.969,0.969-1.498,2.042-1.895,3.202
	C8.733,37.206,8,40,5,41.99c2.236,2.236,10.984,2.864,15.228-1.379c0.448-0.448,0.831-0.967,1.144-1.528
	c0.74-1.329,1.067-2.898,0.925-4.38c1.863-0.627,4.325-2.324,7.695-5.694C36.825,22.175,44.799,11.067,42.865,9.135z"/>
<path style="fill:#E0995E;" d="M22.991,20.009c-6.834,6.834-6.808,9.941-4.874,11.874c1.933,1.934,5.04,1.96,11.874-4.874
	S44.799,9.067,42.865,7.135C40.933,5.201,29.825,13.175,22.991,20.009z"/>
<g>
	<path style="fill:#C75C5C;" d="M5,39.99c2.236,2.236,10.984,2.864,15.228-1.379c0.448-0.448,0.831-0.967,1.144-1.528
		c-6.637-0.198-10.145-2.408-11.877-4.108C8.733,35.206,8,38,5,39.99z"/>
	<path style="fill:#4F5D73;" d="M20.758,29.242c-2.441-2.44-6.929-1.91-9.369,0.53c-0.969,0.969-1.498,2.042-1.895,3.202
		c1.732,1.7,5.131,6.942,11.877,4.108C22.761,34.59,22.749,31.234,20.758,29.242z"/>
</g>
<path style="fill:#C75C5C;" d="M9.494,32.975c0,0,4.022-0.764,5.938,2.06c1.917,2.822,5.938,2.049,5.938,2.049l-5.204,2.875
	l-5.209-3.791L9.494,32.975z"/>
</svg>
