<?xml version="1.0" encoding="iso-8859-1"?>
<!-- Generator: Adobe Illustrator 16.0.0, SVG Export Plug-In . SVG Version: 6.00 Build 0)  -->
<!DOCTYPE svg PUBLIC "-//W3C//DTD SVG 1.1//EN" "http://www.w3.org/Graphics/SVG/1.1/DTD/svg11.dtd">
<svg version="1.1" id="Layer_1" xmlns="http://www.w3.org/2000/svg" xmlns:xlink="http://www.w3.org/1999/xlink" x="0px" y="0px"
	 width="50px" height="50px" viewBox="0 0 50 50" style="enable-background:new 0 0 50 50;" xml:space="preserve">
<g style="opacity:0.2;">
	<path style="fill:#231F20;" d="M25,5C16.455,5,7,10.375,3.917,20.655c-1.558,5.194,5.187,3.119,5.646,9.157
		c0.375,4.938-1.113,6.6-1.438,9.563c-0.438,4,8.875,10,17.239,9.621C37.641,48.439,47.045,39.288,47.045,27S37.288,5,25,5z M17,41
		c-2.209,0-4-1.791-4-4s1.791-4,4-4s4,1.791,4,4S19.209,41,17,41z"/>
</g>
<g>
	<path style="fill:#E0995E;" d="M25,3C16.455,3,7,8.375,3.917,18.655c-1.558,5.194,5.187,3.119,5.646,9.157
		c0.375,4.938-1.113,6.6-1.438,9.563c-0.438,4,8.875,10,17.239,9.621C37.641,46.439,47.045,37.288,47.045,25S37.288,3,25,3z M17,39
		c-2.209,0-4-1.791-4-4s1.791-4,4-4s4,1.791,4,4S19.209,39,17,39z"/>
</g>
<g style="opacity:0.2;">
	<circle style="fill:#231F20;" cx="13.715" cy="18" r="4"/>
</g>
<g style="opacity:0.2;">
	<circle style="fill:#231F20;" cx="25" cy="12.612" r="4"/>
</g>
<g style="opacity:0.2;">
	<circle style="fill:#231F20;" cx="36.211" cy="17.729" r="4"/>
</g>
<g style="opacity:0.2;">
	<circle style="fill:#231F20;" cx="39.188" cy="30.271" r="4"/>
</g>
<g style="opacity:0.2;">
	<circle style="fill:#231F20;" cx="30.104" cy="40.104" r="4"/>
</g>
<g>
	<circle style="fill:#C75C5C;" cx="13.715" cy="16" r="4"/>
</g>
<g>
	<circle style="fill:#F5CF87;" cx="25" cy="10.612" r="4"/>
</g>
<g>
	<circle style="fill:#76C2AF;" cx="36.211" cy="15.729" r="4"/>
</g>
<g>
	<circle style="fill:#FFFFFF;" cx="39.188" cy="28.271" r="4"/>
</g>
<g>
	<circle style="fill:#4F5D73;" cx="30.104" cy="38.104" r="4"/>
</g>
</svg>
