<?xml version="1.0" encoding="iso-8859-1"?>
<!-- Generator: Adobe Illustrator 16.0.0, SVG Export Plug-In . SVG Version: 6.00 Build 0)  -->
<!DOCTYPE svg PUBLIC "-//W3C//DTD SVG 1.1//EN" "http://www.w3.org/Graphics/SVG/1.1/DTD/svg11.dtd">
<svg version="1.1" id="Layer_1" xmlns="http://www.w3.org/2000/svg" xmlns:xlink="http://www.w3.org/1999/xlink" x="0px" y="0px"
	 width="50px" height="50px" viewBox="0 0 50 50" style="enable-background:new 0 0 50 50;" xml:space="preserve">
<path style="fill:#4F5D73;" d="M40,26c0,1.104-0.896,2-2,2H12c-1.104,0-2-0.896-2-2V4c0-1.104,0.896-2,2-2h26c1.104,0,2,0.896,2,2
	V26z"/>
<path style="opacity:0.2;fill:#231F20;" d="M10,26c0,0,0,0.896,0,2v2c0,1.104,0.896,2,2,2h7c0,0,3,0,3,3
	c0,4.18-0.75,6.257-0.997,6.828c-0.02,0.044-0.041,0.087-0.06,0.132c-0.012,0.024-0.02,0.04-0.02,0.04h0.008
	c-0.199,0.501-0.316,1.043-0.316,1.615C20.615,46.037,22.578,48,25,48s4.385-1.963,4.385-4.385c0-0.572-0.117-1.114-0.316-1.615
	h0.008c0,0-0.009-0.017-0.021-0.041c-0.018-0.044-0.039-0.086-0.059-0.13C28.751,41.26,28,39.183,28,35c0,0,0.01-3,3-3h7
	c1.104,0,2-0.896,2-2v-2c0-1.104,0-2,0-2H10z"/>
<path style="fill:#E0995E;" d="M10,24c0,0,0,0.896,0,2v2c0,1.104,0.896,2,2,2h7c0,0,3,0,3,3c0,4.18-0.75,6.257-0.997,6.828
	c-0.02,0.044-0.041,0.087-0.06,0.132c-0.012,0.024-0.02,0.04-0.02,0.04h0.008c-0.199,0.501-0.316,1.043-0.316,1.615
	C20.615,44.037,22.578,46,25,46s4.385-1.963,4.385-4.385c0-0.572-0.117-1.114-0.316-1.615h0.008c0,0-0.009-0.017-0.021-0.041
	c-0.018-0.044-0.039-0.086-0.059-0.13C28.751,39.26,28,37.183,28,33c0,0,0.01-3,3-3h7c1.104,0,2-0.896,2-2v-2c0-1.104,0-2,0-2H10z"
	/>
<rect x="10" y="21" style="opacity:0.2;fill:#231F20;" width="30" height="6"/>
<rect x="10" y="19" style="fill:#FFFFFF;" width="30" height="6"/>
<path style="opacity:0.2;fill:#231F20;" d="M38,4H12c-1.104,0-2,0.896-2,2v4v4c0,1.104,0,2,0,2h13.5c0.828,0,1.5,0.671,1.5,1.5
	s0.672,1.5,1.5,1.5s1.5-0.671,1.5-1.5s0.672-1.5,1.5-1.5s1.5,0.671,1.5,1.5v3c0,0.829,0.672,1.5,1.5,1.5s1.5-0.671,1.5-1.5v-3
	c0-0.829,0.672-1.5,1.5-1.5s1.5,0.671,1.5,1.5v1c0,0.829,0.672,1.5,1.5,1.5s1.5-0.671,1.5-1.5V14v-1.5V10V6C40,4.896,39.104,4,38,4z
	"/>
<path style="fill:#C75C5C;" d="M40,19.5c0,0.829-0.672,1.5-1.5,1.5l0,0c-0.828,0-1.5-0.671-1.5-1.5v-6c0-0.829,0.672-1.5,1.5-1.5
	l0,0c0.828,0,1.5,0.671,1.5,1.5V19.5z"/>
<path style="fill:#C75C5C;" d="M34,18.5c0,0.829-0.672,1.5-1.5,1.5l0,0c-0.828,0-1.5-0.671-1.5-1.5v-6c0-0.829,0.672-1.5,1.5-1.5
	l0,0c0.828,0,1.5,0.671,1.5,1.5V18.5z"/>
<path style="fill:#C75C5C;" d="M37,14c0,0.829-0.672,1.5-1.5,1.5V16c-0.828,0-1.5-1.171-1.5-2v4.5c0-0.829,0.672-1.5,1.5-1.5l0,0
	c0.828,0,1.5,0.671,1.5,1.5V14z"/>
<path style="fill:#C75C5C;" d="M28,15.5c0,0.829-0.672,1.5-1.5,1.5l0,0c-0.828,0-1.5-0.671-1.5-1.5v-6C25,8.671,25.672,8,26.5,8l0,0
	C27.328,8,28,8.671,28,9.5V15.5z"/>
<path style="fill:#C75C5C;" d="M31,11c0,0.829-0.672,1.5-1.5,1.5V13c-0.828,0-1.5-1.171-1.5-2v4.5c0-0.829,0.672-1.5,1.5-1.5l0,0
	c0.828,0,1.5,0.671,1.5,1.5V11z"/>
<path style="fill:#C75C5C;" d="M25,11c0,0.829-0.672,1.5-1.5,1.5V13c-0.828,0,0-1.171,0-2v2c0-0.829-0.828,1,0,1l0,0
	c0.828,0,1.5,0.671,1.5,1.5V11z"/>
<g>
	<path style="fill:#C75C5C;" d="M40,4c0-1.104-0.896-2-2-2H12c-1.104,0-2,0.896-2,2v4h30V4z"/>
	<path style="fill:#C75C5C;" d="M10,4v8c0,1.104,0,2,0,2h28c1.104,0,2-0.896,2-2V8L10,4z"/>
</g>
</svg>
