<?xml version="1.0" encoding="iso-8859-1"?>
<!-- Generator: Adobe Illustrator 16.0.0, SVG Export Plug-In . SVG Version: 6.00 Build 0)  -->
<!DOCTYPE svg PUBLIC "-//W3C//DTD SVG 1.1//EN" "http://www.w3.org/Graphics/SVG/1.1/DTD/svg11.dtd">
<svg version="1.1" id="Layer_1" xmlns="http://www.w3.org/2000/svg" xmlns:xlink="http://www.w3.org/1999/xlink" x="0px" y="0px"
	 width="50px" height="50px" viewBox="0 0 50 50" style="enable-background:new 0 0 50 50;" xml:space="preserve">
<g>
	<g>
		<g style="opacity:0.2;">
			<path style="fill:#231F20;" d="M29,16V7H12c-1.657,0-3,1.343-3,3v34c0,1.657,1.343,3,3,3h26c1.657,0,3-1.343,3-3V19h-9
				C30.343,19,29,17.657,29,16z"/>
		</g>
		<g>
			<path style="fill:#E0E0D1;" d="M29,14V5H12c-1.657,0-3,1.343-3,3v34c0,1.657,1.343,3,3,3h26c1.657,0,3-1.343,3-3V17h-9
				C30.343,17,29,15.657,29,14z"/>
		</g>
		<g style="opacity:0.2;">
			<polygon style="fill:#231F20;" points="30.016,16.293 41,26 41,17 			"/>
		</g>
		<g>
			<path style="fill:#FFFFFF;" d="M29,5v9c0,1.657,1.343,3,3,3h9L29,5z"/>
		</g>
	</g>
	<g style="opacity:0.2;">
		<rect x="15" y="15" style="fill:#231F20;" width="9.625" height="2"/>
	</g>
	<g style="opacity:0.2;">
		<rect x="15" y="25" style="fill:#231F20;" width="20" height="2"/>
	</g>
	<g style="opacity:0.2;">
		<rect x="15" y="20" style="fill:#231F20;" width="20" height="2"/>
	</g>
	<g style="opacity:0.2;">
		<rect x="15" y="30" style="fill:#231F20;" width="20" height="2"/>
	</g>
	<g style="opacity:0.2;">
		<rect x="15" y="35" style="fill:#231F20;" width="20" height="2"/>
	</g>
</g>
</svg>
