<?xml version="1.0" encoding="iso-8859-1"?>
<!-- Generator: Adobe Illustrator 16.0.0, SVG Export Plug-In . SVG Version: 6.00 Build 0)  -->
<!DOCTYPE svg PUBLIC "-//W3C//DTD SVG 1.1//EN" "http://www.w3.org/Graphics/SVG/1.1/DTD/svg11.dtd">
<svg version="1.1" id="Layer_1" xmlns="http://www.w3.org/2000/svg" xmlns:xlink="http://www.w3.org/1999/xlink" x="0px" y="0px"
	 width="51px" height="51px" viewBox="0 0 51 51" style="enable-background:new 0 0 51 51;" xml:space="preserve">
<g>
	<path style="fill:#C75C5C;" d="M25.5,2.5"/>
	<g>
		<path style="opacity:0.2;fill:#231F20;" d="M25.5,47.614c-0.385,0-0.751-0.146-1.031-0.411L1.5,24.5l4-2l20,21.549l22.567-20.663
			c0.176,0.222-0.177-2,0-1.614c0.252,0.552,1.119,2.281,1.433,2.728L26.53,47.204C26.251,47.468,25.885,47.614,25.5,47.614z"/>
	</g>
	<g>
		<path style="fill:#4F5D73;" d="M25.5,46c-0.385,0-0.751-0.146-1.031-0.411L1.5,24.5l4.29-0.026L25.5,42.435l22.567-20.663
			c0.176,0.222,0.43,0.777,0.607,1.163c0.252,0.552,0.512,1.118,0.826,1.565L26.53,45.59C26.251,45.854,25.885,46,25.5,46z"/>
	</g>
	<g style="opacity:0.2;">
		<path style="fill:#231F20;" d="M39.5,23.5c-0.068-0.508-0.7-0.839-1-1c-0.221-0.119-1.25,2-1.498,2
			c-0.555,0-0.621,0.54-0.883,1.027L25.5,44.255L14.881,25.527C14.619,25.04,15.055,22.5,14.5,22.5c-0.249,0-0.779-1.119-1-1
			c-0.299,0.161-0.932-0.508-1,0c-0.069,0.51-3.209-0.391-3,0l13.95,25.316c1.399-0.285,2.844-0.305,4.292-0.336L40.5,23.5
			C40.709,23.109,39.569,24.01,39.5,23.5z"/>
	</g>
	<g>
		<path style="fill:#4F5D73;" d="M25.5,46c-0.554,0-1.06-0.303-1.322-0.791L12.5,24.5c-0.209-0.391,0.143-1.187,0.212-1.697
			c0.068-0.508,0.279-0.891,0.579-1.052c0.221-0.119,0.459-0.179,0.708-0.179c0.555,0,0.621,0.54,0.883,1.027L25.5,41.328
			L36.119,22.6c0.262-0.488,0.329-1.027,0.883-1.027c0.249,0,0.486,0.06,0.707,0.179c0.3,0.161,0.511,0.544,0.579,1.052
			c0.069,0.51,0.421,1.306,0.212,1.697L26.822,45.209C26.56,45.697,26.054,46,25.5,46z"/>
	</g>
	<g style="opacity:0.2;">
		<g>
			<path style="fill:#231F20;" d="M38.5,26.5h8.822l2.178-2c-1.016-12.319-11.419-22-24-22C32.68,2.5,38.5,13.245,38.5,26.5z"/>
		</g>
		<g>
			<path style="fill:#231F20;" d="M25.5,2.5c-12.426,0-22.771,9.898-24,22l2.178,2H12.5C12.5,13.245,18.32,2.5,25.5,2.5z"/>
		</g>
		<g>
			<path style="fill:#231F20;" d="M12.5,26.5h26c0-13.255-5.82-24-13-24S12.5,13.245,12.5,26.5z"/>
		</g>
	</g>
	<g>
		<g>
			<path style="fill:#C75C5C;" d="M38.5,24.5h11c0-13.255-10.745-24-24-24C32.68,0.5,38.5,11.245,38.5,24.5z"/>
		</g>
		<g>
			<path style="fill:#C75C5C;" d="M25.5,0.5c-13.255,0-24,10.745-24,24h11C12.5,11.245,18.32,0.5,25.5,0.5z"/>
		</g>
		<g>
			<path style="fill:#FFFFFF;" d="M12.5,24.5h26c0-13.255-5.82-24-13-24S12.5,11.245,12.5,24.5z"/>
		</g>
	</g>
	<g style="opacity:0.2;">
		<circle style="fill:#231F20;" cx="25.5" cy="46.5" r="4"/>
	</g>
	<g>
		<circle style="fill:#E0E0D1;" cx="25.5" cy="44.5" r="4"/>
	</g>
</g>
</svg>
