<?xml version="1.0" encoding="iso-8859-1"?>
<!-- Generator: Adobe Illustrator 16.0.0, SVG Export Plug-In . SVG Version: 6.00 Build 0)  -->
<!DOCTYPE svg PUBLIC "-//W3C//DTD SVG 1.1//EN" "http://www.w3.org/Graphics/SVG/1.1/DTD/svg11.dtd">
<svg version="1.1" id="Layer_1" xmlns="http://www.w3.org/2000/svg" xmlns:xlink="http://www.w3.org/1999/xlink" x="0px" y="0px"
	 width="50px" height="50px" viewBox="0 0 50 50" style="enable-background:new 0 0 50 50;" xml:space="preserve">
<g style="opacity:0.2;">
	<path style="fill:#231F20;" d="M30,5H20c-1.657,0-3,1.343-3,3v5v1v23l5.333,8L25,49l2.667-4L33,37V14v-1V8C33,6.343,31.657,5,30,5z
		"/>
</g>
<g>
	<path style="fill:#C75C5C;" d="M33,12c0,1.657-1.343,3-3,3H20c-1.657,0-3-1.343-3-3V6c0-1.657,1.343-3,3-3h10c1.657,0,3,1.343,3,3
		V12z"/>
</g>
<g>
	<rect x="17" y="11" style="fill:#E0995E;" width="4" height="24"/>
</g>
<g>
	<rect x="21" y="11" style="fill:#F5CF87;" width="8" height="26"/>
</g>
<g>
	<rect x="29" y="11" style="fill:#E0995E;" width="4" height="24"/>
</g>
<g>
	<g>
		<polygon style="fill:#4F5D73;" points="25,47 27.667,43 22.333,43 		"/>
	</g>
	<g>
		<polygon style="fill:#FFFFFF;" points="17,35 22.333,43 27.667,43 33,35 31,35 29,33 25,37 21,33 19,35 		"/>
	</g>
</g>
</svg>
