<?xml version="1.0" encoding="iso-8859-1"?>
<!-- Generator: Adobe Illustrator 16.0.0, SVG Export Plug-In . SVG Version: 6.00 Build 0)  -->
<!DOCTYPE svg PUBLIC "-//W3C//DTD SVG 1.1//EN" "http://www.w3.org/Graphics/SVG/1.1/DTD/svg11.dtd">
<svg version="1.1" id="Layer_1" xmlns="http://www.w3.org/2000/svg" xmlns:xlink="http://www.w3.org/1999/xlink" x="0px" y="0px"
	 width="50px" height="50px" viewBox="0 0 50 50" style="enable-background:new 0 0 50 50;" xml:space="preserve">
<g style="opacity:0.2;">
	<circle style="fill:#231F20;" cx="28.065" cy="12.042" r="5.042"/>
</g>
<g style="opacity:0.2;">
	<path style="fill:#231F20;" d="M11.502,46.951c-0.958,0-1.872-0.553-2.286-1.485c-0.561-1.262,0.008-2.739,1.27-3.3
		C21.142,37.43,20.583,32.03,20.572,31.978c-0.168-0.84,0.106-1.708,0.727-2.299c0.62-0.592,1.5-0.825,2.332-0.616
		c0.537,0.134,13.173,3.422,14.833,15.035c0.195,1.367-0.755,2.633-2.122,2.829c-1.366,0.192-2.633-0.754-2.829-2.122
		c-0.782-5.473-5.359-8.465-8.387-9.868c-0.964,3.254-3.933,7.942-12.61,11.799C12.186,46.882,11.841,46.951,11.502,46.951z"/>
</g>
<g style="opacity:0.2;">
	<path style="fill:#231F20;" d="M14.381,32.547c-1.381,0-2.5-1.119-2.5-2.5c0-7.372,7.02-10.49,10.731-11.108
		c0.868-0.147,1.744,0.176,2.313,0.844c0.209,0.241,5.341,6.039,11.456,2.982c1.236-0.619,2.737-0.117,3.354,1.118
		c0.618,1.235,0.117,2.737-1.118,3.354c-6.816,3.409-13.157-0.041-16.389-3.058c-1.896,0.597-5.348,2.188-5.348,5.869
		C16.881,31.428,15.762,32.547,14.381,32.547z"/>
</g>
<g style="opacity:0.2;">
	<path style="fill:#231F20;" d="M24.465,34.488c-1.191,0-2.317-0.714-2.787-1.887c-3.514-8.785,0.226-12.88,0.665-13.318
		l4.242,4.242c0,0,0.049-0.038,0.118-0.127c-0.015,0.019-1.453,1.978,0.546,6.975c0.615,1.539-0.133,3.284-1.671,3.9
		C25.213,34.419,24.836,34.488,24.465,34.488z"/>
</g>
<circle style="fill:#FFFFFF;" cx="28.065" cy="9.042" r="5.042"/>
<path style="fill:none;stroke:#FFFFFF;stroke-width:5;stroke-linecap:round;stroke-linejoin:round;stroke-miterlimit:10;" d="
	M11.5,41.451c12.964-5.762,11.523-12.963,11.523-12.963s11.523,2.88,12.964,12.963"/>
<path style="fill:none;stroke:#FFFFFF;stroke-width:5;stroke-linecap:round;stroke-linejoin:round;stroke-miterlimit:10;" d="
	M37.5,22c-8,4-14.477-3.596-14.477-3.596s-8.642,1.44-8.643,8.643"/>
<path style="fill:none;stroke:#FFFFFF;stroke-width:6;stroke-linecap:round;stroke-linejoin:round;stroke-miterlimit:10;" d="
	M24.464,18.404c0,0-2.881,2.881,0,10.083"/>
</svg>
