<?xml version="1.0" encoding="iso-8859-1"?>
<!-- Generator: Adobe Illustrator 16.0.0, SVG Export Plug-In . SVG Version: 6.00 Build 0)  -->
<!DOCTYPE svg PUBLIC "-//W3C//DTD SVG 1.1//EN" "http://www.w3.org/Graphics/SVG/1.1/DTD/svg11.dtd">
<svg version="1.1" id="Layer_1" xmlns="http://www.w3.org/2000/svg" xmlns:xlink="http://www.w3.org/1999/xlink" x="0px" y="0px"
	 width="50px" height="50px" viewBox="0 0 50 50" style="enable-background:new 0 0 50 50;" xml:space="preserve">
<g style="opacity:0.2;">
	<g>
		<path style="fill:#231F20;" d="M21.962,18.343c-0.416-4.794-5.418-7.146-5.629-7.242c-0.199-0.094-0.422-0.122-0.636-0.085
			c-5.773,0.958-6.642,4.318-6.677,4.458c-0.048,0.196-0.039,0.399,0.022,0.589c6.886,21.367,21.198,25.327,25.902,26.63
			c0.362,0.101,0.661,0.181,0.889,0.255C35.942,42.984,36.056,43,36.17,43c0.154,0,0.31-0.033,0.451-0.098
			c0.145-0.066,3.544-1.668,4.375-6.892c0.037-0.227,0-0.462-0.104-0.668c-0.074-0.144-1.853-3.528-6.784-4.724
			c-0.345-0.09-0.698,0.002-0.965,0.229c-1.556,1.328-3.705,2.745-4.632,2.891c-6.217-3.039-9.688-8.872-9.819-9.979
			c-0.076-0.622,1.349-2.806,2.987-4.582C21.886,18.954,21.99,18.648,21.962,18.343z"/>
	</g>
</g>
<g>
	<g>
		<path style="fill:#FFFFFF;" d="M21.962,16.343c-0.416-4.794-5.418-7.146-5.629-7.242c-0.199-0.094-0.422-0.122-0.636-0.085
			c-5.773,0.958-6.642,4.318-6.677,4.458c-0.048,0.196-0.039,0.399,0.022,0.589c6.886,21.367,21.198,25.327,25.902,26.63
			c0.362,0.101,0.661,0.181,0.889,0.255C35.942,40.984,36.056,41,36.17,41c0.154,0,0.31-0.033,0.451-0.098
			c0.145-0.066,3.544-1.668,4.375-6.892c0.037-0.227,0-0.462-0.104-0.668c-0.074-0.144-1.853-3.528-6.784-4.724
			c-0.345-0.09-0.698,0.002-0.965,0.229c-1.556,1.328-3.705,2.745-4.632,2.891c-6.217-3.039-9.688-8.872-9.819-9.979
			c-0.076-0.622,1.349-2.806,2.987-4.582C21.886,16.954,21.99,16.648,21.962,16.343z"/>
	</g>
</g>
</svg>
