<?xml version="1.0" encoding="iso-8859-1"?>
<!-- Generator: Adobe Illustrator 16.0.0, SVG Export Plug-In . SVG Version: 6.00 Build 0)  -->
<!DOCTYPE svg PUBLIC "-//W3C//DTD SVG 1.1//EN" "http://www.w3.org/Graphics/SVG/1.1/DTD/svg11.dtd">
<svg version="1.1" id="Layer_1" xmlns="http://www.w3.org/2000/svg" xmlns:xlink="http://www.w3.org/1999/xlink" x="0px" y="0px"
	 width="50px" height="50px" viewBox="0 0 50 50" style="enable-background:new 0 0 50 50;" xml:space="preserve">
<g style="opacity:0.2;">
	<g>
		<path style="fill:#231F20;" d="M48,24c0-11.046-8.954-20-20-20v20H48z"/>
	</g>
</g>
<g>
	<path style="fill:#4F5D73;" d="M48,22c0-11.046-8.954-20-20-20v20H48z"/>
</g>
<g style="opacity:0.2;">
	<g>
		<path style="fill:#231F20;" d="M24,6C11.85,6,2,15.85,2,28s9.85,22,22,22c5.692,0,10.88-2.162,14.786-5.71L24,28V6z"/>
	</g>
</g>
<g>
	<g>
		<path style="fill:#76C2AF;" d="M24,4C11.85,4,2,13.85,2,26s9.85,22,22,22c5.692,0,10.88-2.162,14.786-5.71L24,26V4z"/>
	</g>
</g>
<g style="opacity:0.2;">
	<g>
		<path style="fill:#231F20;" d="M46,26H24v2l14.786,16.29C43.218,40.266,46,32.458,46,26z"/>
	</g>
</g>
<g>
	<path style="fill:#C75C5C;" d="M46,26H24l14.786,16.29C43.218,38.266,46,32.458,46,26z"/>
</g>
</svg>
