<?xml version="1.0" encoding="iso-8859-1"?>
<!-- Generator: Adobe Illustrator 16.0.0, SVG Export Plug-In . SVG Version: 6.00 Build 0)  -->
<!DOCTYPE svg PUBLIC "-//W3C//DTD SVG 1.1//EN" "http://www.w3.org/Graphics/SVG/1.1/DTD/svg11.dtd">
<svg version="1.1" id="Layer_1" xmlns="http://www.w3.org/2000/svg" xmlns:xlink="http://www.w3.org/1999/xlink" x="0px" y="0px"
	 width="50px" height="50px" viewBox="0 0 50 50" style="enable-background:new 0 0 50 50;" xml:space="preserve">
<g style="opacity:0.2;">
	<path style="fill:#231F20;" d="M32.5,27.207V12.9C35.241,11.983,37,10.578,37,9c0-2.761-5.373-4-12-4S13,6.239,13,9
		c0,1.578,1.759,2.983,4.5,3.9v14.307c-2.741,0.917-4.5,2.322-4.5,3.9c0,2.477,4.327,4.527,10,4.925v7.075l2,4l2-4v-7.075
		c5.673-0.397,10-2.448,10-4.925C37,29.529,35.241,28.124,32.5,27.207z"/>
</g>
<g>
	<ellipse style="fill:#C75C5C;" cx="25" cy="29.107" rx="12" ry="5"/>
</g>
<g>
	<path style="fill:#C75C5C;" d="M37,7c0,2.762-5.373,5-12,5S13,9.762,13,7c0-2.761,5.373-4,12-4S37,4.239,37,7z"/>
</g>
<g>
	<rect x="18" y="10.054" style="fill:#C75C5C;" width="14" height="20"/>
</g>
<g>
	<polygon style="fill:#4F5D73;" points="23,41.107 25,45.107 27,41.107 27,31.107 23,31.107 	"/>
</g>
<g>
	<ellipse style="fill:#4F5D73;" cx="25" cy="31.295" rx="2" ry="1.438"/>
</g>
</svg>
