<?xml version="1.0" encoding="iso-8859-1"?>
<!-- Generator: Adobe Illustrator 16.0.0, SVG Export Plug-In . SVG Version: 6.00 Build 0)  -->
<!DOCTYPE svg PUBLIC "-//W3C//DTD SVG 1.1//EN" "http://www.w3.org/Graphics/SVG/1.1/DTD/svg11.dtd">
<svg version="1.1" id="Layer_1" xmlns="http://www.w3.org/2000/svg" xmlns:xlink="http://www.w3.org/1999/xlink" x="0px" y="0px"
	 width="50px" height="50px" viewBox="0 0 50 50" style="enable-background:new 0 0 50 50;" xml:space="preserve">
<path style="opacity:0.2;fill:#231F20;" d="M25,9c9.925,0,18,8.075,18,18s-8.075,18-18,18S7,36.925,7,27S15.075,9,25,9 M25,5
	C12.85,5,3,14.85,3,27s9.85,22,22,22s22-9.85,22-22S37.15,5,25,5L25,5z"/>
<g style="opacity:0.2;">
	<path style="fill:#231F20;" d="M21,37.619c-0.345,0-0.69-0.089-1-0.268c-0.619-0.357-1-1.018-1-1.732V18.381
		c0-0.714,0.381-1.375,1-1.732c0.619-0.357,1.381-0.357,2,0l12,8.619c0.619,0.357,1,1.018,1,1.732s-0.381,1.375-1,1.732l-12,8.619
		C21.69,37.529,21.345,37.619,21,37.619z"/>
</g>
<path style="fill:#E0E0D1;" d="M25,7c9.925,0,18,8.075,18,18s-8.075,18-18,18S7,34.925,7,25S15.075,7,25,7 M25,3
	C12.85,3,3,12.85,3,25s9.85,22,22,22s22-9.85,22-22S37.15,3,25,3L25,3z"/>
<g>
	<path style="fill:#F5CF87;" d="M21,35.619c-0.345,0-0.69-0.089-1-0.268c-0.619-0.357-1-1.018-1-1.732V16.381
		c0-0.714,0.381-1.375,1-1.732c0.619-0.357,1.381-0.357,2,0l12,8.619c0.619,0.357,1,1.018,1,1.732s-0.381,1.375-1,1.732l-12,8.619
		C21.69,35.529,21.345,35.619,21,35.619z"/>
</g>
</svg>
