<?xml version="1.0" encoding="iso-8859-1"?>
<!-- Generator: Adobe Illustrator 16.0.0, SVG Export Plug-In . SVG Version: 6.00 Build 0)  -->
<!DOCTYPE svg PUBLIC "-//W3C//DTD SVG 1.1//EN" "http://www.w3.org/Graphics/SVG/1.1/DTD/svg11.dtd">
<svg version="1.1" id="Layer_1" xmlns="http://www.w3.org/2000/svg" xmlns:xlink="http://www.w3.org/1999/xlink" x="0px" y="0px"
	 width="50px" height="50px" viewBox="0 0 50 50" style="enable-background:new 0 0 50 50;" xml:space="preserve">
<path style="opacity:0.2;fill:#231F20;" d="M11.414,43.414c-0.781,0.781-2.047,0.781-2.828,0l0,0c-0.781-0.781-0.781-2.047,0-2.828
	l9.899-9.899c0.781-0.781,2.047-0.781,2.828,0l0,0c0.781,0.781,0.781,2.047,0,2.828L11.414,43.414z"/>
<path style="opacity:0.2;fill:#231F20;" d="M24.142,19.372c-0.781,0.781-2.047,0.781-2.829,0l0,0c-0.781-0.781-0.781-2.047,0-2.828
	l9.9-9.9c0.781-0.781,2.047-0.781,2.828,0l0,0c0.781,0.781,0.781,2.047,0,2.829L24.142,19.372z"/>
<path style="opacity:0.2;fill:#231F20;" d="M35.456,30.686c-0.781,0.781-2.047,0.781-2.828,0l0,0c-0.781-0.781-0.781-2.047,0-2.829
	l9.899-9.899c0.781-0.781,2.047-0.781,2.829,0l0,0c0.781,0.781,0.781,2.047,0,2.828L35.456,30.686z"/>
<path style="fill:#4F5D73;" d="M11.414,41.414c-0.781,0.781-2.047,0.781-2.828,0l0,0c-0.781-0.781-0.781-2.047,0-2.828l9.899-9.899
	c0.781-0.781,2.047-0.781,2.828,0l0,0c0.781,0.781,0.781,2.047,0,2.828L11.414,41.414z"/>
<path style="fill:#E0E0D1;" d="M24.142,17.373c-0.781,0.781-2.047,0.781-2.829,0l0,0c-0.781-0.781-0.781-2.047,0-2.829l9.9-9.899
	c0.781-0.781,2.047-0.781,2.828,0l0,0c0.781,0.781,0.781,2.047,0,2.829L24.142,17.373z"/>
<path style="fill:#E0E0D1;" d="M35.456,28.687c-0.781,0.781-2.047,0.781-2.828,0l0,0c-0.781-0.781-0.781-2.048,0-2.829l9.899-9.899
	c0.781-0.781,2.047-0.781,2.829,0l0,0c0.781,0.781,0.781,2.047,0,2.828L35.456,28.687z"/>
<path style="opacity:0.2;fill:#231F20;" d="M20.875,12.348l-8.046,8.046c-4.296,4.296-4.296,11.261,0,15.557l2.828,2.828
	c4.296,4.296,11.261,4.296,15.557,0l8.046-8.046L20.875,12.348z"/>
<path style="fill:#4F5D73;" d="M20.875,10.741l-8.046,8.046c-4.296,4.296-4.296,11.261,0,15.557l2.828,2.828
	c4.296,4.296,11.261,4.296,15.557,0l8.046-8.046L20.875,10.741z"/>
<path style="opacity:0.2;fill:#231F20;" d="M41.113,33.415c-0.781,0.781-2.047,0.781-2.829,0L18.485,13.616
	c-0.781-0.781-0.781-2.047,0-2.829l0,0c0.781-0.781,2.047-0.781,2.828,0l19.799,19.799C41.894,31.367,41.894,32.634,41.113,33.415
	L41.113,33.415z"/>
<path style="fill:#4F5D73;" d="M41.113,31.515c-0.781,0.781-2.047,0.781-2.829,0L18.485,11.716c-0.781-0.781-0.781-2.047,0-2.829
	l0,0c0.781-0.781,2.047-0.781,2.828,0l19.799,19.799C41.894,29.467,41.894,30.734,41.113,31.515L41.113,31.515z"/>
</svg>
