<?xml version="1.0" encoding="iso-8859-1"?>
<!-- Generator: Adobe Illustrator 16.0.0, SVG Export Plug-In . SVG Version: 6.00 Build 0)  -->
<!DOCTYPE svg PUBLIC "-//W3C//DTD SVG 1.1//EN" "http://www.w3.org/Graphics/SVG/1.1/DTD/svg11.dtd">
<svg version="1.1" id="Layer_1" xmlns="http://www.w3.org/2000/svg" xmlns:xlink="http://www.w3.org/1999/xlink" x="0px" y="0px"
	 width="50px" height="50px" viewBox="0 0 50 50" style="enable-background:new 0 0 50 50;" xml:space="preserve">
<g style="opacity:0.2;">
	<path style="fill:#231F20;" d="M39,9H11c-1.104,0-2,0.896-2,2v32c0,1.104,0.896,2,2,2h28c1.104,0,2-0.896,2-2V11
		C41,9.896,40.104,9,39,9z M12,12h26v25H12V12z"/>
</g>
<g>
	<path style="fill:#FFFFFF;" d="M39,7H11C9.896,7,9,7.896,9,9v32c0,1.104,0.896,2,2,2h28c1.104,0,2-0.896,2-2V9
		C41,7.896,40.104,7,39,7z M12,10h26v25H12V10z"/>
</g>
<rect x="12" y="10" style="fill:#4F5D73;" width="26" height="25"/>
</svg>
