<?xml version="1.0" encoding="iso-8859-1"?>
<!-- Generator: Adobe Illustrator 16.0.0, SVG Export Plug-In . SVG Version: 6.00 Build 0)  -->
<!DOCTYPE svg PUBLIC "-//W3C//DTD SVG 1.1//EN" "http://www.w3.org/Graphics/SVG/1.1/DTD/svg11.dtd">
<svg version="1.1" id="Layer_1" xmlns="http://www.w3.org/2000/svg" xmlns:xlink="http://www.w3.org/1999/xlink" x="0px" y="0px"
	 width="50px" height="50px" viewBox="0 0 50 50" style="enable-background:new 0 0 50 50;" xml:space="preserve">
<g style="opacity:0.2;">
	<path style="fill:#231F20;" d="M45.236,15.024L20.931,10.7c-0.959-0.17-1.875,0.469-2.045,1.427l-4.942,27.778
		c-0.17,0.959,0.469,1.875,1.427,2.045l24.306,4.324c0.959,0.17,1.875-0.468,2.045-1.427l4.942-27.778
		C46.834,16.11,46.195,15.195,45.236,15.024z M21.335,13.459l22.569,4.015l-3.86,21.702l-22.57-4.015L21.335,13.459z"/>
</g>
<g>
	<path style="fill:#E0E0D1;" d="M45.545,13.288L21.239,8.964c-0.958-0.171-1.874,0.468-2.045,1.427l-4.941,27.778
		c-0.17,0.959,0.468,1.875,1.427,2.045l24.306,4.324c0.959,0.17,1.875-0.469,2.045-1.427l4.941-27.778
		C47.143,14.375,46.504,13.459,45.545,13.288z M21.645,11.723l22.569,4.015l-3.861,21.702l-22.569-4.015L21.645,11.723z"/>
</g>
<rect x="19.537" y="13.56" transform="matrix(0.9845 0.1752 -0.1752 0.9845 4.7846 -5.0495)" style="fill:#4F5D73;" width="22.924" height="22.042"/>
<g style="opacity:0.2;">
	<path style="fill:#231F20;" d="M30.637,7.967l-24.216,4.8c-0.956,0.189-1.576,1.118-1.387,2.073l5.486,27.676
		c0.189,0.955,1.117,1.576,2.072,1.387l24.216-4.801c0.955-0.189,1.576-1.117,1.387-2.072L32.709,9.354
		C32.52,8.399,31.592,7.778,30.637,7.967z M7.8,15.191l22.486-4.458l4.286,21.622l-22.486,4.458L7.8,15.191z"/>
</g>
<g>
	<path style="fill:#FFFFFF;" d="M29.064,6.034l-24.216,4.8c-0.955,0.189-1.576,1.117-1.387,2.073l5.486,27.675
		c0.189,0.956,1.117,1.576,2.072,1.387l24.216-4.8c0.955-0.189,1.576-1.117,1.387-2.073L31.137,7.421
		C30.947,6.465,30.02,5.845,29.064,6.034z M6.228,13.258L28.714,8.8L33,30.421l-22.486,4.458L6.228,13.258z"/>
</g>
<rect x="8.152" y="10.818" transform="matrix(0.9809 -0.1945 0.1945 0.9809 -3.8726 4.2312)" style="fill:#77B3D4;" width="22.924" height="22.042"/>
</svg>
