<?xml version="1.0" encoding="iso-8859-1"?>
<!-- Generator: Adobe Illustrator 16.0.0, SVG Export Plug-In . SVG Version: 6.00 Build 0)  -->
<!DOCTYPE svg PUBLIC "-//W3C//DTD SVG 1.1//EN" "http://www.w3.org/Graphics/SVG/1.1/DTD/svg11.dtd">
<svg version="1.1" id="Layer_1" xmlns="http://www.w3.org/2000/svg" xmlns:xlink="http://www.w3.org/1999/xlink" x="0px" y="0px"
	 width="50px" height="50px" viewBox="0 0 50 50" style="enable-background:new 0 0 50 50;" xml:space="preserve">
<g style="opacity:0.2;">
	<path style="fill:#231F20;" d="M25,45c-9.926,0-18-8.074-18-18c0-6.359,3.411-12.312,8.902-15.535
		c0.951-0.561,2.178-0.24,2.737,0.713c0.559,0.953,0.239,2.179-0.713,2.737C13.653,17.423,11,22.053,11,27c0,7.72,6.28,14,14,14
		s14-6.28,14-14c0-5.064-2.748-9.749-7.173-12.227c-0.964-0.539-1.308-1.758-0.769-2.722s1.758-1.308,2.723-0.769
		C39.468,14.467,43,20.489,43,27C43,36.926,34.926,45,25,45z"/>
</g>
<g style="opacity:0.2;">
	<path style="fill:#231F20;" d="M25,29c-1.104,0-2-0.896-2-2V7c0-1.104,0.896-2,2-2s2,0.896,2,2v20C27,28.104,26.104,29,25,29z"/>
</g>
<path style="fill:none;stroke:#FFFFFF;stroke-width:4;stroke-linecap:round;stroke-miterlimit:10;" d="M32.804,11.029
	C37.694,13.767,41,18.997,41,25c0,8.837-7.163,16-16,16S9,33.837,9,25c0-5.887,3.179-11.031,7.914-13.81"/>
<line style="fill:none;stroke:#FFFFFF;stroke-width:4;stroke-linecap:round;stroke-miterlimit:10;" x1="25" y1="25" x2="25" y2="5"/>
</svg>
