<?xml version="1.0" encoding="iso-8859-1"?>
<!-- Generator: Adobe Illustrator 16.0.0, SVG Export Plug-In . SVG Version: 6.00 Build 0)  -->
<!DOCTYPE svg PUBLIC "-//W3C//DTD SVG 1.1//EN" "http://www.w3.org/Graphics/SVG/1.1/DTD/svg11.dtd">
<svg version="1.1" id="Layer_1" xmlns="http://www.w3.org/2000/svg" xmlns:xlink="http://www.w3.org/1999/xlink" x="0px" y="0px"
	 width="50px" height="50px" viewBox="0 0 50 50" style="enable-background:new 0 0 50 50;" xml:space="preserve">
<g style="opacity:0.2;">
	<g>
		<path style="fill:#231F20;" d="M36.905,39.543c-3.821-1.66-5.217-4.242-5.643-6.469c2.752-2.215,4.943-5.756,6.148-9.572
			c1.239-1.58,1.96-3.226,1.96-4.62c0-0.955-0.347-1.646-0.955-2.158C38.213,8.618,32.474,2.11,25.377,2.01
			C25.322,2.009,25.268,2,25.212,2c-0.021,0-0.042,0.004-0.064,0.004c-7.052,0.039-12.783,6.41-13.125,14.408
			c-0.884,0.528-1.394,1.305-1.394,2.47c0,1.641,0.992,3.629,2.663,5.447c1.188,3.327,3.118,6.38,5.5,8.438
			c-0.354,2.292-1.699,5.038-5.697,6.775c-2.159,0.938-6.105,1.781-7.808,2.649c4.362,4.769,12.625,7.77,19.589,7.805l0.099,0.002
			C24.983,49.999,24.992,50,25,50c7.014,0,15.325-3.011,19.713-7.808C43.01,41.324,39.063,40.48,36.905,39.543z"/>
	</g>
</g>
<g>
	<g>
		<path style="fill:#FFFFFF;" d="M36.905,37.543c-3.821-1.66-5.217-4.242-5.643-6.469c2.752-2.215,4.943-5.756,6.148-9.572
			c1.239-1.58,1.96-3.226,1.96-4.62c0-0.955-0.347-1.646-0.955-2.158C38.213,6.618,32.474,0.11,25.377,0.01
			C25.322,0.009,25.268,0,25.212,0c-0.021,0-0.042,0.004-0.064,0.004c-7.052,0.039-12.783,6.41-13.125,14.408
			c-0.884,0.528-1.394,1.305-1.394,2.47c0,1.641,0.992,3.629,2.663,5.447c1.188,3.327,3.118,6.38,5.5,8.438
			c-0.354,2.292-1.699,5.038-5.697,6.775c-2.159,0.938-6.105,1.781-7.808,2.649c4.362,4.769,12.625,7.77,19.589,7.805l0.099,0.002
			C24.983,47.999,24.992,48,25,48c7.014,0,15.325-3.011,19.713-7.808C43.01,39.324,39.063,38.48,36.905,37.543z"/>
	</g>
</g>
</svg>
