<?xml version="1.0" encoding="iso-8859-1"?>
<!-- Generator: Adobe Illustrator 16.0.0, SVG Export Plug-In . SVG Version: 6.00 Build 0)  -->
<!DOCTYPE svg PUBLIC "-//W3C//DTD SVG 1.1//EN" "http://www.w3.org/Graphics/SVG/1.1/DTD/svg11.dtd">
<svg version="1.1" id="Layer_1" xmlns="http://www.w3.org/2000/svg" xmlns:xlink="http://www.w3.org/1999/xlink" x="0px" y="0px"
	 width="50px" height="50px" viewBox="0 0 50 50" style="enable-background:new 0 0 50 50;" xml:space="preserve">
<g style="opacity:0.2;">
	<g>
		<path style="fill:#231F20;" d="M38.97,25.748c-0.216,3.523-1.831,8.798-8.291,13.932c-0.311,0.244-0.673,0.364-1.036,0.364
			c-0.505,0-1.004-0.23-1.335-0.67c-0.572-0.756-0.439-1.841,0.3-2.425c5.261-4.179,6.701-8.272,6.955-11.081
			c-0.742,0.426-1.583,0.687-2.493,0.687c-2.838,0-5.135-2.352-5.135-5.254c0-2.901,2.297-5.254,5.135-5.254
			c0.642,0,1.231,0.165,1.792,0.388l-0.021-0.041c0,0,0.248,0.09,0.593,0.278c0.018,0.011,0.035,0.014,0.052,0.021
			c0.011,0.007,0.018,0.014,0.028,0.021c0.237,0.134,0.509,0.313,0.813,0.566c0.129,0.11,0.237,0.237,0.356,0.357
			C37.948,18.877,39.335,21.242,38.97,25.748z M16.165,26.555c-2.838,0-5.135-2.352-5.135-5.254c0-2.901,2.301-5.254,5.135-5.254
			c0.642,0,1.231,0.165,1.792,0.388l-0.018-0.041c0,0,0.248,0.09,0.593,0.278c0.018,0.011,0.035,0.014,0.052,0.021
			c0.011,0.007,0.018,0.014,0.028,0.021c0.237,0.134,0.509,0.313,0.812,0.566c0.129,0.11,0.237,0.237,0.356,0.357
			c1.266,1.24,2.656,3.605,2.287,8.114c-0.216,3.523-1.831,8.798-8.291,13.932c-0.31,0.244-0.673,0.364-1.035,0.364
			c-0.506,0-1.004-0.23-1.335-0.67c-0.572-0.755-0.439-1.84,0.3-2.424c5.261-4.18,6.701-8.272,6.956-11.082
			C17.915,26.29,17.075,26.555,16.165,26.555z"/>
	</g>
</g>
<g>
	<g>
		<path style="fill:#4F5D73;" d="M38.97,23.748c-0.216,3.523-1.831,8.798-8.291,13.932c-0.311,0.244-0.673,0.364-1.036,0.364
			c-0.505,0-1.004-0.23-1.335-0.67c-0.572-0.756-0.439-1.841,0.3-2.425c5.261-4.179,6.701-8.272,6.955-11.081
			c-0.742,0.426-1.583,0.687-2.493,0.687c-2.838,0-5.135-2.352-5.135-5.254c0-2.901,2.297-5.254,5.135-5.254
			c0.642,0,1.231,0.165,1.792,0.388l-0.021-0.041c0,0,0.248,0.09,0.593,0.278c0.018,0.011,0.035,0.014,0.052,0.021
			c0.011,0.007,0.018,0.014,0.028,0.021c0.237,0.134,0.509,0.313,0.813,0.566c0.129,0.11,0.237,0.237,0.356,0.357
			C37.948,16.877,39.335,19.242,38.97,23.748z M16.165,24.555c-2.838,0-5.135-2.352-5.135-5.254c0-2.901,2.301-5.254,5.135-5.254
			c0.642,0,1.231,0.165,1.792,0.388l-0.018-0.041c0,0,0.248,0.09,0.593,0.278c0.018,0.011,0.035,0.014,0.052,0.021
			c0.011,0.007,0.018,0.014,0.028,0.021c0.237,0.134,0.509,0.313,0.812,0.566c0.129,0.11,0.237,0.237,0.356,0.357
			c1.266,1.24,2.656,3.605,2.287,8.114c-0.216,3.523-1.831,8.798-8.291,13.932c-0.31,0.244-0.673,0.364-1.035,0.364
			c-0.506,0-1.004-0.23-1.335-0.67c-0.572-0.755-0.439-1.84,0.3-2.424c5.261-4.18,6.701-8.272,6.956-11.082
			C17.915,24.29,17.075,24.555,16.165,24.555z"/>
	</g>
</g>
</svg>
