<?xml version="1.0" encoding="iso-8859-1"?>
<!-- Generator: Adobe Illustrator 16.0.0, SVG Export Plug-In . SVG Version: 6.00 Build 0)  -->
<!DOCTYPE svg PUBLIC "-//W3C//DTD SVG 1.1//EN" "http://www.w3.org/Graphics/SVG/1.1/DTD/svg11.dtd">
<svg version="1.1" id="Layer_1" xmlns="http://www.w3.org/2000/svg" xmlns:xlink="http://www.w3.org/1999/xlink" x="0px" y="0px"
	 width="50px" height="50px" viewBox="0 0 50 50" style="enable-background:new 0 0 50 50;" xml:space="preserve">
<g style="opacity:0.2;">
	<path style="fill:#231F20;" d="M43,20c-0.084,0-0.17-0.011-0.256-0.034l-34-9c-0.534-0.142-0.852-0.689-0.711-1.223
		s0.684-0.852,1.223-0.711l34,9c0.534,0.142,0.852,0.689,0.711,1.223C43.848,19.704,43.443,20,43,20z"/>
</g>
<line style="fill:none;stroke:#E0E0D1;stroke-width:2;stroke-linecap:round;stroke-miterlimit:10;" x1="43" y1="17" x2="9" y2="8"/>
<path style="opacity:0.2;fill:#231F20;" d="M45,40c0,1.104-0.896,2-2,2H7c-1.104,0-2-0.896-2-2V20c0-1.104,0.896-2,2-2h36
	c1.104,0,2,0.896,2,2V40z"/>
<path style="fill:#F5CF87;" d="M45,38c0,1.104-0.896,2-2,2H7c-1.104,0-2-0.896-2-2V18c0-1.104,0.896-2,2-2h36c1.104,0,2,0.896,2,2
	V38z"/>
<g>
	<circle style="fill:#4F5D73;" cx="17" cy="28" r="8"/>
</g>
<g style="opacity:0.2;">
	<g>
		<path style="fill:#231F20;" d="M17,22c4.079,0,7.438,3.055,7.931,7C24.972,28.672,25,28.339,25,28c0-4.418-3.582-8-8-8
			s-8,3.582-8,8c0,0.339,0.028,0.672,0.069,1C9.563,25.055,12.921,22,17,22z"/>
	</g>
</g>
<circle style="opacity:0.2;fill:#231F20;" cx="29.5" cy="35.5" r="1.5"/>
<circle style="opacity:0.2;fill:#231F20;" cx="34.5" cy="35.5" r="1.5"/>
<circle style="opacity:0.2;fill:#231F20;" cx="39.5" cy="35.5" r="1.5"/>
<circle style="fill:#4F5D73;" cx="29.5" cy="34.5" r="1.5"/>
<circle style="fill:#4F5D73;" cx="34.5" cy="34.5" r="1.5"/>
<circle style="fill:#4F5D73;" cx="39.5" cy="34.5" r="1.5"/>
<path style="fill:#FFFFFF;" d="M41,28c0,1.104-0.896,2-2,2h-9c-1.104,0-2-0.896-2-2v-5c0-1.104,0.896-2,2-2h9c1.104,0,2,0.896,2,2
	V28z"/>
<g style="opacity:0.2;">
	<path style="fill:#231F20;" d="M39,21h-9c-1.104,0-2,0.896-2,2v2c0-1.104,0.896-2,2-2h9c1.104,0,2,0.896,2,2v-2
		C41,21.896,40.104,21,39,21z"/>
</g>
</svg>
