<?xml version="1.0" encoding="iso-8859-1"?>
<!-- Generator: Adobe Illustrator 16.0.0, SVG Export Plug-In . SVG Version: 6.00 Build 0)  -->
<!DOCTYPE svg PUBLIC "-//W3C//DTD SVG 1.1//EN" "http://www.w3.org/Graphics/SVG/1.1/DTD/svg11.dtd">
<svg version="1.1" id="Layer_1" xmlns="http://www.w3.org/2000/svg" xmlns:xlink="http://www.w3.org/1999/xlink" x="0px" y="0px"
	 width="50px" height="50px" viewBox="0 0 50 50" style="enable-background:new 0 0 50 50;" xml:space="preserve">
<g style="opacity:0.2;">
	<g>
		<path style="fill:#231F20;" d="M3,27.475c-0.004,3.739,0.94,7.529,2.945,11.001C7.949,41.947,10.76,44.66,14,46.527l11-19.053H3z"
			/>
	</g>
	<g>
		<path style="fill:#231F20;" d="M36.001,46.529C43.054,42.458,46.993,35.071,47,27.475H25L36.001,46.529z"/>
	</g>
	<g>
		<path style="fill:#231F20;" d="M36,8.422C29.417,4.63,21.051,4.348,13.999,8.42L25,27.475L36,8.422z"/>
	</g>
</g>
<g>
	<g>
		<path style="fill:#F5CF87;" d="M3,25.475c-0.004,3.739,0.94,7.529,2.945,11.001C7.949,39.947,10.76,42.66,14,44.527l11-19.053H3z"
			/>
	</g>
	<g>
		<path style="fill:#F5CF87;" d="M36.001,44.529C43.054,40.458,46.993,33.071,47,25.475H25L36.001,44.529z"/>
	</g>
	<g>
		<path style="fill:#F5CF87;" d="M36,6.422C29.417,2.63,21.051,2.348,13.999,6.42L25,25.475L36,6.422z"/>
	</g>
</g>
</svg>
