<?xml version="1.0" encoding="iso-8859-1"?>
<!-- Generator: Adobe Illustrator 16.0.0, SVG Export Plug-In . SVG Version: 6.00 Build 0)  -->
<!DOCTYPE svg PUBLIC "-//W3C//DTD SVG 1.1//EN" "http://www.w3.org/Graphics/SVG/1.1/DTD/svg11.dtd">
<svg version="1.1" id="Layer_1" xmlns="http://www.w3.org/2000/svg" xmlns:xlink="http://www.w3.org/1999/xlink" x="0px" y="0px"
	 width="50px" height="50px" viewBox="0 0 50 50" style="enable-background:new 0 0 50 50;" xml:space="preserve">
<g style="opacity:0.2;">
	<circle style="fill:#231F20;" cx="25" cy="17" r="2.293"/>
	<path style="fill:#231F20;" d="M28.889,23.01c0.292,0.293,0.677,0.439,1.061,0.439s0.768-0.146,1.061-0.439
		c1.605-1.605,2.49-3.74,2.49-6.01c0-2.27-0.884-4.405-2.49-6.01c-0.586-0.586-1.535-0.586-2.121,0
		c-0.586,0.585-0.586,1.536,0,2.121C29.928,14.15,30.5,15.531,30.5,17c0,1.469-0.572,2.85-1.611,3.889
		C28.303,21.475,28.303,22.424,28.889,23.01z"/>
	<path style="fill:#231F20;" d="M36.722,17c0,2.538-0.988,4.923-2.782,6.718c-0.586,0.585-0.586,1.536,0,2.121
		c0.293,0.293,0.677,0.439,1.061,0.439s0.768-0.146,1.061-0.439c2.361-2.361,3.661-5.5,3.661-8.839s-1.3-6.478-3.661-8.838
		c-0.586-0.586-1.536-0.586-2.121,0c-0.586,0.586-0.586,1.536,0,2.121C35.734,12.077,36.722,14.462,36.722,17z"/>
	<path style="fill:#231F20;" d="M18.99,23.01c0.293,0.293,0.677,0.439,1.061,0.439s0.768-0.146,1.061-0.439
		c0.586-0.586,0.586-1.536,0-2.121C20.072,19.85,19.5,18.469,19.5,17c0-1.469,0.572-2.85,1.611-3.889
		c0.586-0.585,0.586-1.536,0-2.121c-0.586-0.586-1.535-0.586-2.121,0c-1.605,1.605-2.49,3.74-2.49,6.01
		C16.5,19.271,17.384,21.405,18.99,23.01z"/>
	<path style="fill:#231F20;" d="M15,26.278c0.384,0,0.768-0.146,1.061-0.439c0.586-0.585,0.586-1.536,0-2.121
		c-1.794-1.794-2.782-4.18-2.782-6.718s0.988-4.923,2.782-6.717c0.586-0.585,0.586-1.535,0-2.121s-1.535-0.586-2.121,0
		c-2.361,2.361-3.661,5.5-3.661,8.838s1.3,6.478,3.661,8.839C14.232,26.132,14.616,26.278,15,26.278z"/>
	<path style="fill:#231F20;" d="M26.388,22.995c-0.23-0.564-0.779-0.932-1.388-0.932s-1.158,0.368-1.388,0.932l-10,24.437
		c-0.314,0.767,0.053,1.643,0.82,1.957c0.766,0.313,1.642-0.054,1.956-0.82l3.51-8.578C19.933,39.992,19.965,40,20,40h10
		c0.035,0,0.067-0.008,0.102-0.01l3.51,8.578C33.85,49.148,34.41,49.5,35,49.5c0.189,0,0.382-0.035,0.567-0.111
		c0.767-0.314,1.134-1.19,0.82-1.957L26.388,22.995z M25,27.523L26.423,31h-2.846L25,27.523z M21.122,37l1.228-3h5.301l1.228,3
		H21.122z"/>
</g>
<circle style="fill:#4F5D73;" cx="25" cy="15" r="2.293"/>
<path style="fill:none;stroke:#4F5D73;stroke-width:3;stroke-linecap:round;stroke-miterlimit:10;" d="M29.95,10.05
	c2.734,2.733,2.734,7.166,0,9.899"/>
<path style="fill:none;stroke:#4F5D73;stroke-width:3;stroke-linecap:round;stroke-miterlimit:10;" d="M35,7.222
	c4.296,4.296,4.296,11.261,0,15.557"/>
<path style="fill:none;stroke:#4F5D73;stroke-width:3;stroke-linecap:round;stroke-miterlimit:10;" d="M20.05,10.05
	c-2.734,2.733-2.734,7.166,0,9.899"/>
<path style="fill:none;stroke:#4F5D73;stroke-width:3;stroke-linecap:round;stroke-miterlimit:10;" d="M15,7.222
	c-4.296,4.296-4.296,11.261,0,15.557"/>
<path style="fill:none;stroke:#4F5D73;stroke-width:2;stroke-linecap:round;stroke-miterlimit:10;" d="M25,22"/>
<path style="fill:none;stroke:#4F5D73;stroke-width:3;stroke-linecap:round;stroke-miterlimit:10;" d="M25,15"/>
<polyline style="fill:none;stroke:#4F5D73;stroke-width:3;stroke-linecap:round;stroke-linejoin:round;stroke-miterlimit:10;" points="
	15,46 25,21.563 35,46 "/>
<line style="fill:none;stroke:#4F5D73;stroke-width:3;stroke-linecap:round;stroke-miterlimit:10;" x1="22" y1="30.5" x2="28" y2="30.5"/>
<line style="fill:none;stroke:#4F5D73;stroke-width:3;stroke-linecap:round;stroke-miterlimit:10;" x1="20" y1="36.5" x2="30" y2="36.5"/>
</svg>
