<?xml version="1.0" encoding="iso-8859-1"?>
<!-- Generator: Adobe Illustrator 16.0.0, SVG Export Plug-In . SVG Version: 6.00 Build 0)  -->
<!DOCTYPE svg PUBLIC "-//W3C//DTD SVG 1.1//EN" "http://www.w3.org/Graphics/SVG/1.1/DTD/svg11.dtd">
<svg version="1.1" id="Layer_1" xmlns="http://www.w3.org/2000/svg" xmlns:xlink="http://www.w3.org/1999/xlink" x="0px" y="0px"
	 width="50px" height="50px" viewBox="0 0 50 50" style="enable-background:new 0 0 50 50;" xml:space="preserve">
<g style="opacity:0.2;">
	<path style="fill:#231F20;" d="M25,3C11.745,3,1,13.745,1,27c0,5.301,1.722,10.197,4.632,14.169
		c0.243,0.268,2.551,2.647,5.226-0.026l2.829-2.829l2.828-2.828l2.829-2.828c0,0,1.657-1.637,1.657-5.657c0-2.209,1.791-4,4-4
		s4,1.791,4,4c0,0-0.259,3.741,1.657,5.657l2.134,2.134c0.225,0.225,0.458,0.457,0.694,0.694c0.696,0.695,1.431,1.431,2.133,2.133
		l0.695,0.695l1.772,1.772c0.323,0.322,0.587,0.587,0.77,0.771l0.286,0.286c0,0,2.794,2.77,5.23,0.02C47.28,37.192,49,32.298,49,27
		C49,13.745,38.255,3,25,3z"/>
</g>
<g>
	<g>
		<path style="fill:#C75C5C;" d="M10.858,39.143C7.239,35.522,5,30.522,5,25C5,13.954,13.954,5,25,5s20,8.954,20,20
			c0,5.522-2.239,10.522-5.858,14.143c0,0,2.794,2.77,5.23,0.02C47.28,35.192,49,30.298,49,25C49,11.745,38.255,1,25,1
			S1,11.745,1,25c0,5.301,1.722,10.197,4.632,14.169C5.875,39.437,8.183,41.816,10.858,39.143z"/>
	</g>
	<g>
		<path style="fill:#E0995E;" d="M25,5C13.954,5,5,13.954,5,25c0,5.522,2.239,10.522,5.858,14.143l2.829-2.829
			C10.791,33.418,9,29.418,9,25c0-8.837,7.164-16,16-16s16,7.163,16,16c0,4.418-1.791,8.418-4.687,11.313l1.772,1.772
			c0.323,0.322,0.587,0.587,0.77,0.771l0.286,0.286C42.761,35.522,45,30.522,45,25C45,13.954,36.046,5,25,5z"/>
	</g>
	<g>
		<path style="fill:#F5CF87;" d="M25,9C16.164,9,9,16.163,9,25c0,4.418,1.791,8.418,4.687,11.313l2.828-2.828
			C14.343,31.313,13,28.313,13,25c0-6.627,5.373-12,12-12s12,5.373,12,12c0,3.313-1.343,6.313-3.515,8.485
			c0.696,0.695,1.431,1.431,2.133,2.133l0.695,0.695C39.209,33.418,41,29.418,41,25C41,16.163,33.836,9,25,9z"/>
	</g>
	<g>
		<path style="fill:#76C2AF;" d="M25,13c-6.627,0-12,5.373-12,12c0,3.313,1.343,6.313,3.515,8.485l2.829-2.828
			C17.896,29.209,17,27.209,17,25c0-4.418,3.582-8,8-8s8,3.582,8,8c0,2.209-0.896,4.209-2.343,5.657l2.134,2.134
			c0.225,0.225,0.458,0.457,0.694,0.694C35.657,31.313,37,28.313,37,25C37,18.373,31.627,13,25,13z"/>
	</g>
	<g>
		<path style="fill:#4F5D73;" d="M25,17c-4.418,0-8,3.582-8,8c0,2.209,0.896,4.209,2.343,5.657c0,0,1.657-1.637,1.657-5.657
			c0-2.209,1.791-4,4-4s4,1.791,4,4c0,0-0.259,3.741,1.657,5.657C32.104,29.209,33,27.209,33,25C33,20.582,29.418,17,25,17z"/>
	</g>
</g>
</svg>
