<?xml version="1.0" encoding="iso-8859-1"?>
<!-- Generator: Adobe Illustrator 16.0.0, SVG Export Plug-In . SVG Version: 6.00 Build 0)  -->
<!DOCTYPE svg PUBLIC "-//W3C//DTD SVG 1.1//EN" "http://www.w3.org/Graphics/SVG/1.1/DTD/svg11.dtd">
<svg version="1.1" id="Layer_1" xmlns="http://www.w3.org/2000/svg" xmlns:xlink="http://www.w3.org/1999/xlink" x="0px" y="0px"
	 width="50px" height="50px" viewBox="0 0 50 50" style="enable-background:new 0 0 50 50;" xml:space="preserve">
<g>
	<g style="opacity:0.2;">
		<path style="fill:#231F20;" d="M17.35,34h-2.304l2.229-3.861c0.828-1.433,0.338-3.265-1.093-4.094l-0.011-0.007l-6.04-3.485
			l-0.035-0.021c-1.432-0.813-3.254-0.322-4.079,1.106v0.001L2.59,29.573c-0.825,1.429-0.825,3.768,0,5.196l5.562,9.633
			c0.417,0.723,1.144,1.378,1.972,1.85c0.031,0.019,0.064,0.031,0.097,0.049l0,0C11.003,46.73,11.868,47,12.651,47h6.85l4.002-6.833
			L19.504,34H17.35z"/>
	</g>
	<g style="opacity:0.2;">
		<path style="fill:#231F20;" d="M47.409,29.573l-3.425-5.98h-7.918l-3.342,6.546l1.078,1.866h-0.001L34.954,34h-4.458
			c-1.655,0-2.996,1.34-3,2.994v0.012l0.002,6.974v0.041C27.509,45.668,28.846,47,30.495,47h0.001h6.853
			c1.649,0,3.675-1.169,4.5-2.598l5.561-9.633c0.418-0.723,0.622-1.68,0.617-2.633C48.021,31.207,47.817,30.279,47.409,29.573z"/>
	</g>
	<g style="opacity:0.2;">
		<path style="fill:#231F20;" d="M31.317,21.719l0.011-0.006l6.038-3.488l0.036-0.021c1.42-0.833,1.905-2.657,1.081-4.086
			l-0.001-0.001l-3.426-5.934c-0.825-1.429-2.85-2.598-4.5-2.598H19.435c-0.835,0-1.766,0.301-2.589,0.781
			c-0.031,0.019-0.059,0.041-0.09,0.06l0,0c-0.764,0.464-1.43,1.078-1.821,1.757l-3.468,5.957l3.96,6.857h7.34l2.229-4.24
			l0.001-0.001l0,0l0,0l2.229,3.861C28.053,22.051,29.883,22.543,31.317,21.719z"/>
	</g>
</g>
<g>
	<g>
		<g>
			<path style="fill:#4F5D73;" d="M15.046,32l-4.999,8.658c0,0-0.766,1.29-0.692,2.377c0.032,0.495,0.238,0.947,0.769,1.217
				C10.931,44.713,11.836,45,12.651,45h6.85l4.002-6.833L19.504,32H15.046z"/>
		</g>
	</g>
	<g>
		<path style="fill:#76C2AF;" d="M9.354,43.035c-0.073-1.087,0.692-2.377,0.692-2.377L15.046,32l2.229-3.861
			c0.828-1.433,0.338-3.265-1.093-4.094l-0.011-0.007l-6.04-3.485l-0.035-0.021c-1.432-0.813-3.254-0.322-4.079,1.106v0.001
			L2.59,27.573c-0.825,1.429-0.825,3.768,0,5.196l5.562,9.633c0.417,0.723,1.144,1.378,1.972,1.85
			C9.593,43.982,9.387,43.53,9.354,43.035z"/>
	</g>
	<g style="opacity:0.2;">
		<path style="fill:#231F20;" d="M15.046,32l-4.999,8.658c0,0-0.766,1.29-0.692,2.377c0.032,0.495,0.238,0.947,0.769,1.217
			c0.031,0.019,0.064,0.031,0.097,0.049L17.35,32H15.046z"/>
	</g>
</g>
<g>
	<g>
		<g>
			<path style="fill:#4F5D73;" d="M34.954,32h9.997c0,0,1.5,0.018,2.405-0.589c0.412-0.276,0.701-0.681,0.67-1.274
				c-0.005-0.93-0.21-1.857-0.617-2.563l-3.425-5.98h-7.918l-3.342,6.546L34.954,32z"/>
		</g>
	</g>
	<g>
		<path style="fill:#76C2AF;" d="M47.356,31.411C46.451,32.018,44.951,32,44.951,32h-9.997h-4.458c-1.655,0-2.996,1.34-3,2.994
			v0.012l0.002,6.974v0.041C27.509,43.667,28.846,45,30.495,45h0.001h6.853c1.649,0,3.675-1.169,4.5-2.598l5.561-9.633
			c0.418-0.723,0.622-1.68,0.617-2.633C48.058,30.73,47.769,31.135,47.356,31.411z"/>
	</g>
	<g style="opacity:0.2;">
		<path style="fill:#231F20;" d="M34.954,32h9.997c0,0,1.5,0.018,2.405-0.589c0.412-0.276,0.701-0.681,0.67-1.274
			c0-0.036-0.006-0.071-0.007-0.107l-14.218-0.024L34.954,32z"/>
	</g>
</g>
<g>
	<g>
		<g>
			<path style="fill:#4F5D73;" d="M24.996,14.757L19.997,6.1c0,0-0.735-1.309-1.713-1.789c-0.444-0.219-0.939-0.267-1.438,0.057
				c-0.803,0.47-1.504,1.11-1.911,1.816l-3.467,5.957l3.959,6.857h7.34L24.996,14.757z"/>
		</g>
	</g>
	<g>
		<path style="fill:#76C2AF;" d="M18.284,4.311c0.978,0.48,1.713,1.789,1.713,1.789l4.999,8.657l2.229,3.861
			c0.828,1.433,2.658,1.925,4.093,1.101l0.011-0.006l6.038-3.488l0.035-0.021c1.421-0.833,1.906-2.657,1.082-4.086h-0.001
			l-3.426-5.935c-0.825-1.429-2.85-2.598-4.5-2.598H19.435c-0.835,0-1.766,0.301-2.589,0.781C17.345,4.044,17.84,4.092,18.284,4.311
			z"/>
	</g>
	<g style="opacity:0.2;">
		<path style="fill:#231F20;" d="M24.996,14.757L19.997,6.1c0,0-0.734-1.309-1.713-1.789c-0.444-0.219-0.939-0.267-1.438,0.057
			c-0.031,0.019-0.059,0.041-0.09,0.06l7.088,12.325L24.996,14.757z"/>
	</g>
</g>
</svg>
