<?xml version="1.0" encoding="iso-8859-1"?>
<!-- Generator: Adobe Illustrator 16.0.0, SVG Export Plug-In . SVG Version: 6.00 Build 0)  -->
<!DOCTYPE svg PUBLIC "-//W3C//DTD SVG 1.1//EN" "http://www.w3.org/Graphics/SVG/1.1/DTD/svg11.dtd">
<svg version="1.1" id="Layer_1" xmlns="http://www.w3.org/2000/svg" xmlns:xlink="http://www.w3.org/1999/xlink" x="0px" y="0px"
	 width="50px" height="50px" viewBox="0 0 50 50" style="enable-background:new 0 0 50 50;" xml:space="preserve">
<g style="opacity:0.2;">
	<path style="fill:#231F20;" d="M26.989,24.206l-2.605,1.563c1.504,1.783,2.394,4.078,2.394,6.561c0,5.608-4.563,10.17-10.17,10.17
		S6.438,37.938,6.438,32.33c0-3.078,1.372-5.957,3.764-7.899c0.643-0.522,0.741-1.467,0.219-2.11
		c-0.522-0.642-1.468-0.741-2.11-0.219c-3.097,2.515-4.872,6.243-4.872,10.228c0,7.262,5.907,13.17,13.169,13.17
		s13.17-5.908,13.17-13.17C29.777,29.288,28.75,26.458,26.989,24.206z"/>
</g>
<path style="fill:none;stroke:#76C2AF;stroke-width:3;stroke-linecap:round;stroke-miterlimit:10;" d="M19.316,18.231
	c5.139,1.222,8.961,5.841,8.961,11.354c0,6.445-5.225,11.67-11.67,11.67s-11.67-5.225-11.67-11.67c0-3.658,1.684-6.924,4.318-9.063"
	/>
<g style="opacity:0.2;">
	<path style="fill:#231F20;" d="M24.994,31.33c-7.262,0-13.169-5.908-13.169-13.169S17.732,4.99,24.994,4.99
		c6.142,0,11.553,4.348,12.865,10.339c0.177,0.81-0.335,1.609-1.145,1.787c-0.811,0.176-1.608-0.335-1.786-1.144
		c-1.014-4.625-5.191-7.981-9.935-7.981c-5.607,0-10.169,4.562-10.169,10.17c0,5.607,4.562,10.169,10.169,10.169
		c2.953,0,5.756-1.281,7.691-3.516c0.543-0.627,1.49-0.694,2.116-0.152s0.694,1.49,0.151,2.116
		C32.448,29.67,28.818,31.33,24.994,31.33z"/>
</g>
<path style="fill:none;stroke:#C75C5C;stroke-width:3;stroke-linecap:round;stroke-miterlimit:10;" d="M33.819,23.051
	c-2.14,2.471-5.3,4.034-8.824,4.034c-6.445,0-11.67-5.225-11.67-11.669c0-6.445,5.225-11.67,11.67-11.67
	c5.583,0,10.251,3.921,11.398,9.16"/>
<path style="opacity:0.2;fill:#231F20;" d="M20.16,32.33c0,1.229,0.17,2.446,0.504,3.617c0.227,0.796,1.055,1.255,1.854,1.031
	c0.796-0.227,1.258-1.057,1.03-1.854c-0.258-0.903-0.389-1.843-0.389-2.794c0-2.525,0.932-4.834,2.461-6.614l-2.406-1.805
	C21.31,26.195,20.16,29.13,20.16,32.33z"/>
<g style="opacity:0.2;">
	<path style="fill:#231F20;" d="M33.33,19.161c-4.062,0-7.698,1.851-10.115,4.75l2.406,1.805c1.867-2.172,4.627-3.555,7.709-3.555
		c5.608,0,10.17,4.562,10.17,10.169c0,5.608-4.562,10.17-10.17,10.17c-1.391,0-2.739-0.276-4.007-0.819
		c-0.759-0.328-1.643,0.024-1.97,0.787c-0.326,0.761,0.026,1.643,0.787,1.97c1.644,0.705,3.389,1.063,5.189,1.063
		c7.262,0,13.17-5.908,13.17-13.17S40.592,19.161,33.33,19.161z"/>
</g>
<g>
	<path style="fill:#77B3D4;" d="M23.16,29.585c0-1.417-0.728-3.298-0.16-4.585c-0.926-0.374-0.804-0.283-1.712-0.698
		c-0.728,1.66-1.128,3.459-1.128,5.283c0,1.229,0.17,2.446,0.504,3.617c0.188,0.659,0.788,1.089,1.441,1.089
		c0.137,0,0.275-0.019,0.413-0.058c0.796-0.228,1.258-1.058,1.03-1.854C23.291,31.476,23.16,30.536,23.16,29.585z"/>
</g>
<path style="fill:none;stroke:#77B3D4;stroke-width:3;stroke-linecap:round;stroke-miterlimit:10;" d="M22.106,32.79
	c-0.29-1.018-0.446-2.093-0.446-3.205c0-6.445,5.226-11.669,11.67-11.669c6.445,0,11.67,5.225,11.67,11.669
	c0,6.445-5.225,11.67-11.67,11.67c-1.633,0-3.187-0.335-4.598-0.941"/>
<path style="opacity:0.2;fill:#231F20;" d="M24.185,25.55c0.184-0.003,0.366-0.006,0.55,0c0.004,0,0.007,0.002,0.011,0.003
	l2.244-1.347c-1.785-2.285-4.327-3.976-7.325-4.689c-0.806-0.193-1.615,0.306-1.807,1.112s0.307,1.615,1.112,1.807
	C21.054,22.931,22.841,24.047,24.185,25.55z"/>
<g>
	<path style="fill:#76C2AF;" d="M18.97,19.691c3.183,0.757,5.699,2.941,6.947,5.783c0.374-0.355,0.761-0.715,1.26-0.881
		c0.479-0.16,0.972-0.27,1.461-0.393c-1.626-3.651-4.873-6.453-8.974-7.428c-0.806-0.193-1.615,0.306-1.807,1.112
		S18.164,19.499,18.97,19.691z"/>
</g>
</svg>
