<?xml version="1.0" encoding="iso-8859-1"?>
<!-- Generator: Adobe Illustrator 16.0.0, SVG Export Plug-In . SVG Version: 6.00 Build 0)  -->
<!DOCTYPE svg PUBLIC "-//W3C//DTD SVG 1.1//EN" "http://www.w3.org/Graphics/SVG/1.1/DTD/svg11.dtd">
<svg version="1.1" id="Layer_1" xmlns="http://www.w3.org/2000/svg" xmlns:xlink="http://www.w3.org/1999/xlink" x="0px" y="0px"
	 width="51px" height="51px" viewBox="0 0 51 51" style="enable-background:new 0 0 51 51;" xml:space="preserve">
<path style="opacity:0.2;fill:#231F20;" d="M19.5,46.234c0,1.398-1.119,2.531-2.5,2.531l0,0c-1.381,0-2.5-1.133-2.5-2.531V12.766
	c0-1.398,1.119-2.531,2.5-2.531l0,0c1.381,0,2.5,1.133,2.5,2.531V46.234z"/>
<path style="opacity:0.2;fill:#231F20;" d="M36.5,46.234c0,1.398-1.119,2.531-2.5,2.531l0,0c-1.381,0-2.5-1.133-2.5-2.531V12.766
	c0-1.398,1.119-2.531,2.5-2.531l0,0c1.381,0,2.5,1.133,2.5,2.531V46.234z"/>
<path style="fill:#E0E0D1;" d="M19.5,44.5c0,1.398-1.119,2.531-2.5,2.531l0,0c-1.381,0-2.5-1.133-2.5-2.531V11.031
	C14.5,9.633,15.619,7.5,17,7.5l0,0c1.381,0,2.5,2.133,2.5,3.531V44.5z"/>
<path style="fill:#E0E0D1;" d="M36.5,44.5c0,1.398-1.119,2.531-2.5,2.531l0,0c-1.381,0-2.5-1.133-2.5-2.531V11.031
	C31.5,9.633,32.619,7.5,34,7.5l0,0c1.381,0,2.5,2.133,2.5,3.531V44.5z"/>
<path style="fill:#E0995E;" d="M31.5,36.531c0,3.297-2.687,5.969-6,5.969l0,0c-3.313,0-6-2.672-6-5.969V9.5c0-3.296,2.687-9,6-9l0,0
	c3.313,0,6,5.704,6,9V36.531z"/>
<path style="opacity:0.2;fill:#231F20;" d="M28.063,44.5c0,1.104-0.896,2-2,2H14.5c-1.104,0-3-0.896-3-2v-3c0-1.104,1.823-2.215,3-3
	c6-4,6-12,6-12c1.104,0,7.563,4.896,7.563,6V44.5z"/>
<path style="opacity:0.2;fill:#231F20;" d="M22.938,44.5c0,1.104,0.896,2,2,2H36.5c1.104,0,3-0.896,3-2v-3c0-1.104-1.823-2.215-3-3
	c-6-4-6-12-6-12c-1.104,0-7.563,4.896-7.563,6V44.5z"/>
<path style="opacity:0.2;fill:#231F20;" d="M30.5,47.969c0,1.397-2.238,2.531-5,2.531l0,0c-2.762,0-5-1.133-5-2.531V17.5
	c0-1.398,2.238-7,5-7l0,0c2.762,0,5,5.602,5,7V47.969z"/>
<path style="opacity:0.2;fill:#231F20;" d="M28.063,40.5c0,1.104-0.896,2-2,2H14.5c-1.104,0-3-0.896-3-2v-3c0-1.104,1.823-2.215,3-3
	c6-4,6-12,6-12c1.104,0,7.563,4.896,7.563,6V40.5z"/>
<path style="opacity:0.2;fill:#231F20;" d="M22.938,40.5c0,1.104,0.896,2,2,2H36.5c1.104,0,3-0.896,3-2v-3c0-1.104-1.823-2.215-3-3
	c-6-4-6-12-6-12c-1.104,0-7.563,4.896-7.563,6V40.5z"/>
<g style="opacity:0.2;">
	<path style="fill:#231F20;" d="M19.5,44.5V11.031c0-0.825-0.396-2.069-1-2.531v38.013C19.104,46.051,19.5,45.325,19.5,44.5z"/>
	<path style="fill:#231F20;" d="M31.5,11.031V44.5c0,0.825,0.396,1.551,1,2.013V8.5C31.896,8.962,31.5,10.206,31.5,11.031z"/>
</g>
<path style="fill:#E0E0D1;" d="M28.063,42.5c0,1.104-0.896,2-2,2H14.5c-1.104,0-3-0.896-3-2v-3c0-1.104,1.823-2.215,3-3
	c6-4,6-12,6-12c1.104,0,7.563,4.896,7.563,6V42.5z"/>
<path style="fill:#E0E0D1;" d="M22.938,42.5c0,1.104,0.896,2,2,2H36.5c1.104,0,3-0.896,3-2v-3c0-1.104-1.823-2.215-3-3
	c-6-4-6-12-6-12c-1.104,0-7.563,4.896-7.563,6V42.5z"/>
<path style="fill:#FFFFFF;" d="M30.5,45.969c0,1.397-2.238,2.531-5,2.531l0,0c-2.762,0-5-1.133-5-2.531V15.5c0-1.398,2.238-7,5-7
	l0,0c2.762,0,5,5.602,5,7V45.969z"/>
</svg>
