<?xml version="1.0" encoding="iso-8859-1"?>
<!-- Generator: Adobe Illustrator 16.0.0, SVG Export Plug-In . SVG Version: 6.00 Build 0)  -->
<!DOCTYPE svg PUBLIC "-//W3C//DTD SVG 1.1//EN" "http://www.w3.org/Graphics/SVG/1.1/DTD/svg11.dtd">
<svg version="1.1" id="Layer_1" xmlns="http://www.w3.org/2000/svg" xmlns:xlink="http://www.w3.org/1999/xlink" x="0px" y="0px"
	 width="50px" height="50px" viewBox="0 0 50 50" style="enable-background:new 0 0 50 50;" xml:space="preserve">
<g style="opacity:0.2;">
	<path style="fill:#231F20;" d="M25.096,32.683c-1.556,1.556-6.087,12.54-6.087,12.54c-0.664,1.208,0.331,2.085,2.594,0.937
		l8.132-4.436c4.38-2.435,5.228-3.07,5.17-8.028l-0.815-5.853c-0.279-2.005-1.78-2.373-3.336-0.817L25.096,32.683z"/>
</g>
<g style="opacity:0.2;">
	<path style="fill:#231F20;" d="M20.072,27.658c-1.556,1.556-12.541,6.087-12.541,6.087c-1.208,0.664-2.085-0.33-0.937-2.593
		l4.436-8.132c2.435-4.381,3.071-5.229,8.028-5.171l5.854,0.815c2.005,0.279,2.372,1.78,0.816,3.336L20.072,27.658z"/>
</g>
<g>
	<path style="fill:#C75C5C;" d="M25.096,30.683c-1.556,1.556-6.087,12.54-6.087,12.54c-0.664,1.208,0.331,2.085,2.594,0.937
		l8.132-4.436c4.38-2.435,5.228-3.07,5.17-8.028l-0.815-5.853c-0.279-2.005-1.78-2.373-3.336-0.817L25.096,30.683z"/>
</g>
<g>
	<path style="fill:#C75C5C;" d="M20.072,25.658c-1.556,1.556-12.541,6.087-12.541,6.087c-1.208,0.664-2.085-0.33-0.937-2.593
		l4.436-8.132c2.435-4.381,3.071-5.229,8.028-5.171l5.854,0.815c2.005,0.279,2.372,1.78,0.816,3.336L20.072,25.658z"/>
</g>
<g style="opacity:0.2;">
	<path style="fill:#231F20;" d="M14.246,32.545c5.074-5.074,9.338-3.525,9.338-3.525s1.548,4.263-3.525,9.337
		c-5.075,5.074-13.292,8.76-13.932,8.119C5.507,45.855,9.172,37.619,14.246,32.545z"/>
</g>
<g>
	<path style="fill:#E0995E;" d="M14.246,30.545c5.074-5.074,9.338-3.525,9.338-3.525s1.548,4.263-3.525,9.337
		c-5.075,5.074-13.292,8.76-13.932,8.119C5.507,43.855,9.172,35.619,14.246,30.545z"/>
</g>
<g>
	<path style="fill:#F5CF87;" d="M18.489,26.302c5.074-5.074,9.337-3.525,9.337-3.525s1.549,4.263-3.525,9.337
		s-13.291,8.76-13.932,8.12C9.749,39.612,13.415,31.376,18.489,26.302z"/>
</g>
<g style="opacity:0.2;">
	<path style="fill:#231F20;" d="M36.634,30.078c-7.811,7.811-19.782,5.673-19.782,5.673s-2.138-11.972,5.673-19.782
		s19.644-8.642,21.197-7.088C45.229,10.388,44.444,22.268,36.634,30.078z"/>
</g>
<g>
	<path style="fill:#E0E0D1;" d="M36.634,28.078c-7.811,7.811-19.782,5.673-19.782,5.673s-2.138-11.972,5.673-19.782
		s19.644-8.642,21.197-7.088C45.229,8.388,44.444,20.268,36.634,28.078z"/>
</g>
<g style="opacity:0.2;">
	<path style="fill:#231F20;" d="M14.023,39.994c-0.781,0.781-1.341,1.488-2.122,0.707l0,0c-0.78-0.781-0.073-1.34,0.707-2.121
		l9.899-12.729c0.781-0.781,4.169-1.488,4.95-0.707l0,0c0.781,0.781,0.074,4.169-0.707,4.95L14.023,39.994z"/>
</g>
<g>
	<path style="fill:#C75C5C;" d="M14.023,37.994c-0.781,0.781-1.341,1.488-2.122,0.707l0,0c-0.78-0.781-0.073-1.34,0.707-2.121
		l9.899-12.729c0.781-0.781,4.169-1.488,4.95-0.707l0,0c0.781,0.781,0.074,4.169-0.707,4.95L14.023,37.994z"/>
</g>
<g style="opacity:0.2;">
	<circle style="fill:#231F20;" cx="32.604" cy="20.15" r="4"/>
</g>
<g style="opacity:0.2;">
	<circle style="fill:#231F20;" cx="38.261" cy="14.493" r="2"/>
</g>
<g>
	<circle style="fill:#4F5D73;" cx="32.604" cy="18.15" r="4"/>
</g>
<g>
	<circle style="fill:#4F5D73;" cx="38.261" cy="12.493" r="2"/>
</g>
</svg>
