<?xml version="1.0" encoding="iso-8859-1"?>
<!-- Generator: Adobe Illustrator 16.0.0, SVG Export Plug-In . SVG Version: 6.00 Build 0)  -->
<!DOCTYPE svg PUBLIC "-//W3C//DTD SVG 1.1//EN" "http://www.w3.org/Graphics/SVG/1.1/DTD/svg11.dtd">
<svg version="1.1" id="Layer_1" xmlns="http://www.w3.org/2000/svg" xmlns:xlink="http://www.w3.org/1999/xlink" x="0px" y="0px"
	 width="50px" height="50px" viewBox="0 0 50 50" style="enable-background:new 0 0 50 50;" xml:space="preserve">
<g style="opacity:0.2;">
	<path style="fill:#231F20;" d="M43,41H11c-2.209,0-4-1.791-4-4V13c0-1.515,0.856-2.9,2.211-3.577
		C10.566,8.744,12.188,8.891,13.4,9.8l32,24c1.377,1.033,1.939,2.832,1.395,4.466C46.25,39.898,44.722,41,43,41z M15,33h16L15,21V33
		z"/>
</g>
<g>
	<path style="fill:#F5CF87;" d="M43,39H11c-2.209,0-4-1.791-4-4V11c0-1.515,0.856-2.9,2.211-3.577
		C10.566,6.744,12.188,6.891,13.4,7.8l32,24c1.377,1.033,1.939,2.832,1.395,4.466C46.25,37.898,44.722,39,43,39z M15,31h16L15,19V31
		z"/>
</g>
<g>
	<path style="fill:#E0995E;" d="M14,34c-0.552,0-1,0.448-1,1v4h2v-4C15,34.448,14.552,34,14,34z"/>
	<path style="fill:#E0995E;" d="M19,36c-0.552,0-1,0.448-1,1v2h2v-2C20,36.448,19.552,36,19,36z"/>
	<path style="fill:#E0995E;" d="M24,34c-0.552,0-1,0.448-1,1v4h2v-4C25,34.448,24.552,34,24,34z"/>
	<path style="fill:#E0995E;" d="M29,36c-0.552,0-1,0.448-1,1v2h2v-2C30,36.448,29.552,36,29,36z"/>
	<path style="fill:#E0995E;" d="M34,34c-0.552,0-1,0.448-1,1v4h2v-4C35,34.448,34.552,34,34,34z"/>
	<path style="fill:#E0995E;" d="M40,37c0-0.552-0.448-1-1-1s-1,0.448-1,1v2h2V37z"/>
</g>
</svg>
