<?xml version="1.0" encoding="iso-8859-1"?>
<!-- Generator: Adobe Illustrator 16.0.0, SVG Export Plug-In . SVG Version: 6.00 Build 0)  -->
<!DOCTYPE svg PUBLIC "-//W3C//DTD SVG 1.1//EN" "http://www.w3.org/Graphics/SVG/1.1/DTD/svg11.dtd">
<svg version="1.1" id="Layer_1" xmlns="http://www.w3.org/2000/svg" xmlns:xlink="http://www.w3.org/1999/xlink" x="0px" y="0px"
	 width="50px" height="50px" viewBox="0 0 50 50" style="enable-background:new 0 0 50 50;" xml:space="preserve">
<g style="opacity:0.2;">
	<g>
		<path style="fill:#231F20;" d="M37,31c-6.188,0-8.187-2.868-8.187-2.868L9,7c0,19.063,19.524,24.06,19.524,30.259
			c0,1.896,0.477,3.467,1.035,4.667C30.729,44.896,33.615,47,37,47c4.418,0,8-3.582,8-8S41.418,31,37,31z M37,43
			c-2.206,0-4-1.795-4-4c0-2.206,1.794-4,4-4s4,1.794,4,4C41,41.205,39.206,43,37,43z"/>
	</g>
</g>
<g>
	<g>
		<path style="fill:#E0E0D1;" d="M37,29c-6.188,0-8.187-2.868-8.187-2.868L9,5c0,19.063,19.524,24.06,19.524,30.259
			c0,1.896,0.477,3.467,1.035,4.667C30.729,42.896,33.615,45,37,45c4.418,0,8-3.582,8-8S41.418,29,37,29z M37,41
			c-2.206,0-4-1.795-4-4c0-2.206,1.794-4,4-4s4,1.794,4,4C41,39.205,39.206,41,37,41z"/>
	</g>
</g>
<g style="opacity:0.2;">
	<path style="fill:#231F20;" d="M21.187,28.132c0,0-1.999,2.868-8.187,2.868c-4.418,0-8,3.582-8,8s3.582,8,8,8
		c3.385,0,6.271-2.104,7.44-5.074c0.559-1.2,1.035-2.771,1.035-4.667C21.476,31.06,41,26.063,41,7L21.187,28.132z M13,43
		c-2.206,0-4-1.795-4-4c0-2.206,1.794-4,4-4s4,1.794,4,4C17,41.205,15.206,43,13,43z"/>
</g>
<g>
	<path style="fill:#E0E0D1;" d="M21.187,26.132c0,0-1.999,2.868-8.187,2.868c-4.418,0-8,3.582-8,8s3.582,8,8,8
		c3.385,0,6.271-2.104,7.44-5.074c0.559-1.2,1.035-2.771,1.035-4.667C21.476,29.06,41,24.063,41,5L21.187,26.132z M13,41
		c-2.206,0-4-1.795-4-4c0-2.206,1.794-4,4-4s4,1.794,4,4C17,39.205,15.206,41,13,41z"/>
</g>
<g>
	<circle style="fill:#4F5D73;" cx="25" cy="26" r="1.5"/>
</g>
</svg>
