<?xml version="1.0" encoding="iso-8859-1"?>
<!-- Generator: Adobe Illustrator 16.0.0, SVG Export Plug-In . SVG Version: 6.00 Build 0)  -->
<!DOCTYPE svg PUBLIC "-//W3C//DTD SVG 1.1//EN" "http://www.w3.org/Graphics/SVG/1.1/DTD/svg11.dtd">
<svg version="1.1" id="Layer_1" xmlns="http://www.w3.org/2000/svg" xmlns:xlink="http://www.w3.org/1999/xlink" x="0px" y="0px"
	 width="50px" height="50px" viewBox="0 0 50 50" style="enable-background:new 0 0 50 50;" xml:space="preserve">
<g style="opacity:0.2;">
	<path style="fill:#231F20;" d="M37,45c0,1.104-0.896,2-2,2H15c-1.104,0-2-0.896-2-2l0,0c0-1.104,0.896-2,2-2h20
		C36.104,43,37,43.896,37,45L37,45z"/>
</g>
<g>
	<path style="fill:#FFFFFF;" d="M37,43c0,1.104-0.896,2-2,2H15c-1.104,0-2-0.896-2-2l0,0c0-1.104,0.896-2,2-2h20
		C36.104,41,37,41.896,37,43L37,43z"/>
</g>
<g>
	<path style="fill:#E0E0D1;" d="M30,35c0,0-1,6,3,6c0,0-20,0-16,0s3-6,3-6H30z"/>
</g>
<g style="opacity:0.2;">
	<g>
		<path style="fill:#231F20;" d="M45,33c0,2.209-1.791,4-4,4H9c-2.209,0-4-1.791-4-4V11c0-2.209,1.791-4,4-4h32c2.209,0,4,1.791,4,4
			V33z"/>
	</g>
</g>
<g>
	<g>
		<path style="fill:#4F5D73;" d="M9,33.5c-1.379,0-2.5-1.121-2.5-2.5V9c0-1.379,1.121-2.5,2.5-2.5h32c1.379,0,2.5,1.121,2.5,2.5v22
			c0,1.379-1.121,2.5-2.5,2.5H9z"/>
	</g>
	<g>
		<path style="fill:#FFFFFF;" d="M41,8c0.552,0,1,0.448,1,1v22c0,0.552-0.448,1-1,1H9c-0.552,0-1-0.448-1-1V9c0-0.552,0.448-1,1-1
			H41 M41,5H9C6.791,5,5,6.791,5,9v22c0,2.209,1.791,4,4,4h32c2.209,0,4-1.791,4-4V9C45,6.791,43.209,5,41,5L41,5z"/>
	</g>
</g>
<g style="opacity:0.2;">
	<polygon style="fill:#FFFFFF;" points="43.001,32.879 43.001,6.88 19.25,6.88 34.202,32.879 	"/>
</g>
</svg>
