<?xml version="1.0" encoding="iso-8859-1"?>
<!-- Generator: Adobe Illustrator 16.0.0, SVG Export Plug-In . SVG Version: 6.00 Build 0)  -->
<!DOCTYPE svg PUBLIC "-//W3C//DTD SVG 1.1//EN" "http://www.w3.org/Graphics/SVG/1.1/DTD/svg11.dtd">
<svg version="1.1" id="Layer_1" xmlns="http://www.w3.org/2000/svg" xmlns:xlink="http://www.w3.org/1999/xlink" x="0px" y="0px"
	 width="50px" height="50px" viewBox="0 0 50 50" style="enable-background:new 0 0 50 50;" xml:space="preserve">
<g style="opacity:0.2;">
	<g>
		<path style="fill:#231F20;" d="M41,45.5c-0.64,0-1.28-0.244-1.768-0.732l-12-12c-0.977-0.977-0.977-2.559,0-3.535
			c0.976-0.977,2.56-0.977,3.535,0l12,12c0.977,0.977,0.977,2.559,0,3.535C42.28,45.256,41.64,45.5,41,45.5z"/>
	</g>
</g>
<g>
	<path style="fill:#4F5D73;" d="M41,43.5c-0.64,0-1.28-0.244-1.768-0.732l-12-12c-0.977-0.977-0.977-2.559,0-3.535
		c0.976-0.977,2.56-0.977,3.535,0l12,12c0.977,0.977,0.977,2.559,0,3.535C42.28,43.256,41.64,43.5,41,43.5z"/>
</g>
<g>
	<circle style="fill:#77B3D4;" cx="21.386" cy="21.386" r="10.567"/>
</g>
<g style="opacity:0.2;">
	<g>
		<path style="fill:#231F20;" d="M21.386,12.819c2.704,0,5.408,1.031,7.472,3.095c4.127,4.127,4.127,10.817,0,14.944
			c-2.063,2.063-4.768,3.095-7.472,3.095c-2.705,0-5.409-1.032-7.472-3.095c-4.127-4.127-4.127-10.817,0-14.944
			C15.978,13.851,18.682,12.819,21.386,12.819z M21.386,8.819c-3.891,0-7.549,1.515-10.301,4.267c-5.68,5.68-5.68,14.921,0,20.601
			c2.751,2.751,6.41,4.267,10.301,4.267c3.891,0,7.549-1.516,10.3-4.267c5.68-5.68,5.68-14.921,0-20.601
			C28.935,10.334,25.277,8.819,21.386,8.819L21.386,8.819z"/>
	</g>
</g>
<g>
	<path style="fill:#FFFFFF;" d="M21.386,10.819c2.704,0,5.408,1.031,7.472,3.095c4.127,4.127,4.127,10.817,0,14.944
		c-2.063,2.063-4.768,3.095-7.472,3.095c-2.705,0-5.409-1.032-7.472-3.095c-4.127-4.127-4.127-10.817,0-14.944
		C15.978,11.851,18.682,10.819,21.386,10.819 M21.386,6.819c-3.891,0-7.549,1.515-10.301,4.267c-5.68,5.68-5.68,14.921,0,20.601
		c2.751,2.751,6.41,4.267,10.301,4.267c3.891,0,7.549-1.516,10.3-4.267c5.68-5.68,5.68-14.921,0-20.601
		C28.935,8.334,25.277,6.819,21.386,6.819L21.386,6.819z"/>
</g>
</svg>
