<?xml version="1.0" encoding="iso-8859-1"?>
<!-- Generator: Adobe Illustrator 16.0.0, SVG Export Plug-In . SVG Version: 6.00 Build 0)  -->
<!DOCTYPE svg PUBLIC "-//W3C//DTD SVG 1.1//EN" "http://www.w3.org/Graphics/SVG/1.1/DTD/svg11.dtd">
<svg version="1.1" id="Layer_1" xmlns="http://www.w3.org/2000/svg" xmlns:xlink="http://www.w3.org/1999/xlink" x="0px" y="0px"
	 width="50px" height="50px" viewBox="0 0 50 50" style="enable-background:new 0 0 50 50;" xml:space="preserve">
<g style="opacity:0.2;">
	<path style="fill:#231F20;" d="M25,49C12.869,49,3,39.131,3,27c0-2.563,0.438-5.076,1.3-7.466c0.375-1.039,1.522-1.579,2.56-1.203
		c1.039,0.375,1.578,1.521,1.203,2.56C7.357,22.846,7,24.9,7,27c0,9.925,8.075,18,18,18s18-8.075,18-18
		c0-8.04-5.399-15.167-13.13-17.334c-1.064-0.298-1.684-1.402-1.386-2.465c0.298-1.064,1.404-1.688,2.465-1.386
		C40.399,8.463,47,17.175,47,27C47,39.131,37.131,49,25,49z"/>
</g>
<circle style="opacity:0.2;fill:#231F20;" cx="21" cy="8" r="4"/>
<path style="opacity:0.2;fill:#231F20;" d="M27.829,24.171C24.996,21.338,9.19,9.209,9.19,9.209C8.648,8.87,7.947,8.949,7.499,9.404
	c-0.452,0.452-0.531,1.161-0.194,1.692c0,0,12.972,16.837,14.867,18.733c1.562,1.562,4.095,1.562,5.657,0
	C29.391,28.266,29.391,25.733,27.829,24.171z"/>
<g>
	<path style="fill:#4F5D73;" d="M25,47C12.869,47,3,37.131,3,25c0-2.563,0.438-5.076,1.3-7.466c0.375-1.039,1.522-1.579,2.56-1.203
		c1.039,0.375,1.578,1.521,1.203,2.56C7.357,20.846,7,22.9,7,25c0,9.925,8.075,18,18,18s18-8.075,18-18
		c0-8.04-5.399-15.167-13.13-17.334c-1.064-0.298-1.684-1.402-1.386-2.465c0.298-1.064,1.404-1.688,2.465-1.386
		C40.399,6.463,47,15.175,47,25C47,37.131,37.131,47,25,47z"/>
</g>
<circle style="fill:#4F5D73;" cx="21" cy="6" r="4"/>
<path style="fill:#4F5D73;" d="M27.829,22.171C24.996,19.338,9.19,7.209,9.19,7.209C8.648,6.87,7.947,6.949,7.499,7.404
	C7.046,7.855,6.967,8.564,7.304,9.096c0,0,12.972,16.837,14.867,18.733c1.562,1.562,4.095,1.562,5.657,0
	C29.391,26.266,29.391,23.733,27.829,22.171z"/>
</svg>
