<?xml version="1.0" encoding="iso-8859-1"?>
<!-- Generator: Adobe Illustrator 16.0.0, SVG Export Plug-In . SVG Version: 6.00 Build 0)  -->
<!DOCTYPE svg PUBLIC "-//W3C//DTD SVG 1.1//EN" "http://www.w3.org/Graphics/SVG/1.1/DTD/svg11.dtd">
<svg version="1.1" id="Layer_1" xmlns="http://www.w3.org/2000/svg" xmlns:xlink="http://www.w3.org/1999/xlink" x="0px" y="0px"
	 width="50px" height="50px" viewBox="0 0 50 50" style="enable-background:new 0 0 50 50;" xml:space="preserve">
<g style="opacity:0.2;">
	<path style="fill:#231F20;" d="M37,47c0,1.657-1.343,3-3,3H16c-1.657,0-3-1.343-3-3V7c0-1.657,1.343-3,3-3h18c1.657,0,3,1.343,3,3
		V47z"/>
</g>
<g>
	<path style="fill:#4F5D73;" d="M37,45c0,1.657-1.343,3-3,3H16c-1.657,0-3-1.343-3-3V5c0-1.657,1.343-3,3-3h18c1.657,0,3,1.343,3,3
		V45z"/>
</g>
<g style="opacity:0.2;">
	<circle style="fill:#231F20;" cx="25" cy="27" r="5"/>
</g>
<g style="opacity:0.2;">
	<circle style="fill:#231F20;" cx="25" cy="14" r="5"/>
</g>
<g style="opacity:0.2;">
	<circle style="fill:#231F20;" cx="25" cy="40" r="5"/>
</g>
<g>
	<circle style="fill:#F5CF87;" cx="25" cy="25" r="5"/>
</g>
<g>
	<circle style="fill:#C75C5C;" cx="25" cy="12" r="5"/>
</g>
<g>
	<circle style="fill:#76C2AF;" cx="25" cy="38" r="5"/>
</g>
</svg>
