<?xml version="1.0" encoding="iso-8859-1"?>
<!-- Generator: Adobe Illustrator 16.0.0, SVG Export Plug-In . SVG Version: 6.00 Build 0)  -->
<!DOCTYPE svg PUBLIC "-//W3C//DTD SVG 1.1//EN" "http://www.w3.org/Graphics/SVG/1.1/DTD/svg11.dtd">
<svg version="1.1" id="Layer_1" xmlns="http://www.w3.org/2000/svg" xmlns:xlink="http://www.w3.org/1999/xlink" x="0px" y="0px"
	 width="50px" height="50px" viewBox="0 0 50 50" style="enable-background:new 0 0 50 50;" xml:space="preserve">
<g style="opacity:0.2;">
	<g>
		<path style="fill:#231F20;" d="M20.5,26c0,2.485,2.015,4.5,4.5,4.5s4.5-2.015,4.5-4.5s-2.015-4.5-4.5-4.5S20.5,23.515,20.5,26z"/>
	</g>
</g>
<g style="opacity:0.2;">
	<path style="fill:#231F20;" d="M46.947,24.573c-0.048-0.548-0.512-1.146-1.029-1.331l-4.128-1.469
		c-0.518-0.185-1.09-0.761-1.27-1.28l-0.653-1.58c-0.237-0.496-0.239-1.309-0.003-1.805l1.875-3.944
		c0.235-0.497,0.129-1.238-0.238-1.647l-2.018-2.018c-0.409-0.367-1.15-0.474-1.647-0.238l-3.944,1.875
		c-0.496,0.236-1.309,0.234-1.805-0.003l-1.58-0.652c-0.52-0.181-1.096-0.753-1.28-1.271l-1.469-4.128
		c-0.185-0.518-0.783-0.981-1.331-1.029C26.427,4.053,25.819,4,25,4s-1.427,0.053-1.427,0.053c-0.548,0.048-1.146,0.512-1.331,1.029
		L20.773,9.21c-0.185,0.518-0.761,1.09-1.28,1.271l-1.578,0.652c-0.495,0.237-1.308,0.239-1.805,0.003l-3.946-1.875
		c-0.496-0.236-1.238-0.129-1.647,0.238l-2.018,2.018c-0.367,0.409-0.474,1.15-0.238,1.647l1.875,3.944
		c0.236,0.496,0.234,1.309-0.003,1.805l-0.652,1.58c-0.181,0.52-0.753,1.096-1.271,1.28l-4.128,1.469
		c-0.518,0.185-0.981,0.783-1.029,1.331C3.053,24.573,3,25.181,3,26s0.053,1.427,0.053,1.427c0.048,0.548,0.512,1.146,1.029,1.331
		l4.13,1.47c0.519,0.184,1.09,0.76,1.271,1.279l0.652,1.58c0.238,0.496,0.24,1.309,0.004,1.805l-1.875,3.944
		c-0.236,0.497-0.129,1.238,0.238,1.648l2.018,2.017c0.409,0.367,1.15,0.474,1.647,0.238l3.943-1.875
		c0.497-0.236,1.31-0.234,1.805,0.003l1.581,0.652c0.52,0.181,1.095,0.753,1.279,1.271l1.47,4.13
		c0.185,0.519,0.783,0.981,1.331,1.028c0,0,0.604,0.052,1.424,0.052s1.427-0.053,1.427-0.053c0.548-0.049,1.146-0.512,1.331-1.029
		l1.47-4.13c0.184-0.519,0.76-1.09,1.279-1.271l1.58-0.652c0.496-0.238,1.309-0.24,1.805-0.004l3.944,1.875
		c0.497,0.236,1.238,0.129,1.648-0.238l2.017-2.018c0.367-0.409,0.474-1.15,0.238-1.647l-1.875-3.943
		c-0.236-0.497-0.234-1.31,0.003-1.805l0.652-1.581c0.181-0.52,0.753-1.096,1.271-1.279l4.13-1.47
		c0.519-0.185,0.981-0.783,1.028-1.331c0,0,0.052-0.604,0.052-1.424S46.947,24.573,46.947,24.573z M25,36c-5.522,0-10-4.478-10-10
		s4.478-10,10-10s10,4.478,10,10S30.522,36,25,36z"/>
</g>
<g>
	<g>
		<path style="fill:#4F5D73;" d="M20.5,24c0,2.485,2.015,4.5,4.5,4.5s4.5-2.015,4.5-4.5s-2.015-4.5-4.5-4.5S20.5,21.515,20.5,24z"/>
	</g>
</g>
<g>
	<path style="fill:#FFFFFF;" d="M46.947,22.573c-0.048-0.548-0.512-1.146-1.029-1.331l-4.128-1.469
		c-0.518-0.185-1.09-0.761-1.27-1.28l-0.653-1.58c-0.237-0.496-0.239-1.309-0.003-1.805l1.875-3.944
		c0.235-0.497,0.129-1.238-0.238-1.647l-2.018-2.018c-0.409-0.367-1.15-0.474-1.647-0.238l-3.944,1.875
		c-0.496,0.236-1.309,0.234-1.805-0.003l-1.58-0.652c-0.52-0.181-1.096-0.753-1.28-1.271l-1.469-4.128
		c-0.185-0.518-0.783-0.981-1.331-1.029C26.427,2.053,25.819,2,25,2s-1.427,0.053-1.427,0.053c-0.548,0.048-1.146,0.512-1.331,1.029
		L20.773,7.21c-0.185,0.518-0.761,1.09-1.28,1.271l-1.578,0.652C17.42,9.37,16.607,9.372,16.11,9.136l-3.946-1.875
		c-0.496-0.236-1.238-0.129-1.647,0.238L8.499,9.517c-0.367,0.409-0.474,1.15-0.238,1.647l1.875,3.944
		c0.236,0.496,0.234,1.309-0.003,1.805l-0.652,1.58c-0.181,0.52-0.753,1.096-1.271,1.28l-4.128,1.469
		c-0.518,0.185-0.981,0.783-1.029,1.331C3.053,22.573,3,23.181,3,24s0.053,1.427,0.053,1.427c0.048,0.548,0.512,1.146,1.029,1.331
		l4.13,1.47c0.519,0.184,1.09,0.76,1.271,1.279l0.652,1.58c0.238,0.496,0.24,1.309,0.004,1.805l-1.875,3.944
		c-0.236,0.497-0.129,1.238,0.238,1.648l2.018,2.017c0.409,0.367,1.15,0.474,1.647,0.238l3.943-1.875
		c0.497-0.236,1.31-0.234,1.805,0.003l1.581,0.652c0.52,0.181,1.095,0.753,1.279,1.271l1.47,4.13
		c0.185,0.519,0.783,0.981,1.331,1.028c0,0,0.604,0.052,1.424,0.052s1.427-0.053,1.427-0.053c0.548-0.049,1.146-0.512,1.331-1.029
		l1.47-4.13c0.184-0.519,0.76-1.09,1.279-1.271l1.58-0.652c0.496-0.238,1.309-0.24,1.805-0.004l3.944,1.875
		c0.497,0.236,1.238,0.129,1.648-0.238l2.017-2.018c0.367-0.409,0.474-1.15,0.238-1.647l-1.875-3.943
		c-0.236-0.497-0.234-1.31,0.003-1.805l0.652-1.581c0.181-0.52,0.753-1.096,1.271-1.279l4.13-1.47
		c0.519-0.185,0.981-0.783,1.028-1.331c0,0,0.052-0.604,0.052-1.424S46.947,22.573,46.947,22.573z M25,34c-5.522,0-10-4.478-10-10
		s4.478-10,10-10s10,4.478,10,10S30.522,34,25,34z"/>
</g>
</svg>
