<?xml version="1.0" encoding="iso-8859-1"?>
<!-- Generator: Adobe Illustrator 16.0.0, SVG Export Plug-In . SVG Version: 6.00 Build 0)  -->
<!DOCTYPE svg PUBLIC "-//W3C//DTD SVG 1.1//EN" "http://www.w3.org/Graphics/SVG/1.1/DTD/svg11.dtd">
<svg version="1.1" id="Layer_1" xmlns="http://www.w3.org/2000/svg" xmlns:xlink="http://www.w3.org/1999/xlink" x="0px" y="0px"
	 width="50px" height="50px" viewBox="0 0 50 50" style="enable-background:new 0 0 50 50;" xml:space="preserve">
<g style="opacity:0.2;">
	<path style="fill:#231F20;" d="M25,48c0,0-18-6.811-18-21.495V12.884C7,12.884,12.811,6,25,6V48z"/>
</g>
<g style="opacity:0.2;">
	<path style="fill:#231F20;" d="M25,48c0,0,18-6.811,18-21.495V12.884C43,12.884,37.189,6,25,6V48z"/>
</g>
<g>
	<path style="fill:#F5CF87;" d="M25,46c0,0-18-6.811-18-21.495V10.884C7,10.884,12.811,4,25,4V46z"/>
</g>
<g>
	<path style="fill:#E0995E;" d="M25,46c0,0,18-6.811,18-21.495V10.884C43,10.884,37.189,4,25,4V46z"/>
</g>
</svg>
