<?xml version="1.0" encoding="iso-8859-1"?>
<!-- Generator: Adobe Illustrator 16.0.0, SVG Export Plug-In . SVG Version: 6.00 Build 0)  -->
<!DOCTYPE svg PUBLIC "-//W3C//DTD SVG 1.1//EN" "http://www.w3.org/Graphics/SVG/1.1/DTD/svg11.dtd">
<svg version="1.1" id="Layer_1" xmlns="http://www.w3.org/2000/svg" xmlns:xlink="http://www.w3.org/1999/xlink" x="0px" y="0px"
	 width="50px" height="50px" viewBox="0 0 50 50" style="enable-background:new 0 0 50 50;" xml:space="preserve">
<g>
	<path style="opacity:0.2;fill:#231F20;" d="M44.361,6.871c-0.172-0.373-0.49-0.659-0.88-0.791c-0.391-0.133-0.816-0.099-1.18,0.093
		c-0.041,0.021-4.174,2.165-9.079,2.166c-2.799,0-5.288-0.704-7.398-2.091c-0.5-0.329-1.148-0.329-1.648,0
		c-2.11,1.388-4.599,2.091-7.398,2.091c-4.875,0-9.039-2.145-9.079-2.166C7.334,5.981,6.907,5.946,6.521,6.079
		c-0.39,0.131-0.707,0.416-0.881,0.788C5.513,7.14,2.512,13.666,2.454,21.489l0,0v0C2.389,30.423,6.191,41.921,24.68,45.965
		C24.785,45.988,24.893,46,25,46c0.104,0,0.207-0.011,0.31-0.032c18.544-3.912,22.327-15.473,22.235-24.483
		C47.465,13.67,44.488,7.145,44.361,6.871z"/>
	<path style="fill:#4F5D73;stroke:#FFFFFF;stroke-width:3;stroke-linecap:round;stroke-linejoin:round;stroke-miterlimit:10;" d="
		M3.954,19C3.89,27.824,7.794,38.236,25,42c17.262-3.641,21.136-14.12,21.045-23H3.954z"/>
	<path style="fill:#C75C5C;stroke:#FFFFFF;stroke-width:3;stroke-linecap:round;stroke-linejoin:round;stroke-miterlimit:10;" d="
		M43,5c0,0-10,5.26-18,0C17,10.26,7,5,7,5s-2.99,6.413-3.046,14h42.091C45.967,11.417,43,5,43,5z"/>
</g>
</svg>
