<?xml version="1.0" encoding="iso-8859-1"?>
<!-- Generator: Adobe Illustrator 16.0.0, SVG Export Plug-In . SVG Version: 6.00 Build 0)  -->
<!DOCTYPE svg PUBLIC "-//W3C//DTD SVG 1.1//EN" "http://www.w3.org/Graphics/SVG/1.1/DTD/svg11.dtd">
<svg version="1.1" id="Layer_1" xmlns="http://www.w3.org/2000/svg" xmlns:xlink="http://www.w3.org/1999/xlink" x="0px" y="0px"
	 width="50px" height="50px" viewBox="0 0 50 50" style="enable-background:new 0 0 50 50;" xml:space="preserve">
<g style="opacity:0.2;">
	<path style="fill:#231F20;" d="M43.188,36.375c-2.019-1.517-8.375-4.188-8.375-4.188s-7,5.438-14-6C12.715,12.956,9,11,9,11
		s-4,4-4,8s4,10,4,22c0,1.104,0.896,2,2,2s2-0.896,2-2V27c0,0,4,0,8,8s8,8,12,8s12-0.188,12-1.688
		C45,39.566,45.379,38.021,43.188,36.375z"/>
</g>
<g>
	<path style="fill:#FFFFFF;" d="M9,9c0,0-4,4-4,8s4,10,4,22h4V25c0,0,4,0,8,8s8,8,12,8s12-0.188,12-1.688
		c0-1.746,0.379-3.291-1.813-4.938c-2.019-1.517-8.375-4.188-8.375-4.188s-7,5.438-14-6C12.715,10.957,9,9,9,9z"/>
</g>
<g>
	<path style="fill:#FFFFFF;" d="M13,39c0,1.104-0.896,2-2,2l0,0c-1.104,0-2-0.896-2-2l0,0c0-1.104,0.896-2,2-2l0,0
		C12.104,37,13,37.896,13,39L13,39z"/>
</g>
</svg>
