<?xml version="1.0" encoding="iso-8859-1"?>
<!-- Generator: Adobe Illustrator 16.0.0, SVG Export Plug-In . SVG Version: 6.00 Build 0)  -->
<!DOCTYPE svg PUBLIC "-//W3C//DTD SVG 1.1//EN" "http://www.w3.org/Graphics/SVG/1.1/DTD/svg11.dtd">
<svg version="1.1" id="Layer_1" xmlns="http://www.w3.org/2000/svg" xmlns:xlink="http://www.w3.org/1999/xlink" x="0px" y="0px"
	 width="54px" height="54px" viewBox="0 0 54 54" style="enable-background:new 0 0 54 54;" xml:space="preserve">
<g>
	<g style="opacity:0.2;">
		<g>
			<path style="fill:#231F20;" d="M49.083,15.75c-0.882-1.528-2.937-3.35-7.717-3.35c-1.643,0-3.471,0.225-5.414,0.646
				C33.966,6.864,30.757,3,27,3s-6.966,3.864-8.953,10.047c-1.943-0.422-3.771-0.646-5.414-0.646c-4.78,0-6.835,1.821-7.717,3.35
				c-1.875,3.248-0.142,7.947,4.201,12.75c-4.343,4.803-6.076,9.502-4.201,12.75c0.882,1.528,2.937,3.35,7.717,3.35
				c1.643,0,3.471-0.225,5.414-0.646C20.034,50.136,23.243,54,27,54s6.966-3.864,8.953-10.047c1.943,0.422,3.771,0.646,5.414,0.646
				c4.78,0,6.835-1.821,7.717-3.35c1.875-3.248,0.142-7.947-4.201-12.75C49.226,23.697,50.958,18.998,49.083,15.75z M41.367,15.4
				c2.612,0,4.43,0.656,5.119,1.85c1.072,1.857-0.297,5.281-3.722,9.098c-1.463-1.378-3.128-2.747-4.973-4.077
				c-0.229-2.254-0.58-4.373-1.039-6.322C38.409,15.602,39.972,15.4,41.367,15.4z M31.05,35.515c-1.345,0.776-2.7,1.471-4.05,2.114
				c-1.35-0.644-2.705-1.338-4.05-2.114c-1.374-0.793-2.662-1.611-3.872-2.441C18.964,31.611,18.9,30.086,18.9,28.5
				s0.064-3.111,0.179-4.573c1.209-0.83,2.498-1.648,3.872-2.441c1.345-0.776,2.7-1.471,4.05-2.114
				c1.35,0.644,2.705,1.338,4.05,2.114c1.374,0.793,2.662,1.611,3.872,2.441c0.114,1.462,0.179,2.987,0.179,4.573
				s-0.064,3.111-0.179,4.573C33.712,33.903,32.424,34.722,31.05,35.515z M34.468,36.957c-0.181,1.174-0.397,2.287-0.644,3.339
				c-1.057-0.318-2.133-0.678-3.235-1.104c0.656-0.347,1.31-0.703,1.96-1.079C33.206,37.733,33.843,37.348,34.468,36.957z
				 M23.411,39.191c-1.102,0.427-2.178,0.786-3.235,1.104c-0.247-1.052-0.463-2.165-0.644-3.339
				c0.625,0.391,1.263,0.776,1.918,1.155C22.101,38.488,22.755,38.845,23.411,39.191z M15.941,30.738
				C15.01,29.99,14.15,29.243,13.36,28.5c0.791-0.743,1.65-1.49,2.582-2.238C15.916,26.998,15.9,27.743,15.9,28.5
				S15.916,30.002,15.941,30.738z M19.532,20.043c0.181-1.174,0.397-2.287,0.644-3.339c1.057,0.318,2.133,0.678,3.235,1.104
				c-0.656,0.347-1.31,0.703-1.96,1.079C20.794,19.267,20.157,19.652,19.532,20.043z M30.589,17.809
				c1.102-0.427,2.178-0.786,3.235-1.104c0.247,1.052,0.463,2.165,0.644,3.339c-0.625-0.391-1.263-0.776-1.918-1.155
				C31.899,18.512,31.245,18.155,30.589,17.809z M38.059,26.262c0.931,0.748,1.791,1.495,2.582,2.238
				c-0.791,0.743-1.65,1.49-2.582,2.238c0.025-0.736,0.042-1.481,0.042-2.238S38.084,26.998,38.059,26.262z M27,6
				c2.149,0,4.436,2.91,6.03,7.805c-1.953,0.585-3.981,1.342-6.03,2.254c-2.048-0.912-4.077-1.669-6.03-2.254
				C22.564,8.91,24.851,6,27,6z M7.514,17.25c0.689-1.193,2.507-1.85,5.119-1.85c1.395,0,2.958,0.201,4.614,0.548
				c-0.459,1.949-0.81,4.068-1.039,6.322c-1.845,1.33-3.51,2.699-4.973,4.077C7.812,22.531,6.442,19.107,7.514,17.25z M12.633,41.6
				c-2.612,0-4.43-0.656-5.119-1.85c-1.072-1.857,0.297-5.281,3.722-9.098c1.463,1.378,3.128,2.747,4.973,4.077
				c0.229,2.254,0.58,4.373,1.039,6.322C15.591,41.399,14.028,41.6,12.633,41.6z M27,51c-2.149,0-4.436-2.91-6.03-7.805
				c1.953-0.585,3.981-1.342,6.03-2.254c2.048,0.912,4.077,1.669,6.03,2.254C31.436,48.09,29.149,51,27,51z M46.486,39.75
				c-0.689,1.193-2.507,1.85-5.119,1.85c-1.395,0-2.958-0.2-4.614-0.548c0.459-1.949,0.81-4.068,1.039-6.322
				c1.845-1.33,3.51-2.699,4.973-4.077C46.188,34.469,47.558,37.893,46.486,39.75z"/>
		</g>
		<g>
			<circle style="fill:#231F20;" cx="27" cy="28.5" r="3"/>
		</g>
	</g>
	<g>
		<path style="fill:#FFFFFF;" d="M27,52c-6.328,0-11.1-10.963-11.1-25.5S20.672,1,27,1s11.1,10.963,11.1,25.5S33.328,52,27,52z
			 M27,4c-3.831,0-8.1,9.24-8.1,22.5S23.169,49,27,49s8.1-9.24,8.1-22.5S30.831,4,27,4z"/>
	</g>
	<g>
		<path style="fill:#FFFFFF;" d="M12.633,42.6c-4.78,0-6.835-1.821-7.717-3.35C1.752,33.77,8.86,24.155,21.45,16.888
			c7.036-4.063,14.481-6.487,19.917-6.487c4.78,0,6.835,1.821,7.717,3.35c3.164,5.48-3.944,15.095-16.534,22.362
			C25.514,40.175,18.069,42.6,12.633,42.6z M41.367,13.4c-4.932,0-11.817,2.274-18.417,6.085
			C11.467,26.115,5.599,34.432,7.514,37.75c0.689,1.193,2.507,1.85,5.119,1.85c4.932,0,11.817-2.274,18.417-6.085
			c11.483-6.63,17.352-14.946,15.436-18.265C45.797,14.057,43.979,13.4,41.367,13.4z"/>
	</g>
	<g>
		<path style="fill:#FFFFFF;" d="M12.633,42.6c-4.78,0-6.835-1.821-7.717-3.35C1.752,33.77,8.86,24.155,21.45,16.888
			c7.036-4.063,14.481-6.487,19.917-6.487c4.78,0,6.835,1.821,7.717,3.35c3.164,5.48-3.944,15.095-16.534,22.362
			C25.514,40.175,18.069,42.6,12.633,42.6z M41.367,13.4c-4.932,0-11.817,2.274-18.417,6.085
			C11.467,26.115,5.599,34.432,7.514,37.75c0.689,1.193,2.507,1.85,5.119,1.85c4.932,0,11.817-2.274,18.417-6.085
			c11.483-6.63,17.352-14.946,15.436-18.265C45.797,14.057,43.979,13.4,41.367,13.4z"/>
	</g>
	<g>
		<path style="fill:#FFFFFF;" d="M41.367,42.6c-5.436,0-12.881-2.425-19.917-6.487C8.86,28.845,1.752,19.23,4.917,13.75
			c0.882-1.528,2.937-3.35,7.717-3.35c5.436,0,12.881,2.425,19.917,6.487C45.14,24.155,52.248,33.77,49.083,39.25
			C48.202,40.778,46.146,42.6,41.367,42.6z M12.633,13.4c-2.612,0-4.43,0.656-5.119,1.85c-1.916,3.318,3.953,11.635,15.436,18.265
			c6.6,3.811,13.484,6.085,18.417,6.085c2.612,0,4.43-0.656,5.119-1.85c1.916-3.318-3.953-11.635-15.436-18.265
			C24.45,15.675,17.565,13.4,12.633,13.4z"/>
	</g>
	<g>
		<circle style="fill:#FFFFFF;" cx="27" cy="26.5" r="3"/>
	</g>
</g>
</svg>
