<?xml version="1.0" encoding="iso-8859-1"?>
<!-- Generator: Adobe Illustrator 16.0.0, SVG Export Plug-In . SVG Version: 6.00 Build 0)  -->
<!DOCTYPE svg PUBLIC "-//W3C//DTD SVG 1.1//EN" "http://www.w3.org/Graphics/SVG/1.1/DTD/svg11.dtd">
<svg version="1.1" id="Layer_1" xmlns="http://www.w3.org/2000/svg" xmlns:xlink="http://www.w3.org/1999/xlink" x="0px" y="0px"
	 width="52px" height="52px" viewBox="0 0 52 52" style="enable-background:new 0 0 52 52;" xml:space="preserve">
<circle style="opacity:0.2;fill:#231F20;" cx="13.987" cy="37.923" r="3"/>
<circle style="opacity:0.2;fill:#231F20;" cx="41.334" cy="31.913" r="3"/>
<circle style="fill:#76C2AF;" cx="13.987" cy="35.923" r="3"/>
<circle style="fill:#76C2AF;" cx="41.334" cy="29.913" r="3"/>
<g style="opacity:0.2;">
	<path style="fill:#231F20;" d="M10.187,34c-3.977,0-7.782-2.35-8.264-2.658c-0.931-0.595-1.202-1.832-0.607-2.762
		c0.595-0.931,1.831-1.203,2.763-0.607c1.136,0.72,4.642,2.477,7.165,1.92l31.254-6.868c2.528-0.556,5.024-3.692,5.7-4.748
		c0.595-0.931,1.831-1.203,2.762-0.606c0.931,0.595,1.202,1.832,0.607,2.762c-0.357,0.559-3.627,5.492-8.211,6.5L12.103,33.8
		C11.468,33.939,10.825,34,10.187,34z"/>
</g>
<path style="fill:none;stroke:#F5CF87;stroke-width:3;stroke-linecap:round;stroke-miterlimit:10;" d="M48.955,18
	c0,0-3.048,4.766-6.955,5.624c0,0-27.348,6.01-31.254,6.868c-3.907,0.859-8.673-2.189-8.673-2.189"/>
</svg>
