<?xml version="1.0" encoding="iso-8859-1"?>
<!-- Generator: Adobe Illustrator 16.0.0, SVG Export Plug-In . SVG Version: 6.00 Build 0)  -->
<!DOCTYPE svg PUBLIC "-//W3C//DTD SVG 1.1//EN" "http://www.w3.org/Graphics/SVG/1.1/DTD/svg11.dtd">
<svg version="1.1" id="Layer_1" xmlns="http://www.w3.org/2000/svg" xmlns:xlink="http://www.w3.org/1999/xlink" x="0px" y="0px"
	 width="50px" height="50px" viewBox="0 0 50 50" style="enable-background:new 0 0 50 50;" xml:space="preserve">
<path style="opacity:0.2;fill:#231F20;" d="M39,22c-2.973,0-5.433,2.164-5.91,5H31H7c-1.104,0-2,0.896-2,2v12v2c0,1.104,0.896,2,2,2
	h24c1.104,0,2-0.896,2-2h10c1.104,0,2-0.896,2-2v-4v-8v-1C45,24.687,42.313,22,39,22z"/>
<path style="fill:#4F5D73;" d="M45,27c0-1.104-0.896-2-2-2H7c-1.104,0-2,0.896-2,2v12c0,1.104,0.896,2,2,2h36c1.104,0,2-0.896,2-2
	V27z"/>
<path style="fill:#4F5D73;" d="M33,35c0,3.313,2.687,6,6,6l0,0c3.313,0,6-2.687,6-6v-9c0-3.313-2.687-6-6-6l0,0
	c-3.313,0-6,2.687-6,6V35z"/>
<path style="fill:#4F5D73;" d="M31,26c0,1.104-0.896,2-2,2H14c-1.104,0-2-0.896-2-2V7c0-1.104,0.896-2,2-2h15c1.104,0,2,0.896,2,2
	V26z"/>
<path style="fill:#4F5D73;" d="M33,41c0,1.104-0.896,2-2,2H7c-1.104,0-2-0.896-2-2V27c0-1.104,0.896-2,2-2h24c1.104,0,2,0.896,2,2
	V41z"/>
<circle style="fill:#77B3D4;" cx="39" cy="26" r="3"/>
<path style="opacity:0.2;fill:#231F20;" d="M28,44c0,1.104-1.059,2-2.363,2h-8.273C16.059,46,15,45.104,15,44V28
	c0-1.104,1.059-2,2.363-2h8.273C26.941,26,28,26.896,28,28V44z"/>
<path style="fill:#F5CF87;" d="M27,41c0,1.104-0.896,2-2,2h-7c-1.104,0-2-0.896-2-2V25c0-1.104,0.896-2,2-2h7c1.104,0,2,0.896,2,2
	V41z"/>
<path style="fill:#4F5D73;" d="M27,43c0,1.104-0.896,2-2,2h-7c-1.104,0-2-0.896-2-2V27c0-1.104,0.896-2,2-2h7c1.104,0,2,0.896,2,2
	V43z"/>
<path style="fill:#E0E0D1;" d="M42,36c0,1.104-0.896,2-2,2h-7c-1.104,0-2-0.896-2-2v-2c0-1.104,0.896-2,2-2h7c1.104,0,2,0.896,2,2
	V36z"/>
<g style="opacity:0.2;">
	<path style="fill:#231F20;" d="M40,32h-7c-1.104,0-2,0.896-2,2v1c0-1.104,0.896-2,2-2h7c1.104,0,2,0.896,2,2v-1
		C42,32.896,41.104,32,40,32z"/>
</g>
</svg>
