<?xml version="1.0" encoding="iso-8859-1"?>
<!-- Generator: Adobe Illustrator 16.0.0, SVG Export Plug-In . SVG Version: 6.00 Build 0)  -->
<!DOCTYPE svg PUBLIC "-//W3C//DTD SVG 1.1//EN" "http://www.w3.org/Graphics/SVG/1.1/DTD/svg11.dtd">
<svg version="1.1" id="Layer_1" xmlns="http://www.w3.org/2000/svg" xmlns:xlink="http://www.w3.org/1999/xlink" x="0px" y="0px"
	 width="50px" height="50px" viewBox="0 0 50 50" style="enable-background:new 0 0 50 50;" xml:space="preserve">
<g style="opacity:0.2;">
	<path style="fill:#231F20;" d="M26.866,5.197C26.591,5.065,26.295,5,26,5c-0.445,0-0.888,0.149-1.249,0.438L10.299,17H5
		c-1.104,0-2,0.896-2,2v16c0,1.104,0.896,2,2,2h5.299l14.452,11.562C25.112,48.851,25.555,49,26,49c0.295,0,0.591-0.065,0.866-0.197
		C27.56,48.47,28,47.769,28,47V7C28,6.231,27.56,5.53,26.866,5.197z"/>
	<path style="fill:#231F20;" d="M31.035,29.833c-0.671,0.485-0.823,1.422-0.339,2.094c0.293,0.407,0.752,0.623,1.219,0.623
		c0.304,0,0.61-0.092,0.875-0.283c1.697-1.224,2.71-3.192,2.71-5.266s-1.013-4.042-2.71-5.266c-0.672-0.484-1.608-0.332-2.094,0.339
		c-0.484,0.672-0.332,1.609,0.339,2.094C31.966,24.838,32.5,25.871,32.5,27S31.966,29.162,31.035,29.833z"/>
	<path style="fill:#231F20;" d="M31.516,36.151c-0.799,0.219-1.269,1.044-1.049,1.843c0.183,0.666,0.786,1.104,1.445,1.104
		c0.132,0,0.265-0.018,0.398-0.054C37.721,37.559,41.5,32.606,41.5,27s-3.779-10.559-9.189-12.044
		c-0.798-0.219-1.625,0.25-1.844,1.049c-0.22,0.799,0.25,1.624,1.049,1.843C35.628,18.978,38.5,22.741,38.5,27
		S35.628,35.022,31.516,36.151z"/>
	<path style="fill:#231F20;" d="M32.169,8.789c-0.821-0.145-1.593,0.406-1.733,1.222c-0.142,0.816,0.405,1.593,1.222,1.734
		C39.099,13.033,44.5,19.448,44.5,27s-5.401,13.967-12.843,15.255c-0.816,0.141-1.363,0.917-1.222,1.734
		c0.126,0.729,0.76,1.244,1.476,1.244c0.085,0,0.171-0.007,0.258-0.022C41.052,43.674,47.5,36.015,47.5,27
		S41.052,10.326,32.169,8.789z"/>
</g>
<path style="fill:#4F5D73;" d="M24,33c0,1.104-0.896,2-2,2H5c-1.104,0-2-0.896-2-2V17c0-1.104,0.896-2,2-2h17c1.104,0,2,0.896,2,2
	V33z"/>
<g>
	<path style="fill:#4F5D73;" d="M26,46c-0.223,0-0.443-0.075-0.625-0.219l-15-12C10.139,33.591,10,33.304,10,33V17
		c0-0.304,0.139-0.591,0.375-0.781l15-12C25.557,4.075,25.777,4,26,4c0.147,0,0.295,0.033,0.433,0.099C26.779,4.265,27,4.616,27,5
		v40c0,0.384-0.221,0.735-0.567,0.901C26.295,45.967,26.147,46,26,46z"/>
	<path style="fill:#4F5D73;" d="M26,5v40L11,33V17L26,5 M26,3c-0.445,0-0.888,0.149-1.249,0.438l-15,12C9.276,15.818,9,16.393,9,17
		v16c0,0.607,0.276,1.182,0.751,1.562l15,12C25.112,46.851,25.555,47,26,47c0.295,0,0.591-0.065,0.866-0.197
		C27.56,46.47,28,45.769,28,45V5c0-0.769-0.44-1.47-1.134-1.803C26.591,3.065,26.295,3,26,3L26,3z"/>
</g>
<path style="fill:none;stroke:#FFFFFF;stroke-width:3;stroke-linecap:round;stroke-miterlimit:10;" d="M31.913,29.049
	C33.173,28.141,34,26.671,34,25s-0.827-3.141-2.087-4.049"/>
<path style="fill:none;stroke:#E0E0D1;stroke-width:3;stroke-linecap:round;stroke-miterlimit:10;" d="M31.913,35.598
	C36.572,34.319,40,30.065,40,25s-3.428-9.319-8.087-10.598"/>
<path style="fill:none;stroke:#F5CF87;stroke-width:3;stroke-linecap:round;stroke-miterlimit:10;" d="M31.913,41.733
	C39.911,40.349,46,33.394,46,25S39.911,9.651,31.913,8.267"/>
</svg>
