<?xml version="1.0" encoding="iso-8859-1"?>
<!-- Generator: Adobe Illustrator 16.0.0, SVG Export Plug-In . SVG Version: 6.00 Build 0)  -->
<!DOCTYPE svg PUBLIC "-//W3C//DTD SVG 1.1//EN" "http://www.w3.org/Graphics/SVG/1.1/DTD/svg11.dtd">
<svg version="1.1" id="Layer_1" xmlns="http://www.w3.org/2000/svg" xmlns:xlink="http://www.w3.org/1999/xlink" x="0px" y="0px"
	 width="50px" height="50px" viewBox="0 0 50 50" style="enable-background:new 0 0 50 50;" xml:space="preserve">
<circle style="opacity:0.2;fill:#231F20;" cx="25" cy="18" r="8"/>
<path style="opacity:0.2;fill:#231F20;" d="M34,46.714C34,47.977,32.992,49,31.75,49h-13.5C17.008,49,16,47.977,16,46.714V19.286
	C16,18.023,17.008,17,18.25,17h13.5c1.242,0,2.25,1.023,2.25,2.286V46.714z"/>
<rect x="23.5" y="4" style="opacity:0.2;fill:#231F20;" width="3" height="3"/>
<circle style="fill:#E0E0D1;" cx="25" cy="16" r="8"/>
<path style="fill:#FFFFFF;" d="M34,44.714C34,45.977,32.992,47,31.75,47h-13.5C17.008,47,16,45.977,16,44.714V17.286
	C16,16.023,17.008,15,18.25,15h13.5c1.242,0,2.25,1.023,2.25,2.286V44.714z"/>
<rect x="23.5" y="3" style="fill:#FFFFFF;" width="3" height="3"/>
<circle style="fill:#C75C5C;" cx="25" cy="29.99" r="6.01"/>
</svg>
