<?xml version="1.0" encoding="iso-8859-1"?>
<!-- Generator: Adobe Illustrator 16.0.0, SVG Export Plug-In . SVG Version: 6.00 Build 0)  -->
<!DOCTYPE svg PUBLIC "-//W3C//DTD SVG 1.1//EN" "http://www.w3.org/Graphics/SVG/1.1/DTD/svg11.dtd">
<svg version="1.1" id="Layer_1" xmlns="http://www.w3.org/2000/svg" xmlns:xlink="http://www.w3.org/1999/xlink" x="0px" y="0px"
	 width="50px" height="50px" viewBox="0 0 50 50" style="enable-background:new 0 0 50 50;" xml:space="preserve">
<g style="opacity:0.2;">
	<g>
		<path style="fill:#231F20;" d="M45.872,21.063c-0.31-0.952-1.133-1.646-2.121-1.79l-11.328-1.646L27.357,7.365
			C26.913,6.466,26.001,5.898,25,5.898s-1.913,0.567-2.357,1.467l-5.064,10.263L6.25,19.273c-0.991,0.145-1.813,0.838-2.121,1.79
			c-0.31,0.951-0.053,1.994,0.665,2.693l8.197,7.989l-1.935,11.283c-0.168,0.985,0.237,1.981,1.046,2.57
			c0.455,0.334,0.996,0.502,1.543,0.502c0.418,0,0.838-0.1,1.222-0.303L25,40.472l10.131,5.327c0.384,0.203,0.804,0.303,1.222,0.303
			c0.544,0,1.088-0.168,1.545-0.502c0.81-0.589,1.214-1.585,1.046-2.57L37.01,31.746l8.197-7.989
			C45.922,23.061,46.18,22.015,45.872,21.063z"/>
	</g>
</g>
<g>
	<g>
		<path style="fill:#F5CF87;" d="M45.872,19.063c-0.31-0.952-1.133-1.646-2.121-1.79l-11.328-1.646L27.357,5.365
			C26.913,4.466,26.001,3.898,25,3.898s-1.913,0.567-2.357,1.467l-5.064,10.263L6.25,17.273c-0.991,0.145-1.813,0.838-2.121,1.79
			c-0.31,0.951-0.053,1.994,0.665,2.693l8.197,7.989l-1.935,11.283c-0.168,0.985,0.237,1.981,1.046,2.57
			c0.455,0.334,0.996,0.502,1.543,0.502c0.418,0,0.838-0.1,1.222-0.303L25,38.472l10.131,5.327c0.384,0.203,0.804,0.303,1.222,0.303
			c0.544,0,1.088-0.168,1.545-0.502c0.81-0.589,1.214-1.585,1.046-2.57L37.01,29.746l8.197-7.989
			C45.922,21.061,46.18,20.015,45.872,19.063z"/>
	</g>
</g>
</svg>
