<?xml version="1.0" encoding="iso-8859-1"?>
<!-- Generator: Adobe Illustrator 16.0.0, SVG Export Plug-In . SVG Version: 6.00 Build 0)  -->
<!DOCTYPE svg PUBLIC "-//W3C//DTD SVG 1.1//EN" "http://www.w3.org/Graphics/SVG/1.1/DTD/svg11.dtd">
<svg version="1.1" id="Layer_1" xmlns="http://www.w3.org/2000/svg" xmlns:xlink="http://www.w3.org/1999/xlink" x="0px" y="0px"
	 width="50px" height="50px" viewBox="0 0 50 50" style="enable-background:new 0 0 50 50;" xml:space="preserve">
<g style="opacity:0.2;">
	<g>
		<path style="fill:#231F20;" d="M11,21H7c-2.209,0-4,1.791-4,4v13c0,2.209,1.791,4,4,4h8V25C15,22.791,13.209,21,11,21z"/>
	</g>
	<g>
		<path style="fill:#231F20;" d="M27,6h-4c-2.209,0-4,1.791-4,4v32h12V10C31,7.791,29.209,6,27,6z"/>
	</g>
	<g>
		<path style="fill:#231F20;" d="M43,26h-4c-2.209,0-4,1.791-4,4v12h8c2.209,0,4-1.791,4-4v-8C47,27.791,45.209,26,43,26z"/>
	</g>
</g>
<g>
	<g>
		<path style="fill:#E0E0D1;" d="M11,19H7c-2.209,0-4,1.791-4,4v13c0,2.209,1.791,4,4,4h8V23C15,20.791,13.209,19,11,19z"/>
	</g>
	<g>
		<path style="fill:#76C2AF;" d="M27,4h-4c-2.209,0-4,1.791-4,4v32h12V8C31,5.791,29.209,4,27,4z"/>
	</g>
	<g>
		<path style="fill:#FFFFFF;" d="M43,24h-4c-2.209,0-4,1.791-4,4v12h8c2.209,0,4-1.791,4-4v-8C47,25.791,45.209,24,43,24z"/>
	</g>
</g>
</svg>
