<?xml version="1.0" encoding="iso-8859-1"?>
<!-- Generator: Adobe Illustrator 16.0.0, SVG Export Plug-In . SVG Version: 6.00 Build 0)  -->
<!DOCTYPE svg PUBLIC "-//W3C//DTD SVG 1.1//EN" "http://www.w3.org/Graphics/SVG/1.1/DTD/svg11.dtd">
<svg version="1.1" id="Layer_1" xmlns="http://www.w3.org/2000/svg" xmlns:xlink="http://www.w3.org/1999/xlink" x="0px" y="0px"
	 width="50px" height="50px" viewBox="0 0 50 50" style="enable-background:new 0 0 50 50;" xml:space="preserve">
<g style="opacity:0.2;">
	<g>
		<path style="fill:#231F20;" d="M43.941,30.875c0.194-1.809,0.919-3.442,1.228-5.219c0.104-0.596,0.163-1.189,0.209-1.785
			C45.29,23.947,45.177,24,45,24c0,0-12-2-20-2S5,24,5,24c-1.19,0-0.021-2.001-1.116-2.092c0.147,1.146,0.337,2.283,0.568,3.414
			c0.598,1.842,1.258,3.652,1.626,5.552L15.241,30C18.422,30,21,32.578,21,35.759v7.482c0,0.409-0.057,0.802-0.138,1.187
			c2.689,0.115,5.61,0.382,8.313,0.155C29.071,44.15,29,43.705,29,43.241v-7.482C29,32.578,31.578,30,34.759,30L43.941,30.875
			L43.941,30.875z"/>
	</g>
</g>
<g>
	<g>
		<path style="fill:#4F5D73;" d="M5,21c-1.199,0,0.002-2.037-1.137-2.1C3.305,20.838,3,22.883,3,25c0,0.757,0.038,1.504,0.113,2.242
			C3.635,27.086,4.187,28,4.759,28l10.482-1C18.422,27,21,29.578,21,32.759v7.482c0,2.452-1.536,4.542-3.696,5.372
			C19.699,46.508,22.292,47,25,47s5.301-0.492,7.696-1.387c-2.16-0.83-3.696-2.92-3.696-5.372v-7.482C29,29.578,31.578,27,34.759,27
			l10.482,1c0.572,0,1.124-0.914,1.646-0.758C46.962,26.504,47,25.757,47,25c0-2.117-0.305-4.162-0.863-6.1
			C44.998,18.963,46.199,21,45,21c0,0-12-2-20-2S5,21,5,21z"/>
	</g>
</g>
<circle style="opacity:0.2;fill:#231F20;" cx="25" cy="26" r="3"/>
<circle style="fill:#76C2AF;" cx="25" cy="25" r="3"/>
<path style="opacity:0.2;fill:#231F20;" d="M25,9c9.649,0,17.5,7.851,17.5,17.5S34.649,44,25,44S7.5,36.149,7.5,26.5S15.351,9,25,9
	 M25,5C12.85,5,3,14.85,3,27s9.85,22,22,22s22-9.85,22-22S37.15,5,25,5L25,5z"/>
<g>
	<path style="fill:#4F5D73;" d="M25,7c9.925,0,18,8.074,18,18s-8.075,18-18,18S7,34.926,7,25S15.075,7,25,7 M25,3
		C12.85,3,3,12.85,3,25s9.85,22,22,22s22-9.85,22-22S37.15,3,25,3L25,3z"/>
</g>
</svg>
