<?xml version="1.0" encoding="iso-8859-1"?>
<!-- Generator: Adobe Illustrator 16.0.0, SVG Export Plug-In . SVG Version: 6.00 Build 0)  -->
<!DOCTYPE svg PUBLIC "-//W3C//DTD SVG 1.1//EN" "http://www.w3.org/Graphics/SVG/1.1/DTD/svg11.dtd">
<svg version="1.1" id="Layer_1" xmlns="http://www.w3.org/2000/svg" xmlns:xlink="http://www.w3.org/1999/xlink" x="0px" y="0px"
	 width="50px" height="50px" viewBox="0 0 50 50" style="enable-background:new 0 0 50 50;" xml:space="preserve">
<path style="opacity:0.2;fill:#231F20;" d="M19.301,48c-1.65,0-3.955-0.955-5.121-2.121L6.121,37.82C4.955,36.653,4,34.349,4,32.699
	V21.301c0-1.65,0.955-3.955,2.121-5.121l8.059-8.059C15.347,6.955,17.651,6,19.301,6h11.397c1.65,0,3.955,0.955,5.121,2.121
	l8.059,8.059C45.045,17.347,46,19.651,46,21.301v11.397c0,1.65-0.955,3.955-2.121,5.121l-8.059,8.059
	C34.653,47.045,32.349,48,30.699,48H19.301z"/>
<path style="fill:#C75C5C;" d="M19.301,46c-1.65,0-3.955-0.955-5.121-2.121L6.121,35.82C4.955,34.653,4,32.349,4,30.699V19.301
	c0-1.65,0.955-3.955,2.121-5.121l8.059-8.059C15.347,4.955,17.651,4,19.301,4h11.397c1.65,0,3.955,0.955,5.121,2.121l8.059,8.059
	C45.045,15.347,46,17.651,46,19.301v11.397c0,1.65-0.955,3.955-2.121,5.121l-8.059,8.059C34.653,45.045,32.349,46,30.699,46H19.301z
	"/>
<path style="fill:#FFFFFF;" d="M38,27c0,2.209-1.791,4-4,4H16c-2.209,0-4-1.791-4-4v-4c0-2.209,1.791-4,4-4h18c2.209,0,4,1.791,4,4
	V27z"/>
</svg>
