<?xml version="1.0" encoding="iso-8859-1"?>
<!-- Generator: Adobe Illustrator 16.0.0, SVG Export Plug-In . SVG Version: 6.00 Build 0)  -->
<!DOCTYPE svg PUBLIC "-//W3C//DTD SVG 1.1//EN" "http://www.w3.org/Graphics/SVG/1.1/DTD/svg11.dtd">
<svg version="1.1" id="Layer_1" xmlns="http://www.w3.org/2000/svg" xmlns:xlink="http://www.w3.org/1999/xlink" x="0px" y="0px"
	 width="50px" height="50px" viewBox="0 0 50 50" style="enable-background:new 0 0 50 50;" xml:space="preserve">
<path style="opacity:0.2;fill:#231F20;" d="M39,46c0,1.104-0.896,2-2,2H13c-1.104,0-2-0.896-2-2V8c0-1.104,0.896-2,2-2h24
	c1.104,0,2,0.896,2,2V46z"/>
<path style="fill:#F5CF87;" d="M39,44c0,1.104-0.896,2-2,2H13c-1.104,0-2-0.896-2-2V6c0-1.104,0.896-2,2-2h24c1.104,0,2,0.896,2,2
	V44z"/>
<circle style="fill:#4F5D73;" cx="25" cy="32.5" r="10.5"/>
<g style="opacity:0.2;">
	<path style="fill:#231F20;" d="M25,24c5.461,0,9.945,4.17,10.45,9.5c0.031-0.33,0.05-0.663,0.05-1C35.5,26.701,30.799,22,25,22
		s-10.5,4.701-10.5,10.5c0,0.337,0.02,0.67,0.05,1C15.055,28.17,19.539,24,25,24z"/>
</g>
<circle style="fill:#4F5D73;" cx="25" cy="13.5" r="6.5"/>
<circle style="opacity:0.2;fill:#231F20;" cx="25" cy="34.833" r="2.444"/>
<circle style="opacity:0.2;fill:#231F20;" cx="25" cy="15.364" r="2.364"/>
<circle style="fill:#4F5D73;" cx="25" cy="33" r="2.444"/>
<circle style="fill:#4F5D73;" cx="25" cy="13.5" r="2.364"/>
<path style="opacity:0.2;fill:#231F20;" d="M25,9c4,0,5.831,2.657,6.388,5.682c0.07-0.384,0.112-0.777,0.112-1.182
	C31.5,9.91,28.59,7,25,7s-6.5,2.91-6.5,6.5c0,0.404,0.042,0.798,0.112,1.182C19.169,11.657,21,9,25,9z"/>
</svg>
