<?xml version="1.0" encoding="iso-8859-1"?>
<!-- Generator: Adobe Illustrator 16.0.0, SVG Export Plug-In . SVG Version: 6.00 Build 0)  -->
<!DOCTYPE svg PUBLIC "-//W3C//DTD SVG 1.1//EN" "http://www.w3.org/Graphics/SVG/1.1/DTD/svg11.dtd">
<svg version="1.1" id="Layer_1" xmlns="http://www.w3.org/2000/svg" xmlns:xlink="http://www.w3.org/1999/xlink" x="0px" y="0px"
	 width="50px" height="50px" viewBox="0 0 50 50" style="enable-background:new 0 0 50 50;" xml:space="preserve">
<path style="fill:#F5CF87;" d="M37.166,19.583c0,0-3.896-6.583-5.584-6.583h-9.167c-1.688,0-5.584,6.583-5.584,6.583l0,0
	c0,3.083,0.84,4.583,2.528,4.583h15.28C36.325,24.167,37.166,22.667,37.166,19.583L37.166,19.583z"/>
<path style="fill:#F5CF87;" d="M13.83,31.292c0,0,4.025,6.583,5.77,6.583h15.672c1.744,0,5.77-6.583,5.77-6.583l0,0
	c0-3.083-0.869-4.583-2.612-4.583H16.441C14.698,26.708,13.83,28.208,13.83,31.292L13.83,31.292z"/>
<path style="fill:#E0995E;" d="M8.961,28.989c0,1.094-2.887,5.98-3.98,5.98l0,0c-1.094,0-1.98-0.887-1.98-1.98V19.008
	c0-1.094,0.887-1.98,1.98-1.98l0,0c1.094,0,3.98,4.887,3.98,5.98V28.989z"/>
<path style="opacity:0.2;fill:#231F20;" d="M49,27.998c0-5.522-8.85-9-21-9s-27,7.314-27,9c0,1.585,14.85,9,27,9
	S49,33.521,49,27.998z"/>
<path style="fill:#F5CF87;" d="M49,25.998c0-5.522-8.85-9-21-9s-27,7.314-27,9c0,1.585,14.85,9,27,9S49,31.521,49,25.998z"/>
<circle style="fill:#E0995E;" cx="29" cy="25" r="3"/>
<circle style="fill:#E0995E;" cx="39" cy="25" r="3"/>
<circle style="fill:#E0995E;" cx="19" cy="25" r="3"/>
</svg>
