<?xml version="1.0" encoding="iso-8859-1"?>
<!-- Generator: Adobe Illustrator 16.0.0, SVG Export Plug-In . SVG Version: 6.00 Build 0)  -->
<!DOCTYPE svg PUBLIC "-//W3C//DTD SVG 1.1//EN" "http://www.w3.org/Graphics/SVG/1.1/DTD/svg11.dtd">
<svg version="1.1" id="Layer_1" xmlns="http://www.w3.org/2000/svg" xmlns:xlink="http://www.w3.org/1999/xlink" x="0px" y="0px"
	 width="50px" height="50px" viewBox="0 0 50 50" style="enable-background:new 0 0 50 50;" xml:space="preserve">
<g>
	<g style="opacity:0.2;">
		<path style="fill:#231F20;" d="M13,25h24c1.104,0,2-0.897,2-2V11c0-1.103-0.896-2-2-2H13c-1.103,0-2,0.897-2,2v12
			C11,24.103,11.897,25,13,25z"/>
		<path style="fill:#231F20;" d="M37,5H13c-3.309,0-6,2.691-6,6v12v12c0,3.309,2.691,6,6,6h24c3.309,0,6-2.691,6-6V23V11
			C43,7.691,40.309,5,37,5z M11,11c0-1.103,0.897-2,2-2h24c1.104,0,2,0.897,2,2v12c0,1.103-0.896,2-2,2H13c-1.103,0-2-0.897-2-2V11z
			"/>
		<circle style="fill:#231F20;" cx="37" cy="35" r="2"/>
		<path style="fill:#231F20;" d="M35,43H15c-1.104,0-2,0.896-2,2s0.896,2,2,2h20c1.104,0,2-0.896,2-2S36.104,43,35,43z"/>
	</g>
	<path style="fill:#FFFFFF;stroke:#FFFFFF;stroke-width:4;stroke-miterlimit:10;" d="M41,33c0,2.209-1.791,4-4,4H13
		c-2.209,0-4-1.791-4-4V9c0-2.209,1.791-4,4-4h24c2.209,0,4,1.791,4,4V33z"/>
	<path style="fill:#4F5D73;stroke:#FFFFFF;stroke-width:4;stroke-miterlimit:10;" d="M41,21c0,2.209-1.791,4-4,4H13
		c-2.209,0-4-1.791-4-4V9c0-2.209,1.791-4,4-4h24c2.209,0,4,1.791,4,4V21z"/>
	<g>
		<path style="fill:#E0E0D1;stroke:#E0E0D1;stroke-width:4;stroke-miterlimit:10;" d="M13,37h24c2.209,0,4-1.791,4-4v-4H9v4
			C9,35.209,10.791,37,13,37z"/>
	</g>
	<path style="fill:#E0995E;stroke:#E0E0D1;stroke-width:4;stroke-miterlimit:10;" d="M17,33c0,2.209-1.791,4-4,4l0,0
		c-2.209,0-4-1.791-4-4l0,0c0-2.209,1.791-4,4-4l0,0C15.209,29,17,30.791,17,33L17,33z"/>
	<path style="fill:#E0995E;stroke:#E0E0D1;stroke-width:4;stroke-miterlimit:10;" d="M41,33c0,2.209-1.791,4-4,4l0,0
		c-2.209,0-4-1.791-4-4l0,0c0-2.209,1.791-4,4-4l0,0C39.209,29,41,30.791,41,33L41,33z"/>
	<path style="fill:#F5CF87;" d="M37,43c0,1.104-0.896,2-2,2H15c-1.104,0-2-0.896-2-2l0,0c0-1.104,0.896-2,2-2h20
		C36.104,41,37,41.896,37,43L37,43z"/>
</g>
</svg>
