<?xml version="1.0" encoding="iso-8859-1"?>
<!-- Generator: Adobe Illustrator 16.0.0, SVG Export Plug-In . SVG Version: 6.00 Build 0)  -->
<!DOCTYPE svg PUBLIC "-//W3C//DTD SVG 1.1//EN" "http://www.w3.org/Graphics/SVG/1.1/DTD/svg11.dtd">
<svg version="1.1" id="Layer_1" xmlns="http://www.w3.org/2000/svg" xmlns:xlink="http://www.w3.org/1999/xlink" x="0px" y="0px"
	 width="50px" height="50px" viewBox="0 0 50 50" style="enable-background:new 0 0 50 50;" xml:space="preserve">
<g style="opacity:0.2;">
	<path style="fill:#231F20;" d="M45,37c0,2.209-1.791,4-4,4H9c-2.209,0-4-1.791-4-4V19c0-2.209,1.791-4,4-4h32c2.209,0,4,1.791,4,4
		V37z"/>
</g>
<g>
	<path style="fill:#4F5D73;" d="M31,10v20H19V10H31 M31,6H19c-2.209,0-4,1.791-4,4v20c0,2.209,1.791,4,4,4h12c2.209,0,4-1.791,4-4
		V10C35,7.791,33.209,6,31,6L31,6z"/>
</g>
<g>
	<g>
		<path style="fill:#C75C5C;" d="M5,22v13c0,2.209,1.791,4,4,4h32c2.209,0,4-1.791,4-4V22H5z"/>
	</g>
</g>
<g>
	<path style="fill:#F5CF87;" d="M29,21v3h-8v-3H29 M29,17h-8c-2.209,0-4,1.791-4,4v3c0,2.209,1.791,4,4,4h8c2.209,0,4-1.791,4-4v-3
		C33,18.791,31.209,17,29,17L29,17z"/>
</g>
<g style="opacity:0.2;">
	<path style="fill:#231F20;" d="M45,19c0-2.209-1.791-4-4-4H9c-2.209,0-4,1.791-4,4v5h40V19z"/>
</g>
<g>
	<path style="fill:#C75C5C;" d="M45,17c0-2.209-1.791-4-4-4H9c-2.209,0-4,1.791-4,4v5h40V17z"/>
</g>
</svg>
