<?xml version="1.0" encoding="iso-8859-1"?>
<!-- Generator: Adobe Illustrator 16.0.0, SVG Export Plug-In . SVG Version: 6.00 Build 0)  -->
<!DOCTYPE svg PUBLIC "-//W3C//DTD SVG 1.1//EN" "http://www.w3.org/Graphics/SVG/1.1/DTD/svg11.dtd">
<svg version="1.1" id="Layer_1" xmlns="http://www.w3.org/2000/svg" xmlns:xlink="http://www.w3.org/1999/xlink" x="0px" y="0px"
	 width="50px" height="50px" viewBox="0 0 50 50" style="enable-background:new 0 0 50 50;" xml:space="preserve">
<g style="opacity:0.2;">
	<g>
		<path style="fill:#231F20;" d="M3,27c0,12.15,9.85,22,22,22s22-9.85,22-22S37.15,5,25,5S3,14.85,3,27z M37,27
			c0,6.627-5.373,12-12,12c-6.628,0-12-5.373-12-12s5.372-12,12-12C31.627,15,37,20.373,37,27z"/>
	</g>
</g>
<g>
	<g>
		<path style="fill:#FFFFFF;" d="M3,25c0,12.15,9.85,22,22,22s22-9.85,22-22S37.15,3,25,3S3,12.85,3,25z M37,25
			c0,6.627-5.373,12-12,12c-6.628,0-12-5.373-12-12s5.372-12,12-12C31.627,13,37,18.373,37,25z"/>
	</g>
</g>
<g style="opacity:0.2;">
	<path style="fill:#231F20;" d="M20.934,15.863c0.879,0.878,0.913,2.269,0.076,3.106l-4.04,4.041
		c-0.837,0.837-2.228,0.803-3.106-0.076l-7.425-7.425c-0.879-0.878-0.913-2.269-0.076-3.106l4.041-4.041
		c0.837-0.837,2.228-0.803,3.106,0.076L20.934,15.863z"/>
</g>
<g style="opacity:0.2;">
	<path style="fill:#231F20;" d="M43.562,38.491c0.879,0.878,0.913,2.269,0.076,3.106l-4.041,4.041
		c-0.837,0.837-2.228,0.803-3.106-0.076l-7.425-7.425c-0.878-0.878-0.912-2.269-0.075-3.106l4.04-4.041
		c0.837-0.837,2.228-0.803,3.106,0.076L43.562,38.491z"/>
</g>
<g style="opacity:0.2;">
	<path style="fill:#231F20;" d="M36.137,22.934c-0.879,0.879-2.27,0.913-3.106,0.076l-4.04-4.041
		c-0.837-0.837-0.803-2.228,0.075-3.106l7.425-7.425c0.879-0.879,2.27-0.913,3.106-0.076l4.041,4.041
		c0.837,0.837,0.803,2.228-0.076,3.106L36.137,22.934z"/>
</g>
<g style="opacity:0.2;">
	<path style="fill:#231F20;" d="M13.51,45.562c-0.879,0.879-2.27,0.913-3.106,0.076l-4.041-4.041
		c-0.837-0.837-0.803-2.228,0.076-3.106l7.425-7.425c0.879-0.879,2.27-0.913,3.106-0.076l4.04,4.041
		c0.837,0.837,0.803,2.228-0.076,3.106L13.51,45.562z"/>
</g>
<g>
	<path style="fill:#E0995E;" d="M20.934,13.863c0.879,0.878,0.913,2.269,0.076,3.106l-4.04,4.041
		c-0.837,0.837-2.228,0.803-3.106-0.076l-7.425-7.425c-0.879-0.878-0.913-2.269-0.076-3.106l4.041-4.041
		c0.837-0.837,2.228-0.803,3.106,0.076L20.934,13.863z"/>
</g>
<g>
	<path style="fill:#E0995E;" d="M43.562,36.491c0.879,0.878,0.913,2.269,0.076,3.106l-4.041,4.041
		c-0.837,0.837-2.228,0.803-3.106-0.076l-7.425-7.425c-0.878-0.878-0.912-2.269-0.075-3.106l4.04-4.041
		c0.837-0.837,2.228-0.803,3.106,0.076L43.562,36.491z"/>
</g>
<g>
	<path style="fill:#E0995E;" d="M36.137,20.934c-0.879,0.879-2.27,0.913-3.106,0.076l-4.04-4.041
		c-0.837-0.837-0.803-2.228,0.075-3.106l7.425-7.425c0.879-0.879,2.27-0.913,3.106-0.076l4.041,4.041
		c0.837,0.837,0.803,2.228-0.076,3.106L36.137,20.934z"/>
</g>
<g>
	<path style="fill:#E0995E;" d="M13.51,43.562c-0.879,0.879-2.27,0.913-3.106,0.076l-4.041-4.041
		c-0.837-0.837-0.803-2.228,0.076-3.106l7.425-7.425c0.879-0.879,2.27-0.913,3.106-0.076l4.04,4.041
		c0.837,0.837,0.803,2.228-0.076,3.106L13.51,43.562z"/>
</g>
</svg>
