<?xml version="1.0" encoding="iso-8859-1"?>
<!-- Generator: Adobe Illustrator 16.0.0, SVG Export Plug-In . SVG Version: 6.00 Build 0)  -->
<!DOCTYPE svg PUBLIC "-//W3C//DTD SVG 1.1//EN" "http://www.w3.org/Graphics/SVG/1.1/DTD/svg11.dtd">
<svg version="1.1" id="Layer_1" xmlns="http://www.w3.org/2000/svg" xmlns:xlink="http://www.w3.org/1999/xlink" x="0px" y="0px"
	 width="50px" height="50px" viewBox="0 0 50 50" style="enable-background:new 0 0 50 50;" xml:space="preserve">
<g style="opacity:0.2;">
	<path style="fill:#231F20;" d="M12.28,44.047c-1.032,0.394-2.188-0.124-2.582-1.155l-2.852-7.475
		c-0.394-1.032,0.123-2.188,1.155-2.582l33.635-12.834c1.032-0.394,2.188,0.124,2.581,1.156l2.853,7.474
		c0.394,1.032-0.124,2.188-1.155,2.582L12.28,44.047z"/>
</g>
<g>
	<path style="fill:#77B3D4;" d="M12.2,41.282c-0.412,0-0.788-0.259-0.935-0.644l-2.853-7.474c-0.096-0.25-0.088-0.521,0.021-0.765
		s0.307-0.43,0.557-0.525l33.634-12.835c0.115-0.044,0.235-0.066,0.356-0.066c0.412,0,0.788,0.258,0.935,0.644l2.852,7.475
		c0.096,0.25,0.088,0.521-0.021,0.765c-0.109,0.244-0.307,0.43-0.557,0.526L12.556,41.216C12.44,41.26,12.321,41.282,12.2,41.282z"
		/>
	<path style="fill:#E0E0D1;" d="M42.982,19.973l2.852,7.474L12.199,40.281l-2.852-7.474L42.982,19.973 M42.981,17.973
		c-0.237,0-0.479,0.042-0.713,0.132L8.635,30.939c-1.032,0.394-1.55,1.549-1.156,2.582l2.853,7.474
		c0.304,0.797,1.063,1.288,1.869,1.288c0.236,0,0.478-0.042,0.712-0.132l33.635-12.834c1.032-0.394,1.55-1.55,1.155-2.582
		l-2.852-7.475C44.547,18.462,43.787,17.972,42.981,17.973L42.981,17.973z"/>
</g>
<g style="opacity:0.2;">
	<path style="fill:#231F20;" d="M13.982,44.426c-0.918,0.613-2.16,0.365-2.773-0.554L6.77,37.217
		c-0.613-0.919-0.365-2.161,0.554-2.773l29.947-19.979c0.919-0.613,2.161-0.365,2.773,0.554l4.44,6.655
		c0.612,0.918,0.364,2.161-0.555,2.773L13.982,44.426z"/>
</g>
<g>
	<path style="fill:#76C2AF;" d="M13.508,41.865c-0.336,0-0.648-0.167-0.834-0.446l-4.439-6.655c-0.148-0.222-0.201-0.489-0.149-0.75
		c0.053-0.262,0.204-0.488,0.426-0.637l29.947-19.978c0.165-0.11,0.356-0.168,0.554-0.168c0.336,0,0.647,0.167,0.833,0.445
		l4.439,6.655c0.148,0.222,0.201,0.489,0.149,0.75c-0.053,0.262-0.204,0.488-0.426,0.637L14.061,41.696
		C13.896,41.807,13.704,41.865,13.508,41.865z"/>
	<path style="fill:#E0E0D1;" d="M39.014,14.231l4.438,6.655L13.506,40.864l-4.439-6.655L39.014,14.231 M39.012,12.23
		c-0.382,0-0.768,0.109-1.108,0.336L7.956,32.545c-0.919,0.613-1.167,1.855-0.554,2.774l4.439,6.655
		c0.386,0.578,1.02,0.891,1.666,0.891c0.381,0,0.767-0.109,1.107-0.336l29.947-19.979c0.919-0.613,1.167-1.855,0.554-2.774
		l-4.439-6.655C40.291,12.543,39.657,12.23,39.012,12.23L39.012,12.23z"/>
</g>
<g style="opacity:0.2;">
	<path style="fill:#231F20;" d="M15.597,44.43c-0.773,0.789-2.04,0.801-2.828,0.028l-5.713-5.601
		c-0.788-0.773-0.801-2.04-0.028-2.828L32.23,10.322c0.773-0.789,2.04-0.801,2.828-0.028l5.713,5.601
		c0.789,0.773,0.801,2.04,0.028,2.828L15.597,44.43z"/>
</g>
<g>
	<path style="fill:#F5CF87;" d="M14.801,42.133c-0.264,0-0.513-0.102-0.7-0.286l-5.712-5.601c-0.191-0.188-0.298-0.438-0.301-0.705
		c-0.002-0.267,0.1-0.519,0.286-0.709L33.577,9.125c0.189-0.193,0.443-0.3,0.714-0.3c0.264,0,0.512,0.102,0.7,0.286l5.712,5.6
		c0.191,0.188,0.298,0.438,0.301,0.705c0.002,0.267-0.1,0.519-0.286,0.709L15.515,41.833C15.325,42.026,15.071,42.133,14.801,42.133
		z"/>
	<path style="fill:#FFFFFF;" d="M34.291,7.826v2l5.713,5.6L14.801,41.133l-5.713-5.601L34.289,9.826c0,0,0.001,0,0.002,0V7.826
		 M34.291,7.826c-0.519,0-1.036,0.2-1.428,0.6L7.66,34.132c-0.773,0.789-0.761,2.055,0.028,2.828l5.712,5.601
		c0.39,0.381,0.896,0.572,1.4,0.572c0.519,0,1.036-0.201,1.428-0.6l25.203-25.707c0.773-0.789,0.761-2.055-0.028-2.828l-5.712-5.601
		C35.302,8.016,34.796,7.826,34.291,7.826L34.291,7.826z"/>
</g>
<g style="opacity:0.2;">
	<path style="fill:#231F20;" d="M17.389,44.032c-0.567,0.948-1.796,1.255-2.743,0.688l-6.862-4.112
		c-0.947-0.568-1.255-1.796-0.688-2.744L25.602,6.984c0.568-0.947,1.797-1.255,2.744-0.687l6.862,4.112
		c0.947,0.568,1.255,1.796,0.687,2.744L17.389,44.032z"/>
</g>
<g>
	<path style="fill:#E0995E;" d="M16.304,42.107c-0.18,0-0.356-0.049-0.512-0.143l-6.863-4.113c-0.229-0.137-0.391-0.355-0.455-0.614
		c-0.065-0.259-0.025-0.528,0.112-0.757L27.092,5.602c0.183-0.305,0.504-0.486,0.86-0.486c0.18,0,0.356,0.049,0.513,0.143
		l6.861,4.112c0.473,0.283,0.627,0.899,0.344,1.372L17.164,41.621C16.981,41.926,16.659,42.107,16.304,42.107z"/>
	<path style="fill:#FFFFFF;" d="M27.95,6.115L27.95,6.115l6.861,4.112l-18.506,30.88l-6.861-4.113L27.948,6.116
		C27.948,6.116,27.949,6.116,27.95,6.115 M27.952,4.115c-0.681,0-1.343,0.347-1.718,0.972L7.729,35.966
		c-0.568,0.948-0.261,2.176,0.687,2.744l6.862,4.113c0.322,0.193,0.676,0.285,1.026,0.285c0.68,0,1.343-0.347,1.718-0.972
		l18.506-30.879c0.567-0.947,0.26-2.176-0.688-2.744L28.979,4.4C28.656,4.207,28.302,4.115,27.952,4.115L27.952,4.115z"/>
</g>
<g style="opacity:0.2;">
	<path style="fill:#231F20;" d="M18.924,43.3c-0.35,1.048-1.482,1.614-2.53,1.265l-7.59-2.53c-1.048-0.349-1.614-1.482-1.265-2.53
		L18.924,5.353c0.349-1.048,1.481-1.614,2.529-1.265l7.59,2.53c1.048,0.35,1.614,1.482,1.265,2.53L18.924,43.3z"/>
</g>
<g>
	<path style="fill:#C75C5C;" d="M17.659,41.771c-0.106,0-0.213-0.018-0.316-0.052l-7.59-2.53c-0.254-0.084-0.459-0.262-0.578-0.501
		c-0.119-0.239-0.139-0.51-0.055-0.763L20.504,3.772c0.137-0.41,0.519-0.685,0.949-0.685c0.107,0,0.214,0.018,0.316,0.052l7.59,2.53
		c0.254,0.084,0.459,0.262,0.578,0.501c0.12,0.239,0.139,0.51,0.055,0.763L18.607,41.086C18.471,41.496,18.09,41.771,17.659,41.771z
		"/>
	<path style="fill:#FFFFFF;" d="M21.455,4.088l7.588,2.53L17.659,40.77l-7.59-2.53L21.455,4.088 M21.453,2.087
		c-0.837,0-1.618,0.53-1.897,1.368L8.172,37.608c-0.35,1.048,0.217,2.181,1.265,2.53l7.59,2.53c0.21,0.07,0.423,0.104,0.633,0.104
		c0.838,0,1.618-0.53,1.896-1.368L30.94,7.25c0.35-1.048-0.217-2.181-1.265-2.53l-7.59-2.53C21.876,2.121,21.663,2.087,21.453,2.087
		L21.453,2.087z"/>
</g>
<circle style="opacity:0.2;fill:#231F20;" cx="15.105" cy="35.834" r="1.875"/>
<circle style="fill:#FFFFFF;" cx="15.5" cy="34.649" r="1.875"/>
</svg>
