<?xml version="1.0" encoding="iso-8859-1"?>
<!-- Generator: Adobe Illustrator 16.0.0, SVG Export Plug-In . SVG Version: 6.00 Build 0)  -->
<!DOCTYPE svg PUBLIC "-//W3C//DTD SVG 1.1//EN" "http://www.w3.org/Graphics/SVG/1.1/DTD/svg11.dtd">
<svg version="1.1" id="Layer_1" xmlns="http://www.w3.org/2000/svg" xmlns:xlink="http://www.w3.org/1999/xlink" x="0px" y="0px"
	 width="50px" height="50px" viewBox="0 0 50 50" style="enable-background:new 0 0 50 50;" xml:space="preserve">
<g style="opacity:0.2;">
	<path style="fill:#231F20;" d="M40,42c0,2.209-1.791,4-4,4H14c-2.209,0-4-1.791-4-4V10c0-2.209,1.791-4,4-4h22c2.209,0,4,1.791,4,4
		V42z"/>
</g>
<g>
	<path style="fill:#4F5D73;" d="M14,42.5c-1.378,0-2.5-1.122-2.5-2.5V8c0-1.378,1.122-2.5,2.5-2.5h22c1.378,0,2.5,1.122,2.5,2.5v32
		c0,1.378-1.122,2.5-2.5,2.5H14z"/>
	<path style="fill:#FFFFFF;" d="M36,7c0.551,0,1,0.449,1,1v32c0,0.551-0.449,1-1,1H14c-0.551,0-1-0.449-1-1V8c0-0.551,0.449-1,1-1
		H36 M36,4H14c-2.209,0-4,1.791-4,4v32c0,2.209,1.791,4,4,4h22c2.209,0,4-1.791,4-4V8C40,5.791,38.209,4,36,4L36,4z"/>
</g>
<path style="opacity:0.2;fill:#FFFFFF;" d="M38,41.536V5.5H17.704l15.274,36.964C34.645,42.119,36.322,41.824,38,41.536z"/>
<g>
	<polygon style="fill:#FFFFFF;" points="38,43 13,43 12,36 38,36 	"/>
</g>
<g>
	<circle style="fill:#E0E0D1;" cx="25" cy="40" r="2"/>
</g>
</svg>
