<?xml version="1.0" encoding="iso-8859-1"?>
<!-- Generator: Adobe Illustrator 16.0.0, SVG Export Plug-In . SVG Version: 6.00 Build 0)  -->
<!DOCTYPE svg PUBLIC "-//W3C//DTD SVG 1.1//EN" "http://www.w3.org/Graphics/SVG/1.1/DTD/svg11.dtd">
<svg version="1.1" id="Layer_1" xmlns="http://www.w3.org/2000/svg" xmlns:xlink="http://www.w3.org/1999/xlink" x="0px" y="0px"
	 width="50px" height="50px" viewBox="0 0 50 50" style="enable-background:new 0 0 50 50;" xml:space="preserve">
<g style="opacity:0.2;">
	<path style="fill:#231F20;" d="M41,7H9c-2.209,0-4,1.791-4,4v5.5V43c0,2.209,1.791,4,4,4h32c2.209,0,4-1.791,4-4V16.5V11
		C45,8.791,43.209,7,41,7z"/>
</g>
<g>
	<path style="fill:#E0995E;" d="M41,5H9C6.791,5,5,6.791,5,9v5.5V41c0,2.209,1.791,4,4,4h32c2.209,0,4-1.791,4-4V14.5V9
		C45,6.791,43.209,5,41,5z"/>
</g>
<g style="opacity:0.2;">
	<rect x="9" y="11" style="fill:#231F20;" width="32" height="32"/>
</g>
<g>
	<rect x="9" y="9" style="fill:#FFFFFF;" width="32" height="32"/>
</g>
<g>
	<rect x="15" y="17" style="fill:#E0E0D1;" width="20" height="2"/>
</g>
<g>
	<rect x="15" y="21" style="fill:#E0E0D1;" width="20" height="2"/>
</g>
<g>
	<rect x="15" y="25" style="fill:#E0E0D1;" width="20" height="2"/>
</g>
<g>
	<rect x="15" y="29" style="fill:#E0E0D1;" width="20" height="2"/>
</g>
<g>
	<rect x="15" y="33" style="fill:#E0E0D1;" width="20" height="2"/>
</g>
<g style="opacity:0.2;">
	<path style="fill:#231F20;" d="M30,5H20h-3v3v1v1c0,1.657,1.343,3,3,3h10c1.657,0,3-1.343,3-3V9V8V5H30z"/>
</g>
<g>
	<path style="fill:#4F5D73;" d="M30,3H20h-3v3v1v1c0,1.657,1.343,3,3,3h10c1.657,0,3-1.343,3-3V7V6V3H30z"/>
</g>
</svg>
