<?xml version="1.0" encoding="iso-8859-1"?>
<!-- Generator: Adobe Illustrator 16.0.0, SVG Export Plug-In . SVG Version: 6.00 Build 0)  -->
<!DOCTYPE svg PUBLIC "-//W3C//DTD SVG 1.1//EN" "http://www.w3.org/Graphics/SVG/1.1/DTD/svg11.dtd">
<svg version="1.1" id="Layer_1" xmlns="http://www.w3.org/2000/svg" xmlns:xlink="http://www.w3.org/1999/xlink" x="0px" y="0px"
	 width="50px" height="50px" viewBox="0 0 50 50" style="enable-background:new 0 0 50 50;" xml:space="preserve">
<g style="opacity:0.2;">
	<g>
		<path style="fill:#231F20;" d="M40.837,10.001c-0.022,0-0.044,0-0.067,0c-0.02,0-0.037-0.002-0.057,0H25.207
			c-0.377,0.018-1.236,0.607-1.347,0.718L5.721,28.864c-0.962,0.963-0.962,2.521,0,3.484l13.926,13.931
			C20.13,46.761,20.759,47,21.389,47c0.629,0,1.26-0.239,1.741-0.721l18.138-18.146c0.111-0.11,0.73-0.873,0.73-1.347V11.225
			C42.033,10.536,41.513,10.001,40.837,10.001z M37,17c-1.104,0-2-0.896-2-2c0-1.104,0.896-2,2-2s2,0.896,2,2
			C39,16.104,38.104,17,37,17z"/>
	</g>
</g>
<g>
	<g>
		<path style="fill:#C75C5C;" d="M40.837,8.001c-0.022,0-0.044,0-0.067,0c-0.02,0-0.037-0.002-0.057,0H25.207
			c-0.377,0.018-1.236,0.607-1.347,0.718L5.721,26.864c-0.962,0.963-0.962,2.521,0,3.484l13.926,13.931
			C20.13,44.761,20.759,45,21.389,45c0.629,0,1.26-0.239,1.741-0.721l18.138-18.146c0.111-0.11,0.73-0.873,0.73-1.347V9.225
			C42.033,8.536,41.513,8.001,40.837,8.001z M37,15c-1.104,0-2-0.896-2-2c0-1.104,0.896-2,2-2s2,0.896,2,2
			C39,14.104,38.104,15,37,15z"/>
	</g>
</g>
</svg>
