<?xml version="1.0" encoding="iso-8859-1"?>
<!-- Generator: Adobe Illustrator 16.0.0, SVG Export Plug-In . SVG Version: 6.00 Build 0)  -->
<!DOCTYPE svg PUBLIC "-//W3C//DTD SVG 1.1//EN" "http://www.w3.org/Graphics/SVG/1.1/DTD/svg11.dtd">
<svg version="1.1" id="Layer_1" xmlns="http://www.w3.org/2000/svg" xmlns:xlink="http://www.w3.org/1999/xlink" x="0px" y="0px"
	 width="50px" height="50px" viewBox="0 0 50 50" style="enable-background:new 0 0 50 50;" xml:space="preserve">
<g style="opacity:0.2;">
	<g>
		<circle style="fill:#231F20;" cx="25" cy="27" r="22"/>
	</g>
</g>
<g>
	<g>
		<path style="fill:#C75C5C;" d="M25,45C13.972,45,5,36.028,5,25S13.972,5,25,5s20,8.972,20,20S36.028,45,25,45z"/>
	</g>
	<g>
		<path style="fill:#FFFFFF;" d="M25,7c9.925,0,18,8.075,18,18s-8.075,18-18,18S7,34.925,7,25S15.075,7,25,7 M25,3
			C12.85,3,3,12.85,3,25s9.85,22,22,22s22-9.85,22-22S37.15,3,25,3L25,3z"/>
	</g>
</g>
<g>
	<path style="fill:#FFFFFF;" d="M25,15c5.514,0,10,4.486,10,10s-4.486,10-10,10s-10-4.486-10-10S19.486,15,25,15 M25,11
		c-7.732,0-14,6.268-14,14s6.268,14,14,14s14-6.268,14-14S32.732,11,25,11L25,11z"/>
</g>
<g>
	<circle style="fill:#FFFFFF;" cx="25" cy="25" r="5"/>
</g>
</svg>
