<?xml version="1.0" encoding="iso-8859-1"?>
<!-- Generator: Adobe Illustrator 16.0.0, SVG Export Plug-In . SVG Version: 6.00 Build 0)  -->
<!DOCTYPE svg PUBLIC "-//W3C//DTD SVG 1.1//EN" "http://www.w3.org/Graphics/SVG/1.1/DTD/svg11.dtd">
<svg version="1.1" id="Layer_1" xmlns="http://www.w3.org/2000/svg" xmlns:xlink="http://www.w3.org/1999/xlink" x="0px" y="0px"
	 width="50px" height="50px" viewBox="0 0 50 50" style="enable-background:new 0 0 50 50;" xml:space="preserve">
<g style="opacity:0.2;">
	<path style="fill:#231F20;" d="M44,29.91c0,4.693-3.806,8.5-8.5,8.5s-8.5-3.807-8.5-8.5C27,23.728,35.5,16,35.5,16
		S44,23.728,44,29.91z"/>
</g>
<g style="opacity:0.2;">
	<path style="fill:#231F20;" d="M4.001,35.5c-0.514,0-1.014-0.264-1.293-0.738c-0.421-0.714-0.184-1.633,0.53-2.054l39-23
		c0.715-0.42,1.634-0.183,2.054,0.53c0.421,0.713,0.184,1.633-0.53,2.054l-39,23C4.523,35.433,4.26,35.5,4.001,35.5z"/>
</g>
<line style="fill:none;stroke:#E0995E;stroke-width:3;stroke-linecap:round;stroke-miterlimit:10;" x1="4" y1="32" x2="43" y2="9"/>
<path style="fill:#C75C5C;" d="M44,27.909c0,4.694-3.806,8.5-8.5,8.5s-8.5-3.806-8.5-8.5C27,21.728,35.5,14,35.5,14
	S44,21.728,44,27.909z"/>
<path style="opacity:0.2;fill:#231F20;" d="M32.817,14.644c0.559-1.118,0-4-4-3c-4.947,1.236-5-2-5-2s-1.912,4.663,3.479,6.256
	C29.817,16.644,31.817,16.644,32.817,14.644z"/>
<path style="fill:#C75C5C;" d="M32.817,13c0.559-1.118,0-4-4-3c-4.947,1.236-5-2-5-2s-1.912,4.664,3.479,6.256
	C29.817,15,31.817,15,32.817,13z"/>
<path style="opacity:0.2;fill:#231F20;" d="M38.494,14.912c-0.836,0.93-1.062,3.856,3.06,3.955c5.098,0.121,4.29,3.256,4.29,3.256
	s3.082-3.989-1.694-6.956C41.917,13.781,39.989,13.25,38.494,14.912z"/>
<path style="fill:#C75C5C;" d="M38.494,13.035c-0.836,0.93-1.062,3.855,3.06,3.954c5.098,0.121,4.29,3.255,4.29,3.255
	s3.082-3.988-1.694-6.955C41.917,11.902,39.989,11.372,38.494,13.035z"/>
<circle style="opacity:0.2;fill:#231F20;" cx="35.5" cy="14.5" r="4.5"/>
<circle style="fill:#C75C5C;" cx="35.5" cy="13" r="4"/>
</svg>
