<?xml version="1.0" encoding="iso-8859-1"?>
<!-- Generator: Adobe Illustrator 16.0.0, SVG Export Plug-In . SVG Version: 6.00 Build 0)  -->
<!DOCTYPE svg PUBLIC "-//W3C//DTD SVG 1.1//EN" "http://www.w3.org/Graphics/SVG/1.1/DTD/svg11.dtd">
<svg version="1.1" id="Layer_1" xmlns="http://www.w3.org/2000/svg" xmlns:xlink="http://www.w3.org/1999/xlink" x="0px" y="0px"
	 width="50px" height="50px" viewBox="0 0 50 50" style="enable-background:new 0 0 50 50;" xml:space="preserve">
<g style="opacity:0.2;">
	<path style="fill:#231F20;" d="M25,15c-1.104,0-2-0.896-2-2V9c0-1.104,0.896-2,2-2s2,0.896,2,2v4C27,14.104,26.104,15,25,15z"/>
</g>
<g>
	<path style="fill:#4F5D73;" d="M25,13c-1.104,0-2-0.896-2-2V7c0-1.104,0.896-2,2-2s2,0.896,2,2v4C27,12.104,26.104,13,25,13z"/>
</g>
<g style="opacity:0.2;">
	<path style="fill:#231F20;" d="M29,11h-8c-1.104,0-2-0.896-2-2s0.896-2,2-2h8c1.104,0,2,0.896,2,2S30.104,11,29,11z"/>
</g>
<g>
	<path style="fill:#4F5D73;" d="M29,9h-8c-1.104,0-2-0.896-2-2s0.896-2,2-2h8c1.104,0,2,0.896,2,2S30.104,9,29,9z"/>
</g>
<g style="opacity:0.2;">
	<path style="fill:#231F20;" d="M25,47c-1.104,0-2-0.896-2-2V21c0-1.104,0.896-2,2-2s2,0.896,2,2v24C27,46.104,26.104,47,25,47z"/>
</g>
<g>
	<path style="fill:#E0E0D1;" d="M25,45c-1.104,0-2-0.896-2-2V19c0-1.104,0.896-2,2-2s2,0.896,2,2v24C27,44.104,26.104,45,25,45z"/>
</g>
<g style="opacity:0.2;">
	<path style="fill:#231F20;" d="M41.002,47c-0.646,0-1.281-0.313-1.666-0.891L25,24.605L10.664,46.109
		c-0.612,0.919-1.854,1.169-2.773,0.555c-0.919-0.613-1.167-1.854-0.555-2.773l16-24C23.707,19.334,24.331,19,25,19
		s1.293,0.334,1.664,0.891l16,24c0.613,0.919,0.364,2.161-0.555,2.773C41.769,46.892,41.383,47,41.002,47z"/>
</g>
<g>
	<path style="fill:#FFFFFF;" d="M41.002,45c-0.646,0-1.281-0.313-1.666-0.891L25,22.605L10.664,44.109
		c-0.612,0.919-1.854,1.169-2.773,0.555c-0.919-0.613-1.167-1.854-0.555-2.773l16-24C23.707,17.334,24.331,17,25,17
		s1.293,0.334,1.664,0.891l16,24c0.613,0.919,0.364,2.161-0.555,2.773C41.769,44.892,41.383,45,41.002,45z"/>
</g>
</svg>
