<?xml version="1.0" encoding="iso-8859-1"?>
<!-- Generator: Adobe Illustrator 16.0.0, SVG Export Plug-In . SVG Version: 6.00 Build 0)  -->
<!DOCTYPE svg PUBLIC "-//W3C//DTD SVG 1.1//EN" "http://www.w3.org/Graphics/SVG/1.1/DTD/svg11.dtd">
<svg version="1.1" id="Layer_1" xmlns="http://www.w3.org/2000/svg" xmlns:xlink="http://www.w3.org/1999/xlink" x="0px" y="0px"
	 width="50px" height="50px" viewBox="0 0 50 50" style="enable-background:new 0 0 50 50;" xml:space="preserve">
<path style="opacity:0.2;fill:#231F20;" d="M45,42c0,1.104-0.896,2-2,2H7c-1.104,0-2-0.896-2-2V12c0-1.104,0.896-2,2-2h36
	c1.104,0,2,0.896,2,2V42z"/>
<path style="fill:#4F5D73;" d="M45,40c0,1.104-0.896,2-2,2H7c-1.104,0-2-0.896-2-2V10c0-1.104,0.896-2,2-2h36c1.104,0,2,0.896,2,2
	V40z"/>
<path style="fill:#E0E0D1;" d="M41,30c0,1.104-0.896,2-2,2H11c-1.104,0-2-0.896-2-2V13.875c0-1.104,0.896-2,2-2h28
	c1.104,0,2,0.896,2,2V30z"/>
<g style="opacity:0.2;">
	<path style="fill:#231F20;" d="M39,11.875H11c-1.104,0-2,0.896-2,2V15c0-1.104,0.896-2,2-2h28c1.104,0,2,0.896,2,2v-1.125
		C41,12.771,40.104,11.875,39,11.875z"/>
</g>
<path style="opacity:0.2;fill:#231F20;" d="M13,38c0,1.104-0.896,2-2,2l0,0c-1.104,0-2-0.896-2-2l0,0c0-1.104,0.896-2,2-2l0,0
	C12.104,36,13,36.896,13,38L13,38z"/>
<path style="opacity:0.2;fill:#231F20;" d="M41,38c0,1.104-0.896,2-2,2l0,0c-1.104,0-2-0.896-2-2l0,0c0-1.104,0.896-2,2-2l0,0
	C40.104,36,41,36.896,41,38L41,38z"/>
<path style="fill:#76C2AF;" d="M13,37c0,1.104-0.896,2-2,2l0,0c-1.104,0-2-0.896-2-2l0,0c0-1.104,0.896-2,2-2l0,0
	C12.104,35,13,35.896,13,37L13,37z"/>
<path style="fill:#76C2AF;" d="M41,37c0,1.104-0.896,2-2,2l0,0c-1.104,0-2-0.896-2-2l0,0c0-1.104,0.896-2,2-2l0,0
	C40.104,35,41,35.896,41,37L41,37z"/>
<path style="fill:#F5CF87;" d="M18,38c0,0.552-0.447,1-1,1l0,0c-0.553,0-1-0.448-1-1v-2c0-0.552,0.447-1,1-1l0,0
	c0.553,0,1,0.448,1,1V38z"/>
<path style="fill:#F5CF87;" d="M22,38c0,0.552-0.447,1-1,1l0,0c-0.553,0-1-0.448-1-1v-2c0-0.552,0.447-1,1-1l0,0
	c0.553,0,1,0.448,1,1V38z"/>
<path style="fill:#F5CF87;" d="M30,38c0,0.552-0.447,1-1,1l0,0c-0.553,0-1-0.448-1-1v-2c0-0.552,0.447-1,1-1l0,0
	c0.553,0,1,0.448,1,1V38z"/>
<path style="fill:#F5CF87;" d="M34,38c0,0.552-0.447,1-1,1l0,0c-0.553,0-1-0.448-1-1v-2c0-0.552,0.447-1,1-1l0,0
	c0.553,0,1,0.448,1,1V38z"/>
<path style="fill:#F5CF87;" d="M26,38c0,0.552-0.447,1-1,1l0,0c-0.553,0-1-0.448-1-1v-2c0-0.552,0.447-1,1-1l0,0
	c0.553,0,1,0.448,1,1V38z"/>
<g style="opacity:0.2;">
	<path style="fill:#231F20;" d="M17,35c-0.553,0-1,0.448-1,1v1c0-0.552,0.447-1,1-1s1,0.448,1,1v-1C18,35.448,17.553,35,17,35z"/>
	<path style="fill:#231F20;" d="M21,35c-0.553,0-1,0.448-1,1v1c0-0.552,0.447-1,1-1s1,0.448,1,1v-1C22,35.448,21.553,35,21,35z"/>
	<path style="fill:#231F20;" d="M29,35c-0.553,0-1,0.448-1,1v1c0-0.552,0.447-1,1-1s1,0.448,1,1v-1C30,35.448,29.553,35,29,35z"/>
	<path style="fill:#231F20;" d="M33,35c-0.553,0-1,0.448-1,1v1c0-0.552,0.447-1,1-1s1,0.448,1,1v-1C34,35.448,33.553,35,33,35z"/>
	<path style="fill:#231F20;" d="M25,35c-0.553,0-1,0.448-1,1v1c0-0.552,0.447-1,1-1s1,0.448,1,1v-1C26,35.448,25.553,35,25,35z"/>
</g>
<g>
	<path style="opacity:0.2;fill:#FFFFFF;" d="M41,30V13.875c0-1.104-0.896-2-2-2H18.503L30.078,32H39C40.104,32,41,31.104,41,30z"/>
</g>
</svg>
