<?xml version="1.0" encoding="iso-8859-1"?>
<!-- Generator: Adobe Illustrator 16.0.0, SVG Export Plug-In . SVG Version: 6.00 Build 0)  -->
<!DOCTYPE svg PUBLIC "-//W3C//DTD SVG 1.1//EN" "http://www.w3.org/Graphics/SVG/1.1/DTD/svg11.dtd">
<svg version="1.1" id="Layer_1" xmlns="http://www.w3.org/2000/svg" xmlns:xlink="http://www.w3.org/1999/xlink" x="0px" y="0px"
	 width="50px" height="50px" viewBox="0 0 50 50" style="enable-background:new 0 0 50 50;" xml:space="preserve">
<path style="opacity:0.2;fill:#231F20;" d="M28.404,39.473l-12-32C16.185,6.888,15.625,6.5,15,6.5s-1.185,0.388-1.404,0.973l-12,32
	c-0.291,0.776,0.102,1.641,0.877,1.931c0.777,0.293,1.641-0.102,1.931-0.877L9.102,28h11.796l4.698,12.527
	C25.821,41.129,26.393,41.5,27,41.5c0.175,0,0.353-0.031,0.527-0.096C28.302,41.114,28.695,40.249,28.404,39.473z M10.227,25
	L15,12.272L19.773,25H10.227z"/>
<g style="opacity:0.2;">
	<path style="fill:#231F20;" d="M46,41.5h-8c-4.687,0-8.5-3.813-8.5-8.5c0-4.561,3.654-8,8.5-8h6.5v-1
		c0-1.588-0.484-2.749-1.48-3.546c-2.529-2.026-7.853-1.401-9.69-0.99c-0.809,0.181-1.61-0.327-1.792-1.134
		c-0.182-0.808,0.325-1.61,1.132-1.792c0.326-0.074,8.042-1.77,12.22,1.57C46.622,19.492,47.5,21.475,47.5,24v16
		C47.5,40.829,46.829,41.5,46,41.5z M38,28c-3.187,0-5.5,2.103-5.5,5c0,3.033,2.467,5.5,5.5,5.5h6.5V28H38z"/>
</g>
<polyline style="fill:none;stroke:#FFFFFF;stroke-width:3;stroke-linecap:round;stroke-linejoin:round;stroke-miterlimit:10;" points="
	3,38 15,6 27,38 "/>
<line style="fill:none;stroke:#FFFFFF;stroke-width:3;stroke-linecap:round;stroke-linejoin:round;stroke-miterlimit:10;" x1="9" y1="24.5" x2="21" y2="24.5"/>
<path style="fill:none;stroke:#FFFFFF;stroke-width:3;stroke-linecap:round;stroke-linejoin:round;stroke-miterlimit:10;" d="M33,16
	c0,0,13-2.938,13,6c0,10,0,16,0,16h-8c-3.866,0-7-3.134-7-7l0,0c0-3.866,3.134-6.5,7-6.5h7"/>
</svg>
