<?xml version="1.0" encoding="iso-8859-1"?>
<!-- Generator: Adobe Illustrator 16.0.0, SVG Export Plug-In . SVG Version: 6.00 Build 0)  -->
<!DOCTYPE svg PUBLIC "-//W3C//DTD SVG 1.1//EN" "http://www.w3.org/Graphics/SVG/1.1/DTD/svg11.dtd">
<svg version="1.1" id="Layer_1" xmlns="http://www.w3.org/2000/svg" xmlns:xlink="http://www.w3.org/1999/xlink" x="0px" y="0px"
	 width="50px" height="50px" viewBox="0 0 50 50" style="enable-background:new 0 0 50 50;" xml:space="preserve">
<path style="opacity:0.2;fill:#231F20;" d="M49,30c0,2-10.745,8-24,8S1,32,1,30c0-1.812,10.745-8,24-8S49,28.063,49,30z"/>
<path style="fill:#E0E0D1;" d="M49,28c0,2-10.745,8-24,8S1,30,1,28c0-1.812,10.745-8,24-8S49,26.063,49,28z"/>
<path style="opacity:0.2;fill:#231F20;" d="M34.474,23.474C34.474,28.706,30.232,29,25,29s-9.474-0.294-9.474-5.526
	C15.526,18.242,19.768,14,25,14S34.474,18.242,34.474,23.474z"/>
<path style="fill:#77B3D4;" d="M34.474,21.474C34.474,26.706,30.232,27,25,27s-9.474-0.294-9.474-5.526
	C15.526,16.242,19.768,12,25,12S34.474,16.242,34.474,21.474z"/>
</svg>
