<?xml version="1.0" encoding="iso-8859-1"?>
<!-- Generator: Adobe Illustrator 16.0.0, SVG Export Plug-In . SVG Version: 6.00 Build 0)  -->
<!DOCTYPE svg PUBLIC "-//W3C//DTD SVG 1.1//EN" "http://www.w3.org/Graphics/SVG/1.1/DTD/svg11.dtd">
<svg version="1.1" id="Layer_1" xmlns="http://www.w3.org/2000/svg" xmlns:xlink="http://www.w3.org/1999/xlink" x="0px" y="0px"
	 width="50px" height="50px" viewBox="0 0 50 50" style="enable-background:new 0 0 50 50;" xml:space="preserve">
<g style="opacity:0.2;">
	<g>
		<path style="fill:#231F20;" d="M19,49c-4.411,0-8-3.589-8-8c0-1.104,0.896-2,2-2s2,0.896,2,2c0,2.206,1.794,4,4,4s4-1.794,4-4V5
			c0-1.104,0.896-2,2-2s2,0.896,2,2v36C27,45.411,23.411,49,19,49z"/>
	</g>
</g>
<g>
	<path style="fill:#4F5D73;" d="M19,47c-4.411,0-8-3.589-8-8c0-1.104,0.896-2,2-2s2,0.896,2,2c0,2.206,1.794,4,4,4s4-1.794,4-4V3
		c0-1.104,0.896-2,2-2s2,0.896,2,2v36C27,43.411,23.411,47,19,47z"/>
</g>
<g>
	<path style="fill:#C75C5C;" d="M25,3"/>
</g>
<g style="opacity:0.2;">
	<path style="fill:#231F20;" d="M25,5C11.745,5,1,15.745,1,29c5.045-3.409,10.909,0,10.909,0c0-1.205,5.861-3.272,13.091-3.272
		S38.091,27.795,38.091,29c0,0,5.795-3.409,10.909,0C49,15.745,38.255,5,25,5z"/>
</g>
<g>
	<g>
		<path style="fill:#C75C5C;" d="M11.909,27c0,0,0.272-17.659,13.091-24C11.745,3,1,13.745,1,27C6.045,23.591,11.909,27,11.909,27z"
			/>
	</g>
	<g>
		<path style="fill:#C75C5C;" d="M38.091,27c0,0,5.795-3.409,10.909,0C49,13.745,38.255,3,25,3C37.818,9.341,38.091,27,38.091,27z"
			/>
	</g>
	<g>
		<path style="fill:#FFFFFF;" d="M11.909,27c0-1.205,5.861-3.272,13.091-3.272S38.091,25.795,38.091,27c0,0-0.272-17.659-13.091-24
			C12.182,9.341,11.909,27,11.909,27z"/>
	</g>
</g>
<g>
	<path style="fill:#4F5D73;" d="M25,6c-1.104,0-2-0.896-2-2V3c0-1.104,0.896-2,2-2s2,0.896,2,2v1C27,5.104,26.104,6,25,6z"/>
</g>
</svg>
