<?xml version="1.0" encoding="iso-8859-1"?>
<!-- Generator: Adobe Illustrator 16.0.0, SVG Export Plug-In . SVG Version: 6.00 Build 0)  -->
<!DOCTYPE svg PUBLIC "-//W3C//DTD SVG 1.1//EN" "http://www.w3.org/Graphics/SVG/1.1/DTD/svg11.dtd">
<svg version="1.1" id="Layer_1" xmlns="http://www.w3.org/2000/svg" xmlns:xlink="http://www.w3.org/1999/xlink" x="0px" y="0px"
	 width="50px" height="50px" viewBox="0 0 50 50" style="enable-background:new 0 0 50 50;" xml:space="preserve">
<g style="opacity:0.2;">
	<g>
		<path style="fill:#231F20;" d="M41,25c0-8.837-7.164-16-16-16c-7.498,0-13.773,5.165-15.508,12.126C4.687,21.854,1,25.991,1,31
			c0,5.522,4.477,10,10,10h8c1.104,0,2-0.896,2-2v-5.5c0-0.828-0.671-1.5-1.5-1.5h-3.062c-1.471,0-1.882-1.011-0.914-2.245
			l7.713-9.829c0.969-1.234,2.555-1.234,3.523,0l7.713,9.829C35.444,30.989,35.033,32,33.562,32H30.5c-0.829,0-1.5,0.672-1.5,1.5V39
			c0,1.104,0.896,2,2,2h10c4.418,0,8-3.582,8-8S45.418,25,41,25z"/>
	</g>
</g>
<g>
	<g>
		<path style="fill:#FFFFFF;" d="M41,23c0-8.837-7.164-16-16-16c-7.498,0-13.773,5.165-15.508,12.126C4.687,19.854,1,23.991,1,29
			c0,5.522,4.477,10,10,10h8c1.104,0,2-0.896,2-2v-5.5c0-0.828-0.671-1.5-1.5-1.5h-3.062c-1.471,0-1.882-1.011-0.914-2.245
			l7.713-9.829c0.969-1.234,2.555-1.234,3.523,0l7.713,9.829C35.444,28.989,35.033,30,33.562,30H30.5c-0.829,0-1.5,0.672-1.5,1.5V37
			c0,1.104,0.896,2,2,2h10c4.418,0,8-3.582,8-8S45.418,23,41,23z"/>
	</g>
</g>
</svg>
