<?xml version="1.0" encoding="iso-8859-1"?>
<!-- Generator: Adobe Illustrator 16.0.0, SVG Export Plug-In . SVG Version: 6.00 Build 0)  -->
<!DOCTYPE svg PUBLIC "-//W3C//DTD SVG 1.1//EN" "http://www.w3.org/Graphics/SVG/1.1/DTD/svg11.dtd">
<svg version="1.1" id="Layer_1" xmlns="http://www.w3.org/2000/svg" xmlns:xlink="http://www.w3.org/1999/xlink" x="0px" y="0px"
	 width="50px" height="50px" viewBox="0 0 50 50" style="enable-background:new 0 0 50 50;" xml:space="preserve">
<rect x="22" y="23" style="fill:#4F5D73;" width="11" height="8"/>
<path style="opacity:0.2;fill:#231F20;" d="M25,43c0,1.104-0.896,2-2,2H7c-1.104,0-2-0.896-2-2V19c0-1.104,0.896-2,2-2h16
	c1.104,0,2,0.896,2,2V43z"/>
<path style="opacity:0.2;fill:#231F20;" d="M46,39c0,1.104-0.896,2-2,2H30c-1.104,0-2-0.896-2-2V19c0-1.104,0.896-2,2-2h14
	c1.104,0,2,0.896,2,2V39z"/>
<rect x="22" y="23" style="opacity:0.2;fill:#231F20;" width="11" height="10"/>
<path style="fill:#4F5D73;" d="M25,41c0,1.104-0.896,2-2,2H7c-1.104,0-2-0.896-2-2V17c0-1.104,0.896-2,2-2h16c1.104,0,2,0.896,2,2
	V41z"/>
<path style="fill:#4F5D73;" d="M46,37c0,1.104-0.896,2-2,2H30c-1.104,0-2-0.896-2-2V17c0-1.104,0.896-2,2-2h14c1.104,0,2,0.896,2,2
	V37z"/>
<g>
	<path style="fill:#4F5D73;" d="M15,8c-4.962,0-9,4.038-9,9s4.038,9,9,9s9-4.038,9-9S19.962,8,15,8z"/>
</g>
<circle style="opacity:0.2;fill:#231F20;" cx="9.5" cy="35.5" r="2.5"/>
<circle style="fill:#C75C5C;" cx="9.5" cy="33.5" r="2.5"/>
<path style="opacity:0.2;fill:#231F20;" d="M15,7C8.373,7,3,12.373,3,19s5.373,12,12,12s12-5.373,12-12S21.627,7,15,7z M15,28
	c-4.962,0-9-4.038-9-9s4.038-9,9-9s9,4.038,9,9S19.962,28,15,28z"/>
<path style="fill:#E0E0D1;" d="M15,5C8.373,5,3,10.373,3,17s5.373,12,12,12s12-5.373,12-12S21.627,5,15,5z M15,26
	c-4.962,0-9-4.038-9-9s4.038-9,9-9s9,4.038,9,9S19.962,26,15,26z"/>
</svg>
