<?xml version="1.0" encoding="iso-8859-1"?>
<!-- Generator: Adobe Illustrator 16.0.0, SVG Export Plug-In . SVG Version: 6.00 Build 0)  -->
<!DOCTYPE svg PUBLIC "-//W3C//DTD SVG 1.1//EN" "http://www.w3.org/Graphics/SVG/1.1/DTD/svg11.dtd">
<svg version="1.1" id="Layer_1" xmlns="http://www.w3.org/2000/svg" xmlns:xlink="http://www.w3.org/1999/xlink" x="0px" y="0px"
	 width="50px" height="50px" viewBox="0 0 50 50" style="enable-background:new 0 0 50 50;" xml:space="preserve">
<g>
	<path style="opacity:0.2;fill:#231F20;" d="M48,27c-1.104,0-4,2-4,2h-4v-4c0-1.104-0.896-2-2-2H8c-1.104,0-2,0.896-2,2v2H4
		c-1.104,0-2,0.896-2,2v6c0,1.104,0.896,2,2,2h2v6c0,1.104,0.896,2,2,2h30c1.104,0,2-0.896,2-2v-4h4c0,0,2.896,2,4,2s2-0.896,2-2V29
		C50,27.896,49.104,27,48,27z"/>
	<path style="fill:#E0E0D1;" d="M40,41c0,1.104-0.896,2-2,2H8c-1.104,0-2-0.896-2-2V25c0-1.104,0.896-2,2-2h30c1.104,0,2,0.896,2,2
		V41z"/>
	<path style="fill:#E0E0D1;" d="M46,35c0,1.104-0.896,2-2,2H17c-1.104,0-2-0.896-2-2v-6c0-1.104,0.896-2,2-2h27c1.104,0,2,0.896,2,2
		V35z"/>
	<path style="fill:#E0E0D1;" d="M33,33c0,1.104-0.896,2-2,2H4c-1.104,0-2-0.896-2-2v-6c0-1.104,0.896-2,2-2h27c1.104,0,2,0.896,2,2
		V33z"/>
	<path style="fill:#E0E0D1;" d="M50,37c0,1.104-0.896,2-2,2l0,0c-1.104,0-4-2-4-2V27c0,0,2.896-2,4-2l0,0c1.104,0,2,0.896,2,2V37z"
		/>
	<circle style="opacity:0.2;fill:#231F20;" cx="14" cy="15" r="10"/>
	<circle style="opacity:0.2;fill:#231F20;" cx="32" cy="17" r="8"/>
	<circle style="fill:#FFFFFF;" cx="14" cy="13" r="10"/>
	<circle style="fill:#FFFFFF;" cx="32" cy="15" r="8"/>
</g>
</svg>
