<?xml version="1.0" encoding="iso-8859-1"?>
<!-- Generator: Adobe Illustrator 16.0.0, SVG Export Plug-In . SVG Version: 6.00 Build 0)  -->
<!DOCTYPE svg PUBLIC "-//W3C//DTD SVG 1.1//EN" "http://www.w3.org/Graphics/SVG/1.1/DTD/svg11.dtd">
<svg version="1.1" id="Layer_1" xmlns="http://www.w3.org/2000/svg" xmlns:xlink="http://www.w3.org/1999/xlink" x="0px" y="0px"
	 width="50px" height="50px" viewBox="0 0 50 50" style="enable-background:new 0 0 50 50;" xml:space="preserve">
<rect x="19" y="39" style="opacity:0.2;fill:#231F20;" width="12" height="4"/>
<rect x="33" y="39" style="opacity:0.2;fill:#231F20;" width="12" height="4"/>
<rect x="5" y="39" style="opacity:0.2;fill:#231F20;" width="12" height="4"/>
<rect x="19" y="34" style="opacity:0.2;fill:#231F20;" width="12" height="4"/>
<rect x="33" y="34" style="opacity:0.2;fill:#231F20;" width="12" height="4"/>
<rect x="5" y="34" style="opacity:0.2;fill:#231F20;" width="12" height="4"/>
<rect x="19" y="29" style="opacity:0.2;fill:#231F20;" width="12" height="4"/>
<rect x="33" y="29" style="opacity:0.2;fill:#231F20;" width="12" height="4"/>
<rect x="5" y="29" style="opacity:0.2;fill:#231F20;" width="12" height="4"/>
<rect x="19" y="24" style="opacity:0.2;fill:#231F20;" width="12" height="4"/>
<rect x="33" y="24" style="opacity:0.2;fill:#231F20;" width="12" height="4"/>
<rect x="19" y="19" style="opacity:0.2;fill:#231F20;" width="12" height="4"/>
<rect x="19" y="14" style="opacity:0.2;fill:#231F20;" width="12" height="4"/>
<rect x="19" y="9" style="opacity:0.2;fill:#231F20;" width="12" height="4"/>
<rect x="19" y="37" style="fill:#C75C5C;" width="12" height="4"/>
<rect x="33" y="37" style="fill:#C75C5C;" width="12" height="4"/>
<rect x="5" y="37" style="fill:#C75C5C;" width="12" height="4"/>
<rect x="19" y="32" style="fill:#E0995E;" width="12" height="4"/>
<rect x="33" y="32" style="fill:#E0995E;" width="12" height="4"/>
<rect x="5" y="32" style="fill:#E0995E;" width="12" height="4"/>
<rect x="19" y="27" style="fill:#E0995E;" width="12" height="4"/>
<rect x="33" y="27" style="fill:#E0995E;" width="12" height="4"/>
<rect x="5" y="27" style="fill:#E0995E;" width="12" height="4"/>
<rect x="19" y="22" style="fill:#F5CF87;" width="12" height="4"/>
<rect x="33" y="22" style="fill:#F5CF87;" width="12" height="4"/>
<rect x="19" y="17" style="fill:#F5CF87;" width="12" height="4"/>
<rect x="19" y="12" style="fill:#76C2AF;" width="12" height="4"/>
<rect x="19" y="7" style="fill:#76C2AF;" width="12" height="4"/>
</svg>
