<?xml version="1.0" encoding="iso-8859-1"?>
<!-- Generator: Adobe Illustrator 16.0.0, SVG Export Plug-In . SVG Version: 6.00 Build 0)  -->
<!DOCTYPE svg PUBLIC "-//W3C//DTD SVG 1.1//EN" "http://www.w3.org/Graphics/SVG/1.1/DTD/svg11.dtd">
<svg version="1.1" id="Layer_1" xmlns="http://www.w3.org/2000/svg" xmlns:xlink="http://www.w3.org/1999/xlink" x="0px" y="0px"
	 width="50px" height="50px" viewBox="0 0 50 50" style="enable-background:new 0 0 50 50;" xml:space="preserve">
<g>
	<g style="opacity:0.2;">
		<path style="fill:#231F20;" d="M23,50c-1.104,0-2-0.896-2-2V4c0-1.104,0.896-2,2-2s2,0.896,2,2v44C25,49.104,24.104,50,23,50z"/>
	</g>
	
		<line style="fill:none;stroke:#F5CF87;stroke-width:4;stroke-linecap:round;stroke-miterlimit:10;" x1="23" y1="2" x2="23" y2="46"/>
	<path style="opacity:0.2;fill:#231F20;" d="M9.485,6C9.069,6,8.481,6.246,8.178,6.547l-4.95,4.906
		c-0.303,0.301-0.303,0.793,0,1.094l4.95,4.906C8.481,17.754,9.069,18,9.485,18h20.759C30.66,18,31,17.641,31,17.201V6.799
		C31,6.359,30.66,6,30.244,6H9.485z"/>
	<path style="opacity:0.2;fill:#231F20;" d="M40.515,32c0.416,0,1.004-0.246,1.308-0.547l4.95-4.906
		c0.303-0.301,0.303-0.793,0-1.094l-4.95-4.906C41.519,20.246,40.931,20,40.515,20H15.756C15.34,20,15,20.359,15,20.799v10.401
		C15,31.641,15.34,32,15.756,32H40.515z"/>
	<path style="fill:#4F5D73;" d="M9.485,4C9.069,4,8.481,4.246,8.178,4.547l-4.95,4.906c-0.303,0.301-0.303,0.793,0,1.094l4.95,4.906
		C8.481,15.754,9.069,16,9.485,16h20.759C30.66,16,31,15.641,31,15.201V4.799C31,4.359,30.66,4,30.244,4H9.485z"/>
	<path style="fill:#FFFFFF;" d="M40.515,30c0.416,0,1.004-0.246,1.308-0.547l4.95-4.906c0.303-0.301,0.303-0.793,0-1.094
		l-4.95-4.906C41.519,18.246,40.931,18,40.515,18H15.756C15.34,18,15,18.359,15,18.799v10.401C15,29.641,15.34,30,15.756,30H40.515z
		"/>
</g>
</svg>
