<?xml version="1.0" encoding="iso-8859-1"?>
<!-- Generator: Adobe Illustrator 16.0.0, SVG Export Plug-In . SVG Version: 6.00 Build 0)  -->
<!DOCTYPE svg PUBLIC "-//W3C//DTD SVG 1.1//EN" "http://www.w3.org/Graphics/SVG/1.1/DTD/svg11.dtd">
<svg version="1.1" id="Layer_1" xmlns="http://www.w3.org/2000/svg" xmlns:xlink="http://www.w3.org/1999/xlink" x="0px" y="0px"
	 width="50px" height="50px" viewBox="0 0 50 50" style="enable-background:new 0 0 50 50;" xml:space="preserve">
<g>
	<g>
		<g>
			<path style="fill:#E0E0D1;" d="M40.719,33.586c0.229-0.369,0.603-0.614,1.015-0.741c0.425-0.117,0.929-0.096,1.398,0.118
				l2.545,1.168c0.469,0.214,0.798,0.614,0.941,1.108c0.158,0.5,0.086,1.071-0.223,1.58c-0.3,0.513-0.75,0.869-1.23,1.008
				c-0.504,0.124-1.021,0.042-1.444-0.252l-2.302-1.594c-0.423-0.294-0.695-0.714-0.805-1.135
				C40.484,34.409,40.498,33.959,40.719,33.586z"/>
		</g>
	</g>
	<g>
		<g>
			<path style="fill:#E0E0D1;" d="M9.446,33.788c0.461,0.72,0.138,1.813-0.67,2.408l-2.283,1.622
				c-0.853,0.626-2.043,0.295-2.681-0.723c-0.611-1.033-0.238-2.279,0.686-2.699l2.529-1.201C7.979,32.76,9.009,33.055,9.446,33.788
				z"/>
		</g>
	</g>
	<g>
		<g>
			<path style="fill:#E0E0D1;" d="M6.97,24.782c0.006,0.854-0.735,1.633-1.774,1.745l-2.788,0.259
				c-1.01,0.112-1.962-0.77-1.971-1.969c0.031-1.2,0.902-2.091,1.928-1.991l2.791,0.226C6.182,23.151,7.001,23.926,6.97,24.782z"/>
		</g>
	</g>
	<g>
		<g>
			<path style="fill:#E0E0D1;" d="M9.335,15.739c-0.229,0.368-0.603,0.613-1.015,0.74c-0.425,0.117-0.929,0.096-1.398-0.119
				l-2.545-1.167c-0.469-0.214-0.798-0.614-0.941-1.108c-0.157-0.5-0.086-1.071,0.223-1.58c0.3-0.513,0.75-0.869,1.23-1.008
				c0.504-0.124,1.021-0.042,1.444,0.252l2.303,1.594c0.423,0.294,0.695,0.714,0.804,1.135C9.571,14.915,9.557,15.365,9.335,15.739z
				"/>
		</g>
	</g>
	<g>
		<g>
			<path style="fill:#E0E0D1;" d="M15.901,9.08c-0.72,0.462-1.814,0.139-2.409-0.67l-1.622-2.282
				c-0.626-0.854-0.295-2.044,0.723-2.682c1.033-0.611,2.279-0.237,2.699,0.687l1.202,2.528C16.93,7.613,16.635,8.644,15.901,9.08z"
				/>
		</g>
	</g>
	<g>
		<g>
			<path style="fill:#E0E0D1;" d="M24.908,6.605c-0.854,0.005-1.633-0.735-1.746-1.774l-0.259-2.788
				c-0.111-1.01,0.77-1.962,1.969-1.972c1.2,0.031,2.091,0.902,1.992,1.928L26.638,4.79C26.538,5.816,25.763,6.637,24.908,6.605z"/>
		</g>
	</g>
	<g>
		<g>
			<path style="fill:#E0E0D1;" d="M33.951,8.971c-0.369-0.23-0.614-0.604-0.74-1.016c-0.118-0.425-0.096-0.929,0.118-1.397
				l1.167-2.545c0.214-0.469,0.614-0.799,1.108-0.942c0.5-0.157,1.072-0.086,1.58,0.223c0.512,0.301,0.87,0.75,1.007,1.23
				c0.125,0.505,0.042,1.021-0.251,1.444l-1.594,2.303c-0.294,0.423-0.713,0.695-1.135,0.804
				C34.774,9.206,34.324,9.191,33.951,8.971z"/>
		</g>
	</g>
	<g>
		<g>
			<path style="fill:#E0E0D1;" d="M40.609,15.536c-0.461-0.72-0.138-1.813,0.671-2.408l2.282-1.622
				c0.853-0.626,2.043-0.295,2.681,0.723c0.611,1.033,0.238,2.279-0.686,2.699l-2.529,1.201
				C42.076,16.564,41.046,16.27,40.609,15.536z"/>
		</g>
	</g>
	<g>
		<g>
			<path style="fill:#E0E0D1;" d="M43.084,24.543c-0.006-0.854,0.735-1.634,1.774-1.746l2.788-0.259
				c1.01-0.112,1.962,0.77,1.971,1.969c-0.031,1.2-0.902,2.091-1.928,1.991l-2.791-0.226C43.873,26.173,43.053,25.398,43.084,24.543
				z"/>
		</g>
	</g>
</g>
<g style="opacity:0.2;">
	<path style="fill:#231F20;" d="M34.632,17.367c-0.412-0.412-1.06-0.484-1.545-0.177l-4.652,2.904l-3.107,1.938l-0.001,0.001
		C25.217,22.025,25.112,22,25,22c-2.761,0-5,2.238-5,5c0,0.112,0.026,0.218,0.033,0.329c0.165,2.495,2.145,4.474,4.64,4.638
		C24.783,31.975,24.888,32,25,32c2.761,0,5-2.238,5-5c0-0.112-0.026-0.217-0.033-0.327h0l1.938-3.105l2.905-4.655
		C35.12,18.418,35.047,17.777,34.632,17.367z"/>
</g>
<g>
	<path style="fill:#C75C5C;" d="M34.632,15.367c-0.412-0.412-1.06-0.484-1.545-0.177l-4.652,2.904l-3.107,1.938l-0.001,0.001
		C25.217,20.025,25.112,20,25,20c-2.761,0-5,2.238-5,5c0,0.112,0.026,0.218,0.033,0.329c0.165,2.495,2.145,4.474,4.64,4.638
		C24.783,29.975,24.888,30,25,30c2.761,0,5-2.238,5-5c0-0.112-0.026-0.217-0.033-0.327h0l1.938-3.105l2.905-4.655
		C35.12,16.418,35.047,15.777,34.632,15.367z"/>
</g>
<g>
	<circle style="fill:#FFFFFF;" cx="25" cy="25" r="5"/>
</g>
<g>
	<path style="fill:#F5CF87;" d="M33,42c0,1.657-1.343,3-3,3H20c-1.657,0-3-1.343-3-3v-2c0-1.657,1.343-3,3-3h10c1.657,0,3,1.343,3,3
		V42z"/>
</g>
</svg>
