<?xml version="1.0" encoding="iso-8859-1"?>
<!-- Generator: Adobe Illustrator 16.0.0, SVG Export Plug-In . SVG Version: 6.00 Build 0)  -->
<!DOCTYPE svg PUBLIC "-//W3C//DTD SVG 1.1//EN" "http://www.w3.org/Graphics/SVG/1.1/DTD/svg11.dtd">
<svg version="1.1" id="Layer_1" xmlns="http://www.w3.org/2000/svg" xmlns:xlink="http://www.w3.org/1999/xlink" x="0px" y="0px"
	 width="50px" height="50px" viewBox="0 0 50 50" style="enable-background:new 0 0 50 50;" xml:space="preserve">
<g style="opacity:0.2;">
	<path style="fill:#231F20;" d="M31.997,37h-10c-1.104,0-1,0.895-1,1.999s1.896,1.999,3,1.999h6c1.104,0,3-0.895,3-1.999
		S33.102,37,31.997,37z"/>
	<path style="fill:#231F20;" d="M27,15c-5.121,0-9.83,0.797-13.568,2.131C11.046,15.814,8.066,15,5.813,15H0
		c-1.102,0.36,3.43,5.452,5.807,7.318C5.285,23.172,5,24.071,5,25c0,0.825,0.224,1.625,0.639,2.392
		C3.499,28.387,2.057,31.082,0.183,33L0.15,33.237c-0.684,0.904-0.235,1.644,0.997,1.644L6.183,35c0.585,0,3.362-1.256,5.972-2.621
		C16.067,34.006,21.277,35,27,35c12.15,0,22-4.477,22-10S39.15,15,27,15z"/>
</g>
<path style="fill:#4F5D73;" d="M32.997,36.999c0,1.104-1.896,1.999-3,1.999h-6c-1.104,0-3-0.895-3-1.999l0,0
	c0-1.104-0.104-1.999,1-1.999h10C33.102,35,32.997,35.895,32.997,36.999L32.997,36.999z"/>
<path style="fill:#C75C5C;" d="M7,21c-1.231,0-8.351-7.559-7-8h5.813C9,13,13.662,14.607,16,17l-2.968,0.237
	c0.684,0.904,0.234,1.644-0.997,1.644L7,21z"/>
<path style="fill:#C75C5C;" d="M6.183,33C7.414,33,18.351,27.441,17,27l-9.631-2c-3.187,0-4.849,3.607-7.187,6L0.15,31.237
	c-0.684,0.904-0.235,1.644,0.997,1.644L6.183,33z"/>
<ellipse style="fill:#FFFFFF;" cx="27" cy="23" rx="22" ry="10"/>
<path style="opacity:0.2;fill:#231F20;" d="M0.448,24.896c-0.8,0-1.448,0.076-1.448-0.724l0,0c0-0.8,0.648-0.724,1.448-0.724
	L12.03,22c0.8,0,2.896,1.372,2.896,2.172l0,0c0,0.799-2.096,2.171-2.896,2.171L0.448,24.896z"/>
<path style="fill:#C75C5C;" d="M0,24c-0.8,0-1-0.372-1-1.172l0,0C-1,22.029-0.8,22,0,22l12.03-1c0.8,0,2.97,1.2,2.97,2h-0.074
	c0,0.8-2.096,2-2.896,2L0,24z"/>
</svg>
