<?xml version="1.0" encoding="iso-8859-1"?>
<!-- Generator: Adobe Illustrator 16.0.0, SVG Export Plug-In . SVG Version: 6.00 Build 0)  -->
<!DOCTYPE svg PUBLIC "-//W3C//DTD SVG 1.1//EN" "http://www.w3.org/Graphics/SVG/1.1/DTD/svg11.dtd">
<svg version="1.1" id="Layer_1" xmlns="http://www.w3.org/2000/svg" xmlns:xlink="http://www.w3.org/1999/xlink" x="0px" y="0px"
	 width="50px" height="50px" viewBox="0 0 50 50" style="enable-background:new 0 0 50 50;" xml:space="preserve">
<path style="opacity:0.2;fill:#231F20;" d="M42.768,41.383l-5.313-5.313c-0.057-0.056-0.121-0.098-0.181-0.147
	C39.601,32.889,41,29.109,41,25c0-9.925-8.075-18-18-18S5,15.075,5,25c0,9.925,8.075,18,18,18c4.033,0,7.748-1.35,10.753-3.599
	c0.055,0.068,0.104,0.141,0.166,0.204l5.313,5.313C39.72,45.406,40.36,45.65,41,45.65s1.279-0.244,1.768-0.732
	C43.744,43.942,43.744,42.359,42.768,41.383z M23,39c-7.732,0-14-6.268-14-14c0-7.732,6.268-14,14-14s14,6.268,14,14
	C37,32.732,30.732,39,23,39z"/>
<g style="opacity:0.2;">
	<path style="fill:#231F20;" d="M23,33.5c-1.104,0-2-0.896-2-2v-13c0-1.104,0.896-2,2-2s2,0.896,2,2v13
		C25,32.604,24.104,33.5,23,33.5z"/>
</g>
<g style="opacity:0.2;">
	<path style="fill:#231F20;" d="M29.5,27h-13c-1.104,0-2-0.896-2-2s0.896-2,2-2h13c1.104,0,2,0.896,2,2S30.604,27,29.5,27z"/>
</g>
<g>
	<path style="fill:#4F5D73;" d="M41,43.65c-0.64,0-1.28-0.244-1.768-0.732l-5.313-5.313c-0.976-0.976-0.976-2.559,0-3.535
		c0.976-0.977,2.56-0.977,3.536,0l5.313,5.313c0.977,0.976,0.977,2.559,0,3.535C42.279,43.406,41.64,43.65,41,43.65z"/>
</g>
<g>
	<path style="fill:#4F5D73;" d="M23,9c7.732,0,14,6.268,14,14s-6.268,14-14,14S9,30.732,9,23S15.268,9,23,9 M23,5
		C13.075,5,5,13.075,5,23s8.075,18,18,18s18-8.075,18-18S32.925,5,23,5L23,5z"/>
</g>
<g>
	<path style="fill:#FFFFFF;" d="M23,31.5c-1.104,0-2-0.896-2-2v-13c0-1.104,0.896-2,2-2s2,0.896,2,2v13
		C25,30.604,24.104,31.5,23,31.5z"/>
</g>
<g>
	<path style="fill:#FFFFFF;" d="M29.5,25h-13c-1.104,0-2-0.896-2-2s0.896-2,2-2h13c1.104,0,2,0.896,2,2S30.604,25,29.5,25z"/>
</g>
</svg>
